<?xml version="1.0" encoding="utf-8"?>
<!-- Generator: Adobe Illustrator 23.0.3, SVG Export Plug-In . SVG Version: 6.00 Build 0)  -->
<svg version="1.1" id="Layer_1" xmlns="http://www.w3.org/2000/svg" xmlns:xlink="http://www.w3.org/1999/xlink" x="0px" y="0px"
	 viewBox="0 0 1600 221.1" style="enable-background:new 0 0 1600 221.1;" xml:space="preserve">
<style type="text/css">
	.st0{fill:#F9E75E;}
	.st1{fill:#FF5F5F;}
	.st2{fill:#333366;}
	.st3{fill:#E8E8E8;}
	.st4{fill:#F4EAB3;}
	.st5{fill:#3F3F3F;}
	.st6{fill:none;stroke:#FF5F5F;stroke-miterlimit:10;}
	.st7{fill:#FFFFFF;}
</style>
<g id="Face">
	<rect x="744" y="0.4" class="st0" width="119.8" height="99.4"/>
</g>
<rect y="126.4" class="st1" width="1600" height="127.6"/>
<g id="Beard_BG_Color">
	<path class="st0" d="M861.8,21.9c2.4-3.9,2.7-5.4,4.3-3.8c1.6,1.6,1.9,9.1,0.7,11.7s-2.6,11.4-4.7,13.4
		C864.5,38.1,861.8,21.9,861.8,21.9z"/>
	<path class="st0" d="M745.6,21.5c-2.4-3.9-1.1-5-2.7-3.4s-1,8.9-0.7,11.7c0.7,6.7,1.9,8.6,3,13.1C744.4,37.3,745.6,21.5,745.6,21.5
		z"/>
	<path class="st2" d="M746.5,16c0,0-0.8,19.7-0.7,23.3s1.1,19.8,2.2,21c0.7-5,3.4-8.3,4.8-10.4c-0.1,7,0.3,22.3,2.6,25.3
		c1.5-3.5,2.8-3.8,4.2-3.7c-0.5,4.3,4.4,12.6,4.4,12.6l-30.7,73.2c-6.7,22.6-20.4,28.6-38.6,26.1c-17.8-2.5-17.3-18.9-15.7-20.7
		c-9.3,11.2-36.8,26.3-70.7,21.6s-39.9-31.8-62.3-57.9c-2.7,0-43.4,0-43.4,0S530.9,92,552,93.4c4.2-4.6,16.1-9.6,24.5-9.1
		s13.3,8,15.6,10.1c1.6-5.8,17.4-21.1,24.7-20c4-6.7,20.6-21.7,39.6-22.6s35.9,26.5,51.7,26.8s25.4-12.6,27.7-20.8
		s6.1-22.5,7.2-26.6c1.2-4.1,1-18.2,1-18.2l2.5-0.2L746.5,16z"/>
	<path class="st2" d="M838.6,83.2c1.7-8.7,2.4-17.6,0-27.2c5,7,8.7,13.5,9.4,18.6c0.7-5,0.7-9.7-1.2-13.6c2.9,0.8,5.9,1.7,7.3,4
		c1.3-5.2,1.3-10.2-0.4-15.1c2.9,2.3,5.1,5.2,5.7,9.8c0.2-5.8,0.1-11.6-0.9-17.7c1.3,2.4,2.1,4.8,2,7.1c2.9-8.1,1.2-20.8,0.6-33.7
		l3.6-0.2c0,0-0.6,9.9,0,13.6s4,8.9,4.8,12.8c0.8,3.9,1.6,12.2,2.7,14.7c1.1,2.5,9.7,10.2,15.3,9.4s9.4-7.8,10.3-11.9
		s-0.4-11.7-0.4-11.7s6.6,8.3,7.1,12.2c0.5,3.9-1,9.1-1,9.1c15.6-12.5,28.1-30,58.2-19.1c34.4-28,62.8,13.2,80.5,15.6
		c7.5,1,15.5-0.2,20.6-5.2s8-9.9,7.9-15c0.4-7.4-3.3-11.1-10.1-12.6c9.7-2.5,17,8.2,16.9,10.9c0.7-4.1-2.4-10.3-12.9-12.9
		c14.8-1.5,20.6,5.8,22.1,15.7c1.6,9.9-1.2,17.2-5,23.4c-4.8,7.9-36.4,54.5-44.2,61.8c-5.9,5.6-25.6,13.3-64.5,14
		c-35.6,0.6-68.2-12.3-68.2-12.3l-61.5-32.6L838.6,83.2z"/>
	<path class="st2" d="M768.7,87.1l66,2.1l55.7,1.7c11.6,16.3,26.2,33.6,28.3,43.3s-0.4,17.7-7.3,23.5c1-6.8,1.1-13.3-2.7-18
		c-1.8,16.3-9.3,24.1-19,28.9c2.1-3.1,2.6-6-0.2-8.2c-2.3,7.1-5.5,12-10.1,13.8c0.5-1.9,0.9-3.6-1-4.6c0,0-10.1,17.7-20.5,19.9
		c4.7-4.1,10.1-14.5,9.8-26.4c-3.3,9-35.4,54-67.6,52.5c15.8-3.4,20.9-15.6,25-20.8c-12.9,2.5-16.3-11.2-16.3-11.2
		c-2.7,11.6-8.3,22.2-17.6,31.4c1.1-3.1,1.5-6,0-8.2c-2.5,4.2-5.2,7.9-8.8,9.2c0.5-0.9,1.6-2.8,1.5-4.6c-1.7,1.3-5.5,3.1-8.2,3.3
		c2.3-2.7,4.7-5.5,4.7-9.3c0-3.8-0.9-9.1-4.3-13.1c-1.1,5.4-0.7,10.5,0.6,15.5c-4.5-3.2-7.1-9.2-7.5-18.9
		c-1.6,6.6-1.2,12.2,0.6,17.2c-2.7-3.9-4.8-8.9-6.3-15.3c0,5.9,0.6,11.3,2.5,15.7c-6.7-9.3-13.5-18.7-12.3-29.3
		c-2.7,2.8-3.2,9-3.3,15.9c-3.1-6.4-5.6-13.1-6.3-21.1c-2.1,4.3-1.7,10.3-0.8,16.6c-5.5-8.9-10.1-17.4-12.6-25.3l5.4-59.1
		L768.7,87.1z"/>
	<path class="st2" d="M998.3,124.5c0,0,22.7-0.5,38.9,1.8c13.5,1.9,8.8,31.9-3.6,35.9c3.1,2,6.8,1.7,9.3,1c-1.2,1.9-1.1,2.4-0.6,3.5
		c2.2,5.5,7.7,12.8,25.1,6.1c17.7-6.9,29.1-23.7,29.8-58.1s-19.2-45.6-19.2-45.6L998.3,124.5z"/>
	<path class="st2" d="M915,130c0,0,11.8,12.8,27.1,11.2c-10.6-6.4-3.7-11-3.7-11L915,130z"/>
	<path class="st2" d="M1062.8,174.4c0.6-1.4,15.1-10.8,15.1-10.8s8.8,16-0.5,25.8C1078.1,177.3,1065.2,173.3,1062.8,174.4z"/>
	<polygon class="st2" points="744.2,12.5 746.6,12.6 747.5,0.4 743.7,0.4 	"/>
	<polygon class="st2" points="860.3,13.1 864.4,13 865.2,0.4 859.9,0.4 	"/>
</g>
<g id="Beard_Details">
	<path class="st1" d="M958.2,76.1c-6.3-0.9-11-1.1-15.4,4.1C946.6,77.3,950.4,76.8,958.2,76.1z"/>
	<path class="st1" d="M743.8,32.9c0.1,3.8-1,12.9-3.1,15C742,45.4,743,37.3,743.8,32.9z"/>
	<path class="st1" d="M748.2,60.7c0,3.8-1.3,12.9-3.4,15C746.1,73.2,747.3,65.1,748.2,60.7z"/>
	<path class="st1" d="M638.8,80.5c2.1-2.6,5.9-5.4,9.1-5.2C645,76.1,642.2,78,638.8,80.5z"/>
	<path class="st1" d="M802.3,107.3c0.2,3.3-2,10.2-4.5,12.2C799.5,117,801.5,111.5,802.3,107.3z"/>
	<path class="st1" d="M918.6,100.7c1.6,3.4,8,8.9,12,9.5C927.3,108.6,921.8,104.3,918.6,100.7z"/>
	<path class="st1" d="M902.4,87.8c3.4,1.4,11.5,1.6,14.7-0.4C913.7,88.3,907,88.5,902.4,87.8z"/>
	<path class="st1" d="M974.4,67.6c-3.5-1.2-11.6-0.9-14.6,1.3C963,67.8,969.7,67.2,974.4,67.6z"/>
	<path class="st1" d="M1000.3,44.3c-1.8-3.2-8.1-8.4-11.8-8.8C991.7,36.9,997,40.9,1000.3,44.3z"/>
	<path class="st1" d="M1075.9,38.5c-1.4-3.4-5.8-9.6-9.5-10.4C1069.4,29.8,1073,34.8,1075.9,38.5z"/>
	<path class="st1" d="M647,88.2c3.9-2,10.1-3.5,13.8-1.6C656.9,85.9,652.5,86.9,647,88.2z"/>
	<path class="st1" d="M680.5,138.1c2.3-3.8,6.8-8.2,11-8.6C687.8,131,684.5,134.1,680.5,138.1z"/>
	<path class="st1" d="M695.1,144.5c5-0.9,10.6,1.3,13.1,4.7C705,146.9,700.4,144.9,695.1,144.5z"/>
	<path class="st1" d="M797.6,113.2c2.7-4.3,2.7-10.3,0.5-13.9C799,103.2,799.2,108.1,797.6,113.2z"/>
	<path class="st1" d="M750.8,162.7c-3.3,3.8-4.3,9.8-2.7,13.7C747.8,172.4,748.4,167.5,750.8,162.7z"/>
	<path class="st1" d="M734.9,152.5c-3.3,3.8-4.3,9.8-2.7,13.7C731.9,162.2,732.5,157.3,734.9,152.5z"/>
	<path class="st1" d="M678.9,110.4c-4,1.9-10.2,3.2-13.9,1.2C668.9,112.3,673.4,111.5,678.9,110.4z"/>
	<path class="st1" d="M711.1,150.6c2.6,3.6,5,9.4,3.7,13.4C714.8,160,713.2,155.8,711.1,150.6z"/>
	<path class="st1" d="M721.5,148.3c-1.1-4.3,2.2-18.6,4.8-21.9C724.9,130.1,721.5,142.6,721.5,148.3z"/>
	<path class="st1" d="M766.8,195c-1.9-4-2.5-12.4-0.5-16.1C765.5,182.8,765.6,189.5,766.8,195z"/>
	<path class="st1" d="M690.8,125.1c4.4-0.1,10.5-1.7,13-5.2C700.6,122.4,696.3,123.7,690.8,125.1z"/>
	<path class="st1" d="M647.5,63.9c3.1-1.3,7.8-2,10.5-0.3C655,62.8,651.7,63.3,647.5,63.9z"/>
	<path class="st1" d="M616.9,74.4c1.5-3,4.5-6.7,7.6-7.3C621.8,68.5,619.6,71.1,616.9,74.4z"/>
	<path class="st1" d="M702.2,80.7c-3.8,0.6-19.8-0.8-25.2-3.4C686,78.5,698,80.4,702.2,80.7z"/>
	<path class="st1" d="M574.6,143.7c-3.6-1.3-23-16.5-26.5-21.4C555.3,127.8,571.1,141.4,574.6,143.7z"/>
	<path class="st1" d="M745.5,138.8c0.7,3.7-0.7,23.4-3.2,28.9C743.4,158.6,745.3,143,745.5,138.8z"/>
	<path class="st1" d="M794.8,97.2c1.1,5.1,0.2,19.3-4,22C792.7,116.6,795,100.8,794.8,97.2z"/>
	<path class="st1" d="M787.1,95.8c-0.7,5.3-5.2,13.7-1.5,19.2C785.6,110,787.4,102.5,787.1,95.8z"/>
	<path class="st1" d="M799,150c-4.8-21.5,10.4-43.6,7.3-48.9C807.8,108.2,790.2,137.7,799,150z"/>
	<path class="st1" d="M650.4,59.9c-6.9-0.7-22.1,5.6-24.3,11.9C631.1,66,643.4,60.7,650.4,59.9z"/>
	<path class="st1" d="M817.3,144.5c3.5-2.8,3.4-19.4-3.7-27.4C817.9,123.4,818.4,137.6,817.3,144.5z"/>
	<path class="st1" d="M780,116.3c-4.1,1.9-8,18-3.1,27.5C774.3,136.6,777.3,122.7,780,116.3z"/>
	<path class="st1" d="M650.8,84.6c10.3-4.9,11.8-6.9,21.7-6.9C664.9,75.4,656,80.5,650.8,84.6z"/>
	<path class="st1" d="M707.3,122.7c8.7-9.7,11.2-15.2,17-20C717.1,106.7,710.1,118.2,707.3,122.7z"/>
	<path class="st1" d="M728.3,164.3c3.8-12.5,3.8-18.4,7.1-25.3C730.5,145.6,729,159,728.3,164.3z"/>
	<path class="st1" d="M726.4,87.4c-11.2,2.6-13,4.2-22.7,2.1C710.6,93.3,720.4,90.2,726.4,87.4z"/>
	<path class="st1" d="M840.4,134.3c3.3,11,5,12.7,3.5,22.5C847.3,149.8,843.6,140.1,840.4,134.3z"/>
	<path class="st1" d="M642.2,58.3c6.1-4,26.2-5.5,30.7,1.6C665.3,55.3,650.2,54.5,642.2,58.3z"/>
	<path class="st1" d="M653.1,157.5c-6.3,3.6-26.4,4-30.6-3.3C629.8,159.2,645,160.8,653.1,157.5z"/>
	<path class="st1" d="M795.6,114.6c1.5,7.2-5.2,27.8-13.4,29.6C789.2,138.8,796.2,123.4,795.6,114.6z"/>
	<path class="st1" d="M572.8,119.1c-0.4-8.4-10.7-23.7-19-25C561,99.2,571,110.3,572.8,119.1z"/>
	<path class="st1" d="M811.6,96.4c0.7,7.4,3,18.3,8.9,22.2C816.6,113.6,813.7,102.7,811.6,96.4z"/>
	<path class="st1" d="M875.1,75.1c4.8,5.7,13,13.2,20.1,13C888.9,86.4,880,79.5,875.1,75.1z"/>
	<path class="st1" d="M759.5,164.3c-2.8,6.9-5.8,17.6-2.4,23.8C755.4,181.9,757.9,170.9,759.5,164.3z"/>
	<path class="st1" d="M647,71.2c8.4-6.1,21.1-1.8,28.3,1.2C667.8,70.1,658.3,66.5,647,71.2z"/>
	<path class="st1" d="M778.9,161c-4.8-9.3,1.4-21.1,5.4-27.8C781,140.2,776,149.1,778.9,161z"/>
	<path class="st1" d="M530.5,118.2c10.4,0,18.7,11,22.8,17.7C548.6,129.7,542.4,121.1,530.5,118.2z"/>
	<path class="st1" d="M818.2,92.9c3.6,6.6,6.8,19.8,14,24C827.5,111.8,824.3,98.9,818.2,92.9z"/>
	<path class="st1" d="M762.4,158.7c-0.5,8.6-3.5,29.2-0.7,37.9C760.4,189.2,764.5,167.9,762.4,158.7z"/>
	<path class="st1" d="M782.5,93.1c-2.7,7-4.8,21.3-9.3,25.9C775.4,114.8,777.2,99.8,782.5,93.1z"/>
	<path class="st1" d="M667.6,82.2c11-2.4,27.3,8.7,32.1,9.7C693.3,92.8,686.5,82.9,667.6,82.2z"/>
	<path class="st1" d="M793.9,152.2c5.3,9.9-1.1,28.7-0.8,33.5C790.5,179.9,798.2,170.7,793.9,152.2z"/>
	<path class="st1" d="M576.1,98.1c8.1,7.8,7.9,27.6,9.7,32.1C581.5,125.4,586,114.3,576.1,98.1z"/>
	<path class="st1" d="M846.1,162.2c1.3,11.2-11.3,26.3-12.8,31C833,186.8,843.5,180.9,846.1,162.2z"/>
	<path class="st1" d="M664.9,65.2c15.1,1.2,21,9.8,29,11.5C684.3,73,678.4,64.5,664.9,65.2z"/>
	<path class="st1" d="M743.2,47.3c-4.1,14.6-12,21.8-15.3,29.3C733.4,67.9,741.2,60.7,743.2,47.3z"/>
	<path class="st1" d="M719.2,77.6c-10.8,4.8-17.2,8.1-24.4,7C700.5,86.6,708.1,86,719.2,77.6z"/>
	<path class="st1" d="M750.5,61.4c-1.3,11.8-1.6,19-6.1,24.6C749,82.1,752.3,75.3,750.5,61.4z"/>
	<path class="st1" d="M713.3,96.2c-11.8,0.7-19,1.7-25.3-1.9C692.6,98.2,699.9,100.3,713.3,96.2z"/>
	<path class="st1" d="M716.7,145.4c-1.5-12.2,3.6-25.9,7.2-32.2C720,117.8,712.8,132,716.7,145.4z"/>
	<path class="st1" d="M802.3,169.9c0.3,11.8,1,19-2.7,25.2C803.6,190.7,805.9,183.4,802.3,169.9z"/>
	<path class="st1" d="M520.4,121.2c10.1-6.2,15.9-10.4,23.2-10.3C537.7,109.6,530.2,111.3,520.4,121.2z"/>
	<path class="st1" d="M544.2,107.3c10,6.3,16.3,9.8,19.4,16.4C562.1,117.8,557.4,111.8,544.2,107.3z"/>
	<path class="st1" d="M617.3,90.9c3.7,7.3,4.8,9.4,12.4,13.1C621.8,98.8,619.1,93.5,617.3,90.9z"/>
	<path class="st1" d="M705,129c0.1,8.2,0.2,10.6,5.5,17.2C705.8,138.1,705.6,132.1,705,129z"/>
	<path class="st1" d="M721.5,166.8c3.7-7.3,4.7-9.5,3.2-17.8C725.1,158.5,722.5,163.8,721.5,166.8z"/>
	<path class="st1" d="M787.1,199.4c2.1-7.9,2.6-10.3-0.6-18.1C788.9,190.5,787.5,196.3,787.1,199.4z"/>
	<path class="st1" d="M785,137.4c3.6-7.4,4.6-9.5,3-17.8C788.5,129,785.9,134.4,785,137.4z"/>
	<path class="st1" d="M553,122.1c-6.3-5.3-8.2-6.8-16.6-7.1C545.7,116.7,550.3,120.4,553,122.1z"/>
	<path class="st1" d="M577.7,162.7c5.5,6.1,7.1,7.9,15.4,9.4C584.2,169.1,580.1,164.8,577.7,162.7z"/>
	<path class="st1" d="M564.2,113.1c2.2,7.7,3,10,10.4,15.9C567.3,121.7,565.6,116.1,564.2,113.1z"/>
	<path class="st1" d="M812.5,160.3c2.2-7.9,2.7-10.2-0.5-18.1C814.4,151.4,812.9,157.2,812.5,160.3z"/>
	<path class="st1" d="M682.4,174.3c0.8,3.7,9.7,10.2,21,8C694.9,183.7,684.8,178.6,682.4,174.3z"/>
	<path class="st1" d="M605.3,117.4c1.3,3,4.2,6.8,7.3,7.5C610,123.4,607.9,120.7,605.3,117.4z"/>
	<path class="st1" d="M629.9,97.1c1.9,4,9,8.8,13.2,9.5C639.6,104.7,633.5,101.4,629.9,97.1z"/>
	<path class="st1" d="M816.6,177.4c-0.4,4.4,3.3,12.1,6.5,14.9C821,188.9,817.5,183,816.6,177.4z"/>
	<path class="st1" d="M636.5,129.2c3.5,2.7,12,4,16,2.9C648.6,131.9,641.6,131.6,636.5,129.2z"/>
	<path class="st1" d="M679.1,117.1c3,1.4,7.7,2.2,10.5,0.7C686.6,118.4,683.3,117.8,679.1,117.1z"/>
	<path class="st1" d="M793.1,211c0.5-2,0.7-5.4-0.1-7.7c0,0,0.2-0.2,0.3-0.3C794.3,205.7,794.2,208.9,793.1,211z"/>
	<path class="st1" d="M696.5,147.7c-1.8-0.9-4.1-0.3-6.2,0.4c0,0-0.2-0.3-0.2-0.3C692.5,146.7,694.6,146.2,696.5,147.7z"/>
	<path class="st1" d="M782.2,181.4c-1.3,3-2.2,7.7-0.6,10.4C781,188.9,781.5,185.6,782.2,181.4z"/>
	<path class="st1" d="M795,208.7c2.3-2.4,6.1-9,5.6-12.1C800.2,199.5,797.2,205,795,208.7z"/>
	<path class="st1" d="M816.8,159.6c-1.5,3-2.6,7.6-1.1,10.4C815.2,167,815.9,163.7,816.8,159.6z"/>
	<path class="st1" d="M595.4,99.5c1.7,2.8,3.8,5.3,7,5.5C599.6,103.9,598.4,102.5,595.4,99.5z"/>
	<path class="st1" d="M818.5,169.6c0,3.3,2.1,10.4,4.7,12.3C821.3,179.5,819.5,173.7,818.5,169.6z"/>
	<path class="st1" d="M683.3,120.5c-3.7-0.9-19.8-0.9-25.4,1.1C666.9,121.2,679.1,120.4,683.3,120.5z"/>
	<path class="st1" d="M783.9,176.3c1.7,6.6,2.8,27.6-1.5,30.4C785.7,199,784.2,181.1,783.9,176.3z"/>
	<path class="st1" d="M702.6,180.7c6.4-1.5,7.3-1.3,12.6-4.6c3.8-2.4,7-5.5,9-8.7C717.3,175.3,712.4,178.2,702.6,180.7z"/>
	<path class="st1" d="M711.9,174.9c3.9-5.4,4.7-5.8,6.5-11.7c1.4-4.3,1.7-8.7,1.2-12.5C719.5,161.3,717.7,166.7,711.9,174.9z"/>
	<path class="st1" d="M851,182.8c3.7-2.4,12.6-17.9,10.6-25.2C860.3,168.4,853.8,180.4,851,182.8z"/>
	<path class="st1" d="M821.6,204.3c2.8-2.5,11.8-15.9,13.2-21.7C830.1,190.4,824,200.9,821.6,204.3z"/>
	<path class="st1" d="M635.6,95.4c-2-6.4-13.1-17.2-19.7-16.9C623.2,81,631.7,89.6,635.6,95.4z"/>
	<path class="st1" d="M778.8,183.1c4-5.4,7-21.6,2.9-26.8C783.9,163.7,781.1,176.5,778.8,183.1z"/>
	<path class="st1" d="M577.3,108.8c-2-6.4-13.1-17.2-19.7-16.9C564.8,94.5,573.3,103,577.3,108.8z"/>
	<path class="st1" d="M639,107.5c10.1,5.3,11.5,7.3,21.4,7.8C652.8,117.3,644.1,111.8,639,107.5z"/>
	<path class="st1" d="M811.7,167c1.4,11.4,0.5,13.6,5.8,22C811.6,183.9,811.1,173.6,811.7,167z"/>
	<path class="st1" d="M760.3,141.2c5.6-9.8,7.3-11,8.9-20.8C769.9,128,764.4,136.3,760.3,141.2z"/>
	<path class="st1" d="M626.8,116.4c6.4,8.2,26,8.1,33.7,7.2C652.8,123.7,636.4,124.1,626.8,116.4z"/>
	<path class="st1" d="M563,141.5c2.5,10.1,20.4,18,27.8,20.4C583.7,158.8,568.7,152.3,563,141.5z"/>
	<path class="st1" d="M588.1,118c-0.8,11.7,6.7,27.5,11.3,33.8C595.5,145.1,590,129.5,588.1,118z"/>
	<path class="st1" d="M807.1,114.3c-5.3,9.9,1.9,29.3,0.4,35.4C812,144.5,802.7,132.8,807.1,114.3z"/>
	<path class="st1" d="M768,113.4c-9.1,6.6-14.3,32-18.2,36.9C756,147.5,756,128.1,768,113.4z"/>
	<path class="st1" d="M648.6,127.7c14.9,3.1,22.9-3.6,31.1-3C669.4,125.5,661.4,132.1,648.6,127.7z"/>
	<path class="st1" d="M794.2,135.9c-5.5,14.2-0.2,23.2-2.1,31.1C793,156.8,787.8,147.8,794.2,135.9z"/>
	<path class="st1" d="M601.5,107.2c7.9,2.2,10.2,2.9,15.3,9.7C610.1,110.2,604.4,108.5,601.5,107.2z"/>
	<path class="st1" d="M839.9,188.1c-3.6,7.4-4.7,9.5-12.3,13.3C835.4,196.1,838.1,190.7,839.9,188.1z"/>
	<path class="st1" d="M782.4,117.9c0,3.5-0.7,12.3-2.9,14.6C780.8,129.9,781.3,122.3,782.4,117.9z"/>
	<path class="st1" d="M1033.1,78c-3.5,0.5-12.3,1.1-14.9-0.8C1021.1,78.1,1028.7,77.6,1033.1,78z"/>
	<path class="st1" d="M799.2,189.1c-1.3,4.4-1.5,13.3-3.5,15.9C796.8,202.2,797.2,192.6,799.2,189.1z"/>
	<path class="st1" d="M608,79.8c4.1,1.6,9.3,5.2,10.5,9.2C616.3,85.7,612.7,83,608,79.8z"/>
	<path class="st1" d="M652.1,106.7c-3.2-0.8-7.4-3-8.6-6C645.4,103,648.3,104.7,652.1,106.7z"/>
	<path class="st1" d="M513.6,121.3c1.4-3,4.3-6.8,7.4-7.4C518.4,115.4,516.2,118,513.6,121.3z"/>
	<g>
		<path class="st1" d="M539,125.7c1.6-2,1.3-1.7,2.8-3.1c-0.2-0.1-0.3-0.2-0.5-0.3C540.6,123.1,540,123.6,539,125.7z"/>
	</g>
	<path class="st1" d="M670,148.7c-1.8,2.8-5.4,6-9.1,6.1C664.1,153.8,666.8,151.6,670,148.7z"/>
	<path class="st1" d="M788.3,201.6c-0.2,3.3-1.5,7.9-4.2,9.6C786,208.9,787.1,205.6,788.3,201.6z"/>
	<path class="st1" d="M854.1,152.5c1.3,3,3.8,12.2,0.2,16.1C856.2,164.3,854.8,156.7,854.1,152.5z"/>
	<path class="st1" d="M698.6,100.7c-2,2.6-7.7,8.2-10.9,8.1C690.6,107.9,695.3,103.3,698.6,100.7z"/>
	<path class="st1" d="M835.1,120.1c2.4,2.3,5.1,6.3,4.7,9.4C839.3,126.6,837.4,123.6,835.1,120.1z"/>
	<path class="st1" d="M731.4,67.3c-1.6,3.5-11.7,16-16.8,19.1C720.6,79.6,728.8,70.6,731.4,67.3z"/>
	<path class="st1" d="M626.1,106.4c3.3,6.1,21.8,16,28.1,14.3C646.6,119.9,630.7,111.7,626.1,106.4z"/>
	<path class="st1" d="M709.3,114.4c-6.2,3-16.3,22.4-14.9,28.8C695.6,135.7,703.8,118.8,709.3,114.4z"/>
	<path class="st1" d="M606.3,163.5c5.3,4.4,26.2,6.8,31.4,2.8C630.3,168.4,612.5,166.6,606.3,163.5z"/>
	<path class="st1" d="M662.7,158.2c6.9-0.7,23.3-13.7,24.2-20.2C683.1,144.7,669.3,156,662.7,158.2z"/>
	<path class="st1" d="M720.3,111.2c-5.3,4.4-11.5,24.5-8.5,30.3C711.1,133.9,716.1,116.8,720.3,111.2z"/>
	<path class="st1" d="M791.3,206.5c4.8-4.9,9-25.5,5.4-31C798.2,183,795,200.6,791.3,206.5z"/>
	<path class="st1" d="M720.7,86.1c7.8-0.8,23.5-19.7,23.5-26.3C741.3,66.9,728.9,83,720.7,86.1z"/>
	<path class="st1" d="M591.1,157.1c0-7.8-17.2-25.4-23.7-26C574.2,134.6,589,148.6,591.1,157.1z"/>
	<path class="st1" d="M629.3,177c-4.3,2.6-26.2,1.1-29.4-2.9C604.8,176.9,624.6,178.5,629.3,177z"/>
	<path class="st1" d="M702.7,113.2c-9.2,6.8-11.8,11.2-21.6,13.1C689,127.1,698.3,118.2,702.7,113.2z"/>
	<path class="st1" d="M719.3,101c-3.9,6.2-27.6,17.6-34.7,13.1C693.5,115.1,713.6,107.8,719.3,101z"/>
	<path class="st1" d="M808.7,183.4c-4-6.1-5.5-26.2,1.6-30.7C804.6,162.7,805.9,169.9,808.7,183.4z"/>
	<path class="st1" d="M752.8,173.5c-0.4-6.1,5.7-27.9,12.1-31.2C759,152.9,752.5,167.7,752.8,173.5z"/>
	<path class="st1" d="M599.5,86.2c10.4,0.3,17.7,11.6,21.6,18.3C616.6,98.2,611.3,89.5,599.5,86.2z"/>
	<path class="st1" d="M742.5,145.5c-4.1-9.6,2.9-21,7.4-27.4C746,124.9,740.4,133.4,742.5,145.5z"/>
	<path class="st1" d="M737.1,77.8c-0.7,10.4-13.2,18.2-21.2,20.3C723.4,94.2,733.5,89.5,737.1,77.8z"/>
	<path class="st1" d="M772.4,200.1c-4.7-9.3,4.8-21,7.5-28.5C778,179.1,769.6,188.2,772.4,200.1z"/>
	<path class="st1" d="M569.4,86.3c10.2,2.4,15.1,14.8,17.6,22.2C583.8,101.4,580.3,91.8,569.4,86.3z"/>
	<path class="st1" d="M532.8,102c9.1-5.1,21.2,0.7,28,4.5C553.7,103.4,544.6,98.7,532.8,102z"/>
	<path class="st1" d="M600.1,94.3c10.6,3.7,14.6,18.5,24.2,24.5C614.5,116.2,614.3,104.2,600.1,94.3z"/>
	<path class="st1" d="M739.9,180.3c-5.3-9.9,1.8-23.5-1-34.4C744.2,154.4,736.2,163.3,739.9,180.3z"/>
	<path class="st1" d="M631,163.1c-10.7,3.3-22.8-6.2-34-5.4C606.4,154,613.6,163.6,631,163.1z"/>
	<path class="st1" d="M786.4,147c5.3,9.9-0.5,23.7,2.4,34.6C783.3,173.1,790.2,163.9,786.4,147z"/>
	<path class="st1" d="M600.2,135.1c-7.9-8-5.1-23-11-32.6C596.8,109.1,591.7,120,600.2,135.1z"/>
	<path class="st1" d="M571.1,107.8c9,6.7,7.5,22.3,14.8,30.9C577.4,133.3,581.7,121.6,571.1,107.8z"/>
	<path class="st1" d="M808.5,101.1c6.3,9.3,0.7,23.6,4.7,34.1C806.9,127.2,814,117.5,808.5,101.1z"/>
	<path class="st1" d="M804,138.7c3.5,10.7-5.8,22.9-4.8,34.1C795.4,163.5,804.8,156.1,804,138.7z"/>
	<path class="st1" d="M627,125.5c-14.9-3.1-19.6-12.3-27.3-15.1C608.7,115.3,613.5,124.5,627,125.5z"/>
	<path class="st1" d="M1066.1,88.1c7.3,10.8,11.9,14.6,15.2,21.5C1079.2,101.6,1069.8,91.9,1066.1,88.1z"/>
	<path class="st1" d="M603.2,118.8c0,0-0.7,0-0.9,0.1c-0.1-0.3-1.8-7.6-2.1-8C600.6,111,602.5,115.7,603.2,118.8z"/>
	<path class="st1" d="M531.1,126.4h1c1.4-2,3.4-3.6,6-5.9C534.4,123,532.6,124.2,531.1,126.4z"/>
	<path class="st1" d="M903.2,64.8C899,75,890.9,80.2,880.9,80.7C889.7,79.4,897.7,74,903.2,64.8z"/>
	<path class="st1" d="M870.2,82.5C865,78.3,859,64.1,861.6,58C861.4,65.7,866.3,76.7,870.2,82.5z"/>
	<path class="st1" d="M863.8,44.4c2.4,12.8,1.8,18.7,4.3,25.9C863.9,63.2,863.8,49.7,863.8,44.4z"/>
	<path class="st1" d="M868.1,44.9c-0.1,3.8,1,12.9,3.1,15C869.9,57.4,869,49.3,868.1,44.9z"/>
	<path class="st1" d="M857.1,59.2c0.2,3.8,2.1,12.8,4.3,14.7C860,71.5,858.3,63.5,857.1,59.2z"/>
	<path class="st1" d="M844.3,69.5c4.1,14.6,12,21.8,15.3,29.3C854.1,90.1,846.3,82.9,844.3,69.5z"/>
	<path class="st1" d="M850.4,69.2c3.6,11.3,5.4,18.3,11,22.9C856.1,89.2,851.5,83.1,850.4,69.2z"/>
	<path class="st1" d="M875.4,92.3c-7.8-0.8-23.5-19.7-23.5-26.3C854.7,73.2,867.2,89.3,875.4,92.3z"/>
	<path class="st1" d="M902,53.1c0.8,3.2,0.7,8-1.3,10.4C901.8,60.7,901.9,57.3,902,53.1z"/>
	<path class="st1" d="M872.4,58.7c0.8,6.9,10.6,14.8,16.5,10.2C882.4,71.1,874.7,65.3,872.4,58.7z"/>
	<path class="st1" d="M894.4,72.7c-10.3,5-16.1,3.7-21.1-1.9C877.9,79.7,889.2,76.9,894.4,72.7z"/>
	<path class="st1" d="M899.2,48.6c3.7,9.8-2.4,22.7-12,24.7C895.3,69.6,901.2,61,899.2,48.6z"/>
	<path class="st1" d="M878.5,90.9c-8.7-12.5-5.7-22.4-9.4-29.8C872.3,70.9,869.4,80.9,878.5,90.9z"/>
	<path class="st1" d="M913.2,79.8c0.3-4.1,3.1-13,8.3-16.4c-3.8,3.9-7.4,11.7-7.3,15.7C914.3,80.2,913.5,79,913.2,79.8z"/>
	<path class="st1" d="M965.6,46.4c2.3-3.5,6.9-6.4,13.1-6.7c-6.2,1.3-9.8,3.4-11.7,6.9C966.4,47.7,966.3,45.9,965.6,46.4z"/>
	<path class="st1" d="M894.4,105.1c9.7,3.8,12.8,16.8,14.2,24.5C906.5,122.2,904.4,112.1,894.4,105.1z"/>
	<path class="st1" d="M884.9,121.1c1.2,4.3,1.2,14.8-1.4,18.1C884.9,135.5,885.1,126.8,884.9,121.1z"/>
	<path class="st1" d="M989.4,130.6c-3.2,3-12.5,8-16.7,7.3C976.7,137.4,984.6,133.4,989.4,130.6z"/>
	<path class="st1" d="M966.8,123.6c-4.3,1.1-14.8,0.9-18.1-1.8C952.4,123.3,961.2,123.7,966.8,123.6z"/>
	<path class="st1" d="M1019.1,120.9c4.2-1.4,14.8-1.9,18.2,0.6C1033.5,120.3,1024.7,120.5,1019.1,120.9z"/>
	<path class="st1" d="M942.7,122.3c-4.2-1.2-13.3-6.6-14.8-10.6C930.4,114.9,937.8,119.6,942.7,122.3z"/>
	<path class="st1" d="M932.8,138.9c-4.2-1.3-13.1-7-14.5-11C920.6,131.1,927.9,136,932.8,138.9z"/>
	<path class="st1" d="M985.6,124.5c-3.3,2.9-12.7,7.7-16.9,6.8C972.7,130.9,980.6,127.2,985.6,124.5z"/>
	<path class="st1" d="M917.2,116.9c-10.3-8-15.9-10.1-21.1-15.7C900.6,108.2,912.6,114.5,917.2,116.9z"/>
	<path class="st1" d="M985.9,107.2c-2.1,2.6-5.9,5.4-9.1,5.3C979.8,111.7,982.5,109.7,985.9,107.2z"/>
	<path class="st1" d="M906.7,75.6c1.2-3.6,4.1-8.2,7.8-9.3C911.5,68.3,909.3,71.5,906.7,75.6z"/>
	<path class="st1" d="M983.5,130.5c2.7-2,14.6-8.7,21.6-5.8C996.8,123.4,987.4,128.9,983.5,130.5z"/>
	<path class="st1" d="M980.2,114.3c-2.8,1.7-15.4,7.2-22.1,3.7C966.2,120.1,976.1,115.5,980.2,114.3z"/>
	<path class="st1" d="M944.3,54.1c3.2-0.9,16.8-2.8,22.3,2.3C959.2,52.3,948.5,54,944.3,54.1z"/>
	<path class="st1" d="M1014.5,49.9c2.6,2.1,12,12,11,19.5C1024.7,61,1017,53.3,1014.5,49.9z"/>
	<path class="st1" d="M882.3,88c2.1,3,6.1,6.5,5.4,11.4C887,96.2,883,90.9,882.3,88z"/>
	<path class="st1" d="M915.3,62.4c2.9-2.8,6-7.7,11.8-7.7C923,55.5,918,60.9,915.3,62.4z"/>
	<path class="st1" d="M919.8,112.5c2.9,2.3,7.7,4.4,8.5,9.3C926.6,119,921.3,115,919.8,112.5z"/>
	<path class="st1" d="M977.2,66.4c3.6,0.5,8.9-0.1,12,3.7C986.4,68.5,979.8,67.8,977.2,66.4z"/>
	<path class="st1" d="M975.8,37.4c3.6-0.6,8.5-2.6,12.6,0.1C985.2,36,978.7,37.5,975.8,37.4z"/>
	<path class="st1" d="M1025.4,125.3c4.1-0.2,9.6-2,13.9,1.7C1035.9,125.7,1032.4,125.4,1025.4,125.3z"/>
	<path class="st1" d="M924.8,92.4c4.9-5.5,31.1-12.7,37.4-7C953.7,83,931.5,86.7,924.8,92.4z"/>
	<path class="st1" d="M1011.5,105.4c7.7,0.3,31.8,10.8,32.8,19.2C1039.5,117.2,1020.5,106.9,1011.5,105.4z"/>
	<path class="st1" d="M1001.5,42.2c6.8,2.7,22.7,24.8,19.5,32.7C1020.4,66,1009.2,46.5,1001.5,42.2z"/>
	<path class="st1" d="M1088.5,123.9c0.4,7.3-12.9,31-21.3,31.5C1074.9,151,1087.9,132.7,1088.5,123.9z"/>
	<path class="st1" d="M959.4,120.8c-7.3,0.4-29.6-13.2-30.1-21.6C933.7,106.9,950.6,119.1,959.4,120.8z"/>
	<path class="st1" d="M910,91.4c5.9,2,13.3-0.4,17.2-5C922.8,90,916.8,92.4,910,91.4z"/>
	<path class="st1" d="M884.4,113.6c-1.6-7-2.4-14.4-8.4-17.3C878.5,100.6,881.4,103.2,884.4,113.6z"/>
	<path class="st1" d="M946.1,110.4c6.5,3.1,12.9,6.9,18.8,4C960,113.8,956.2,114.4,946.1,110.4z"/>
	<path class="st1" d="M1073.1,114c1.7,8.2,4.3,16.4-0.9,22.3C1073.6,131.7,1075.4,127.4,1073.1,114z"/>
	<path class="st1" d="M946.2,52.1c-7.2,0.5-14.6,0.3-18.3,5.8C932.2,55.4,935.5,53.5,946.2,52.1z"/>
	<path class="st1" d="M930.6,83.3c-3.8,0.7-12.9,1.1-15.3-0.5C918,83.6,926.1,83.2,930.6,83.3z"/>
	<path class="st1" d="M964.7,52.8c3.8,0.4,12.6,2.7,14.5,5C976.8,56.3,968.9,54.3,964.7,52.8z"/>
	<path class="st1" d="M1083.1,104.8c2.2,4.6,1.7,10.5-0.8,13.9C1083.6,115,1084.3,110.1,1083.1,104.8z"/>
	<path class="st1" d="M1007.1,134.5c2.8-4.8,8.7-7.9,13.3-7.6C1016.2,127.9,1011.2,130.3,1007.1,134.5z"/>
	<path class="st1" d="M1061.4,120.9c3.7,4.1,4.9,10.6,3.3,15C1064.9,131.5,1064.1,126.1,1061.4,120.9z"/>
	<path class="st1" d="M870.8,165.8c0.1,4.4-1.2,10.6-4.5,13.2C868.5,175.8,869.6,171.3,870.8,165.8z"/>
	<path class="st1" d="M883.2,160.7c0.8,4.3,1,8.4-1.9,11.5C883,168.6,883,166.3,883.2,160.7z"/>
	<path class="st1" d="M910.8,126.2c1.8,4,3,10.2,1,13.9C912.5,136.2,911.8,131.7,910.8,126.2z"/>
	<path class="st1" d="M888.8,132.3c1.4,4.2-1,18.7-3.5,22.1C886.5,150.7,889.2,137.9,888.8,132.3z"/>
	<path class="st1" d="M890,158.6c2.5-3.6,4.7-9.6,3.3-13.6C893.4,149.1,891.9,153.4,890,158.6z"/>
	<path class="st1" d="M971,64.1c-3.9,0-9.9-1.3-11.5-2.8C961.3,62,967.2,62.5,971,64.1z"/>
	<path class="st1" d="M984.5,123c3.3-1.6,11.6-1.8,13.4-2.2C996.1,120.6,987.6,120.6,984.5,123z"/>
	<path class="st1" d="M998.5,51.1c2.1,3.3,4.2,9.1,3.8,11.2C1001.9,60.4,999.2,55.2,998.5,51.1z"/>
	<path class="st1" d="M914.7,85.6c-3.8,0.6-19.8-0.8-25.2-3.4C898.5,83.4,910.5,85.3,914.7,85.6z"/>
	<path class="st1" d="M989.6,72.1c-2.8,0.5-14.9-0.6-19-2.5C977.4,70.5,986.5,71.8,989.6,72.1z"/>
	<path class="st1" d="M1082.1,44.8c2.9,5.7-9.5,25.1-15.4,25.6C1070.6,68.8,1082.5,51.9,1082.1,44.8z"/>
	<path class="st1" d="M1048.9,70.4c-2.8,0.5-14.9-0.6-18.9-2.5C1036.7,68.8,1045.8,70.1,1048.9,70.4z"/>
	<path class="st1" d="M1033.3,81.5c-2.8,0.5-14.9-0.6-19-2.5C1021.1,79.9,1030.1,81.3,1033.3,81.5z"/>
	<path class="st1" d="M960.8,87.7c3.8,0,19.4,4.1,24.3,7.6C976.4,92.5,964.9,88.7,960.8,87.7z"/>
	<path class="st1" d="M965.3,134.1c-3.8,0.6-19.8-1.1-25.1-3.8C949.1,131.6,961.1,133.7,965.3,134.1z"/>
	<path class="st1" d="M953,72.7c3.8-0.6,23.4,1.2,28.8,3.8C972.8,75.3,957.2,73.1,953,72.7z"/>
	<path class="st1" d="M1049.8,73.6c-3.7,0.9-21.9,2-27.5-0.1C1031.4,74,1045.7,73.6,1049.8,73.6z"/>
	<path class="st1" d="M1018.8,62.8c-3.7,0.9-23.5,0.6-29-1.6C998.9,61.8,1014.6,62.8,1018.8,62.8z"/>
	<path class="st1" d="M895.2,111.8c2.5,2.6,9.6,14.2,5,19.9C901.9,126.1,897.6,116.8,895.2,111.8z"/>
	<path class="st1" d="M923.1,51.8c2.9-2.2,24-8,30.5-1.9C944.3,46.1,928.3,50,923.1,51.8z"/>
	<path class="st1" d="M847.4,124.5c4.1,12.4,7.5,17.3,8.8,24.8C856.3,140.9,849.9,129.1,847.4,124.5z"/>
	<path class="st1" d="M876.2,129.6c1.9,15.4,5.1,21.9,4.7,31C883.3,151,878.1,135.6,876.2,129.6z"/>
	<path class="st1" d="M896.5,143.4c-0.7,11.4,0.3,13.6-4.5,22.3C897.7,160.3,897.6,150,896.5,143.4z"/>
	<path class="st1" d="M999.2,118.2c7.2,4.4,15.9,5.6,19.9-1.3C1014.5,120.7,1006.2,121.4,999.2,118.2z"/>
	<path class="st1" d="M1070.3,140.1c2.1-8.1,0.4-18.3-7.4-20C1067.7,121.1,1071.2,130.8,1070.3,140.1z"/>
	<path class="st1" d="M919.2,108c-11.2,0.5-25.4-13.3-30-15C895.7,93.1,900.7,104,919.2,108z"/>
	<path class="st1" d="M859.7,94.2c9.3,12,10.4,22.6,14.4,29.7C870.5,114.3,869.3,103.8,859.7,94.2z"/>
	<path class="st1" d="M859.7,84.8c6.9,9.6,11.5,15.2,11.8,22.5C872.3,101.3,870.2,94,859.7,84.8z"/>
	<path class="st1" d="M903.4,74.6c6.3-10,9.7-16.4,16.2-19.5C913.8,56.6,907.9,61.3,903.4,74.6z"/>
	<path class="st1" d="M876.9,148.9c-1,11.8,0,20.4-4.5,26.2C876.9,171.1,878.9,162.7,876.9,148.9z"/>
	<path class="st1" d="M911.2,118.2c5.3,11.1,4.8,25.7,3.4,32.8C916.9,145.4,919.1,129.7,911.2,118.2z"/>
	<path class="st1" d="M1078.7,116.1c1.6,12.2-3.4,25.9-7,32.2C1075.6,143.8,1082.7,129.5,1078.7,116.1z"/>
	<path class="st1" d="M1078.4,31.7c1.6,12.2-3.4,25.9-7,32.2C1075.3,59.3,1082.3,45.1,1078.4,31.7z"/>
	<path class="st1" d="M896.2,93.1c7.5,3.3,9.8,4.1,18,2C904.7,96.2,899.3,93.9,896.2,93.1z"/>
	<path class="st1" d="M1027,116c-7.5-3.4-9.7-4.4-17.9-2.5C1018.5,112.7,1023.9,115.1,1027,116z"/>
	<path class="st1" d="M1072,168.8c7.2-3.9,9.3-5.1,12.7-12.9C1079.7,163.9,1074.5,166.9,1072,168.8z"/>
	<path class="st1" d="M984.7,110c5.9,4.5,7.7,5.7,15.3,5.7C991.6,114.5,987.2,111.3,984.7,110z"/>
	<path class="st1" d="M1048.2,137.3c1.2-7.3,1.5-9.5-2.1-16.2C1049,129.1,1048.2,134.5,1048.2,137.3z"/>
	<path class="st1" d="M1054.5,166.4c5.6-2.4,7.2-3.1,10.4-8.7C1060.6,163.4,1056.5,165.2,1054.5,166.4z"/>
	<path class="st1" d="M1078.8,184.6c0.5-6,0.6-7.8-2.8-13.3C1078.9,177.8,1078.6,182.2,1078.8,184.6z"/>
	<path class="st1" d="M891.7,141.5c4.2-7,5.4-9.1,4.5-17.5C895.9,133.4,892.9,138.6,891.7,141.5z"/>
	<path class="st1" d="M1079.2,78.4c-1.1-1.8-3-3.6-4.7-4.9c0,0,0.1-0.3,0.2-0.4C1076.9,74.5,1078.4,75.8,1079.2,78.4z"/>
	<path class="st1" d="M954.5,136.3c7.5,2.7,21-1.4,24.8-5.5C970.2,136,961.2,137.2,954.5,136.3z"/>
	<path class="st1" d="M1059.7,165.9c7.8-1,18-10.8,19.6-16.2C1073.5,158.5,1066.2,163.7,1059.7,165.9z"/>
	<path class="st1" d="M1026.9,123.1c-10.5-2.3-31.9,10.2-37.9,10.5C994.9,136.2,1008.8,123.9,1026.9,123.1z"/>
	<path class="st1" d="M922.4,68.7c1.5-2.9,6.1-9.4,9.3-9.9C929,60.1,925.2,65.5,922.4,68.7z"/>
	<path class="st1" d="M940,132.1c-3.7-0.9-17.9-8.5-21.9-12.9C925.9,123.8,936.3,130.2,940,132.1z"/>
	<path class="st1" d="M865.2,154.9c4.8-5,7.6-26.6,4-32.1C870.7,130.3,868.8,148.9,865.2,154.9z"/>
	<path class="st1" d="M891.6,130.3c2.5-6.4-3.1-27.5-8.5-31.3C887.3,105.4,892.7,123.4,891.6,130.3z"/>
	<path class="st1" d="M930.9,120.8c4.5,5.2,24.7,11,30.5,7.9C953.8,129.6,936.5,124.9,930.9,120.8z"/>
	<path class="st1" d="M979,87.7c-4.4-5.7-24.9-11.2-31.1-7.3C955.8,79,973.5,83.3,979,87.7z"/>
	<path class="st1" d="M987.1,98.6c3.5,6.3,23,14.7,29.7,11.8C1008.8,110.6,992,103.8,987.1,98.6z"/>
	<path class="st1" d="M1030.6,94.9c-2.2-6.8-19.7-18.9-26.9-17.3C1011.7,78.9,1026.8,88.8,1030.6,94.9z"/>
	<path class="st1" d="M899,156.9c6.1-4.9,8.8-29.4,5.1-34.8C905.8,129.5,904.2,149.8,899,156.9z"/>
	<path class="st1" d="M967.3,50.3c-4.7-6.2-29.1-9.6-34.7-6.1C940.1,42.8,960.4,45,967.3,50.3z"/>
	<path class="st1" d="M872.5,97.4c5.5,4.9,12.9,30.1,7.3,36.3C882.2,125.2,878.2,104.1,872.5,97.4z"/>
	<path class="st1" d="M984.7,119.5c-6.6,8.1-19.9,7.2-27.7,6.2C964.8,125.9,975,126.9,984.7,119.5z"/>
	<path class="st1" d="M856.3,120.9c7.5,7.2,6.7,23.6,3.1,31C861.3,143.7,862.9,131.2,856.3,120.9z"/>
	<path class="st1" d="M1003.6,70.9C992.1,72,981.9,60,970.5,58.5C980.7,56.7,986,67.8,1003.6,70.9z"/>
	<path class="st1" d="M1005.3,133.3c-5.9,4.5-15.6,1.4-22.4,4.5C987.9,133.3,994.6,137.6,1005.3,133.3z"/>
	<path class="st1" d="M979.9,111.6c0.2-0.2,0.4-0.3,0.6-0.5c1.7,1.6,3.1,2.7,4.7,3.6C983,114.3,981.3,113.1,979.9,111.6z"/>
	<path class="st1" d="M1070.3,171.8c-0.1,0.2-0.3,0.5-0.4,0.7c1.9,1.4,3.2,2.6,4.4,4C1073.6,174.3,1072.1,172.9,1070.3,171.8z"/>
	<path class="st1" d="M1006.5,62.6c-0.2,0-0.4,0-0.6,0c-0.1-1.7-0.3-2.9-0.7-4.2C1006.2,59.7,1006.5,61.1,1006.5,62.6z"/>
	<path class="st1" d="M1033.9,125.4v-0.2c-4.7,1.8-14.9,5.3-22.7,8c5.5-0.2,18.3-5.2,22.9-7.8C1034,125.4,1033.9,125.4,1033.9,125.4
		z"/>
	<path class="st1" d="M1070,118.6c0-3.8-3.3-11.5-6.7-13.8C1065.6,107.7,1068.7,113.9,1070,118.6z"/>
	<path class="st1" d="M1077,121.6c0.7-8.2,0.8-10.6-3.8-17.7C1077.2,112.5,1076.8,118.5,1077,121.6z"/>
	<path class="st1" d="M1080.5,96.9c-3.2-6.7-4.2-8.6-11-12C1076.4,89.8,1078.8,94.6,1080.5,96.9z"/>
	<path class="st1" d="M1084.2,86.8c1.7,3.4,4.9,19.2,3.9,25.1C1086.8,102.9,1085.1,90.9,1084.2,86.8z"/>
	<path class="st1" d="M1074.2,77.8c2.7,2.6,5.7,10.3,6.7,11.8C1080.5,87.8,1077.5,79.9,1074.2,77.8z"/>
	<path class="st1" d="M1085.9,99.8l0.7-0.8L1085.9,99.8z"/>
	<path class="st1" d="M1010.2,98.2c-3.8-0.4-26.1-11-30.6-15C987.9,86.9,1006.3,96.7,1010.2,98.2z"/>
	<path class="st1" d="M986.9,90.2c4.8,6.9,21.6,14.3,29.4,11.1C1010.9,102.7,995,97.7,986.9,90.2z"/>
	<path class="st1" d="M1056.9,143.8c4-7.4,3.6-24.3-2.9-29.8C1057.6,122.1,1059.8,135.4,1056.9,143.8z"/>
	<path class="st1" d="M1053.7,122.1c4.4,9.5-2.4,21.4-6.7,27.9C1050.6,143.1,1056.1,134.1,1053.7,122.1z"/>
	<path class="st1" d="M1016.8,73.7c-11.3,0.9-18.6,1.4-25.2-3.1C996,74.7,1003.2,77.1,1016.8,73.7z"/>
	<path class="st1" d="M1033.2,109.6c10,6.3,16.3,9.8,19.4,16.4C1051.1,120.2,1046.4,114.2,1033.2,109.6z"/>
	<path class="st1" d="M1042.4,104c-10.7-5.1-17.4-7.8-21.2-13.9C1023.3,95.7,1028.7,101.1,1042.4,104z"/>
	<path class="st1" d="M998,66.2c7.8,2.5,10.1,3.1,18.1,0.2C1006.8,68.3,1001.1,66.6,998,66.2z"/>
	<path class="st1" d="M1046.7,112c-6.8-4.6-10.9-6.3-19.4-5.7C1036.7,107,1043.8,110.6,1046.7,112z"/>
	<path class="st1" d="M1036.4,161c6.5-3.5,9.2-2.6,13.1-10.4C1044.3,158.6,1038.8,159.2,1036.4,161z"/>
	<path class="st1" d="M1048.3,71.6c8-0.7,10.4-0.9,17.7-7C1057.3,70.3,1051.4,70.8,1048.3,71.6z"/>
	<path class="st1" d="M1085.3,45.7c-0.8-8-1.2-10.4-7.4-17.5C1083.8,36.8,1084.5,42.6,1085.3,45.7z"/>
	<path class="st1" d="M1045.4,66c6.4,1.9,21.5-1.3,25-6.9C1064.3,63.7,1052.4,65.9,1045.4,66z"/>
	<path class="st1" d="M999.6,85.7c3.7,9.8,22.4,15.4,30.1,16.9C1022.2,100.4,1006.4,95.8,999.6,85.7z"/>
	<path class="st1" d="M1091.3,88.3c2,2.7,3.8,11.1,2.9,14.1C1094.1,99.4,1092.9,92.2,1091.3,88.3z"/>
	<g>
		<path class="st1" d="M959.2,66.1c-3-0.6-2.5-0.5-4.9-0.7c0-0.2,0.1-0.5,0.2-0.7C955.6,65,956.6,65.1,959.2,66.1z"/>
	</g>
	<path class="st1" d="M998.3,89.4c-3.5-6.9-27-14.6-33-12.2C972.9,77.2,992.5,82.9,998.3,89.4z"/>
	<path class="st1" d="M982,74.5c10.4-0.4,20.8,8,25.1,14.4C1002.2,82.9,994,76.9,982,74.5z"/>
	<path class="st1" d="M1065.5,67.3c-6.1,8.4-25.2,12.8-32.9,12.3C1040.3,79.3,1056.2,75.3,1065.5,67.3z"/>
	<path class="st1" d="M1000.3,78c9.4,2,14.2,15.1,23,19.3C1014.8,96.2,1013.6,85,1000.3,78z"/>
	<path class="st1" d="M1013.9,63.2l-0.9-0.4c-0.4-2.4-1.5-4.7-2.8-8C1012.5,58.6,1013.7,60.5,1013.9,63.2z"/>
	<path class="st1" d="M854.6,110.8c-1-15.1-9.6-21.1-11.2-29.1C846.9,91.3,855.4,97.2,854.6,110.8z"/>
	<path class="st1" d="M857.3,100.2c5.3,10.6,8.9,16.8,8.1,24C867.2,118.5,866.3,111,857.3,100.2z"/>
	<path class="st1" d="M840.8,106.1c6.6,9.4,10.9,12.1,12.6,21.9C854.4,120.1,845.7,110.6,840.8,106.1z"/>
	<path class="st1" d="M849.8,103c2,3.2,8.5,10.1,7.6,15.1C856.8,114.8,850.4,106,849.8,103z"/>
	<path class="st1" d="M1059.3,161c-3.3,2.1-11.8,6.9-15.3,6.3C1047.3,166.9,1054.6,162.7,1059.3,161z"/>
	<path class="st1" d="M1067.3,145.8c-1.5,4.1-7.7,12.7-11.7,13.9C1058.9,157.5,1064.2,150.4,1067.3,145.8z"/>
	<path class="st1" d="M1078.5,166.4c-2.7,3.5-10.1,7.8-14.3,7.7C1068.1,173,1074.1,169.8,1078.5,166.4z"/>
	<path class="st1" d="M1091.4,100.4c1.4,4.2,2.3,16.6-0.2,20C1092.4,116.6,1091.9,106,1091.4,100.4z"/>
	<path class="st1" d="M1086.4,140.1c-0.5,5.4-5.2,17.8-9.8,20.5C1080,156.9,1084.1,146.8,1086.4,140.1z"/>
	<path class="st1" d="M1068.1,130.4c0.3,4.4-1.9,14.8-5.2,17.4C1065.1,144.5,1067.1,135.9,1068.1,130.4z"/>
	<path class="st1" d="M1079.3,73.8c2.5,2.2,11.6,12.4,10.4,19.8C1089.1,85.3,1081.7,77.3,1079.3,73.8z"/>
	<path class="st1" d="M1085.8,118c-0.5,3.6,0,8.9-3.9,12C1083.6,127.2,1084.4,120.6,1085.8,118z"/>
	<path class="st1" d="M1059.9,168.5c-3.4,1.3-7.8,4.3-12.4,2.5C1051.7,171.4,1057.6,168.7,1059.9,168.5z"/>
	<path class="st1" d="M1081.2,61c-0.1,5.5-21.2,21.2-31.8,19.7C1061.9,79.3,1076,68.3,1081.2,61z"/>
	<path class="st1" d="M1036.9,61c6.9,1.9,13.9,4.6,19.2,0.7C1051.1,61.9,1047.5,63.2,1036.9,61z"/>
	<path class="st1" d="M1094.3,121.7c0.2,3.8-2.8,19.6-5.9,24.7C1090.5,137.6,1093.6,125.8,1094.3,121.7z"/>
	<path class="st1" d="M1065.9,56.7c6.7-5.1,11-12.8,6-19C1073.8,43.5,1071.5,51.4,1065.9,56.7z"/>
	<path class="st1" d="M1042,66.9c-11.2-1.3-23-17.1-27.3-19.6C1021.2,48.4,1024.4,60,1042,66.9z"/>
	<path class="st1" d="M1047.1,158.1c5.7-5.9,7.3-7.7,8.2-16.1C1053,151.1,1048.9,155.5,1047.1,158.1z"/>
	<path class="st1" d="M1050.5,174c7.8,1.1,20.2-5.8,23.2-10.5C1065.7,170.5,1057.2,173.6,1050.5,174z"/>
	<path class="st1" d="M1042.8,163.3c6.6-2.1,20.1-18.1,19.6-24.7C1060.1,145.9,1048.8,159.9,1042.8,163.3z"/>
	<path class="st1" d="M985.5,39.6c10.4,0.1,18,11.1,22,17.9C1002.8,51.3,997.3,42.6,985.5,39.6z"/>
	<path class="st1" d="M1042.1,106c7.4,0.2,14.8,6.6,20.2,10.7C1055.6,113.6,1053.1,109.4,1042.1,106z"/>
	<path class="st1" d="M848.2,148c-1.5-17.6-7.5-30.7-20.5-43.9C837.2,116.1,845.9,130.9,848.2,148z"/>
	<path class="st1" d="M621.1,171.2c17.5,2,31.5-1.3,47.1-11.3C654.6,166.7,638.3,172.4,621.1,171.2z"/>
	<path class="st1" d="M850.2,148.1c4.7,28.7-4.5,54.2-38.9,64.9C846.3,200.2,851.1,177.1,850.2,148.1z"/>
	<path class="st1" d="M614.9,181.3c28.5,1.7,64.6-16.1,77.1-43.9C674.4,166.2,646.2,179.6,614.9,181.3z"/>
	<path class="st1" d="M753.2,78.2c3.6,9.8-4.1,20.8-8.9,26.9C748.4,98.6,754.5,90.4,753.2,78.2z"/>
	<path class="st1" d="M755.3,103.4c4.4-5.1,7.9-20.1,4.3-25.6C761.2,85.4,758.2,97.1,755.3,103.4z"/>
	<path class="st1" d="M742.6,87.3c-0.1,4.4-3.1,14.5-6.6,17C738.4,101.2,741.1,92.8,742.6,87.3z"/>
	<path class="st1" d="M743.5,68.5c-4.1,12.4-4.3,18.3-7.7,25.1C740.8,87.1,742.7,73.8,743.5,68.5z"/>
	<path class="st1" d="M748.1,89.4c0.1,3.3-0.9,8-3.4,9.9C746.4,96.9,747.2,93.6,748.1,89.4z"/>
	<path class="st1" d="M733.8,92.3c-2.6,2.6-5.3,7.2-10.2,7.4C726.5,98.3,731.1,93.5,733.8,92.3z"/>
	<path class="st1" d="M727.6,150.6c-2.5-6.9,3.5-33.4,11.5-36.3C732.9,120.7,725.7,142,727.6,150.6z"/>
	<path class="st1" d="M747.6,136.9c-0.7-7.3,12.2-30.1,20.6-30.8C760.6,110.7,749.1,128.1,747.6,136.9z"/>
	<path class="st1" d="M737.9,121c4.8-1.8,8.5-6.5,8.9-10.7C745.2,114,742.3,118,737.9,121z"/>
	<path class="st1" d="M725.8,118.1c4.7-5.4,10.1-10.6,8.9-17C732.8,105.6,732.4,109.5,725.8,118.1z"/>
	<path class="st1" d="M639,86.2c5.9-5.7,7.7-7.3,16.1-8.2C645.9,80.3,641.6,84.3,639,86.2z"/>
	<path class="st1" d="M706.5,96.8c-1,4-4.1,7.9-9.9,10.3c4.5-3.2,8.1-5.8,8.7-9.7C705.5,96.1,706.1,97.5,706.5,96.8z"/>
	<path class="st1" d="M699.7,145.1c-1.8-3.8-1.7-8.5,1.3-14c-2.2,5.9-2.2,10.2-0.2,13.6C701.4,145.7,699.6,144.2,699.7,145.1z"/>
	<path class="st1" d="M629.8,79.3c-0.5,0.3-0.8-0.3-0.7-0.4c2.6-4,5.2-9.2,14.4-9.7C635.7,70.6,630.5,77.3,629.8,79.3z"/>
	<path class="st1" d="M691.5,143.9c-0.7,4.4-3.2,10.2-6.9,12.1C687.4,153.2,689.3,149.1,691.5,143.9z"/>
</g>
<g id="Details">
	<g>
		<path class="st3" d="M922.7,78.9c0,0,6.2-14.6,18.3-20.8c6.3-3.2,17.7,0,17.7,0s-5.1,12-14.7,17.2
			C934.3,80.6,922.7,78.9,922.7,78.9z"/>
		<path class="st0" d="M933.8,75.7c0,1.2-0.4,2.3-1,3.2c-1.2,0.4-1.6,0.4-3.7,0.4c-3.3,0-6.5-0.4-6.5-0.4s3.3-7.3,5.6-9
			C931.4,69.8,933.8,72.4,933.8,75.7z"/>
		<path class="st1" d="M931.3,76.4c0,0.9-0.3,1.7-0.8,2.4c-0.9,0.3-1.2,0.3-2.8,0.3c-2.5,0-5-0.3-5-0.3s2.5-5.4,4.3-6.7
			C929.5,72.1,931.3,74,931.3,76.4z"/>
		<path class="st0" d="M952,60c-0.4-1.1-0.4-2.3-0.1-3.4c1-0.8,6.7,1,6.7,1s-2.1,6.6-3.3,6.1C953.8,63.2,952.6,61.8,952,60z"/>
		<path class="st1" d="M954.8,59.4c-0.2-0.7-0.2-1.4,0-2.1c0.6-0.5,4.1,0.6,4.1,0.6s-1.3,4-2,3.8C955.9,61.3,955.1,60.5,954.8,59.4z
			"/>
		<path class="st1" d="M945,56c-11.7,2-20.2,18.6-23.2,22.6c-5.1,0.7-23.4-0.9-23.4-0.9s18.7,4,36.7,1.4c12.5-1.8,21.2-15,24.2-20
			c5.3,0.1,16.6,4.4,16.6,4.4S956.6,54,945,56z M943.7,75.2c-9.2,5.1-20.3,3.4-20.3,3.4s5.9-14.1,17.5-20.1c6-3.1,16.8,0,16.8,0
			S952.9,70.1,943.7,75.2z"/>
	</g>
	<g>
		<path class="st3" d="M988.7,44.5c6.2,2.2,9.3,11,8.3,15.2c-6.2,0-11.3-2-15.8-4.3c-3-1.5-7.5-4.5-12-7.3
			C975.4,44,982.5,42.3,988.7,44.5z"/>
		<ellipse class="st0" cx="986.8" cy="49.9" rx="6" ry="5.9"/>
		<ellipse class="st4" cx="987.2" cy="49" rx="4.1" ry="4"/>
		<path class="st1" d="M971.1,47.3c-0.5,0.5-0.5,0.9,0,1.7l-1.8-0.7L971.1,47.3z"/>
		<path class="st1" d="M989.1,43.7c-8.1-3-17.5,2.1-19.8,4.3c-2.7-1.4-4.1-2.1-6.8-3.2c6.2,3.7,14.4,9.2,19.2,11.6
			c4.8,2.4,9.1,3.7,15.7,3.6C998.4,54.8,995.7,46.1,989.1,43.7z M997,59.6c-6.1,0-11.1-2-15.5-4.3c-3-1.5-7.4-4.5-11.8-7.1
			c6.1-4.2,13.1-5.8,19.2-3.6S998,55.5,997,59.6z"/>
		<path class="st1" d="M970.2,47.9c-0.2,0.2-0.2,0.4,0,0.7c0,0,0.6,0.3,0.8,0.4s0.6,0.5,0.8,0.6l-2.1-0.9l-0.1-0.6L970.2,47.9z"/>
	</g>
	<g id="r._mouth_2_">
		<path class="st1" d="M1078.4,69.8c-14.2,11.7-32.1,15.4-52,12.5c7.9,16.6,28.5,22,44.3,39.8c-0.6-1.2-1.2-2-2.5-3.7
			c0,0,7.4-14.9,8.3-26.3c0.8-11.4-4.7-16.4-4.7-16.4C1074.3,74.3,1076.6,72.1,1078.4,69.8z"/>
		<path class="st3" d="M1036.7,86.9c0.1-0.2-2.9-1.9-5.4-3.2c-1-0.1-1.9-0.2-2.9-0.4c0.5,1.1,1.1,2.1,1.7,3.1
			C1032.9,86.8,1036.6,87.2,1036.7,86.9z"/>
		<path class="st3" d="M1037.3,84c-1.6-0.1-3.2-0.2-4.8-0.3c2,1.3,7.2,4.5,7.4,4.3C1040.1,87.8,1038.8,85.9,1037.3,84z"/>
		<path class="st3" d="M1037.9,88.2c0-0.4-5.5-0.2-6.8-0.1c0.8,1.1,1.6,2.1,2.5,3.1C1035.2,90.1,1037.9,88.4,1037.9,88.2z"/>
		<path class="st3" d="M1040.7,90.4c-0.1-0.3-4.8,1.3-6.3,1.8c0.9,0.9,1.8,1.7,2.8,2.6C1038.4,93.4,1040.8,90.7,1040.7,90.4z"/>
		<path class="st3" d="M1038.3,95.9c0.9,0.8,1.9,1.5,2.9,2.3c1.1-1.5,3.2-4.6,3-4.8C1044.1,93,1039.9,95.1,1038.3,95.9z"/>
		<path class="st3" d="M1042.6,98.9c1,0.7,2.1,1.5,3.1,2.2c1.3-1.4,3.4-3.8,3.3-4C1048.8,96.8,1044.1,98.4,1042.6,98.9z"/>
		<path class="st3" d="M1052,98.7c-0.2-0.3-3.5,2.2-5.1,3.4c1,0.7,2,1.4,3,2.1C1050.7,102.5,1052.2,99,1052,98.7z"/>
		<path class="st3" d="M1055.3,100.9c-0.3-0.2-2.7,2.5-4,4.1c1,0.7,2,1.4,3,2.1C1054.7,105.6,1055.6,101.1,1055.3,100.9z"/>
		<path class="st3" d="M1058.2,103.7c-0.3-0.1-1.9,2.3-3,4.1c1,0.7,1.9,1.4,2.9,2.2C1058.2,108.5,1058.5,103.9,1058.2,103.7z"/>
		<path class="st3" d="M1061.5,106.6c-0.3-0.1-1.5,2.2-2.5,4.1c1,0.8,2,1.6,2.9,2.4C1061.9,111.7,1061.8,106.7,1061.5,106.6z"/>
		<path class="st3" d="M1065.7,109.6c-0.3-0.1-1.9,2.2-3,4c0.9,0.8,1.9,1.7,2.8,2.6C1065.6,115.1,1066.1,109.8,1065.7,109.6z"/>
		<path class="st3" d="M1065.7,108.6c-0.3,0.2,2.6,4.3,3.5,5.6c0.4-1,0.9-2.2,1.5-3.5C1068.9,109.8,1065.9,108.4,1065.7,108.6z"/>
		<path class="st3" d="M1066.4,105.6c-0.2,0.3,3.2,2.5,4.9,3.6c0.4-1.1,0.8-2.2,1.2-3.4C1070.8,105.6,1066.6,105.3,1066.4,105.6z"/>
		<path class="st3" d="M1067.8,101.1c-0.2,0.3,3.5,3,4.9,4.1c0.4-1.2,0.8-2.4,1.1-3.6C1072.1,101.3,1068,100.8,1067.8,101.1z"/>
		<path class="st3" d="M1069.1,99.2c0,0.3,2.9,0.9,5,1.4c0.3-1.2,0.6-2.3,0.8-3.5C1073.3,97.5,1069.1,98.8,1069.1,99.2z"/>
		<path class="st3" d="M1075.1,96.1c0.2-1.2,0.4-2.4,0.4-3.6c0,0,0,0,0,0c-1.7,0.3-5.9,1.2-5.9,1.5
			C1069.5,94.3,1073.1,95.5,1075.1,96.1z"/>
		<path class="st3" d="M1075.6,91.3c0-1.3,0-2.5-0.1-3.7c-1.8,0.3-5.6,1-5.7,1.3C1069.7,89.3,1073.8,90.7,1075.6,91.3z"/>
		<path class="st3" d="M1069.3,86c0,0.3,4.1,0.6,6,0.7c-0.2-1.3-0.5-2.5-0.8-3.5C1072.9,83.9,1069.3,85.6,1069.3,86z"/>
		<path class="st3" d="M1068.4,82.3c0,0.3,3.9,0.1,5.9,0c-0.5-1.3-1-2.3-1.5-3.1C1071.1,80.2,1068.3,82,1068.4,82.3z"/>
		<path class="st3" d="M1046.2,89.1c0.3,0,0.1-3.2-0.1-5.3c-1.2,0.1-2.4,0.2-3.6,0.2C1043.3,85.3,1045.8,89.1,1046.2,89.1z"/>
		<path class="st3" d="M1042.5,88.6c0.3-0.1-0.2-2.6-0.7-4.6c-1.2,0-2.5,0.1-3.8,0C1039,85.1,1042.1,88.7,1042.5,88.6z"/>
		<path class="st3" d="M1049.9,89.2c0.3,0,0.5-4,0.6-6c-1.2,0.2-2.4,0.3-3.7,0.5C1047.5,85,1049.5,89.2,1049.9,89.2z"/>
		<path class="st3" d="M1055.1,82.3c-1.1,0.3-2.2,0.5-3.4,0.7c0.5,1.9,1.2,4.8,1.5,4.9C1053.5,88,1054.5,84.3,1055.1,82.3z"/>
		<path class="st3" d="M1057.7,87.6c0.4,0.1,1.3-4.8,1.6-6.4c-1.2,0.4-2.4,0.7-3.7,1C1056.2,83.9,1057.4,87.5,1057.7,87.6z"/>
		<path class="st3" d="M1067.7,84.3c0.3-0.1-0.2-4.6-0.4-6.4c-1.1,0.6-2.3,1.1-3.4,1.6C1064.8,80.8,1067.3,84.4,1067.7,84.3z"/>
		<path class="st3" d="M1062.8,86.4c0.4,0,0.6-5.4,0.6-6.8c-1.2,0.5-2.4,0.9-3.7,1.3C1060.4,82.4,1062.4,86.4,1062.8,86.4z"/>
		<path class="st3" d="M1070.6,76.2c0,0,0.9,0.9,1.1,1.3c-1.4,1.5-3.4,3.6-3.6,3.4c-0.2-0.2,0.2-1.9,0.6-3.6L1070.6,76.2z"/>
		<g>
			<path class="st1" d="M1085.1,93.1c0,0,1.7,3.5,1.8,4.2s0.2,3.1-0.8,3.1s-3.4,1.2-3.4,1.2L1085.1,93.1z"/>
			<path class="st0" d="M1060,91.6c-4,1.1-5.5,4.3-3.3,7c2.2,2.8,9.2,6.9,14.5,6.6c5.3-0.3,11.7-2.3,13.6-6.2
				c1.3-2.4,0.8-4.1,0.3-6.1c0.3-1-0.4-2.7-0.8-3.6c-1.1-2.3-5.3-3-5.9-3.2s-2.6,0.3-1.5,1.8c1.1,1.5,2.7,1.5,3,3.2s-0.6,4-2.7,4.2
				c-2.1,0.2-3.8-1.1-6.4-3.2c-2.6-2.2-1-4.8-5.4-5.4C1060.6,86.2,1060,91.6,1060,91.6z"/>
			<path class="st1" d="M1060.3,90.5c-0.3,1.5,1.9,3.7,5.7,6.4c-3.1-1.7-6.9-4-6.6-5.2L1060.3,90.5z"/>
			<path class="st1" d="M1076,99.2c2.6,0.7,4.7-0.1,6.4-2.4C1080.5,98.6,1078.3,99.5,1076,99.2z"/>
			<path class="st1" d="M1085.1,93c-0.2,0.7-0.4,1.2-0.8,1.6c0.5-0.1,0.8-0.6,1-1L1085.1,93z"/>
			<path class="st1" d="M1068.2,100.4c0,0,1.9-0.3,2,0.9s-1.6,2.1-2.9,1.8s-2.9-0.6-3.1-1.4c-0.1-0.8,1.2-1,1.2-1s-0.7,0.5-0.7,1
				s2,1.1,3,1.2c1,0.1,1.8-0.6,1.9-1.5S1068.2,100.4,1068.2,100.4z"/>
			<path class="st1" d="M1081.4,88.8c0,0-0.7-0.3-0.4-0.7s0.9-0.3,1.3,0s0.8,0.8,0.7,1c-0.1,0.3-0.6,0.1-0.6,0.1s0.3,0,0.4-0.2
				c0.1-0.2-0.4-0.7-0.7-0.9c-0.3-0.2-0.7-0.2-0.9,0.1C1081,88.5,1081.4,88.8,1081.4,88.8z"/>
			<path class="st5" d="M1077.7,87.9c-0.6-0.5-1-1.1-1.1-1.1c-0.2,0.3-0.2,0.7,0.2,1.2c1.1,1.5,2.7,1.5,3,3.2
				c0.3,1.4-0.3,3.2-1.6,3.9l0,0c0,0,2.6-1.3,3.7-2.1c1.1-0.8-0.1-2.3-0.7-3.4S1078.3,88.5,1077.7,87.9z"/>
			<path class="st3" d="M1086.7,98.6c0,1.3-0.4,1.8-1.1,1.5C1086.1,100.1,1086.6,99.5,1086.7,98.6z"/>
			<path class="st3" d="M1086.4,96.7c0.4,0.3,0.4,0.6,0.4,1.2C1086.8,97.4,1086.6,97.1,1086.4,96.7z"/>
		</g>
	</g>
	<g>
		<path class="st1" d="M825.7,194.1c6.5-13.5-7.4-18-6.5-41.4c0.6-20.4,12.5-23.3,2.4-39.7c4.5,2.3,20.8,18.5,20.5,36.7
			C841.9,168.1,828.2,191.2,825.7,194.1z"/>
		<path class="st3" d="M828.1,128c1-0.3,3.8-0.5,5.1-0.6c-0.5-0.7-0.9-1.3-1.4-1.9C830.2,126.3,828.1,127.5,828.1,128z"/>
		<path class="st3" d="M825.4,120.7c0.5-0.2,1.4-0.3,2.3-0.4c-0.3-0.3-0.6-0.6-0.9-0.9C826,119.9,825.4,120.4,825.4,120.7z"/>
		<path class="st3" d="M830.4,176.5c0.8-0.1,2.4,0.2,3.8,0.4c0.3-0.7,0.6-1.4,0.9-2.1C833.3,175.2,830.6,175.9,830.4,176.5z"/>
		<path class="st3" d="M830.3,132c1-0.4,3.3-0.9,5-1.2c-0.4-0.7-0.8-1.4-1.3-2.1C832.3,129.9,830.2,131.4,830.3,132z"/>
		<path class="st3" d="M830.7,137.4c1.4-0.6,5.3-1.3,7.2-1.6c-0.5-1-0.9-2.1-1.4-3C834.2,134.2,830.6,136.6,830.7,137.4z"/>
		<path class="st3" d="M832.3,140.7c1.5-0.3,5.5-0.1,7.3,0c-0.3-1.1-0.7-2.1-1-3.2C836,138.4,832.3,139.9,832.3,140.7z"/>
		<path class="st3" d="M834.5,150.4c1.3-0.2,4.5,0.1,6.5,0.3c0-0.1,0-0.3,0-0.4c0-0.9,0-1.8-0.1-2.7
			C838.3,148.3,834.6,149.6,834.5,150.4z"/>
		<path class="st3" d="M835.3,160c1-0.1,2.8,0,4.5,0.1c0.2-0.8,0.3-1.7,0.5-2.5C838,158.4,835.4,159.3,835.3,160z"/>
		<path class="st3" d="M835.3,144c0.4,0.9,2.8,1.1,5.3,1.2c-0.2-1.1-0.1-1.4-0.6-2.5C838.1,143.4,836.8,143.9,835.3,144z"/>
		<path class="st3" d="M833,153.1c0.2,0.9,5.2,2.3,7.6,2.9c0.2-1.2,0.3-2.4,0.3-3.6C839.4,152.6,834.7,153.3,833,153.1z"/>
		<path class="st3" d="M822.2,169.4c0.3,0.9,0.6,1.9,0.9,2.7c1.5-0.9,4.3-2.4,5.5-2.7C828.2,168.8,824.5,169.1,822.2,169.4z"/>
		<path class="st3" d="M820.3,158.3c0.1,1.1,0.2,2.3,0.3,3.3c1.3-0.9,4-2.7,5.2-3.1C825.3,157.8,822.5,158.1,820.3,158.3z"/>
		<path class="st3" d="M820.3,154.3c0,0.6,0,1.2,0,1.8c1.5-0.4,3.9-1.1,4.9-1.2C825,154.4,822.3,154.3,820.3,154.3z"/>
		<path class="st3" d="M821.2,144.9c-0.2,1-0.4,2.1-0.5,3.2c1.9-0.7,5.3-1.9,6.7-2C827.1,145.4,823.8,145,821.2,144.9z"/>
		<path class="st3" d="M827.5,163.2c-1.3,0.4-4.5,0.8-6.5,1c0.2,1.1,0.4,2.1,0.7,3.1C824,166.1,827.5,164.1,827.5,163.2z"/>
		<path class="st3" d="M828.4,173.5c-0.9,0.3-2.8,0.6-4.4,0.7c0.3,0.7,0.6,1.3,0.9,1.9C826.6,175.2,828.4,174.1,828.4,173.5z"/>
		<path class="st3" d="M829.8,178c-0.7,0.3-2.3,0.7-3.5,1c0.3,0.5,0.5,1,0.8,1.5C828.3,179.6,829.8,178.4,829.8,178z"/>
		<path class="st3" d="M827.9,150.9c-1.6,0-5.2-0.8-7.4-1.3c-0.1,1.1-0.2,2.2-0.2,3.4c0,0.1,0,0.1,0,0.2
			C823.2,152.7,827.7,151.8,827.9,150.9z"/>
		<path class="st3" d="M828.4,135.6c-0.9,0-2.7-0.4-4.2-0.7c-0.3,0.7-0.5,1.4-0.8,2.2C825.5,136.8,828.3,136.2,828.4,135.6z"/>
		<path class="st3" d="M822.5,139.9c-0.3,0.9-0.6,1.9-0.8,2.9c1.3-0.9,3.7-2.6,4.8-3.1C826.2,139.3,824.3,139.6,822.5,139.9z"/>
		<path class="st3" d="M833,162.3c0.1,0.7,3.3,1.7,5.8,2.4c0.3-1,0.5-1.9,0.8-2.9C837.4,162.1,834.3,162.4,833,162.3z"/>
		<path class="st3" d="M832,166.8c0.1,0.7,2.9,1.8,5.3,2.7c0.3-0.9,0.6-1.8,0.9-2.7C836.1,166.9,833.2,167,832,166.8z"/>
		<path class="st3" d="M835.9,172.9c0.2-0.6,0.5-1.2,0.7-1.9c-1.5-0.1-3.3-0.3-4.2-0.6C832.5,171,834.3,172,835.9,172.9z"/>
		<path class="st3" d="M833.1,179.4c0.2-0.3,0.3-0.6,0.5-1c-0.8-0.1-1.8-0.2-2.2-0.3C831.3,178.4,832.2,178.9,833.1,179.4z"/>
		<path class="st3" d="M831.7,182.2c0.2-0.4,0.4-0.7,0.6-1.1c-0.9-0.1-2.2-0.2-2.7-0.3C829.5,181.1,830.7,181.7,831.7,182.2z"/>
		<path class="st3" d="M830.5,184.4c0.1-0.2,0.3-0.4,0.4-0.7c-0.6-0.1-1.1-0.1-1.4-0.2C829.4,183.7,829.9,184,830.5,184.4z"/>
		<path class="st3" d="M830.9,124.2c-0.4-0.6-0.9-1.1-1.3-1.6c-1.1,0.3-2.5,0.8-3.1,0.8C826.7,123.9,829.4,124.1,830.9,124.2z"/>
	</g>
	<g>
		<path class="st3" d="M770.5,183.8c0.5-8-5.2-21.2-5-27.4s3.6-17.2,6.1-20.6c-0.7,6.3,4.4,24.4,4.1,30.8
			C775.5,172.9,773.4,180.4,770.5,183.8z"/>
		<path class="st0" d="M774.4,155.6c-2.9-2-6.4-2.2-8.7-0.2c0,0-0.1,0.1-0.1,0.1c0,0.3,0,0.6,0,0.8c-0.1,2.7,1,6.8,2.1,11.1
			c2.6,1.9,5.7,2.3,8,0.9c0-0.6,0.1-1.2,0.1-1.8C775.9,164.2,775.2,160.1,774.4,155.6z"/>
		<path class="st1" d="M771.5,158.6c-0.3-1.1-1.1-1.6-1.8-1.4s-1.2,1.1-0.9,2.1s1.4,0.8,1.8,2c0.3,1.2-0.6,2.1-0.4,3.1
			s1.1,1.6,1.8,1.4s1.2-1.1,0.9-2.1s-1.5-1.3-1.9-2.4C770.7,160.3,771.8,159.7,771.5,158.6z"/>
		<path class="st6" d="M770.5,183.8c0.5-8-5.1-21.4-4.9-27.6c0.2-6.2,3.6-17.2,6.1-20.6c-0.7,6.3,4.4,24.4,4.1,30.8
			C775.5,172.8,773.3,180.5,770.5,183.8z"/>
	</g>
	<g>
		<path class="st3" d="M952.4,109.9c-16.6-4-19.1-16-19.1-16s10.6-7.1,26.1-4.4s26.6,13.4,26.6,13.4S968.9,113.9,952.4,109.9z"/>
		<g>
			
				<ellipse transform="matrix(0.2418 -0.9703 0.9703 0.2418 629.0708 1004.9906)" class="st0" cx="957.6" cy="100" rx="10.5" ry="9.2"/>
			<path class="st1" d="M955.8,111c-0.8-7.6,0.6-14.8,3.5-21.8C960.7,96.6,959.2,103.7,955.8,111z"/>
		</g>
		<path class="st1" d="M1008.9,115.5c-5.1-0.3-20.4-11.6-22-12.7c-1.6-1.1-11.4-10.8-25.8-13.3c-15.3-2.6-26.6,3.1-28.9,4
			s-18.8,7-27.1,4.2c5.9,3.6,16.7,0.6,27.4-3c1.4,3.2,6.4,12.4,20.4,15.8c14.6,3.5,29.1-4.2,33.2-6.6
			C993.7,109.6,1001.2,115.4,1008.9,115.5z M953.3,109.5c-16.2-3.8-19.6-15.4-19.6-15.4s11-6.8,26.2-4.2c15.1,2.6,25.5,13,25.5,13
			S969.4,113.3,953.3,109.5z"/>
	</g>
	<g>
		<path class="st3" d="M644.1,93.8c-0.2-2.2,18-4.2,22.4-3.5c6.3,1.1,16,7.1,26.1,10.7c0,0-9.4,7.6-24.7,6.4
			C652.7,106.2,644.1,93.8,644.1,93.8z"/>
		<g>
			<path class="st0" d="M683,101.3c0.6-1.5,0.6-3,0.3-4.5c-4.7-2.6-8.8-4.8-12.3-5.7c-0.6-0.1-1.3-0.3-2.2-0.3
				c-1.4,0.9-2.5,2.2-3.1,3.8c-1.7,4.3,0.8,9.3,5.6,11.2C676.1,107.6,681.3,105.6,683,101.3z"/>
			<ellipse class="st1" cx="676" cy="98.9" rx="5.9" ry="5.3"/>
		</g>
		<path class="st1" d="M667.7,89.7c-8-1.6-21.4,1.9-24,3.5c-8.5-8.7-13.2-17.8-26-18.7c17.1,2.4,27.8,28.9,44.1,32.5
			c14.3,3.2,24.1-1.4,31.3-6.3C689.8,101.3,678.8,91.9,667.7,89.7z M665.9,106.7c-8.7-1-13.4-3.8-21.7-12.9
			c3.4-3.1,16.9-3.4,24.2-2.3c7.3,1.1,21.7,10,23.5,9.6C680.5,107.2,674.6,107.7,665.9,106.7z"/>
		<path class="st1" d="M645.1,93.2c-0.6,0.4-0.6,0.9-0.2,1.1s0.8,0.3,1,0.9c0.2,0.6,0.8,1.2,0.8,1.2l-2.9-2.7L645.1,93.2z"/>
		<path class="st1" d="M690.1,100.6c0.8,0.3,0.7,0.9,0,1.4l2.1-0.9L690.1,100.6z"/>
	</g>
	<g>
		<circle class="st1" cx="695.1" cy="163.9" r="14.7"/>
		<circle class="st3" cx="694.6" cy="164.4" r="14.2"/>
		<g>
			
				<ellipse transform="matrix(0.7621 -0.6475 0.6475 0.7621 63.5509 491.0297)" class="st0" cx="699.9" cy="159" rx="6.7" ry="8.2"/>
			
				<ellipse transform="matrix(0.7399 -0.6727 0.6727 0.7399 76.4595 512.6809)" class="st1" cx="701.2" cy="157.5" rx="2.8" ry="3.7"/>
		</g>
		<path class="st1" d="M683.1,172.8c0.3-0.9,0.9-2.5,1.5-2.9c0.8-0.6,2,0.2,2.6-0.1c0.5-0.3,1.9-3.5,2.2-4.1
			c0.5-0.4,2.1,0.1,3.3,0.6c0,0-1-0.5-1.5-0.6c0.1-0.4,1-1,1-1s-0.7,0.2-1.2,0.9c-0.4-0.1-0.7-0.3-1.4-0.2c0.2-0.5,1.9-2,1.9-2
			s-1.6,1-2.2,1.9c-0.6,0.9-1.2,3.4-2.3,4.1c-1.1,0.7-1.8-0.4-2.6,0.2c-0.6,0.5-1.2,2.2-1.4,2.9"/>
		<path class="st1" d="M691.5,177.6c0.3-1,1.8-0.9,2.1-1.5s-0.7-4.2-0.8-4.8c0.2-0.4,0.6-0.7,1.2-1.1c-0.4,0.2-0.7,0.2-1.2,0.7
			c-0.2-0.5,0.3-2.8,0.3-2.8s-0.7,1.8-0.6,2.9c0.1,1.1,1.3,3.5,0.8,4.8s-1.8,0.5-2,1.5c0,0.2,0,0.6,0,0.9c0.1,0,0.2,0,0.3,0
			C691.4,178,691.4,177.8,691.5,177.6z"/>
		<path class="st1" d="M700.5,172.4c0.5-1,0.6-2.8,0.6-2.8s-0.5,2.3-0.8,2.7c-0.3-0.6-0.6-0.8-0.8-1.1c0.3-0.8,0.2-1.5,0.2-1.5
			s-0.1,1-0.4,1.3c-0.3-0.3-1.3-1-1.3-1c1,0.9,2.3,2,2.1,2.6c-0.4,0.6-2.5,3.3-2.5,3.9c0,0.5,0.7,1,1,1.6c0.1,0,0.2-0.1,0.3-0.1
			c-0.3-0.4-0.9-0.7-0.8-1.5C698,175.1,700,173.4,700.5,172.4z"/>
		<path class="st1" d="M706.4,171c-0.4-0.7-0.3-2.3-0.1-3.6c0,0-0.3,1.1-0.3,1.6c-0.3-0.5-1.2-0.8-1.2-0.8s0.6,0.3,1.1,1
			c0,0.4-0.1,0.8,0.1,1.4c-0.4-0.6-1.9-1.6-2.4-1.5c0.9,0.2,1.5,0.9,2.3,1.7c0.4,0.4,0.2,0.6,0.8,0.8c0-0.1,0.1-0.1,0.1-0.2
			C706.8,171.5,706.6,171.4,706.4,171z"/>
		<path class="st1" d="M687.5,162.5c0,0-2,1.2-2.5,1.2c0.3-0.6,0.2-1,0.2-1.4c-0.2,0.6-0.3,1.1-0.6,1.4c-0.5,0.1-3,0.3-4.2,0.6
			c0,0.1,0,0.2,0,0.4c1.1-0.7,3.6-0.5,4.6-0.8C686.1,163.7,687.5,162.5,687.5,162.5z"/>
		<path class="st1" d="M685.8,158.1c0,0-0.5-1.1-0.8-1.4c0.4-0.2,1.4-0.1,1.4-0.1s-0.7-0.3-1.5-0.1c-0.3-0.3-0.4-0.6-1-1
			c0.4-0.3,2.8-0.4,2.8-0.4s-1.8-0.2-2.8,0.1c-0.1,0.1-0.3,0.3-0.4,0.4c0,0,0.1,0,0.1-0.1C684.3,155.6,685.2,157,685.8,158.1z"/>
		<path class="st1" d="M680.8,161c-0.8,0.2-1.2,0.5-1.9,1.7c-0.5,0.8,0.7,0.9,0.7,0.9l1.2-1.3C680.7,162.3,681.6,160.9,680.8,161z"
			/>
		<path class="st2" d="M678.8,163c1-1.4,2.2-2.8,4.3-1.4c-2.1,0.1-3.1,2.4-2.6,4.9C679.4,165.2,678.3,163.9,678.8,163z"/>
	</g>
	<g>
		<path class="st1" d="M633.2,131.1c3,2,6.5,3.2,11.4,3.5l-9.1,1.2L633.2,131.1z"/>
		<path class="st1" d="M623.6,128.2c4.8,5.5,26.3,10.9,32.6,5.4C647.6,135.9,633.8,134.8,623.6,128.2z"/>
		<path class="st1" d="M602.3,118.8c16.6,0.7,23,8.8,39.3,17l-27.5-3.1C608,130.1,604.6,124,602.3,118.8z"/>
		<path class="st1" d="M592.8,95.9c6.1,7.8,7.2,16.5,8.1,30.9c0.8,13.5,19.8,28,37.5,28.5c17.9,0.5,29.6-8.3,32.2-12.4
			c2.9-4.6,2.9-13.5,9.4-13.8c-8.3-1.4-21,7.7-35.4,5.8c-14.3-1.8-37.4-4.8-41.1-15C599.7,109.7,601.5,106.4,592.8,95.9z"/>
		<g>
			<path class="st3" d="M609.6,120.6c0.9-0.3,4.2,0.6,4.9,1.4c-1.8,0.7-2.8,7-2.3,9C611.2,130.4,607.8,121.4,609.6,120.6z"/>
			<path class="st3" d="M615.8,122.6c0.6,0,3,1.2,3.7,2c-1.2,0.9-2.1,5.3-1.6,7.4C616.9,131.4,614.1,123.4,615.8,122.6z"/>
			<path class="st3" d="M621.1,125.6c0.6,0.2,2.7,1.7,3.5,2.3c-1.2,0.9-2,3.8-1.7,6.2C621.8,133.5,620,127.1,621.1,125.6z"/>
			<path class="st3" d="M626.6,129c0.7,0.4,1.6,1.1,2.7,1.6c-1.1,1-1.5,3.4-1.3,5.6C627,135.6,625.6,130.4,626.6,129z"/>
			<path class="st3" d="M632.4,132.2c1.3,0.7,1.5,0.8,2.5,1.1c-0.5,1-0.4,2.9-0.2,5.1C633.6,137.3,632.2,134.5,632.4,132.2z"/>
			<path class="st3" d="M638.3,134.4c0.8,0.4,1.1,0.4,1.8,0.6c-0.3,1.1-0.4,2.2-0.2,4.1C638.8,137.5,638.7,136.6,638.3,134.4z"/>
			<path class="st3" d="M650.8,152.9c-0.9,0.5-4.7,1.2-6.2,1.1c1.7-1.8,2.1-8.4,0.5-12.7C648.4,141.6,651.5,150.2,650.8,152.9z"/>
			<path class="st3" d="M659.8,149.6c-0.8,0.5-3.4,1.8-4.8,2.2c1.1-1.9-0.2-7.9-2.4-11.3C655.5,140.2,659.8,147.1,659.8,149.6z"/>
			<path class="st3" d="M667.4,145.5c-0.6,0.5-2.8,1.8-3.9,2.5c0.7-1.7-0.5-5.9-2.9-8.8C663.2,138.8,667.1,143.4,667.4,145.5z"/>
			<path class="st3" d="M671.9,138.3c-0.1,0.6-0.8,2.7-1.6,3.6c-0.1-1.5-1.6-3.7-4.4-4.8C667.5,135.9,670.9,136.9,671.9,138.3z"/>
			<path class="st3" d="M673.8,133.4c-0.2,0.6-0.4,1.4-0.7,2.1c-0.4-0.8-0.8-1.7-2.5-1.7C671.2,132.8,672.9,132.8,673.8,133.4z"/>
			<path class="st3" d="M603.3,120c0.8-0.5,3.9-0.3,4.7,0.2c-1.5,1-1.1,7-0.3,8.7C606.7,128.4,601.9,121.1,603.3,120z"/>
		</g>
		<g>
			<path class="st1" d="M608.4,185.4c-0.3,9,4,13.6,8.1,15.1s2.7,4.5,2,5.4s-0.4,2.8,0.6,4.1c1.2,1.4,0.6,4.5-1.2,4.4
				c-1.4,0-3.2-2.9-1.3-4.6c1-0.9,1.8-3.1-0.2-4.9c-1.3-1.2-15.4-0.6-16.4-3.2C599.5,200.8,608.9,179.5,608.4,185.4z"/>
			<path class="st0" d="M624.5,141c0,0-6.1-4.2-10.3-6.2s-14.6-0.9-22.8,15.2s-5.7,31.4-4.5,36.6s6.1,10.8,11.8,14.4
				c5.2,3.3,19.6,2.7,17.2,0.7c-3.4-2.7-8.6-6-7.2-16.4c1.6-11.8,11.2-20.6,15.3-24.6c4-3.9,9.3-6,12-6.6c3,0.1,4.4,0.6,6.3-0.3
				s2.3-7.7-5-10S624.5,141,624.5,141z"/>
			<path class="st1" d="M627.8,141.4c-1.9-0.3-2.4-0.1-3.2,0.3c-13.8,6.9-26.2,22.7-25.8,41.5c0,0.4-0.3,0.1-0.4-0.1
				c-3-18.3,10.7-36.9,21.9-42.9c0.6-1.8-0.3-2.2-1.9-3.1L627.8,141.4z"/>
			<path class="st1" d="M589,170.9c0,0-0.1-2.9,2-2.7c2.1,0.3,3.3,2.9,2.6,4.9c-0.7,1.9-1.7,4.2-3.1,4.1c-1.4-0.1-1.6-2-1.6-2
				s0.7,1.2,1.6,1.3c0.9,0.1,2.3-2.6,2.7-4.1s-0.7-2.9-2.2-3.3C589.6,168.7,589,170.9,589,170.9z"/>
			<path class="st7" d="M618.4,210.3c0.3-0.2,1,0.4,0.8,1.5C618.8,210.9,618.7,210.5,618.4,210.3z"/>
			<path class="st7" d="M618.1,202.2c0.3-0.2,1,0.4,0.8,1.5C618.5,202.8,618.4,202.4,618.1,202.2z"/>
		</g>
	</g>
	<g id="mustache_2_">
		<path class="st0" d="M793.5,74.2c7.1,4.1,14.1,4.2,21-0.7c0,0,11.4,13.3,10.7,15.2c-0.7,1.9-16.3,4.5-22.2,4.2
			c-5.8-0.3-20.4-1.6-22.5-4.1L793.5,74.2z"/>
		<path class="st1" d="M793.7,92c7.5,1.1,14.3,1.1,19.3,0.2C807.4,94.7,799.8,94.6,793.7,92z"/>
		<path class="st1" d="M791.5,84.9c0,0,8.3-2.1,9.3-2s1.8,1.4,3,1.4s3.1-1.4,4-1.6s9,1.4,9,1.4s-6.8-0.6-8.1-0.4
			c-1.3,0.2-3.4,2-4.6,1.9s-2.7-1.4-3.7-1.7C799.4,83.8,791.5,84.9,791.5,84.9z"/>
		<path class="st1" d="M799.6,65.2c3.2,2.4,3.2,13.7,0.1,14.8c-2.2,0.8-17.7,8.5-24.7,15.1c-7,6.6-25.3,23.7-42.2,9.1
			c-6.4-7-1.9-12.2-0.4-14c0.2,3.5,2.8,5.6,4.6,6.3c4.2,1.5,10.8-2.1,16.8-4.4c6-2.3,11.3-10.6,13.4-13.5s7.6-11.5,13.4-14.4
			C786.8,61,797.4,63.6,799.6,65.2z"/>
		<path class="st1" d="M809.4,63.4c-2.8,2.8-1.5,15,1.6,15.7c2.3,0.5,10.6,7.8,15.3,13.8s10.8,16.8,21.2,16.9c9.7,0,18-1.6,20.4-6
			c-1.1,0.6-8.3-2.3-13.7-6.5c-5-3.8-11.2-13.8-13.6-17.2c-2.5-3.5-9-13.6-15.1-15.8C818.9,61.9,811.3,61.6,809.4,63.4z"/>
		<path class="st2" d="M798.8,64.4c2,0.9,7.9,10.8-0.1,16.6C802.5,75.5,801.9,69.2,798.8,64.4z"/>
		<path class="st2" d="M809.7,62.9c-1.9,1.1-6.9,12.3,1.7,17C806.9,75,807.2,68,809.7,62.9z"/>
		<path class="st2" d="M794.8,62c2.8,1.6,2.7,17.5-1.9,22.8C794.6,80.6,797.2,68,794.8,62z"/>
		<path class="st2" d="M815.6,61.6c-2.7,1.7-2,18.7,2.8,23.9C816.5,81.3,813.4,67.6,815.6,61.6z"/>
		<path class="st2" d="M788.9,64.3c2.7,1.3,5.7,12.1,0.5,18.2C791.2,78.3,792.2,69.7,788.9,64.3z"/>
		<path class="st2" d="M820.9,70.1c-2,2.2-2.2,14.9,5,18.6C822.6,85.4,819.8,76.3,820.9,70.1z"/>
		<path class="st2" d="M787.7,73.2c1.1,6.2,1.5,11-3.6,15.6C787,84.8,787.3,81,787.7,73.2z"/>
		<path class="st2" d="M850.5,100.3c5,3.9,8.9,6.6,15.3,4.3C861,105.2,857.5,103.7,850.5,100.3z"/>
		<path class="st2" d="M766.5,89.6c-2.9,5.2-7.2,10.8-14,10.1C757.4,99.2,760.8,95.8,766.5,89.6z"/>
		<path class="st2" d="M783.9,74.6c-0.3,5.3-2.9,12.6-7.8,15.5C779.6,86.3,781.6,81.1,783.9,74.6z"/>
		<path class="st2" d="M799.3,69c0.6,3,0.5,7.5-1.5,9.7C799,76.2,799.2,73,799.3,69z"/>
		<path class="st2" d="M811.5,65.9c-1.3,2.8-0.8,7.5,0.7,10.1C811.6,73.2,810.7,69.8,811.5,65.9z"/>
		<path class="st2" d="M774.7,75.8c-0.7,3.8-3.5,12.4-5.9,14.2C770.5,87.7,773,79.9,774.7,75.8z"/>
		<path class="st2" d="M755.2,101c-3.3,2.1-9.2,4.1-11.3,3.6C745.8,104.2,751.1,101.6,755.2,101z"/>
		<path class="st2" d="M759.7,92.2c-3.3,1.8-10.7,7.8-15.6,6.4C747.4,98.3,756.7,92.6,759.7,92.2z"/>
		<path class="st2" d="M838,88.5c2.2,4.9,7.2,9.2,12.3,8.8C847,96.4,840,91.7,838,88.5z"/>
		<path class="st2" d="M817.6,62.1c-0.5,2.1-2,7.8,0.1,9.9C817.5,70.2,817.8,65,817.6,62.1z"/>
		<path class="st2" d="M834.3,94.5c0.6,2.4,1.6,6.7,5.3,8.2C838.2,101.4,836.2,97.7,834.3,94.5z"/>
		<path class="st2" d="M753.3,104.8c-2,1.4-10.5,5.1-14.2,1C742.8,107.8,749.7,105.9,753.3,104.8z"/>
		<path class="st2" d="M745.7,102.4c-7.1,1.6-15-2.1-13.4-10.4C732.5,98,738,102.6,745.7,102.4z"/>
		<path class="st2" d="M828.8,74.3c2.7,7.8,2,17.9,9,19.6C832.1,90.4,832.8,81,828.8,74.3z"/>
		<path class="st2" d="M823.7,67.9c3.3,5.4,0.7,10.1,2,14.4C822.6,78.5,825.5,75.2,823.7,67.9z"/>
		<path class="st2" d="M839.8,97.2c3.3,5.4,5.4,8,12.2,8C847.3,104.1,845.3,102.7,839.8,97.2z"/>
		<path class="st2" d="M784.1,61.9c0.4,6.6-3.1,15.8-8,21.9C778.5,79.8,782.3,70.2,784.1,61.9z"/>
		<path class="st2" d="M781.8,63.1c-10.1,4.9-16.1,23.7-19.3,27.5C768.2,87.4,768.8,75.5,781.8,63.1z"/>
		<path class="st2" d="M822.7,62.8c10.7,3.5,15.7,24.8,20.2,26.9C836.9,89.4,836.3,73.7,822.7,62.8z"/>
		<path class="st2" d="M774,86c-5.4,10.5-8.3,17.1-14.6,20.7C765.1,104.8,770.7,99.5,774,86z"/>
		<path class="st2" d="M828.2,82.7c2.7,11.5,4.9,20.1,9.1,23.7C832.3,103.1,828.9,96.7,828.2,82.7z"/>
	</g>
	<g id="nose_2_">
		<path class="st2" d="M826.8,61.2c-1.7-2.8-5.2-8.2-7-10.8C822.9,53,825.7,57.9,826.8,61.2z"/>
		<path class="st2" d="M781.1,62.8c1.6-2.9,5.1-8.7,6.7-11.4C784.9,54.1,782,59.6,781.1,62.8z"/>
		<path class="st2" d="M816,48c1.8,1.3,4,3.4,4.2,4.6c0.1,1.2-0.3,3.2-1,4.1s-4.3-2-5.8-1.2c-1.5,0.8-6.6,6.9-7.7,7.8
			c-1.1,0.9-3.8,0.7-4.9-0.1s-7.6-6.7-8.2-8.8s1-11.1,1.3-12.5c0.2-1.3,3.2-11.2,3.2-11.2s-3.8,8.2-4.4,10.7s-2,11.5-1.6,13.2
			c0.4,1.7,8.2,8.9,9.5,9.9c1.3,1,4.6,1.4,5.9,0.1c1.3-1.3,6.2-6.9,7-8.1s5.1,2.1,6.1,1.4c1-0.7,1.5-4.2,1.2-5.7
			C820.6,50.7,817.5,47.8,816,48z"/>
		<path class="st2" d="M794.4,58.5c-0.9-1.2-6.4,2.1-7.4,1.4c-1-0.7-1.4-4.1-1.2-5.7c0.3-1.5,4.3-5.6,5.7-5.4
			c-1.8,1.3-5,4.3-5.1,5.6s0.3,3.4,1,4.4c0.7,1,4.6-2,6.1-1.1"/>
	</g>
	<g id="eyebrows_2_">
		<path class="st1" d="M855.7,7.9c-0.1-3.1-13.6-5.4-17.3-6.2s-15.6,0.5-17.4,1.2c-1.8,0.7-3.9,7-3.9,7C829.5,7.3,840.7,5,855.7,7.9
			z"/>
		<path class="st2" d="M821.3,2.5c-2.4,1.2-3.7,5.5-4.4,7.5C818.5,8.7,819.2,4.9,821.3,2.5z"/>
		<path class="st2" d="M826.4,2.6c-2.4,1.2-5.3,4.8-6.3,6.7C821.6,7.5,824.3,5,826.4,2.6z"/>
		<path class="st2" d="M831,1.3c-2.4,1.2-5.3,4.6-6.5,6.5C826,6.4,828.9,3.7,831,1.3z"/>
		<path class="st2" d="M834.7,3.1c-2.4,1.2-4.9,3.4-7.2,4.9C829.7,7,832.4,5.3,834.7,3.1z"/>
		<path class="st2" d="M840.6,2.5c-2.9-0.1-3.7,1-6.2,3.6C837.7,3.7,838.2,3.2,840.6,2.5z"/>
		<path class="st2" d="M848.1,4.5c-2.2-0.6-5.5,0.5-8.3,0.9C842.7,5.6,845.6,4.5,848.1,4.5z"/>
		<g>
			<path class="st1" d="M755.4,10c-0.1-3.1,13.3-6,17-6.9s15.6-0.2,17.5,0.4s4.2,6.8,4.2,6.8C781.5,8.2,770.2,6.4,755.4,10z"/>
			<path class="st2" d="M794.2,10.4c-1.7-1.3-2.6-5-4.8-7.3C791.9,4.2,793.4,8.4,794.2,10.4"/>
			<path class="st2" d="M791,9.8c-1.6-1.7-4.4-4.1-6.6-6.4C786.8,4.5,789.9,8,791,9.8"/>
			<path class="st2" d="M786.6,8.5c-1.7-1.3-4.6-3.9-6.8-6.2C782.2,3.4,785.3,6.7,786.6,8.5"/>
			<path class="st2" d="M783.5,8.9c-2.3-1-5-2.4-7.4-4.6C778.6,5.4,781.2,7.4,783.5,8.9"/>
			<path class="st2" d="M776.5,7.3c-3.3-2.3-3.9-2.7-6.3-3.4C773.1,3.6,773.9,4.7,776.5,7.3"/>
			<path class="st2" d="M771.1,6.8c-2.8,0.4-5.8-0.6-8.3-0.5C764.9,5.6,768.3,6.5,771.1,6.8"/>
		</g>
	</g>
	<g id="eyeglasses_2_">
		<path class="st2" d="M820.2,22.4c0,0-2,2.5-2,3.7c0,1.2,2.5,2.9,2.5,2.9s-1.1-1.5-1.3-2.9C819.2,24.8,820.2,22.4,820.2,22.4z"/>
		<path class="st2" d="M786.5,28.8c0,0,1.7-1.2,1.9-2.6s-1.2-3.4-1.2-3.4s2.7,2.4,2.5,3.7C789.7,27.9,786.5,28.8,786.5,28.8z"/>
		<path class="st2" d="M823.4,26.2c0,0,0.5-1.7,2.3-1.9s7.8,1.7,11.5,1.3c3.5-0.4,9.4-2.6,9.4-2.6c-0.5,1.1-3.9,3.6-9,4.2
			c-4.4,0.5-10.6-1.9-11.9-1.9C824.4,25.2,823.4,26.2,823.4,26.2z"/>
		<path class="st2" d="M785.2,26.5c0,0-0.6-1.7-2.5-1.7c-1.8,0-6.8,3-11,2.6c-3.8-0.3-8.8-1.4-8.8-1.4s4.1,2.3,8.2,2.8
			c4.4,0.5,10.3-2.9,11.6-3C784.1,25.7,785.2,26.5,785.2,26.5z"/>
		<path class="st2" d="M784.4,30c-1.8,2.7-4.6,4.5-6.5,5C780.5,35.3,783.5,32.6,784.4,30z"/>
		<path class="st2" d="M762.3,26.2c-1.2,1-2.1,1.6-2.2,2.6C759.9,27.5,761.1,26.8,762.3,26.2z"/>
		<path class="st2" d="M847.9,23.4c1.1,1.1,1.8,1.9,1.9,2.9C850.1,25,849,24.1,847.9,23.4z"/>
		<path class="st2" d="M822.8,29.4c1.8,2.7,5.5,4.8,7.4,5.2C827.6,34.9,823.7,32.1,822.8,29.4z"/>
		<path class="st2" d="M758.2,20.5c0.8,3.1,2.6,4.4,4.3,5.3C759.9,25.3,758.2,23.3,758.2,20.5z"/>
		<path class="st2" d="M850.7,16.9c-0.2,3.2-1.6,4.8-3.1,6.1C850,21.9,851.2,19.6,850.7,16.9z"/>
		<path class="st2" d="M865.4,11.2c-0.7-0.6-8.2-2.2-14.6-2.2c-5,0-31-1.5-37.9,2.9c-1.9,1.2-5.2,2.3-8.4,2.4h-0.1
			c-3.2-0.1-6.5-1.2-8.4-2.4C789.1,7.5,763.2,9,758.1,9c-6.4,0-13.9,1.6-14.6,2.2c-0.7,0.6-0.8,5.7,0,6.4s4.8,0,6.4,3.2
			s3.2,9.6,6.4,12.8c3.2,3.2,23.7,3.2,28.7,3.2c4.8,0,9.6,0,12.8-8c2.2-5.5,3.7-7.8,6.7-7.8s4.5,2.3,6.7,7.8c3.2,8,8,8,12.8,8
			c5,0,25.5,0,28.7-3.2c3.2-3.2,4.8-9.6,6.4-12.8c1.6-3.2,5.5-2.5,6.4-3.2C866.3,16.8,866.1,11.8,865.4,11.2z M791.2,34
			c-3.6,2.3-29,1.1-33.3-2.5c-4.3-3.6-9.1-17.1-1.9-19.4c11.2-3.2,38.6-2.2,40,4C798.1,26.2,794.8,31.7,791.2,34z M851,31.5
			c-4.3,3.6-29.7,4.8-33.3,2.5c-3.6-2.4-6.9-7.8-4.7-17.8c1.4-6.2,28.8-7.2,40-4C860.2,14.4,855.3,27.9,851,31.5z"/>
	</g>
</g>
</svg>
