<?xml version="1.0" encoding="utf-8"?>
<!-- Generator: Adobe Illustrator 23.0.3, SVG Export Plug-In . SVG Version: 6.00 Build 0)  -->
<svg version="1.1" id="Layer_1" xmlns="http://www.w3.org/2000/svg" xmlns:xlink="http://www.w3.org/1999/xlink" x="0px" y="0px"
	 viewBox="0 0 709 221.1" style="enable-background:new 0 0 709 221.1;" xml:space="preserve">
<style type="text/css">
	.st0{fill:#FF5F5F;}
	.st1{fill:#F9E75E;}
	.st2{fill:#333366;}
	.st3{fill:#E8E8E8;}
	.st4{fill:#F4EAB3;}
	.st5{fill:#3F3F3F;}
	.st6{fill:none;stroke:#FF5F5F;stroke-miterlimit:10;}
	.st7{fill:#FFFFFF;}
</style>
<g id="Layer_5">
	<rect y="126.5" class="st0" width="710" height="94.7"/>
</g>
<g id="Face">
	<rect x="299" y="0.4" class="st1" width="119.8" height="99.4"/>
</g>
<g id="Beard_BG_Color">
	<path class="st1" d="M416.8,21.9c2.4-3.9,2.7-5.4,4.3-3.8c1.6,1.6,1.9,9.1,0.7,11.7s-2.6,11.4-4.7,13.4
		C419.5,38.1,416.8,21.9,416.8,21.9z"/>
	<path class="st1" d="M300.6,21.5c-2.4-3.9-1.1-5-2.7-3.4s-1,8.9-0.7,11.7c0.7,6.7,1.9,8.6,3,13.1C299.4,37.3,300.6,21.5,300.6,21.5
		z"/>
	<path class="st2" d="M301.5,16c0,0-0.8,19.7-0.7,23.3s1.1,19.8,2.1,21c0.7-5,3.4-8.3,4.8-10.4c-0.1,7,0.3,22.3,2.6,25.3
		c1.5-3.5,2.8-3.8,4.2-3.7c-0.5,4.3,4.4,12.6,4.4,12.6l-30.7,73.2c-6.7,22.6-20.4,28.6-38.6,26.1c-17.8-2.5-17.3-18.9-15.7-20.7
		c-9.3,11.2-36.9,26.3-70.7,21.6s-39.9-31.8-62.3-57.9c-2.7,0-43.4,0-43.4,0S85.9,92,107,93.4c4.2-4.6,16.1-9.6,24.5-9.1
		s13.3,8,15.6,10.1c1.6-5.8,17.4-21.1,24.7-20c4-6.7,20.6-21.7,39.6-22.6c18.9-1,35.9,26.5,51.7,26.8c15.8,0.2,25.4-12.6,27.7-20.8
		s6.1-22.5,7.2-26.6s1-18.2,1-18.2l2.5-0.2L301.5,16z"/>
	<path class="st2" d="M393.6,83.2c1.7-8.7,2.4-17.6,0-27.2c5,7,8.7,13.5,9.4,18.6c0.7-5,0.7-9.7-1.2-13.6c2.9,0.8,5.9,1.7,7.3,4
		c1.3-5.2,1.3-10.2-0.4-15.1c2.9,2.3,5.1,5.2,5.7,9.8c0.2-5.8,0.1-11.6-0.9-17.7c1.3,2.4,2.1,4.8,2,7.1c2.9-8.1,1.2-20.8,0.6-33.7
		l3.6-0.2c0,0-0.6,9.9,0,13.6s4,8.9,4.8,12.8c0.8,3.9,1.6,12.2,2.7,14.7c1.1,2.5,9.7,10.2,15.3,9.4s9.4-7.8,10.3-11.9
		s-0.4-11.7-0.4-11.7s6.6,8.3,7.1,12.2c0.5,3.9-1,9.1-1,9.1c15.6-12.5,28.1-30,58.2-19.1c34.4-28,62.8,13.2,80.5,15.6
		c7.5,1,15.5-0.2,20.6-5.2c5.2-5,8-9.9,7.9-15c0.4-7.4-3.3-11.1-10.1-12.6c9.7-2.5,17,8.2,16.9,10.9c0.7-4.1-2.4-10.3-12.9-12.9
		c14.8-1.5,20.6,5.8,22.1,15.7s-1.2,17.2-5,23.4c-4.8,7.9-36.4,54.5-44.2,61.8c-6,5.6-25.6,13.3-64.5,14
		c-35.6,0.6-68.2-12.3-68.2-12.3l-61.5-32.6L393.6,83.2z"/>
	<path class="st2" d="M323.7,87.1l66,2.1l55.7,1.7c11.6,16.3,26.2,33.6,28.3,43.3s-0.4,17.7-7.3,23.5c1-6.8,1.1-13.3-2.7-18
		c-1.8,16.3-9.3,24.1-19,28.9c2.1-3.1,2.6-6-0.2-8.2c-2.3,7.1-5.5,12-10.1,13.8c0.5-1.9,0.9-3.6-1-4.6c0,0-10.1,17.7-20.5,19.9
		c4.7-4.1,10.1-14.5,9.8-26.4c-3.3,9-35.4,54-67.6,52.5c15.8-3.4,20.9-15.6,25-20.8c-12.9,2.5-16.3-11.2-16.3-11.2
		c-2.6,11.6-8.3,22.2-17.6,31.4c1.1-3.1,1.5-6,0-8.2c-2.5,4.2-5.2,7.9-8.8,9.2c0.5-0.9,1.6-2.8,1.5-4.6c-1.7,1.3-5.5,3.1-8.2,3.3
		c2.3-2.7,4.6-5.5,4.7-9.3s-0.9-9.1-4.3-13.1c-1.1,5.4-0.7,10.5,0.6,15.5c-4.5-3.2-7.1-9.2-7.5-18.9c-1.6,6.6-1.2,12.2,0.6,17.2
		c-2.7-3.9-4.8-8.9-6.3-15.3c0,5.9,0.6,11.3,2.5,15.7c-6.7-9.3-13.5-18.7-12.3-29.3c-2.7,2.8-3.2,9-3.3,15.9
		c-3.1-6.4-5.6-13.1-6.3-21.1c-2.1,4.3-1.7,10.3-0.8,16.6c-5.5-8.9-10.1-17.4-12.6-25.3l5.4-59.1L323.7,87.1z"/>
	<path class="st2" d="M553.3,124.5c0,0,22.7-0.5,38.9,1.8c13.5,1.9,8.8,31.9-3.6,35.9c3.1,2,6.8,1.7,9.3,1c-1.2,1.9-1,2.4-0.6,3.5
		c2.2,5.5,7.7,12.8,25,6.1c17.7-6.9,29.1-23.7,29.8-58.1s-19.2-45.6-19.2-45.6L553.3,124.5z"/>
	<path class="st2" d="M470,130c0,0,11.8,12.8,27.1,11.2c-10.6-6.4-3.7-11-3.7-11L470,130z"/>
	<path class="st2" d="M617.8,174.4c0.6-1.4,15.1-10.8,15.1-10.8s8.8,16-0.5,25.8C633.1,177.3,620.2,173.3,617.8,174.4z"/>
	<polygon class="st2" points="299.2,12.5 301.6,12.6 302.5,0.4 298.7,0.4 	"/>
	<polygon class="st2" points="415.3,13.1 419.4,13 420.2,0.4 414.9,0.4 	"/>
</g>
<g id="Beard_Details">
	<path class="st0" d="M513.2,76.1c-6.3-0.9-11-1.1-15.4,4.1C501.6,77.3,505.4,76.8,513.2,76.1z"/>
	<path class="st0" d="M298.8,32.9c0.1,3.8-1,12.9-3.1,15C297,45.4,298,37.3,298.8,32.9z"/>
	<path class="st0" d="M303.2,60.7c0,3.8-1.3,12.9-3.4,15C301.1,73.2,302.3,65.1,303.2,60.7z"/>
	<path class="st0" d="M193.8,80.5c2.1-2.6,5.9-5.4,9.1-5.2C200,76.1,197.2,78,193.8,80.5z"/>
	<path class="st0" d="M357.3,107.3c0.2,3.3-2,10.2-4.5,12.2C354.5,117,356.5,111.5,357.3,107.3z"/>
	<path class="st0" d="M473.6,100.7c1.6,3.4,8,8.9,12,9.5C482.3,108.6,476.8,104.3,473.6,100.7z"/>
	<path class="st0" d="M457.4,87.8c3.4,1.4,11.5,1.6,14.7-0.4C468.7,88.3,462,88.5,457.4,87.8z"/>
	<path class="st0" d="M529.4,67.6c-3.5-1.2-11.6-0.9-14.6,1.3C518,67.8,524.7,67.2,529.4,67.6z"/>
	<path class="st0" d="M555.3,44.3c-1.8-3.2-8.1-8.4-11.8-8.8C546.7,36.9,552,40.9,555.3,44.3z"/>
	<path class="st0" d="M630.9,38.5c-1.4-3.4-5.8-9.6-9.5-10.4C624.4,29.8,628,34.8,630.9,38.5z"/>
	<path class="st0" d="M202,88.2c3.9-2,10.1-3.5,13.9-1.6C211.9,85.9,207.5,86.9,202,88.2z"/>
	<path class="st0" d="M235.5,138.1c2.3-3.8,6.8-8.2,11-8.6C242.9,131,239.5,134.1,235.5,138.1z"/>
	<path class="st0" d="M250.1,144.5c5-0.9,10.6,1.3,13.1,4.7C260,146.9,255.4,144.9,250.1,144.5z"/>
	<path class="st0" d="M352.6,113.2c2.7-4.3,2.7-10.3,0.5-13.9C354,103.2,354.2,108.1,352.6,113.2z"/>
	<path class="st0" d="M305.8,162.7c-3.3,3.8-4.3,9.8-2.7,13.7C302.8,172.4,303.4,167.5,305.8,162.7z"/>
	<path class="st0" d="M289.9,152.5c-3.3,3.8-4.3,9.8-2.7,13.7C286.9,162.2,287.5,157.3,289.9,152.5z"/>
	<path class="st0" d="M233.9,110.4c-4,1.9-10.2,3.2-13.9,1.2C223.9,112.3,228.4,111.5,233.9,110.4z"/>
	<path class="st0" d="M266.1,150.6c2.6,3.6,5,9.4,3.7,13.4C269.8,160,268.2,155.8,266.1,150.6z"/>
	<path class="st0" d="M276.5,148.3c-1.1-4.3,2.2-18.6,4.8-21.9C279.9,130.1,276.5,142.6,276.5,148.3z"/>
	<path class="st0" d="M321.8,195c-1.9-4-2.5-12.4-0.5-16.1C320.5,182.8,320.6,189.5,321.8,195z"/>
	<path class="st0" d="M245.8,125.1c4.4-0.1,10.5-1.7,13-5.2C255.6,122.4,251.3,123.7,245.8,125.1z"/>
	<path class="st0" d="M202.5,63.9c3.1-1.3,7.8-2,10.5-0.3C210,62.8,206.7,63.3,202.5,63.9z"/>
	<path class="st0" d="M171.9,74.4c1.5-3,4.5-6.7,7.6-7.3C176.9,68.5,174.6,71.1,171.9,74.4z"/>
	<path class="st0" d="M257.2,80.7c-3.8,0.6-19.8-0.8-25.2-3.4C241,78.5,253,80.4,257.2,80.7z"/>
	<path class="st0" d="M129.6,143.7c-3.6-1.3-23-16.5-26.5-21.4C110.4,127.8,126.1,141.4,129.6,143.7z"/>
	<path class="st0" d="M300.5,138.8c0.7,3.7-0.7,23.4-3.2,28.9C298.4,158.6,300.3,143,300.5,138.8z"/>
	<path class="st0" d="M349.8,97.2c1.1,5.1,0.2,19.3-4,22C347.7,116.6,350,100.8,349.8,97.2z"/>
	<path class="st0" d="M342.1,95.8c-0.7,5.3-5.2,13.7-1.5,19.2C340.6,110,342.4,102.5,342.1,95.8z"/>
	<path class="st0" d="M354,150c-4.8-21.5,10.4-43.6,7.3-48.9C362.8,108.2,345.1,137.7,354,150z"/>
	<path class="st0" d="M205.4,59.9c-6.9-0.7-22.1,5.6-24.3,11.9C186.1,66,198.4,60.7,205.4,59.9z"/>
	<path class="st0" d="M372.3,144.5c3.5-2.8,3.4-19.4-3.7-27.4C372.9,123.4,373.4,137.6,372.3,144.5z"/>
	<path class="st0" d="M335,116.3c-4.1,1.9-8,18-3.1,27.5C329.3,136.6,332.3,122.7,335,116.3z"/>
	<path class="st0" d="M205.8,84.6c10.3-4.9,11.8-6.9,21.7-6.9C219.9,75.4,211,80.5,205.8,84.6z"/>
	<path class="st0" d="M262.3,122.7c8.7-9.7,11.1-15.2,17-20C272.1,106.7,265.1,118.2,262.3,122.7z"/>
	<path class="st0" d="M283.3,164.3c3.8-12.5,3.8-18.4,7.1-25.3C285.5,145.6,284,159,283.3,164.3z"/>
	<path class="st0" d="M281.4,87.4c-11.1,2.6-13,4.2-22.7,2.1C265.6,93.3,275.4,90.2,281.4,87.4z"/>
	<path class="st0" d="M395.4,134.3c3.3,11,5,12.7,3.5,22.5C402.3,149.8,398.6,140.1,395.4,134.3z"/>
	<path class="st0" d="M197.2,58.3c6.1-4,26.2-5.5,30.7,1.6C220.4,55.3,205.2,54.5,197.2,58.3z"/>
	<path class="st0" d="M208.1,157.5c-6.4,3.6-26.4,4-30.6-3.3C184.8,159.2,200,160.8,208.1,157.5z"/>
	<path class="st0" d="M350.6,114.6c1.5,7.2-5.2,27.8-13.4,29.6C344.2,138.8,351.2,123.4,350.6,114.6z"/>
	<path class="st0" d="M127.8,119.1c-0.4-8.4-10.6-23.7-19-25C116,99.2,126,110.3,127.8,119.1z"/>
	<path class="st0" d="M366.6,96.4c0.7,7.4,3,18.3,8.9,22.2C371.6,113.6,368.7,102.7,366.6,96.4z"/>
	<path class="st0" d="M430.1,75.1c4.8,5.7,13,13.2,20.1,13C443.9,86.4,435,79.5,430.1,75.1z"/>
	<path class="st0" d="M314.5,164.3c-2.9,6.9-5.8,17.6-2.4,23.8C310.4,181.9,312.9,170.9,314.5,164.3z"/>
	<path class="st0" d="M202,71.2c8.4-6.1,21.1-1.8,28.3,1.2C222.9,70.1,213.3,66.5,202,71.2z"/>
	<path class="st0" d="M333.9,161c-4.8-9.3,1.4-21.1,5.4-27.8C336,140.2,331,149.1,333.9,161z"/>
	<path class="st0" d="M85.5,118.2c10.4,0,18.7,11,22.8,17.7C103.6,129.7,97.4,121.1,85.5,118.2z"/>
	<path class="st0" d="M373.2,92.9c3.6,6.6,6.8,19.8,14,24C382.5,111.8,379.3,98.9,373.2,92.9z"/>
	<path class="st0" d="M317.4,158.7c-0.5,8.6-3.5,29.2-0.7,37.9C315.4,189.2,319.5,167.9,317.4,158.7z"/>
	<path class="st0" d="M337.5,93.1c-2.7,7-4.8,21.3-9.3,25.9C330.4,114.8,332.2,99.8,337.5,93.1z"/>
	<path class="st0" d="M222.6,82.2c11-2.4,27.3,8.7,32.1,9.7C248.3,92.8,241.5,82.9,222.6,82.2z"/>
	<path class="st0" d="M348.9,152.2c5.3,9.9-1.1,28.7-0.8,33.5C345.5,179.9,353.2,170.7,348.9,152.2z"/>
	<path class="st0" d="M131.1,98.1c8.1,7.8,7.9,27.6,9.7,32.1C136.5,125.4,141,114.3,131.1,98.1z"/>
	<path class="st0" d="M401.1,162.2c1.3,11.2-11.3,26.3-12.8,31C388,186.8,398.5,180.9,401.1,162.2z"/>
	<path class="st0" d="M219.9,65.2c15.1,1.2,21,9.8,29,11.5C239.3,73,233.4,64.5,219.9,65.2z"/>
	<path class="st0" d="M298.2,47.3c-4.1,14.6-12,21.8-15.3,29.3C288.4,67.9,296.2,60.7,298.2,47.3z"/>
	<path class="st0" d="M274.2,77.6c-10.8,4.8-17.2,8.1-24.4,7C255.5,86.6,263.1,86,274.2,77.6z"/>
	<path class="st0" d="M305.5,61.4c-1.3,11.8-1.6,19-6.1,24.6C304,82.1,307.3,75.3,305.5,61.4z"/>
	<path class="st0" d="M268.3,96.2c-11.8,0.7-19,1.7-25.3-1.9C247.6,98.2,254.9,100.3,268.3,96.2z"/>
	<path class="st0" d="M271.7,145.4c-1.5-12.2,3.6-25.9,7.2-32.2C275,117.8,267.8,132,271.7,145.4z"/>
	<path class="st0" d="M357.3,169.9c0.3,11.8,1,19-2.7,25.2C358.6,190.7,360.9,183.4,357.3,169.9z"/>
	<path class="st0" d="M75.4,121.2c10.1-6.2,15.9-10.4,23.2-10.3C92.6,109.6,85.2,111.3,75.4,121.2z"/>
	<path class="st0" d="M99.1,107.3c10,6.3,16.3,9.8,19.4,16.4C117.1,117.8,112.4,111.8,99.1,107.3z"/>
	<path class="st0" d="M172.3,90.9c3.7,7.3,4.8,9.4,12.4,13.1C176.8,98.8,174.1,93.5,172.3,90.9z"/>
	<path class="st0" d="M260,129c0.1,8.2,0.2,10.6,5.5,17.2C260.8,138.1,260.6,132.1,260,129z"/>
	<path class="st0" d="M276.5,166.8c3.7-7.3,4.7-9.5,3.1-17.8C280.1,158.5,277.5,163.8,276.5,166.8z"/>
	<path class="st0" d="M342.1,199.4c2.1-7.9,2.6-10.3-0.6-18.1C343.9,190.5,342.5,196.3,342.1,199.4z"/>
	<path class="st0" d="M340,137.4c3.6-7.4,4.6-9.5,3-17.8C343.5,129,340.9,134.4,340,137.4z"/>
	<path class="st0" d="M108,122.1c-6.3-5.3-8.2-6.8-16.6-7.1C100.7,116.7,105.3,120.4,108,122.1z"/>
	<path class="st0" d="M132.7,162.7c5.5,6.1,7.1,7.9,15.4,9.4C139.1,169.1,135.1,164.8,132.7,162.7z"/>
	<path class="st0" d="M119.2,113.1c2.2,7.7,3,10,10.4,15.9C122.3,121.7,120.6,116.1,119.2,113.1z"/>
	<path class="st0" d="M367.5,160.3c2.2-7.9,2.7-10.2-0.5-18.1C369.4,151.4,367.9,157.2,367.5,160.3z"/>
	<path class="st0" d="M237.4,174.3c0.9,3.7,9.7,10.2,21,8C249.9,183.7,239.8,178.6,237.4,174.3z"/>
	<path class="st0" d="M160.3,117.4c1.3,3,4.2,6.8,7.3,7.5C165,123.4,162.9,120.7,160.3,117.4z"/>
	<path class="st0" d="M184.9,97.1c1.9,4,9,8.8,13.2,9.5C194.6,104.7,188.5,101.4,184.9,97.1z"/>
	<path class="st0" d="M371.6,177.4c-0.4,4.4,3.3,12.1,6.5,14.9C376,188.9,372.5,183,371.6,177.4z"/>
	<path class="st0" d="M191.5,129.2c3.5,2.7,12,4,16,2.9C203.6,131.9,196.6,131.6,191.5,129.2z"/>
	<path class="st0" d="M234.1,117.1c3,1.4,7.7,2.2,10.5,0.7C241.6,118.4,238.3,117.8,234.1,117.1z"/>
	<path class="st0" d="M348.1,211c0.5-2,0.7-5.4-0.1-7.7c0,0,0.2-0.2,0.3-0.3C349.3,205.7,349.1,208.9,348.1,211z"/>
	<path class="st0" d="M251.5,147.7c-1.8-0.9-4.1-0.3-6.2,0.4c0,0-0.2-0.3-0.2-0.3C247.5,146.7,249.6,146.2,251.5,147.7z"/>
	<path class="st0" d="M337.2,181.4c-1.4,3-2.2,7.7-0.6,10.4C336,188.9,336.5,185.6,337.2,181.4z"/>
	<path class="st0" d="M350,208.7c2.3-2.4,6.1-9,5.6-12.1C355.2,199.5,352.2,205,350,208.7z"/>
	<path class="st0" d="M371.8,159.6c-1.5,3-2.6,7.6-1.1,10.4C370.2,167,370.9,163.7,371.8,159.6z"/>
	<path class="st0" d="M150.4,99.5c1.7,2.8,3.8,5.3,7,5.5C154.6,103.9,153.4,102.5,150.4,99.5z"/>
	<path class="st0" d="M373.5,169.6c0,3.3,2.1,10.4,4.7,12.3C376.3,179.5,374.5,173.7,373.5,169.6z"/>
	<path class="st0" d="M238.3,120.5c-3.7-0.9-19.8-0.9-25.4,1.1C221.9,121.2,234.1,120.4,238.3,120.5z"/>
	<path class="st0" d="M338.9,176.3c1.7,6.6,2.8,27.6-1.5,30.4C340.7,199,339.2,181.1,338.9,176.3z"/>
	<path class="st0" d="M257.6,180.7c6.4-1.5,7.3-1.3,12.6-4.6c3.9-2.4,7-5.5,9-8.7C272.3,175.3,267.4,178.2,257.6,180.7z"/>
	<path class="st0" d="M266.9,174.9c3.9-5.4,4.7-5.8,6.5-11.7c1.4-4.3,1.7-8.7,1.2-12.5C274.5,161.3,272.7,166.7,266.9,174.9z"/>
	<path class="st0" d="M406,182.8c3.7-2.4,12.6-17.9,10.6-25.2C415.3,168.4,408.8,180.4,406,182.8z"/>
	<path class="st0" d="M376.6,204.3c2.8-2.5,11.8-15.9,13.2-21.7C385.1,190.4,379,200.9,376.6,204.3z"/>
	<path class="st0" d="M190.6,95.4c-2-6.4-13.1-17.2-19.7-16.9C178.2,81,186.7,89.6,190.6,95.4z"/>
	<path class="st0" d="M333.8,183.1c4-5.4,7-21.6,2.9-26.8C338.9,163.7,336.1,176.5,333.8,183.1z"/>
	<path class="st0" d="M132.3,108.8c-2-6.4-13.1-17.2-19.7-16.9C119.8,94.5,128.3,103,132.3,108.8z"/>
	<path class="st0" d="M194,107.5c10.1,5.3,11.5,7.3,21.4,7.8C207.8,117.3,199.1,111.8,194,107.5z"/>
	<path class="st0" d="M366.7,167c1.4,11.4,0.5,13.6,5.8,22C366.6,183.9,366.1,173.6,366.7,167z"/>
	<path class="st0" d="M315.3,141.2c5.6-9.8,7.3-11,8.9-20.8C324.9,128,319.4,136.3,315.3,141.2z"/>
	<path class="st0" d="M181.8,116.4c6.4,8.2,26,8.1,33.7,7.2C207.8,123.7,191.4,124.1,181.8,116.4z"/>
	<path class="st0" d="M118,141.5c2.5,10.1,20.4,18,27.8,20.4C138.7,158.8,123.6,152.3,118,141.5z"/>
	<path class="st0" d="M143.1,118c-0.9,11.7,6.7,27.5,11.3,33.8C150.5,145.1,145,129.5,143.1,118z"/>
	<path class="st0" d="M362.1,114.3c-5.3,9.9,1.9,29.3,0.4,35.4C367,144.5,357.7,132.8,362.1,114.3z"/>
	<path class="st0" d="M323,113.4c-9.1,6.6-14.3,32-18.2,36.9C311,147.5,311,128.1,323,113.4z"/>
	<path class="st0" d="M203.6,127.7c14.9,3.1,22.9-3.6,31.1-3C224.4,125.5,216.4,132.1,203.6,127.7z"/>
	<path class="st0" d="M349.2,135.9c-5.5,14.2-0.2,23.2-2.1,31.1C348,156.8,342.8,147.8,349.2,135.9z"/>
	<path class="st0" d="M156.5,107.2c7.9,2.2,10.2,2.9,15.3,9.7C165.1,110.2,159.4,108.5,156.5,107.2z"/>
	<path class="st0" d="M394.9,188.1c-3.6,7.4-4.7,9.5-12.3,13.3C390.4,196.1,393.1,190.7,394.9,188.1z"/>
	<path class="st0" d="M337.4,117.9c0,3.5-0.7,12.3-2.9,14.6C335.8,129.9,336.3,122.3,337.4,117.9z"/>
	<path class="st0" d="M588.1,78c-3.5,0.5-12.3,1.1-14.9-0.8C576.1,78.1,583.7,77.6,588.1,78z"/>
	<path class="st0" d="M354.2,189.1c-1.3,4.4-1.5,13.3-3.5,15.9C351.8,202.2,352.2,192.6,354.2,189.1z"/>
	<path class="st0" d="M163,79.8c4.1,1.6,9.3,5.2,10.5,9.2C171.3,85.7,167.6,83,163,79.8z"/>
	<path class="st0" d="M207.1,106.7c-3.2-0.8-7.4-3-8.6-6C200.4,103,203.3,104.7,207.1,106.7z"/>
	<path class="st0" d="M68.6,121.3c1.4-3,4.3-6.8,7.4-7.4C73.4,115.4,71.2,118,68.6,121.3z"/>
	<g>
		<path class="st0" d="M94,125.7c1.6-2,1.3-1.7,2.8-3.1c-0.2-0.1-0.4-0.2-0.5-0.3C95.6,123.1,95.1,123.6,94,125.7z"/>
	</g>
	<path class="st0" d="M225,148.7c-1.8,2.8-5.4,6-9.1,6.1C219.1,153.8,221.8,151.6,225,148.7z"/>
	<path class="st0" d="M343.3,201.6c-0.2,3.3-1.5,7.9-4.2,9.6C341,208.9,342.1,205.6,343.3,201.6z"/>
	<path class="st0" d="M409.1,152.5c1.3,3,3.8,12.2,0.2,16.1C411.2,164.3,409.8,156.7,409.1,152.5z"/>
	<path class="st0" d="M253.6,100.7c-2,2.6-7.7,8.2-10.9,8.1C245.6,107.9,250.3,103.3,253.6,100.7z"/>
	<path class="st0" d="M390.1,120.1c2.4,2.3,5.1,6.3,4.7,9.4C394.3,126.6,392.4,123.6,390.1,120.1z"/>
	<path class="st0" d="M286.4,67.3c-1.6,3.5-11.7,16-16.8,19.1C275.6,79.6,283.8,70.6,286.4,67.3z"/>
	<path class="st0" d="M181.1,106.4c3.3,6.1,21.8,16,28.1,14.3C201.6,119.9,185.7,111.7,181.1,106.4z"/>
	<path class="st0" d="M264.3,114.4c-6.2,3-16.3,22.4-14.9,28.8C250.6,135.7,258.8,118.8,264.3,114.4z"/>
	<path class="st0" d="M161.3,163.5c5.3,4.4,26.2,6.8,31.4,2.8C185.3,168.4,167.5,166.6,161.3,163.5z"/>
	<path class="st0" d="M217.7,158.2c6.9-0.7,23.3-13.7,24.2-20.2C238.1,144.7,224.3,156,217.7,158.2z"/>
	<path class="st0" d="M275.3,111.2c-5.3,4.4-11.5,24.5-8.5,30.3C266.1,133.9,271.1,116.8,275.3,111.2z"/>
	<path class="st0" d="M346.3,206.5c4.8-4.9,9-25.5,5.4-31C353.2,183,350,200.6,346.3,206.5z"/>
	<path class="st0" d="M275.7,86.1c7.8-0.8,23.5-19.7,23.5-26.3C296.4,66.9,283.9,83,275.7,86.1z"/>
	<path class="st0" d="M146.1,157.1c0-7.8-17.2-25.4-23.7-26C129.2,134.6,144,148.6,146.1,157.1z"/>
	<path class="st0" d="M184.3,177c-4.3,2.6-26.2,1.1-29.4-2.9C159.8,176.9,179.6,178.5,184.3,177z"/>
	<path class="st0" d="M257.7,113.2c-9.2,6.8-11.8,11.2-21.6,13.1C244,127.1,253.3,118.2,257.7,113.2z"/>
	<path class="st0" d="M274.3,101c-3.9,6.2-27.6,17.6-34.7,13.1C248.5,115.1,268.6,107.8,274.3,101z"/>
	<path class="st0" d="M363.7,183.4c-4-6.1-5.5-26.2,1.6-30.7C359.6,162.7,360.9,169.9,363.7,183.4z"/>
	<path class="st0" d="M307.8,173.5c-0.4-6.1,5.7-27.9,12.1-31.2C314,152.9,307.5,167.7,307.8,173.5z"/>
	<path class="st0" d="M154.5,86.2c10.4,0.3,17.7,11.6,21.6,18.3C171.6,98.2,166.3,89.5,154.5,86.2z"/>
	<path class="st0" d="M297.5,145.5c-4.1-9.6,2.9-21,7.4-27.4C301,124.9,295.4,133.4,297.5,145.5z"/>
	<path class="st0" d="M292.1,77.8c-0.7,10.4-13.2,18.2-21.2,20.3C278.4,94.2,288.5,89.5,292.1,77.8z"/>
	<path class="st0" d="M327.4,200.1c-4.7-9.3,4.8-21,7.5-28.5C333,179.1,324.6,188.2,327.4,200.1z"/>
	<path class="st0" d="M124.4,86.3c10.1,2.4,15.1,14.8,17.6,22.2C138.8,101.4,135.3,91.8,124.4,86.3z"/>
	<path class="st0" d="M87.9,102c9.1-5.1,21.2,0.7,28,4.5C108.7,103.4,99.6,98.7,87.9,102z"/>
	<path class="st0" d="M155.1,94.3c10.6,3.7,14.6,18.5,24.2,24.5C169.5,116.2,169.4,104.2,155.1,94.3z"/>
	<path class="st0" d="M294.9,180.3c-5.3-9.9,1.9-23.5-1-34.4C299.2,154.4,291.2,163.3,294.9,180.3z"/>
	<path class="st0" d="M186,163.1c-10.7,3.3-22.8-6.2-34-5.4C161.4,154,168.6,163.6,186,163.1z"/>
	<path class="st0" d="M341.4,147c5.3,9.9-0.5,23.7,2.4,34.6C338.4,173.1,345.1,163.9,341.4,147z"/>
	<path class="st0" d="M155.2,135.1c-7.9-8-5.1-23-11-32.6C151.8,109.1,146.7,120,155.2,135.1z"/>
	<path class="st0" d="M126.1,107.8c9,6.7,7.5,22.3,14.8,30.9C132.4,133.3,136.7,121.6,126.1,107.8z"/>
	<path class="st0" d="M363.5,101.1c6.3,9.3,0.7,23.6,4.7,34.1C361.9,127.2,369,117.5,363.5,101.1z"/>
	<path class="st0" d="M359,138.7c3.5,10.7-5.8,22.9-4.8,34.1C350.4,163.5,359.8,156.1,359,138.7z"/>
	<path class="st0" d="M182,125.5c-14.9-3.1-19.6-12.3-27.3-15.1C163.7,115.3,168.5,124.5,182,125.5z"/>
	<path class="st0" d="M621.1,88.1c7.3,10.8,11.9,14.6,15.2,21.5C634.2,101.6,624.8,91.9,621.1,88.1z"/>
	<path class="st0" d="M158.2,118.8c0,0-0.6,0-0.9,0.1c-0.1-0.3-1.8-7.6-2.1-8C155.6,111,157.5,115.7,158.2,118.8z"/>
	<path class="st0" d="M86.1,126.4h1c1.4-2,3.4-3.6,6-5.9C89.4,123,87.6,124.2,86.1,126.4z"/>
	<path class="st0" d="M458.2,64.8C454,75,445.9,80.2,435.9,80.7C444.7,79.4,452.7,74,458.2,64.8z"/>
	<path class="st0" d="M425.2,82.5C420,78.3,414,64.1,416.6,58C416.4,65.7,421.3,76.7,425.2,82.5z"/>
	<path class="st0" d="M418.8,44.4c2.4,12.8,1.8,18.7,4.3,25.9C418.9,63.2,418.8,49.7,418.8,44.4z"/>
	<path class="st0" d="M423.1,44.9c-0.1,3.8,1,12.9,3.1,15C424.9,57.4,424,49.3,423.1,44.9z"/>
	<path class="st0" d="M412.1,59.2c0.2,3.8,2.1,12.8,4.3,14.7C415,71.5,413.3,63.5,412.1,59.2z"/>
	<path class="st0" d="M399.3,69.5c4.1,14.6,12,21.8,15.3,29.3C409.1,90.1,401.3,82.9,399.3,69.5z"/>
	<path class="st0" d="M405.4,69.2c3.6,11.3,5.4,18.3,11,22.9C411.1,89.2,406.5,83.1,405.4,69.2z"/>
	<path class="st0" d="M430.4,92.3c-7.8-0.8-23.5-19.7-23.5-26.3C409.7,73.2,422.2,89.3,430.4,92.3z"/>
	<path class="st0" d="M457,53.1c0.8,3.2,0.7,8-1.3,10.4C456.8,60.7,456.9,57.3,457,53.1z"/>
	<path class="st0" d="M427.4,58.7c0.8,6.9,10.6,14.8,16.5,10.2C437.4,71.1,429.7,65.3,427.4,58.7z"/>
	<path class="st0" d="M449.4,72.7c-10.3,5-16.1,3.7-21.1-1.9C432.9,79.7,444.2,76.9,449.4,72.7z"/>
	<path class="st0" d="M454.2,48.6c3.7,9.8-2.4,22.7-12,24.7C450.3,69.6,456.2,61,454.2,48.6z"/>
	<path class="st0" d="M433.5,90.9c-8.7-12.5-5.7-22.4-9.4-29.8C427.3,70.9,424.4,80.9,433.5,90.9z"/>
	<path class="st0" d="M468.2,79.8c0.3-4.1,3.1-13,8.3-16.4c-3.8,3.9-7.4,11.7-7.3,15.7C469.3,80.2,468.5,79,468.2,79.8z"/>
	<path class="st0" d="M520.6,46.4c2.3-3.5,6.9-6.4,13.1-6.7c-6.2,1.3-9.8,3.4-11.7,6.9C521.4,47.7,521.3,45.9,520.6,46.4z"/>
	<path class="st0" d="M449.4,105.1c9.7,3.8,12.8,16.8,14.2,24.5C461.5,122.2,459.4,112.1,449.4,105.1z"/>
	<path class="st0" d="M439.9,121.1c1.2,4.3,1.2,14.8-1.4,18.1C439.9,135.5,440.1,126.8,439.9,121.1z"/>
	<path class="st0" d="M544.4,130.6c-3.2,3-12.5,8-16.7,7.3C531.7,137.4,539.6,133.4,544.4,130.6z"/>
	<path class="st0" d="M521.8,123.6c-4.3,1.1-14.8,0.9-18.1-1.8C507.4,123.3,516.2,123.7,521.8,123.6z"/>
	<path class="st0" d="M574.1,120.9c4.2-1.4,14.8-1.9,18.2,0.6C588.5,120.3,579.7,120.5,574.1,120.9z"/>
	<path class="st0" d="M497.7,122.3c-4.2-1.2-13.3-6.6-14.8-10.6C485.4,114.9,492.8,119.6,497.7,122.3z"/>
	<path class="st0" d="M487.8,138.9c-4.2-1.3-13.1-7-14.5-11C475.6,131.1,482.9,136,487.8,138.9z"/>
	<path class="st0" d="M540.6,124.5c-3.3,2.9-12.7,7.7-16.9,6.8C527.7,130.9,535.6,127.2,540.6,124.5z"/>
	<path class="st0" d="M472.2,116.9c-10.3-8-15.9-10.1-21.1-15.7C455.6,108.2,467.6,114.5,472.2,116.9z"/>
	<path class="st0" d="M540.9,107.2c-2.1,2.6-5.9,5.4-9.1,5.3C534.8,111.7,537.5,109.7,540.9,107.2z"/>
	<path class="st0" d="M461.7,75.6c1.2-3.6,4.1-8.2,7.8-9.3C466.5,68.3,464.3,71.5,461.7,75.6z"/>
	<path class="st0" d="M538.5,130.5c2.7-2,14.6-8.7,21.6-5.8C551.8,123.4,542.4,128.9,538.5,130.5z"/>
	<path class="st0" d="M535.2,114.3c-2.8,1.7-15.4,7.2-22.1,3.7C521.2,120.1,531.1,115.5,535.2,114.3z"/>
	<path class="st0" d="M499.3,54.1c3.2-0.9,16.8-2.8,22.3,2.3C514.2,52.3,503.5,54,499.3,54.1z"/>
	<path class="st0" d="M569.5,49.9c2.6,2.1,12,12,11,19.5C579.7,61,572,53.3,569.5,49.9z"/>
	<path class="st0" d="M437.3,88c2.1,3,6.1,6.5,5.4,11.4C442,96.2,438,90.9,437.3,88z"/>
	<path class="st0" d="M470.3,62.4c2.9-2.8,6-7.7,11.8-7.7C478,55.5,473,60.9,470.3,62.4z"/>
	<path class="st0" d="M474.8,112.5c2.9,2.3,7.7,4.4,8.5,9.3C481.6,119,476.3,115,474.8,112.5z"/>
	<path class="st0" d="M532.2,66.4c3.6,0.5,8.9-0.1,12,3.7C541.4,68.5,534.8,67.8,532.2,66.4z"/>
	<path class="st0" d="M530.8,37.4c3.6-0.6,8.5-2.6,12.6,0.1C540.2,36,533.7,37.5,530.8,37.4z"/>
	<path class="st0" d="M580.4,125.3c4-0.2,9.6-2,14,1.7C590.9,125.7,587.4,125.4,580.4,125.3z"/>
	<path class="st0" d="M479.8,92.4c4.9-5.5,31.1-12.7,37.4-7C508.7,83,486.5,86.7,479.8,92.4z"/>
	<path class="st0" d="M566.5,105.4c7.7,0.3,31.8,10.8,32.8,19.2C594.5,117.2,575.5,106.9,566.5,105.4z"/>
	<path class="st0" d="M556.5,42.2c6.8,2.7,22.7,24.8,19.5,32.7C575.4,66,564.2,46.5,556.5,42.2z"/>
	<path class="st0" d="M643.5,123.9c0.5,7.3-12.9,31-21.3,31.5C629.9,151,642.9,132.7,643.5,123.9z"/>
	<path class="st0" d="M514.4,120.8c-7.3,0.4-29.6-13.2-30.1-21.6C488.7,106.9,505.6,119.1,514.4,120.8z"/>
	<path class="st0" d="M465,91.4c5.9,2,13.3-0.4,17.2-5C477.8,90,471.8,92.4,465,91.4z"/>
	<path class="st0" d="M439.4,113.6c-1.6-7-2.4-14.4-8.4-17.3C433.5,100.6,436.4,103.2,439.4,113.6z"/>
	<path class="st0" d="M501.1,110.4c6.5,3.1,12.9,6.9,18.8,4C515,113.8,511.2,114.4,501.1,110.4z"/>
	<path class="st0" d="M628,114c1.7,8.2,4.3,16.4-0.9,22.3C628.6,131.7,630.4,127.4,628,114z"/>
	<path class="st0" d="M501.2,52.1c-7.2,0.5-14.6,0.3-18.3,5.8C487.2,55.4,490.5,53.5,501.2,52.1z"/>
	<path class="st0" d="M485.6,83.3c-3.8,0.7-12.9,1.1-15.3-0.5C473,83.6,481.1,83.2,485.6,83.3z"/>
	<path class="st0" d="M519.7,52.8c3.8,0.4,12.6,2.7,14.5,5C531.8,56.3,523.9,54.3,519.7,52.8z"/>
	<path class="st0" d="M638.1,104.8c2.2,4.6,1.7,10.5-0.8,13.9C638.6,115,639.3,110.1,638.1,104.8z"/>
	<path class="st0" d="M562.1,134.5c2.8-4.8,8.7-7.9,13.3-7.6C571.2,127.9,566.2,130.3,562.1,134.5z"/>
	<path class="st0" d="M616.4,120.9c3.7,4.1,4.9,10.6,3.3,15C619.9,131.5,619.1,126.1,616.4,120.9z"/>
	<path class="st0" d="M425.8,165.8c0.1,4.4-1.2,10.6-4.5,13.2C423.5,175.8,424.6,171.3,425.8,165.8z"/>
	<path class="st0" d="M438.2,160.7c0.8,4.3,1,8.4-1.9,11.5C438,168.6,438,166.3,438.2,160.7z"/>
	<path class="st0" d="M465.8,126.2c1.8,4,3,10.2,1,13.9C467.5,136.2,466.8,131.7,465.8,126.2z"/>
	<path class="st0" d="M443.8,132.3c1.4,4.2-1,18.7-3.5,22.1C441.5,150.7,444.2,137.9,443.8,132.3z"/>
	<path class="st0" d="M445,158.6c2.5-3.6,4.7-9.6,3.3-13.6C448.4,149.1,446.9,153.4,445,158.6z"/>
	<path class="st0" d="M526,64.1c-3.9,0-9.9-1.3-11.5-2.8C516.3,62,522.2,62.5,526,64.1z"/>
	<path class="st0" d="M539.5,123c3.3-1.6,11.6-1.8,13.4-2.2C551.1,120.6,542.6,120.6,539.5,123z"/>
	<path class="st0" d="M553.5,51.1c2.1,3.3,4.2,9.1,3.8,11.2C556.9,60.4,554.2,55.2,553.5,51.1z"/>
	<path class="st0" d="M469.7,85.6c-3.8,0.6-19.8-0.8-25.2-3.4C453.5,83.4,465.5,85.3,469.7,85.6z"/>
	<path class="st0" d="M544.6,72.1c-2.8,0.5-14.9-0.6-19-2.5C532.4,70.5,541.5,71.8,544.6,72.1z"/>
	<path class="st0" d="M637.1,44.8c2.9,5.7-9.5,25.1-15.4,25.6C625.6,68.8,637.5,51.9,637.1,44.8z"/>
	<path class="st0" d="M603.9,70.4c-2.8,0.5-14.9-0.6-19-2.5C591.7,68.8,600.8,70.1,603.9,70.4z"/>
	<path class="st0" d="M588.3,81.5c-2.8,0.5-14.9-0.6-19-2.5C576.1,79.9,585.1,81.3,588.3,81.5z"/>
	<path class="st0" d="M515.8,87.7c3.8,0,19.4,4.1,24.3,7.6C531.4,92.5,519.9,88.7,515.8,87.7z"/>
	<path class="st0" d="M520.3,134.1c-3.8,0.6-19.8-1.1-25.1-3.8C504.1,131.6,516.1,133.7,520.3,134.1z"/>
	<path class="st0" d="M508,72.7c3.8-0.6,23.4,1.2,28.8,3.8C527.8,75.3,512.2,73.1,508,72.7z"/>
	<path class="st0" d="M604.8,73.6c-3.7,0.9-22,2-27.5-0.1C586.4,74,600.7,73.6,604.8,73.6z"/>
	<path class="st0" d="M573.8,62.8c-3.7,0.9-23.5,0.6-29-1.6C553.9,61.8,569.6,62.8,573.8,62.8z"/>
	<path class="st0" d="M450.2,111.8c2.5,2.6,9.6,14.2,5,19.9C456.9,126.1,452.6,116.8,450.2,111.8z"/>
	<path class="st0" d="M478.1,51.8c2.9-2.2,24-8,30.5-1.9C499.3,46.1,483.3,50,478.1,51.8z"/>
	<path class="st0" d="M402.4,124.5c4.1,12.4,7.5,17.3,8.8,24.8C411.3,140.9,404.9,129.1,402.4,124.5z"/>
	<path class="st0" d="M431.2,129.6c1.9,15.4,5.1,21.9,4.7,31C438.3,151,433.1,135.6,431.2,129.6z"/>
	<path class="st0" d="M451.5,143.4c-0.7,11.4,0.3,13.6-4.5,22.3C452.7,160.3,452.6,150,451.5,143.4z"/>
	<path class="st0" d="M554.2,118.2c7.2,4.4,15.9,5.6,19.9-1.3C569.5,120.7,561.2,121.4,554.2,118.2z"/>
	<path class="st0" d="M625.3,140.1c2-8.1,0.4-18.3-7.4-20C622.7,121.1,626.2,130.8,625.3,140.1z"/>
	<path class="st0" d="M474.2,108c-11.2,0.5-25.4-13.3-30-15C450.7,93.1,455.7,104,474.2,108z"/>
	<path class="st0" d="M414.7,94.2c9.3,12,10.4,22.6,14.4,29.7C425.5,114.3,424.3,103.8,414.7,94.2z"/>
	<path class="st0" d="M414.7,84.8c6.9,9.6,11.5,15.2,11.8,22.5C427.3,101.3,425.2,94,414.7,84.8z"/>
	<path class="st0" d="M458.4,74.6c6.3-10,9.7-16.4,16.2-19.5C468.8,56.6,462.9,61.3,458.4,74.6z"/>
	<path class="st0" d="M431.9,148.9c-1,11.8,0,20.4-4.5,26.2C431.9,171.1,433.9,162.7,431.9,148.9z"/>
	<path class="st0" d="M466.2,118.2c5.3,11.1,4.8,25.7,3.4,32.8C471.9,145.4,474.1,129.7,466.2,118.2z"/>
	<path class="st0" d="M633.7,116.1c1.6,12.2-3.5,25.9-7,32.2C630.6,143.8,637.7,129.5,633.7,116.1z"/>
	<path class="st0" d="M633.4,31.7c1.6,12.2-3.5,25.9-7,32.2C630.3,59.3,637.3,45.1,633.4,31.7z"/>
	<path class="st0" d="M451.2,93.1c7.5,3.3,9.8,4.1,18,2C459.7,96.2,454.3,93.9,451.2,93.1z"/>
	<path class="st0" d="M582,116c-7.5-3.4-9.7-4.4-17.9-2.5C573.5,112.7,578.9,115.1,582,116z"/>
	<path class="st0" d="M627,168.8c7.2-3.9,9.3-5.1,12.7-12.9C634.7,163.9,629.5,166.9,627,168.8z"/>
	<path class="st0" d="M539.7,110c5.9,4.5,7.7,5.7,15.3,5.7C546.6,114.5,542.2,111.3,539.7,110z"/>
	<path class="st0" d="M603.2,137.3c1.2-7.3,1.5-9.5-2.1-16.2C604,129.1,603.2,134.5,603.2,137.3z"/>
	<path class="st0" d="M609.5,166.4c5.6-2.4,7.2-3.1,10.4-8.7C615.6,163.4,611.5,165.2,609.5,166.4z"/>
	<path class="st0" d="M633.8,184.6c0.5-6,0.6-7.8-2.8-13.3C633.9,177.8,633.6,182.2,633.8,184.6z"/>
	<path class="st0" d="M446.7,141.5c4.2-7,5.4-9.1,4.5-17.5C450.9,133.4,447.9,138.6,446.7,141.5z"/>
	<path class="st0" d="M634.2,78.4c-1.1-1.8-3-3.6-4.7-4.9c0,0,0.1-0.3,0.2-0.4C631.9,74.5,633.4,75.8,634.2,78.4z"/>
	<path class="st0" d="M509.5,136.3c7.5,2.7,21-1.4,24.8-5.5C525.2,136,516.2,137.2,509.5,136.3z"/>
	<path class="st0" d="M614.7,165.9c7.8-1,18-10.8,19.6-16.2C628.5,158.5,621.2,163.7,614.7,165.9z"/>
	<path class="st0" d="M581.9,123.1c-10.5-2.3-31.9,10.2-37.9,10.5C549.9,136.2,563.8,123.9,581.9,123.1z"/>
	<path class="st0" d="M477.4,68.7c1.5-2.9,6.1-9.4,9.3-9.9C484,60.1,480.2,65.5,477.4,68.7z"/>
	<path class="st0" d="M495,132.1c-3.7-0.9-17.9-8.5-21.9-12.9C480.9,123.8,491.3,130.2,495,132.1z"/>
	<path class="st0" d="M420.2,154.9c4.8-5,7.6-26.6,4-32.1C425.7,130.3,423.8,148.9,420.2,154.9z"/>
	<path class="st0" d="M446.6,130.3c2.5-6.4-3.1-27.5-8.5-31.3C442.3,105.4,447.7,123.4,446.6,130.3z"/>
	<path class="st0" d="M485.9,120.8c4.5,5.2,24.7,11,30.5,7.9C508.8,129.6,491.5,124.9,485.9,120.8z"/>
	<path class="st0" d="M534,87.7c-4.4-5.7-24.9-11.2-31.1-7.3C510.8,79,528.5,83.3,534,87.7z"/>
	<path class="st0" d="M542.1,98.6c3.5,6.3,23,14.7,29.7,11.8C563.8,110.6,547,103.8,542.1,98.6z"/>
	<path class="st0" d="M585.6,94.9c-2.2-6.8-19.7-18.9-26.9-17.3C566.7,78.9,581.8,88.8,585.6,94.9z"/>
	<path class="st0" d="M454,156.9c6.1-4.9,8.8-29.4,5.1-34.8C460.8,129.5,459.2,149.8,454,156.9z"/>
	<path class="st0" d="M522.3,50.3c-4.7-6.2-29.1-9.6-34.7-6.1C495.1,42.8,515.4,45,522.3,50.3z"/>
	<path class="st0" d="M427.5,97.4c5.5,4.9,12.9,30.1,7.3,36.3C437.2,125.2,433.2,104.1,427.5,97.4z"/>
	<path class="st0" d="M539.7,119.5c-6.6,8.1-19.9,7.2-27.7,6.2C519.8,125.9,530,126.9,539.7,119.5z"/>
	<path class="st0" d="M411.3,120.9c7.5,7.2,6.7,23.6,3.1,31C416.3,143.7,417.9,131.2,411.3,120.9z"/>
	<path class="st0" d="M558.6,70.9C547.1,72,536.9,60,525.5,58.5C535.7,56.7,541,67.8,558.6,70.9z"/>
	<path class="st0" d="M560.3,133.3c-5.9,4.5-15.6,1.4-22.4,4.5C542.9,133.3,549.6,137.6,560.3,133.3z"/>
	<path class="st0" d="M534.9,111.6c0.2-0.2,0.4-0.3,0.6-0.5c1.7,1.6,3.1,2.7,4.7,3.6C538,114.3,536.3,113.1,534.9,111.6z"/>
	<path class="st0" d="M625.3,171.8c-0.1,0.2-0.3,0.5-0.4,0.7c1.9,1.4,3.2,2.6,4.4,4C628.6,174.3,627.1,172.9,625.3,171.8z"/>
	<path class="st0" d="M561.5,62.6c-0.2,0-0.4,0-0.6,0c-0.1-1.7-0.3-2.9-0.7-4.2C561.2,59.7,561.5,61.1,561.5,62.6z"/>
	<path class="st0" d="M588.9,125.4v-0.2c-4.7,1.8-14.9,5.3-22.7,8c5.5-0.2,18.3-5.2,22.9-7.8C589,125.4,588.9,125.4,588.9,125.4z"/>
	<path class="st0" d="M625,118.6c0-3.8-3.3-11.5-6.7-13.8C620.6,107.7,623.7,113.9,625,118.6z"/>
	<path class="st0" d="M632,121.6c0.7-8.2,0.8-10.6-3.8-17.7C632.2,112.5,631.8,118.5,632,121.6z"/>
	<path class="st0" d="M635.5,96.9c-3.2-6.7-4.2-8.6-11-12C631.4,89.8,633.8,94.6,635.5,96.9z"/>
	<path class="st0" d="M639.2,86.8c1.7,3.4,4.9,19.2,4,25.1C641.8,102.9,640.1,90.9,639.2,86.8z"/>
	<path class="st0" d="M629.2,77.8c2.7,2.6,5.7,10.3,6.7,11.8C635.5,87.8,632.5,79.9,629.2,77.8z"/>
	<path class="st0" d="M640.9,99.8l0.7-0.8L640.9,99.8z"/>
	<path class="st0" d="M565.2,98.2c-3.8-0.4-26.1-11-30.6-15C542.9,86.9,561.3,96.7,565.2,98.2z"/>
	<path class="st0" d="M541.9,90.2c4.8,6.9,21.6,14.3,29.4,11.1C565.9,102.7,550,97.7,541.9,90.2z"/>
	<path class="st0" d="M611.9,143.8c4-7.4,3.6-24.3-2.9-29.8C612.6,122.1,614.8,135.4,611.9,143.8z"/>
	<path class="st0" d="M608.7,122.1c4.4,9.5-2.4,21.4-6.7,27.9C605.6,143.1,611.1,134.1,608.7,122.1z"/>
	<path class="st0" d="M571.8,73.7c-11.3,0.9-18.6,1.4-25.2-3.1C551,74.7,558.2,77.1,571.8,73.7z"/>
	<path class="st0" d="M588.2,109.6c10,6.3,16.3,9.8,19.4,16.4C606.1,120.2,601.4,114.2,588.2,109.6z"/>
	<path class="st0" d="M597.4,104c-10.7-5.1-17.4-7.8-21.2-13.9C578.3,95.7,583.7,101.1,597.4,104z"/>
	<path class="st0" d="M553,66.2c7.8,2.5,10.1,3.1,18.1,0.2C561.8,68.3,556.1,66.6,553,66.2z"/>
	<path class="st0" d="M601.7,112c-6.8-4.6-11-6.3-19.4-5.7C591.7,107,598.8,110.6,601.7,112z"/>
	<path class="st0" d="M591.5,161c6.5-3.5,9.2-2.6,13.1-10.4C599.3,158.6,593.8,159.2,591.5,161z"/>
	<path class="st0" d="M603.3,71.6c8-0.7,10.4-0.9,17.7-7C612.3,70.3,606.4,70.8,603.3,71.6z"/>
	<path class="st0" d="M640.3,45.7c-0.8-8-1.2-10.4-7.4-17.5C638.8,36.8,639.5,42.6,640.3,45.7z"/>
	<path class="st0" d="M600.4,66c6.4,1.9,21.5-1.3,25-6.9C619.3,63.7,607.4,65.9,600.4,66z"/>
	<path class="st0" d="M554.6,85.7c3.7,9.8,22.4,15.4,30.1,16.9C577.2,100.4,561.4,95.8,554.6,85.7z"/>
	<path class="st0" d="M646.3,88.3c2,2.7,3.8,11.1,2.9,14.1C649.1,99.4,647.9,92.2,646.3,88.3z"/>
	<g>
		<path class="st0" d="M514.2,66.1c-3-0.6-2.5-0.5-4.9-0.7c0-0.2,0.1-0.5,0.2-0.7C510.6,65,511.6,65.1,514.2,66.1z"/>
	</g>
	<path class="st0" d="M553.3,89.4c-3.5-6.9-27-14.6-33-12.2C527.9,77.2,547.5,82.9,553.3,89.4z"/>
	<path class="st0" d="M537,74.5c10.4-0.4,20.8,8,25.1,14.4C557.2,82.9,549,76.9,537,74.5z"/>
	<path class="st0" d="M620.5,67.3c-6.1,8.4-25.2,12.8-32.9,12.3C595.3,79.3,611.2,75.3,620.5,67.3z"/>
	<path class="st0" d="M555.3,78c9.4,2,14.2,15.1,23,19.3C569.8,96.2,568.6,85,555.3,78z"/>
	<path class="st0" d="M568.9,63.2l-0.9-0.4c-0.4-2.4-1.5-4.7-2.8-8C567.5,58.6,568.7,60.5,568.9,63.2z"/>
	<path class="st0" d="M409.6,110.8c-1-15.1-9.6-21.1-11.2-29.1C401.9,91.3,410.4,97.2,409.6,110.8z"/>
	<path class="st0" d="M412.3,100.2c5.3,10.6,8.9,16.8,8.1,24C422.2,118.5,421.3,111,412.3,100.2z"/>
	<path class="st0" d="M395.8,106.1c6.6,9.4,10.9,12.1,12.6,21.9C409.4,120.1,400.7,110.6,395.8,106.1z"/>
	<path class="st0" d="M404.8,103c2,3.2,8.5,10.1,7.6,15.1C411.8,114.8,405.4,106,404.8,103z"/>
	<path class="st0" d="M614.3,161c-3.3,2.1-11.8,6.9-15.3,6.3C602.3,166.9,609.6,162.7,614.3,161z"/>
	<path class="st0" d="M622.3,145.8c-1.5,4.1-7.7,12.7-11.7,13.9C613.9,157.5,619.2,150.4,622.3,145.8z"/>
	<path class="st0" d="M633.5,166.4c-2.7,3.5-10.1,7.8-14.3,7.7C623,173,629.1,169.8,633.5,166.4z"/>
	<path class="st0" d="M646.4,100.4c1.4,4.2,2.3,16.6-0.2,20C647.4,116.6,646.9,106,646.4,100.4z"/>
	<path class="st0" d="M641.4,140.1c-0.5,5.4-5.2,17.8-9.8,20.5C635,156.9,639.1,146.8,641.4,140.1z"/>
	<path class="st0" d="M623.1,130.4c0.3,4.4-1.9,14.8-5.2,17.4C620.1,144.5,622.1,135.9,623.1,130.4z"/>
	<path class="st0" d="M634.3,73.8c2.5,2.2,11.6,12.4,10.4,19.8C644.1,85.3,636.7,77.3,634.3,73.8z"/>
	<path class="st0" d="M640.8,118c-0.5,3.6,0,8.9-3.9,12C638.6,127.2,639.4,120.6,640.8,118z"/>
	<path class="st0" d="M615,168.5c-3.4,1.3-7.8,4.3-12.4,2.5C606.7,171.4,612.6,168.7,615,168.5z"/>
	<path class="st0" d="M636.2,61c-0.1,5.5-21.2,21.2-31.8,19.7C616.9,79.3,631,68.3,636.2,61z"/>
	<path class="st0" d="M591.9,61c6.9,1.9,13.9,4.6,19.2,0.7C606.1,61.9,602.5,63.2,591.9,61z"/>
	<path class="st0" d="M649.3,121.7c0.2,3.8-2.8,19.6-5.9,24.7C645.5,137.6,648.6,125.8,649.3,121.7z"/>
	<path class="st0" d="M620.9,56.7c6.7-5.1,11-12.8,6-19C628.8,43.5,626.5,51.4,620.9,56.7z"/>
	<path class="st0" d="M597,66.9c-11.2-1.3-23-17.1-27.3-19.6C576.2,48.4,579.4,60,597,66.9z"/>
	<path class="st0" d="M602.1,158.1c5.7-5.9,7.3-7.7,8.2-16.1C608,151.1,603.9,155.5,602.1,158.1z"/>
	<path class="st0" d="M605.5,174c7.8,1.1,20.2-5.8,23.2-10.5C620.7,170.5,612.2,173.6,605.5,174z"/>
	<path class="st0" d="M597.8,163.3c6.6-2.1,20.1-18.1,19.6-24.7C615.1,145.9,603.8,159.9,597.8,163.3z"/>
	<path class="st0" d="M540.5,39.6c10.4,0.1,18,11.1,22,17.9C557.8,51.3,552.3,42.6,540.5,39.6z"/>
	<path class="st0" d="M597.1,106c7.5,0.2,14.8,6.6,20.2,10.7C610.6,113.6,608.1,109.4,597.1,106z"/>
	<path class="st0" d="M403.2,148c-1.5-17.6-7.5-30.7-20.5-43.9C392.2,116.1,400.9,130.9,403.2,148z"/>
	<path class="st0" d="M176.1,171.2c17.5,2,31.5-1.3,47.1-11.3C209.6,166.7,193.3,172.4,176.1,171.2z"/>
	<path class="st0" d="M405.2,148.1c4.7,28.7-4.5,54.2-38.9,64.9C401.3,200.2,406.1,177.1,405.2,148.1z"/>
	<path class="st0" d="M169.9,181.3c28.5,1.7,64.6-16.1,77.1-43.9C229.4,166.2,201.2,179.6,169.9,181.3z"/>
	<path class="st0" d="M308.1,78.2c3.6,9.8-4.1,20.8-8.9,26.9C303.4,98.6,309.5,90.4,308.1,78.2z"/>
	<path class="st0" d="M310.3,103.4c4.4-5.1,7.9-20.1,4.3-25.6C316.1,85.4,313.2,97.1,310.3,103.4z"/>
	<path class="st0" d="M297.6,87.3c-0.1,4.4-3.1,14.5-6.6,17C293.4,101.2,296.1,92.8,297.6,87.3z"/>
	<path class="st0" d="M298.5,68.5c-4.1,12.4-4.3,18.3-7.7,25.1C295.8,87.1,297.7,73.8,298.5,68.5z"/>
	<path class="st0" d="M303.1,89.4c0.1,3.3-0.9,8-3.4,9.9C301.4,96.9,302.2,93.6,303.1,89.4z"/>
	<path class="st0" d="M288.8,92.3c-2.6,2.6-5.3,7.2-10.2,7.4C281.5,98.3,286.1,93.5,288.8,92.3z"/>
	<path class="st0" d="M282.6,150.6c-2.5-6.9,3.5-33.4,11.5-36.3C287.9,120.7,280.7,142,282.6,150.6z"/>
	<path class="st0" d="M302.6,136.9c-0.7-7.3,12.2-30.1,20.6-30.8C315.6,110.7,304.1,128.1,302.6,136.9z"/>
	<path class="st0" d="M292.9,121c4.8-1.8,8.5-6.5,8.9-10.7C300.2,114,297.3,118,292.9,121z"/>
	<path class="st0" d="M280.8,118.1c4.7-5.4,10.1-10.6,8.9-17C287.8,105.6,287.4,109.5,280.8,118.1z"/>
	<path class="st0" d="M194,86.2c5.9-5.7,7.7-7.3,16.1-8.2C200.9,80.3,196.6,84.3,194,86.2z"/>
	<path class="st0" d="M261.5,96.8c-1,4-4.1,7.9-9.9,10.3c4.5-3.2,8.1-5.8,8.7-9.7C260.5,96.1,261.1,97.5,261.5,96.8z"/>
	<path class="st0" d="M254.7,145.1c-1.8-3.8-1.7-8.5,1.3-14c-2.2,5.9-2.2,10.2-0.2,13.6C256.4,145.7,254.6,144.2,254.7,145.1z"/>
	<path class="st0" d="M184.8,79.3c-0.5,0.3-0.8-0.3-0.7-0.4c2.6-4,5.2-9.2,14.4-9.7C190.7,70.6,185.5,77.3,184.8,79.3z"/>
	<path class="st0" d="M246.5,143.9c-0.7,4.4-3.2,10.2-6.9,12.1C242.4,153.2,244.3,149.1,246.5,143.9z"/>
</g>
<g id="Details">
	<g>
		<path class="st3" d="M477.7,78.9c0,0,6.2-14.6,18.3-20.8c6.3-3.2,17.7,0,17.7,0s-5.1,12-14.7,17.2
			C489.3,80.6,477.7,78.9,477.7,78.9z"/>
		<path class="st1" d="M488.8,75.7c0,1.2-0.4,2.3-1,3.2c-1.2,0.4-1.6,0.4-3.7,0.4c-3.3,0-6.5-0.4-6.5-0.4s3.3-7.3,5.6-9
			C486.4,69.8,488.8,72.4,488.8,75.7z"/>
		<path class="st0" d="M486.3,76.4c0,0.9-0.3,1.7-0.8,2.4c-0.9,0.3-1.2,0.3-2.8,0.3c-2.5,0-5-0.3-5-0.3s2.5-5.4,4.3-6.7
			C484.5,72.1,486.3,74,486.3,76.4z"/>
		<path class="st1" d="M507,60c-0.4-1.1-0.4-2.3-0.1-3.4c1-0.8,6.7,1,6.7,1s-2.1,6.6-3.3,6.1C508.8,63.2,507.6,61.8,507,60z"/>
		<path class="st0" d="M509.8,59.4c-0.2-0.7-0.2-1.4,0-2.1c0.6-0.5,4.1,0.6,4.1,0.6s-1.3,4-2,3.8C510.9,61.3,510.1,60.5,509.8,59.4z
			"/>
		<path class="st0" d="M500,56c-11.7,2-20.2,18.6-23.2,22.6c-5.1,0.7-23.4-0.9-23.4-0.9s18.7,4,36.7,1.4c12.5-1.8,21.2-15,24.2-20
			c5.3,0.1,16.6,4.4,16.6,4.4S511.6,54,500,56z M498.7,75.2c-9.2,5.1-20.3,3.4-20.3,3.4s5.9-14.1,17.5-20.1c6-3.1,16.8,0,16.8,0
			S507.9,70.1,498.7,75.2z"/>
	</g>
	<g>
		<path class="st3" d="M543.7,44.5c6.2,2.2,9.3,11,8.3,15.2c-6.2,0-11.3-2-15.8-4.3c-3-1.5-7.5-4.5-12-7.3
			C530.4,44,537.5,42.3,543.7,44.5z"/>
		<ellipse class="st1" cx="541.8" cy="49.9" rx="6" ry="5.9"/>
		<ellipse class="st4" cx="542.2" cy="49" rx="4.1" ry="4"/>
		<path class="st0" d="M526.1,47.3c-0.5,0.5-0.5,0.9,0,1.7l-1.8-0.7L526.1,47.3z"/>
		<path class="st0" d="M544.1,43.7c-8.1-3-17.5,2.1-19.8,4.3c-2.7-1.4-4.1-2.1-6.8-3.2c6.2,3.7,14.4,9.2,19.2,11.6
			c4.8,2.4,9.1,3.7,15.7,3.6C553.4,54.8,550.7,46.1,544.1,43.7z M552,59.6c-6.1,0-11.1-2-15.5-4.3c-3-1.5-7.4-4.5-11.8-7.1
			c6.1-4.2,13.1-5.8,19.2-3.6S553,55.5,552,59.6z"/>
		<path class="st0" d="M525.2,47.9c-0.2,0.2-0.2,0.4,0,0.7c0,0,0.6,0.3,0.8,0.4s0.6,0.5,0.8,0.6l-2.1-0.9l-0.1-0.6L525.2,47.9z"/>
	</g>
	<g id="r._mouth">
		<path class="st0" d="M633.4,69.8c-14.2,11.7-32.1,15.4-52,12.5c8,16.6,28.5,22,44.3,39.8c-0.6-1.2-1.2-2-2.5-3.7
			c0,0,7.5-14.9,8.3-26.3s-4.7-16.4-4.7-16.4C629.3,74.3,631.6,72.1,633.4,69.8z"/>
		<path class="st3" d="M591.7,86.9c0.1-0.2-2.9-1.9-5.4-3.2c-1-0.1-1.9-0.2-2.9-0.4c0.5,1.1,1.1,2.1,1.7,3.1
			C587.9,86.8,591.6,87.2,591.7,86.9z"/>
		<path class="st3" d="M592.3,84c-1.6-0.1-3.2-0.2-4.8-0.3c2,1.3,7.2,4.5,7.4,4.3C595.1,87.8,593.8,85.9,592.3,84z"/>
		<path class="st3" d="M592.9,88.2c0-0.4-5.5-0.2-6.8-0.1c0.8,1.1,1.6,2.1,2.5,3.1C590.2,90.1,592.9,88.4,592.9,88.2z"/>
		<path class="st3" d="M595.7,90.4c-0.1-0.3-4.8,1.3-6.3,1.8c0.9,0.9,1.8,1.7,2.8,2.6C593.4,93.4,595.8,90.7,595.7,90.4z"/>
		<path class="st3" d="M593.3,95.9c1,0.8,1.9,1.5,2.9,2.3c1.1-1.5,3.2-4.6,3-4.8C599.1,93,594.9,95.1,593.3,95.9z"/>
		<path class="st3" d="M597.6,98.9c1,0.7,2,1.5,3.1,2.2c1.3-1.4,3.4-3.8,3.3-4C603.8,96.8,599.1,98.4,597.6,98.9z"/>
		<path class="st3" d="M607,98.7c-0.2-0.3-3.5,2.2-5.1,3.4c1,0.7,2,1.4,3,2.1C605.7,102.5,607.2,99,607,98.7z"/>
		<path class="st3" d="M610.3,100.9c-0.3-0.2-2.7,2.5-4,4.1c1,0.7,2,1.4,3,2.1C609.7,105.6,610.6,101.1,610.3,100.9z"/>
		<path class="st3" d="M613.2,103.7c-0.3-0.1-1.9,2.3-3,4.1c1,0.7,2,1.4,2.9,2.2C613.2,108.5,613.5,103.9,613.2,103.7z"/>
		<path class="st3" d="M616.5,106.6c-0.3-0.1-1.5,2.2-2.5,4.1c1,0.8,2,1.6,3,2.4C616.9,111.7,616.8,106.7,616.5,106.6z"/>
		<path class="st3" d="M620.7,109.6c-0.3-0.1-1.9,2.2-3,4c1,0.8,1.9,1.7,2.8,2.6C620.6,115.1,621,109.8,620.7,109.6z"/>
		<path class="st3" d="M620.7,108.6c-0.3,0.2,2.6,4.3,3.5,5.6c0.4-1,0.9-2.2,1.5-3.5C624,109.8,620.9,108.4,620.7,108.6z"/>
		<path class="st3" d="M621.4,105.6c-0.2,0.3,3.2,2.5,4.9,3.6c0.4-1.1,0.8-2.2,1.2-3.4C625.8,105.6,621.6,105.3,621.4,105.6z"/>
		<path class="st3" d="M622.8,101.1c-0.2,0.3,3.5,3,5,4.1c0.4-1.2,0.8-2.4,1.1-3.6C627.1,101.3,623,100.8,622.8,101.1z"/>
		<path class="st3" d="M624.1,99.2c0,0.3,3,0.9,5,1.4c0.3-1.2,0.6-2.3,0.8-3.5C628.3,97.5,624.1,98.8,624.1,99.2z"/>
		<path class="st3" d="M630.1,96.1c0.2-1.2,0.4-2.4,0.4-3.6c0,0,0,0,0,0c-1.7,0.3-5.9,1.2-5.9,1.5C624.5,94.3,628.1,95.5,630.1,96.1
			z"/>
		<path class="st3" d="M630.6,91.3c0-1.3,0-2.5-0.1-3.7c-1.8,0.3-5.6,1-5.7,1.3C624.7,89.3,628.8,90.7,630.6,91.3z"/>
		<path class="st3" d="M624.3,86c0,0.3,4.1,0.6,6,0.7c-0.2-1.3-0.5-2.5-0.8-3.5C627.9,83.9,624.3,85.6,624.3,86z"/>
		<path class="st3" d="M623.4,82.3c0,0.3,3.9,0.1,5.9,0c-0.5-1.3-1-2.3-1.5-3.1C626.1,80.2,623.3,82,623.4,82.3z"/>
		<path class="st3" d="M601.2,89.1c0.3,0,0.1-3.2-0.1-5.3c-1.2,0.1-2.4,0.2-3.6,0.2C598.3,85.3,600.8,89.1,601.2,89.1z"/>
		<path class="st3" d="M597.5,88.6c0.3-0.1-0.2-2.6-0.7-4.6c-1.2,0-2.5,0.1-3.8,0C594,85.1,597.1,88.7,597.5,88.6z"/>
		<path class="st3" d="M604.9,89.2c0.3,0,0.5-4,0.6-6c-1.2,0.2-2.4,0.3-3.7,0.5C602.5,85,604.5,89.2,604.9,89.2z"/>
		<path class="st3" d="M610,82.3c-1.1,0.3-2.2,0.5-3.4,0.7c0.5,1.9,1.2,4.8,1.5,4.9C608.5,88,609.5,84.3,610,82.3z"/>
		<path class="st3" d="M612.7,87.6c0.4,0.1,1.3-4.8,1.6-6.4c-1.2,0.4-2.4,0.7-3.7,1C611.2,83.9,612.4,87.5,612.7,87.6z"/>
		<path class="st3" d="M622.7,84.3c0.3-0.1-0.2-4.6-0.4-6.4c-1.1,0.6-2.3,1.1-3.4,1.6C619.8,80.8,622.3,84.4,622.7,84.3z"/>
		<path class="st3" d="M617.8,86.4c0.4,0,0.6-5.4,0.6-6.8c-1.2,0.5-2.4,0.9-3.7,1.3C615.4,82.4,617.4,86.4,617.8,86.4z"/>
		<path class="st3" d="M625.6,76.2c0,0,0.9,0.9,1.1,1.3c-1.4,1.5-3.4,3.6-3.6,3.4c-0.2-0.2,0.2-1.9,0.6-3.6L625.6,76.2z"/>
		<g>
			<path class="st0" d="M640.1,93.1c0,0,1.7,3.5,1.8,4.2c0.1,0.8,0.2,3.1-0.8,3.1s-3.4,1.2-3.4,1.2L640.1,93.1z"/>
			<path class="st1" d="M615,91.6c-4,1.1-5.5,4.3-3.3,7c2.2,2.8,9.2,6.9,14.5,6.6s11.7-2.3,13.6-6.2c1.3-2.4,0.8-4.1,0.3-6.1
				c0.3-1-0.5-2.7-0.8-3.6c-1.1-2.3-5.3-3-5.9-3.2s-2.5,0.3-1.5,1.8c1.1,1.5,2.7,1.5,3,3.2c0.4,1.8-0.6,4-2.7,4.2
				c-2.1,0.2-3.8-1.1-6.4-3.2s-1-4.8-5.4-5.4C615.6,86.2,615,91.6,615,91.6z"/>
			<path class="st0" d="M615.3,90.5c-0.3,1.5,2,3.7,5.7,6.4c-3.1-1.7-6.9-4-6.6-5.2L615.3,90.5z"/>
			<path class="st0" d="M631,99.2c2.6,0.7,4.7-0.1,6.5-2.4C635.5,98.6,633.3,99.5,631,99.2z"/>
			<path class="st0" d="M640.1,93c-0.2,0.7-0.4,1.2-0.8,1.6c0.5-0.1,0.8-0.6,1-1L640.1,93z"/>
			<path class="st0" d="M623.2,100.4c0,0,1.9-0.3,2,0.9s-1.6,2.1-2.9,1.8s-3-0.6-3.1-1.4s1.2-1,1.2-1s-0.7,0.5-0.7,1s2,1.1,3,1.2
				s1.8-0.6,1.9-1.5C624.7,100.5,623.2,100.4,623.2,100.4z"/>
			<path class="st0" d="M636.4,88.8c0,0-0.7-0.3-0.4-0.7c0.2-0.4,0.9-0.3,1.3,0s0.8,0.8,0.7,1c-0.1,0.3-0.6,0.1-0.6,0.1
				s0.3,0,0.4-0.2s-0.4-0.7-0.7-0.9c-0.3-0.2-0.7-0.2-0.9,0.1S636.4,88.8,636.4,88.8z"/>
			<path class="st5" d="M632.7,87.9c-0.5-0.5-1-1.1-1.1-1.1c-0.2,0.3-0.2,0.7,0.2,1.2c1.1,1.5,2.7,1.5,3,3.2
				c0.3,1.4-0.3,3.2-1.6,3.9l0,0c0,0,2.6-1.3,3.7-2.1c1.1-0.8-0.1-2.3-0.7-3.4C635.7,88.7,633.3,88.5,632.7,87.9z"/>
			<path class="st3" d="M641.7,98.6c0,1.3-0.5,1.8-1.1,1.5C641.1,100.1,641.6,99.5,641.7,98.6z"/>
			<path class="st3" d="M641.4,96.7c0.4,0.3,0.4,0.6,0.4,1.2C641.8,97.4,641.6,97.1,641.4,96.7z"/>
		</g>
	</g>
	<g>
		<path class="st0" d="M380.7,194.1c6.5-13.5-7.4-18-6.5-41.4c0.6-20.4,12.5-23.3,2.4-39.7c4.5,2.3,20.8,18.5,20.5,36.7
			C396.9,168.1,383.2,191.2,380.7,194.1z"/>
		<path class="st3" d="M383.1,128c1-0.3,3.8-0.5,5.1-0.6c-0.5-0.7-0.9-1.3-1.4-1.9C385.2,126.3,383.1,127.5,383.1,128z"/>
		<path class="st3" d="M380.4,120.7c0.5-0.2,1.4-0.3,2.3-0.4c-0.3-0.3-0.6-0.6-0.9-0.9C381,119.9,380.4,120.4,380.4,120.7z"/>
		<path class="st3" d="M385.4,176.5c0.8-0.1,2.4,0.2,3.8,0.4c0.3-0.7,0.6-1.4,0.9-2.1C388.3,175.2,385.6,175.9,385.4,176.5z"/>
		<path class="st3" d="M385.3,132c1-0.4,3.3-0.9,5-1.2c-0.4-0.7-0.8-1.4-1.3-2.1C387.3,129.9,385.2,131.4,385.3,132z"/>
		<path class="st3" d="M385.7,137.4c1.4-0.6,5.3-1.3,7.2-1.6c-0.5-1-0.9-2.1-1.4-3C389.2,134.2,385.6,136.6,385.7,137.4z"/>
		<path class="st3" d="M387.3,140.7c1.5-0.3,5.5-0.1,7.3,0c-0.3-1.1-0.7-2.1-1-3.2C391,138.4,387.3,139.9,387.3,140.7z"/>
		<path class="st3" d="M389.5,150.4c1.3-0.2,4.5,0.1,6.5,0.3c0-0.1,0-0.3,0-0.4c0-0.9,0-1.8-0.1-2.7
			C393.3,148.3,389.6,149.6,389.5,150.4z"/>
		<path class="st3" d="M390.3,160c1-0.1,2.8,0,4.5,0.1c0.2-0.8,0.3-1.7,0.5-2.5C393,158.4,390.4,159.3,390.3,160z"/>
		<path class="st3" d="M390.3,144c0.4,0.9,2.8,1.1,5.3,1.2c-0.2-1.1-0.1-1.4-0.6-2.5C393.1,143.4,391.8,143.9,390.3,144z"/>
		<path class="st3" d="M388,153.1c0.2,0.9,5.2,2.3,7.6,2.9c0.2-1.2,0.3-2.4,0.3-3.6C394.4,152.6,389.7,153.3,388,153.1z"/>
		<path class="st3" d="M377.2,169.4c0.3,0.9,0.6,1.9,0.9,2.7c1.5-0.9,4.3-2.4,5.5-2.7C383.2,168.8,379.5,169.1,377.2,169.4z"/>
		<path class="st3" d="M375.3,158.3c0.1,1.1,0.2,2.3,0.3,3.3c1.3-0.9,4-2.7,5.2-3.1C380.3,157.8,377.5,158.1,375.3,158.3z"/>
		<path class="st3" d="M375.3,154.3c0,0.6,0,1.2,0,1.8c1.5-0.4,3.9-1.1,4.9-1.2C380,154.4,377.3,154.3,375.3,154.3z"/>
		<path class="st3" d="M376.2,144.9c-0.2,1-0.4,2.1-0.5,3.2c1.9-0.7,5.3-1.9,6.7-2C382.1,145.4,378.8,145,376.2,144.9z"/>
		<path class="st3" d="M382.5,163.2c-1.3,0.4-4.5,0.8-6.5,1c0.2,1.1,0.4,2.1,0.7,3.1C379,166.1,382.5,164.1,382.5,163.2z"/>
		<path class="st3" d="M383.4,173.5c-0.9,0.3-2.8,0.6-4.4,0.7c0.3,0.7,0.6,1.3,0.9,1.9C381.6,175.2,383.4,174.1,383.4,173.5z"/>
		<path class="st3" d="M384.8,178c-0.7,0.3-2.3,0.7-3.5,1c0.3,0.5,0.5,1,0.8,1.5C383.3,179.6,384.8,178.4,384.8,178z"/>
		<path class="st3" d="M382.9,150.9c-1.6,0-5.2-0.8-7.4-1.3c-0.1,1.1-0.2,2.2-0.2,3.4c0,0.1,0,0.1,0,0.2
			C378.2,152.7,382.7,151.8,382.9,150.9z"/>
		<path class="st3" d="M383.4,135.6c-0.9,0-2.7-0.4-4.2-0.7c-0.3,0.7-0.5,1.4-0.8,2.2C380.5,136.8,383.3,136.2,383.4,135.6z"/>
		<path class="st3" d="M377.5,139.9c-0.3,0.9-0.6,1.9-0.8,2.9c1.3-0.9,3.7-2.6,4.8-3.1C381.2,139.3,379.3,139.6,377.5,139.9z"/>
		<path class="st3" d="M388,162.3c0.1,0.7,3.3,1.7,5.8,2.4c0.3-1,0.5-1.9,0.8-2.9C392.4,162.1,389.3,162.4,388,162.3z"/>
		<path class="st3" d="M387,166.8c0.1,0.7,2.9,1.8,5.3,2.7c0.3-0.9,0.6-1.8,0.9-2.7C391.1,166.9,388.2,167,387,166.8z"/>
		<path class="st3" d="M390.9,172.9c0.2-0.6,0.5-1.2,0.7-1.9c-1.5-0.1-3.3-0.3-4.2-0.6C387.5,171,389.3,172,390.9,172.9z"/>
		<path class="st3" d="M388.1,179.4c0.2-0.3,0.3-0.6,0.5-1c-0.8-0.1-1.8-0.2-2.2-0.3C386.3,178.4,387.2,178.9,388.1,179.4z"/>
		<path class="st3" d="M386.7,182.2c0.2-0.4,0.4-0.7,0.6-1.1c-0.9-0.1-2.2-0.2-2.7-0.3C384.5,181.1,385.7,181.7,386.7,182.2z"/>
		<path class="st3" d="M385.5,184.4c0.1-0.2,0.3-0.4,0.4-0.7c-0.6-0.1-1.1-0.1-1.4-0.2C384.4,183.7,384.9,184,385.5,184.4z"/>
		<path class="st3" d="M385.9,124.2c-0.4-0.6-0.9-1.1-1.3-1.6c-1.1,0.3-2.5,0.8-3.1,0.8C381.7,123.9,384.4,124.1,385.9,124.2z"/>
	</g>
	<g>
		<path class="st3" d="M325.5,183.8c0.5-8-5.2-21.2-5-27.4s3.6-17.2,6.1-20.6c-0.7,6.3,4.4,24.4,4.1,30.8S328.4,180.4,325.5,183.8z"
			/>
		<path class="st1" d="M329.4,155.6c-2.9-2-6.4-2.2-8.7-0.2c0,0-0.1,0.1-0.1,0.1c0,0.3,0,0.6,0,0.8c-0.1,2.7,1,6.8,2.1,11.1
			c2.6,1.9,5.7,2.3,8,0.9c0-0.6,0.1-1.2,0.1-1.8C330.9,164.2,330.2,160.1,329.4,155.6z"/>
		<path class="st0" d="M326.5,158.6c-0.3-1.1-1.1-1.6-1.8-1.4s-1.2,1.1-0.9,2.1c0.3,1,1.4,0.8,1.8,2c0.4,1.2-0.6,2.1-0.4,3.1
			s1.1,1.6,1.8,1.4s1.2-1.1,0.9-2.1c-0.3-1-1.5-1.3-1.9-2.4C325.7,160.3,326.8,159.7,326.5,158.6z"/>
		<path class="st6" d="M325.5,183.8c0.5-8-5.1-21.4-4.9-27.6s3.6-17.2,6.1-20.6c-0.7,6.3,4.4,24.4,4.1,30.8S328.3,180.5,325.5,183.8
			z"/>
	</g>
	<g>
		<path class="st3" d="M507.4,109.9c-16.6-4-19.1-16-19.1-16s10.6-7.1,26.1-4.4s26.6,13.4,26.6,13.4S523.9,113.9,507.4,109.9z"/>
		<g>
			<ellipse transform="matrix(0.2418 -0.9703 0.9703 0.2418 291.6864 573.2)" class="st1" cx="512.6" cy="100" rx="10.5" ry="9.2"/>
			<path class="st0" d="M510.8,111c-0.8-7.6,0.6-14.8,3.5-21.8C515.7,96.6,514.2,103.7,510.8,111z"/>
		</g>
		<path class="st0" d="M563.9,115.5c-5.1-0.3-20.4-11.6-22-12.7c-1.6-1.1-11.4-10.8-25.8-13.3c-15.3-2.6-26.6,3.1-28.9,4
			s-18.8,7-27.1,4.2c5.9,3.6,16.7,0.6,27.4-3c1.4,3.2,6.4,12.4,20.4,15.8c14.6,3.5,29.1-4.2,33.2-6.6
			C548.7,109.6,556.2,115.4,563.9,115.5z M508.3,109.5c-16.2-3.8-19.6-15.4-19.6-15.4s11-6.8,26.2-4.2c15.1,2.6,25.5,13,25.5,13
			S524.4,113.3,508.3,109.5z"/>
	</g>
	<g>
		<path class="st3" d="M199.1,93.8c-0.2-2.2,18-4.2,22.4-3.5c6.3,1.1,16,7.1,26.1,10.7c0,0-9.4,7.6-24.7,6.4
			C207.7,106.2,199.1,93.8,199.1,93.8z"/>
		<g>
			<path class="st1" d="M238,101.3c0.6-1.5,0.6-3,0.3-4.5c-4.7-2.6-8.9-4.8-12.3-5.7c-0.6-0.1-1.3-0.3-2.2-0.3
				c-1.4,0.9-2.5,2.2-3.1,3.8c-1.7,4.3,0.9,9.3,5.6,11.2C231.1,107.6,236.3,105.6,238,101.3z"/>
			<ellipse class="st0" cx="231" cy="98.9" rx="5.9" ry="5.3"/>
		</g>
		<path class="st0" d="M222.7,89.7c-8-1.6-21.4,1.9-24,3.5c-8.5-8.7-13.2-17.8-26-18.7c17.1,2.4,27.8,28.9,44.1,32.5
			c14.3,3.2,24.1-1.4,31.3-6.3C244.8,101.3,233.8,91.9,222.7,89.7z M220.9,106.7c-8.7-1-13.4-3.8-21.7-12.9
			c3.4-3.1,16.9-3.4,24.2-2.3c7.3,1.1,21.7,10,23.5,9.6C235.5,107.2,229.6,107.7,220.9,106.7z"/>
		<path class="st0" d="M200.1,93.2c-0.6,0.4-0.6,0.9-0.2,1.1c0.4,0.2,0.9,0.3,1,0.9c0.2,0.6,0.8,1.2,0.8,1.2l-2.9-2.7L200.1,93.2z"
			/>
		<path class="st0" d="M245.1,100.6c0.8,0.3,0.7,0.9,0,1.4l2.1-0.9L245.1,100.6z"/>
	</g>
	<g>
		<circle class="st0" cx="250.1" cy="163.9" r="14.7"/>
		<circle class="st3" cx="249.6" cy="164.4" r="14.2"/>
		<g>
			
				<ellipse transform="matrix(0.7621 -0.6475 0.6475 0.7621 -42.3254 202.8921)" class="st1" cx="254.9" cy="159" rx="6.7" ry="8.2"/>
			
				<ellipse transform="matrix(0.7399 -0.6727 0.6727 0.7399 -39.2761 213.3213)" class="st0" cx="256.2" cy="157.5" rx="2.8" ry="3.7"/>
		</g>
		<path class="st0" d="M238.1,172.8c0.3-0.9,0.9-2.5,1.5-2.9c0.8-0.6,2,0.2,2.6-0.1c0.5-0.3,1.9-3.5,2.2-4.1
			c0.5-0.4,2.1,0.1,3.3,0.6c0,0-1-0.5-1.5-0.6c0.1-0.4,1-1,1-1s-0.7,0.2-1.2,0.9c-0.4-0.1-0.7-0.3-1.4-0.2c0.1-0.5,1.9-2,1.9-2
			s-1.6,1-2.2,1.9c-0.6,0.9-1.2,3.4-2.4,4.1c-1.1,0.7-1.9-0.4-2.6,0.2c-0.6,0.5-1.2,2.2-1.4,2.9"/>
		<path class="st0" d="M246.5,177.6c0.3-1,1.8-0.9,2.1-1.5s-0.7-4.2-0.8-4.8c0.2-0.4,0.6-0.7,1.2-1.1c-0.4,0.2-0.7,0.2-1.2,0.7
			c-0.2-0.5,0.3-2.8,0.3-2.8s-0.7,1.8-0.6,2.9c0.1,1.1,1.3,3.5,0.8,4.8s-1.8,0.5-2,1.5c0,0.2,0,0.6,0,0.9c0.1,0,0.2,0,0.3,0
			C246.4,178,246.4,177.8,246.5,177.6z"/>
		<path class="st0" d="M255.5,172.4c0.5-1,0.6-2.8,0.6-2.8s-0.5,2.3-0.8,2.7c-0.3-0.6-0.6-0.8-0.9-1.1c0.3-0.8,0.2-1.5,0.2-1.5
			s-0.1,1-0.4,1.3c-0.3-0.3-1.3-1-1.3-1c1,0.9,2.3,2,2.1,2.6c-0.4,0.6-2.5,3.3-2.5,3.9c0,0.5,0.7,1,1,1.6c0.1,0,0.2-0.1,0.3-0.1
			c-0.3-0.4-0.9-0.7-0.8-1.5C253,175.1,255,173.4,255.5,172.4z"/>
		<path class="st0" d="M261.4,171c-0.4-0.7-0.3-2.3-0.1-3.6c0,0-0.3,1.1-0.3,1.6c-0.3-0.5-1.1-0.8-1.1-0.8s0.6,0.3,1.1,1
			c0,0.4-0.1,0.8,0.1,1.4c-0.4-0.6-1.9-1.6-2.4-1.5c0.9,0.2,1.5,0.9,2.4,1.7c0.4,0.4,0.2,0.6,0.8,0.8c0-0.1,0.1-0.1,0.1-0.2
			C261.8,171.5,261.6,171.4,261.4,171z"/>
		<path class="st0" d="M242.5,162.5c0,0-2,1.2-2.5,1.2c0.3-0.6,0.2-1,0.2-1.4c-0.1,0.6-0.3,1.1-0.6,1.4c-0.5,0.1-3,0.3-4.2,0.6
			c0,0.1,0,0.2,0,0.4c1.1-0.7,3.6-0.5,4.6-0.8C241.1,163.7,242.5,162.5,242.5,162.5z"/>
		<path class="st0" d="M240.8,158.1c0,0-0.5-1.1-0.8-1.4c0.4-0.2,1.4-0.1,1.4-0.1s-0.7-0.3-1.5-0.1c-0.3-0.3-0.4-0.6-1-1
			c0.4-0.3,2.8-0.4,2.8-0.4s-1.8-0.2-2.8,0.1c-0.1,0.1-0.3,0.3-0.4,0.4c0,0,0.1,0,0.1-0.1C239.3,155.6,240.1,157,240.8,158.1z"/>
		<path class="st0" d="M235.8,161c-0.8,0.2-1.2,0.5-1.9,1.7c-0.5,0.8,0.7,0.9,0.7,0.9l1.2-1.3C235.7,162.3,236.6,160.9,235.8,161z"
			/>
		<path class="st2" d="M233.8,163c1-1.4,2.2-2.8,4.3-1.4c-2.1,0.1-3.1,2.4-2.6,4.9C234.4,165.2,233.3,163.9,233.8,163z"/>
	</g>
	<g>
		<path class="st0" d="M188.2,131.1c3,2,6.5,3.2,11.4,3.5l-9.1,1.2L188.2,131.1z"/>
		<path class="st0" d="M178.6,128.2c4.8,5.5,26.3,10.9,32.6,5.4C202.6,135.9,188.8,134.8,178.6,128.2z"/>
		<path class="st0" d="M157.4,118.8c16.6,0.7,23,8.8,39.3,17l-27.5-3.1C163,130.1,159.6,124,157.4,118.8z"/>
		<path class="st0" d="M147.9,95.9c6.1,7.8,7.2,16.5,8.1,30.9c0.8,13.5,19.8,28,37.5,28.5c17.9,0.5,29.6-8.3,32.2-12.4
			c2.9-4.6,2.9-13.5,9.4-13.8c-8.3-1.4-21,7.7-35.4,5.8c-14.3-1.8-37.4-4.8-41.1-15S156.5,106.4,147.9,95.9z"/>
		<g>
			<path class="st3" d="M164.6,120.6c0.9-0.3,4.2,0.6,4.9,1.4c-1.8,0.7-2.8,7-2.3,9C166.2,130.4,162.8,121.4,164.6,120.6z"/>
			<path class="st3" d="M170.8,122.6c0.6,0,3,1.2,3.7,2c-1.2,0.9-2.1,5.3-1.6,7.4C171.9,131.4,169.1,123.4,170.8,122.6z"/>
			<path class="st3" d="M176.1,125.6c0.6,0.2,2.7,1.7,3.5,2.3c-1.2,0.9-2,3.8-1.7,6.2C176.8,133.5,175,127.1,176.1,125.6z"/>
			<path class="st3" d="M181.6,129c0.7,0.4,1.6,1.1,2.7,1.6c-1.1,1-1.5,3.4-1.3,5.6C182,135.6,180.6,130.4,181.6,129z"/>
			<path class="st3" d="M187.4,132.2c1.3,0.7,1.5,0.8,2.5,1.1c-0.5,1-0.4,2.9-0.2,5.1C188.6,137.3,187.2,134.5,187.4,132.2z"/>
			<path class="st3" d="M193.3,134.4c0.8,0.4,1.1,0.4,1.8,0.6c-0.3,1.1-0.4,2.2-0.2,4.1C193.8,137.5,193.7,136.6,193.3,134.4z"/>
			<path class="st3" d="M205.9,152.9c-0.9,0.5-4.7,1.2-6.2,1.1c1.7-1.8,2.1-8.4,0.5-12.7C203.4,141.6,206.5,150.2,205.9,152.9z"/>
			<path class="st3" d="M214.8,149.6c-0.8,0.5-3.4,1.8-4.8,2.2c1.1-1.9-0.2-7.9-2.4-11.3C210.5,140.2,214.8,147.1,214.8,149.6z"/>
			<path class="st3" d="M222.4,145.5c-0.6,0.5-2.8,1.8-3.9,2.5c0.7-1.7-0.5-5.9-2.9-8.8C218.2,138.8,222.1,143.4,222.4,145.5z"/>
			<path class="st3" d="M226.9,138.3c-0.1,0.6-0.8,2.7-1.6,3.6c-0.1-1.5-1.6-3.7-4.4-4.8C222.5,135.9,225.9,136.9,226.9,138.3z"/>
			<path class="st3" d="M228.8,133.4c-0.2,0.6-0.4,1.4-0.7,2.1c-0.4-0.8-0.8-1.7-2.5-1.7C226.1,132.8,227.9,132.8,228.8,133.4z"/>
			<path class="st3" d="M158.3,120c0.8-0.5,3.9-0.3,4.7,0.2c-1.5,1-1.1,7-0.3,8.7C161.7,128.4,156.9,121.1,158.3,120z"/>
		</g>
		<g>
			<path class="st0" d="M163.4,185.4c-0.3,9,4,13.6,8.1,15.1s2.7,4.5,2,5.4s-0.4,2.8,0.6,4.1c1.2,1.4,0.6,4.5-1.2,4.4
				c-1.4,0-3.1-2.9-1.3-4.6c1-0.9,1.8-3.1-0.2-4.9c-1.3-1.2-15.4-0.6-16.4-3.2C154.5,200.8,163.9,179.5,163.4,185.4z"/>
			<path class="st1" d="M179.5,141c0,0-6.1-4.2-10.3-6.2s-14.6-0.9-22.8,15.2s-5.7,31.4-4.5,36.6s6.1,10.8,11.8,14.4
				c5.2,3.3,19.6,2.7,17.2,0.7c-3.4-2.7-8.6-6-7.2-16.4c1.6-11.8,11.2-20.6,15.3-24.6c4-3.9,9.3-6,12-6.6c3,0.1,4.4,0.6,6.3-0.3
				s2.3-7.7-5-10C185.1,141.5,179.5,141,179.5,141z"/>
			<path class="st0" d="M182.9,141.4c-1.9-0.3-2.4-0.1-3.2,0.3c-13.8,6.9-26.2,22.7-25.8,41.5c0,0.4-0.3,0.1-0.4-0.1
				c-3-18.3,10.6-36.9,21.9-42.9c0.6-1.8-0.3-2.2-1.9-3.1L182.9,141.4z"/>
			<path class="st0" d="M144,170.9c0,0-0.1-2.9,2-2.7s3.3,2.9,2.6,4.9c-0.7,1.9-1.6,4.2-3.1,4.1c-1.4-0.1-1.6-2-1.6-2
				s0.7,1.2,1.6,1.3c0.9,0.1,2.3-2.6,2.6-4.1s-0.7-2.9-2.2-3.3C144.6,168.7,144,170.9,144,170.9z"/>
			<path class="st7" d="M173.4,210.3c0.3-0.2,1,0.4,0.8,1.5C173.8,210.9,173.7,210.5,173.4,210.3z"/>
			<path class="st7" d="M173.1,202.2c0.3-0.2,1,0.4,0.8,1.5C173.5,202.8,173.4,202.4,173.1,202.2z"/>
		</g>
	</g>
	<g id="mustache">
		<path class="st1" d="M348.5,74.2c7.1,4.1,14.1,4.2,21-0.7c0,0,11.4,13.3,10.7,15.2c-0.7,1.9-16.3,4.5-22.2,4.2
			c-5.9-0.3-20.4-1.6-22.5-4.1L348.5,74.2z"/>
		<path class="st0" d="M348.7,92c7.5,1.1,14.3,1.1,19.3,0.2C362.4,94.7,354.9,94.6,348.7,92z"/>
		<path class="st0" d="M346.5,84.9c0,0,8.3-2.1,9.3-2c1,0.1,1.8,1.4,3,1.4s3.1-1.4,4-1.6c0.9-0.2,9,1.4,9,1.4s-6.8-0.6-8.1-0.4
			c-1.3,0.2-3.4,2-4.6,1.9s-2.7-1.4-3.7-1.7C354.4,83.8,346.5,84.9,346.5,84.9z"/>
		<path class="st0" d="M354.6,65.2c3.2,2.4,3.2,13.7,0.1,14.8c-2.2,0.8-17.7,8.5-24.7,15.1c-7,6.6-25.3,23.7-42.2,9.1
			c-6.4-7-1.9-12.2-0.4-14c0.2,3.5,2.8,5.6,4.6,6.3c4.2,1.5,10.8-2.1,16.9-4.4c6-2.3,11.3-10.6,13.4-13.5s7.6-11.5,13.4-14.4
			C341.8,61,352.4,63.6,354.6,65.2z"/>
		<path class="st0" d="M364.4,63.4c-2.9,2.8-1.5,15,1.6,15.7c2.3,0.5,10.6,7.8,15.3,13.8s10.8,16.8,21.2,16.9c9.7,0,18-1.6,20.4-6
			c-1.1,0.6-8.3-2.3-13.7-6.5c-5-3.8-11.2-13.8-13.6-17.2c-2.5-3.5-9-13.6-15.1-15.8C373.9,61.9,366.3,61.6,364.4,63.4z"/>
		<path class="st2" d="M353.8,64.4c2,0.9,7.9,10.8-0.1,16.6C357.5,75.5,356.9,69.2,353.8,64.4z"/>
		<path class="st2" d="M364.7,62.9c-1.9,1.1-6.9,12.3,1.7,17C361.9,75,362.2,68,364.7,62.9z"/>
		<path class="st2" d="M349.8,62c2.8,1.6,2.7,17.5-1.9,22.8C349.6,80.6,352.2,68,349.8,62z"/>
		<path class="st2" d="M370.6,61.6c-2.7,1.7-2,18.7,2.8,23.9C371.5,81.3,368.4,67.6,370.6,61.6z"/>
		<path class="st2" d="M343.9,64.3c2.7,1.3,5.7,12.1,0.5,18.2C346.2,78.3,347.2,69.7,343.9,64.3z"/>
		<path class="st2" d="M375.9,70.1c-2,2.2-2.2,14.9,5,18.6C377.6,85.4,374.8,76.3,375.9,70.1z"/>
		<path class="st2" d="M342.7,73.2c1.1,6.2,1.5,11-3.6,15.6C342,84.8,342.3,81,342.7,73.2z"/>
		<path class="st2" d="M405.5,100.3c5,3.9,8.9,6.6,15.3,4.3C416,105.2,412.5,103.7,405.5,100.3z"/>
		<path class="st2" d="M321.5,89.6c-2.9,5.2-7.2,10.8-14,10.1C312.4,99.2,315.8,95.8,321.5,89.6z"/>
		<path class="st2" d="M338.9,74.6c-0.4,5.3-2.9,12.6-7.8,15.5C334.6,86.3,336.6,81.1,338.9,74.6z"/>
		<path class="st2" d="M354.3,69c0.6,3,0.5,7.5-1.5,9.7C354,76.2,354.2,73,354.3,69z"/>
		<path class="st2" d="M366.5,65.9c-1.3,2.8-0.8,7.5,0.7,10.1C366.6,73.2,365.7,69.8,366.5,65.9z"/>
		<path class="st2" d="M329.7,75.8c-0.7,3.8-3.5,12.4-5.9,14.2C325.5,87.7,328,79.9,329.7,75.8z"/>
		<path class="st2" d="M310.2,101c-3.3,2.1-9.1,4.1-11.3,3.6C300.8,104.2,306.1,101.6,310.2,101z"/>
		<path class="st2" d="M314.7,92.2c-3.3,1.8-10.7,7.8-15.6,6.4C302.4,98.3,311.7,92.6,314.7,92.2z"/>
		<path class="st2" d="M393,88.5c2.2,4.9,7.2,9.2,12.3,8.8C402,96.4,395,91.7,393,88.5z"/>
		<path class="st2" d="M372.6,62.1c-0.5,2.1-2,7.8,0.1,9.9C372.5,70.2,372.8,65,372.6,62.1z"/>
		<path class="st2" d="M389.3,94.5c0.6,2.4,1.6,6.7,5.3,8.2C393.2,101.4,391.2,97.7,389.3,94.5z"/>
		<path class="st2" d="M308.3,104.8c-2,1.4-10.5,5.1-14.2,1C297.9,107.8,304.7,105.9,308.3,104.8z"/>
		<path class="st2" d="M300.7,102.4c-7.1,1.6-15-2.1-13.4-10.4C287.5,98,293,102.6,300.7,102.4z"/>
		<path class="st2" d="M383.8,74.3c2.7,7.8,2,17.9,9,19.6C387.1,90.4,387.8,81,383.8,74.3z"/>
		<path class="st2" d="M378.7,67.9c3.3,5.4,0.7,10.1,2,14.4C377.6,78.5,380.5,75.2,378.7,67.9z"/>
		<path class="st2" d="M394.8,97.2c3.3,5.4,5.4,8,12.2,8C402.3,104.1,400.3,102.7,394.8,97.2z"/>
		<path class="st2" d="M339.1,61.9c0.4,6.6-3.1,15.8-8,21.9C333.5,79.8,337.3,70.2,339.1,61.9z"/>
		<path class="st2" d="M336.8,63.1c-10.1,4.9-16.1,23.7-19.3,27.5C323.2,87.4,323.8,75.5,336.8,63.1z"/>
		<path class="st2" d="M377.7,62.8c10.7,3.5,15.7,24.8,20.2,26.9C391.9,89.4,391.3,73.7,377.7,62.8z"/>
		<path class="st2" d="M329,86c-5.4,10.5-8.3,17.1-14.6,20.7C320.1,104.8,325.6,99.5,329,86z"/>
		<path class="st2" d="M383.2,82.7c2.7,11.5,4.9,20.1,9.1,23.7C387.3,103.1,383.9,96.7,383.2,82.7z"/>
	</g>
	<g id="nose">
		<path class="st2" d="M381.8,61.2c-1.7-2.8-5.2-8.2-7-10.8C377.9,53,380.7,57.9,381.8,61.2z"/>
		<path class="st2" d="M336.1,62.8c1.6-2.9,5.1-8.7,6.7-11.4C339.9,54.1,337,59.6,336.1,62.8z"/>
		<path class="st2" d="M371,48c1.8,1.3,4,3.4,4.2,4.6c0.1,1.2-0.3,3.2-1,4.1s-4.3-2-5.8-1.2c-1.5,0.8-6.6,6.9-7.7,7.8
			c-1.1,0.9-3.8,0.7-4.9-0.1c-1.1-0.9-7.6-6.7-8.2-8.8s1-11.1,1.3-12.5c0.2-1.3,3.2-11.2,3.2-11.2s-3.8,8.2-4.4,10.7
			c-0.6,2.5-2,11.5-1.6,13.2s8.2,8.9,9.5,9.9c1.3,1,4.6,1.4,5.9,0.1c1.3-1.3,6.2-6.9,7-8.1s5.1,2.1,6.1,1.4c1-0.7,1.5-4.2,1.2-5.7
			C375.6,50.7,372.5,47.8,371,48z"/>
		<path class="st2" d="M349.4,58.5c-0.9-1.2-6.4,2.1-7.4,1.4c-1-0.7-1.4-4.1-1.2-5.7c0.3-1.5,4.3-5.6,5.7-5.4
			c-1.8,1.3-5,4.3-5.1,5.6s0.3,3.4,1,4.4c0.7,1,4.6-2,6.1-1.1"/>
	</g>
	<g id="eyebrows">
		<path class="st0" d="M410.7,7.9c-0.1-3.1-13.6-5.4-17.3-6.2s-15.6,0.5-17.4,1.2c-1.8,0.7-3.9,7-3.9,7C384.5,7.3,395.7,5,410.7,7.9
			z"/>
		<path class="st2" d="M376.3,2.5c-2.4,1.2-3.7,5.5-4.4,7.5C373.5,8.7,374.2,4.9,376.3,2.5z"/>
		<path class="st2" d="M381.4,2.6c-2.4,1.2-5.3,4.8-6.3,6.7C376.6,7.5,379.3,5,381.4,2.6z"/>
		<path class="st2" d="M386,1.3c-2.4,1.2-5.3,4.6-6.5,6.5C381,6.4,383.9,3.7,386,1.3z"/>
		<path class="st2" d="M389.7,3.1c-2.4,1.2-4.9,3.4-7.2,4.9C384.7,7,387.4,5.3,389.7,3.1z"/>
		<path class="st2" d="M395.6,2.5c-2.9-0.1-3.7,1-6.2,3.6C392.7,3.7,393.2,3.2,395.6,2.5z"/>
		<path class="st2" d="M403.1,4.5c-2.2-0.6-5.5,0.5-8.3,0.9C397.7,5.6,400.6,4.5,403.1,4.5z"/>
		<g>
			<path class="st0" d="M310.4,10c-0.1-3.1,13.3-6,17-6.9s15.6-0.2,17.5,0.4c1.8,0.6,4.2,6.8,4.2,6.8C336.5,8.2,325.2,6.4,310.4,10z
				"/>
			<path class="st2" d="M349.2,10.4c-1.7-1.3-2.6-5-4.8-7.3C346.9,4.2,348.4,8.4,349.2,10.4"/>
			<path class="st2" d="M346,9.8c-1.6-1.7-4.4-4.1-6.6-6.4C341.8,4.5,344.9,8,346,9.8"/>
			<path class="st2" d="M341.6,8.5c-1.7-1.3-4.6-3.9-6.8-6.2C337.2,3.4,340.3,6.7,341.6,8.5"/>
			<path class="st2" d="M338.5,8.9c-2.3-1-5-2.4-7.4-4.6C333.6,5.4,336.2,7.4,338.5,8.9"/>
			<path class="st2" d="M331.5,7.3c-3.3-2.3-3.9-2.7-6.3-3.4C328.1,3.6,328.9,4.7,331.5,7.3"/>
			<path class="st2" d="M326.1,6.8c-2.8,0.4-5.8-0.6-8.3-0.5C319.9,5.6,323.3,6.5,326.1,6.8"/>
		</g>
	</g>
	<g id="eyeglasses">
		<path class="st2" d="M375.2,22.4c0,0-2,2.5-2,3.7c0,1.2,2.5,2.9,2.5,2.9s-1.1-1.5-1.3-2.9C374.2,24.8,375.2,22.4,375.2,22.4z"/>
		<path class="st2" d="M341.5,28.8c0,0,1.7-1.2,1.9-2.6c0.2-1.4-1.2-3.4-1.2-3.4s2.7,2.4,2.5,3.7C344.7,27.9,341.5,28.8,341.5,28.8z
			"/>
		<path class="st2" d="M378.4,26.2c0,0,0.5-1.7,2.3-1.9s7.8,1.7,11.5,1.3c3.5-0.4,9.4-2.6,9.4-2.6c-0.5,1.1-3.9,3.6-9,4.2
			c-4.4,0.5-10.6-1.9-11.9-1.9C379.4,25.2,378.4,26.2,378.4,26.2z"/>
		<path class="st2" d="M340.1,26.5c0,0-0.6-1.7-2.5-1.7s-6.8,3-11,2.6c-3.8-0.3-8.8-1.4-8.8-1.4s4.1,2.3,8.2,2.8
			c4.4,0.5,10.3-2.9,11.6-3C339.1,25.7,340.1,26.5,340.1,26.5z"/>
		<path class="st2" d="M339.4,30c-1.8,2.7-4.6,4.5-6.5,5C335.5,35.3,338.5,32.6,339.4,30z"/>
		<path class="st2" d="M317.3,26.2c-1.2,1-2.1,1.6-2.2,2.6C314.9,27.5,316.1,26.8,317.3,26.2z"/>
		<path class="st2" d="M402.9,23.4c1.1,1.1,1.8,1.9,1.9,2.9C405.1,25,404,24.1,402.9,23.4z"/>
		<path class="st2" d="M377.8,29.4c1.8,2.7,5.5,4.8,7.4,5.2C382.6,34.9,378.7,32.1,377.8,29.4z"/>
		<path class="st2" d="M313.2,20.5c0.9,3.1,2.6,4.4,4.3,5.3C314.9,25.3,313.2,23.3,313.2,20.5z"/>
		<path class="st2" d="M405.7,16.9c-0.2,3.2-1.6,4.8-3.1,6.1C405,21.9,406.2,19.6,405.7,16.9z"/>
		<path class="st2" d="M420.4,11.2c-0.7-0.6-8.2-2.2-14.6-2.2c-5,0-31-1.5-37.9,2.9c-1.9,1.2-5.2,2.3-8.4,2.4h-0.1
			c-3.2-0.1-6.5-1.2-8.4-2.4C344.1,7.5,318.1,9,313.1,9c-6.4,0-13.9,1.6-14.6,2.2s-0.9,5.7,0,6.4s4.8,0,6.4,3.2
			c1.6,3.2,3.2,9.6,6.4,12.8c3.2,3.2,23.7,3.2,28.7,3.2c4.8,0,9.6,0,12.8-8c2.2-5.5,3.7-7.8,6.7-7.8s4.5,2.3,6.7,7.8
			c3.2,8,8,8,12.8,8c5,0,25.5,0,28.7-3.2c3.2-3.2,4.8-9.6,6.4-12.8c1.6-3.2,5.5-2.5,6.4-3.2C421.3,16.8,421.1,11.8,420.4,11.2z
			 M346.2,34c-3.6,2.3-29,1.1-33.3-2.5c-4.3-3.6-9.1-17.1-1.9-19.4c11.2-3.2,38.6-2.2,40,4C353.1,26.2,349.8,31.7,346.2,34z
			 M406,31.5c-4.3,3.6-29.7,4.8-33.3,2.5c-3.6-2.4-6.9-7.8-4.7-17.8c1.4-6.2,28.8-7.2,40-4C415.2,14.4,410.3,27.9,406,31.5z"/>
	</g>
</g>
</svg>
