<?xml version="1.0" encoding="utf-8"?>
<!-- Generator: Adobe Illustrator 23.0.3, SVG Export Plug-In . SVG Version: 6.00 Build 0)  -->
<svg version="1.1" xmlns="http://www.w3.org/2000/svg" xmlns:xlink="http://www.w3.org/1999/xlink" x="0px" y="0px"
	 viewBox="0 0 1000 221.11" style="enable-background:new 0 0 1000 221.11;" xml:space="preserve">
<style type="text/css">
	.st0{fill:#FF5F5F;}
	.st1{fill:#F9E75E;}
	.st2{fill:#333366;}
	.st3{fill:#E8E8E8;}
	.st4{fill:#F4EAB3;}
	.st5{fill:#3F3F3F;}
	.st6{fill:none;stroke:#FF5F5F;stroke-miterlimit:10;}
	.st7{fill:#FFFFFF;}
</style>
<g id="Layer_5">
	<rect x="-0.11" y="126.51" class="st0" width="1000.17" height="94.66"/>
</g>
<g id="Face">
	<rect x="443.98" y="0.43" class="st1" width="119.77" height="99.4"/>
</g>
<g id="Beard_BG_Color">
	<path class="st1" d="M561.79,21.86c2.36-3.9,2.7-5.38,4.25-3.81c1.56,1.57,1.89,9.15,0.74,11.73c-1.15,2.58-2.6,11.38-4.66,13.42
		C564.46,38.12,561.79,21.86,561.79,21.86z"/>
	<path class="st1" d="M445.6,21.52c-2.36-3.9-1.13-5.01-2.69-3.44s-1.02,8.92-0.74,11.73c0.67,6.73,1.86,8.65,2.98,13.13
		C444.37,37.26,445.6,21.52,445.6,21.52z"/>
	<path class="st2" d="M446.53,16.01c0,0-0.82,19.69-0.69,23.28s1.09,19.83,2.15,21.02c0.73-4.97,3.37-8.31,4.8-10.38
		c-0.14,7.05,0.26,22.26,2.57,25.33c1.49-3.46,2.83-3.81,4.16-3.67c-0.5,4.34,4.41,12.61,4.41,12.61l-30.72,73.19
		c-6.74,22.57-20.44,28.64-38.63,26.07c-17.83-2.51-17.34-18.93-15.72-20.69c-9.25,11.23-36.85,26.34-70.7,21.56
		s-39.91-31.75-62.33-57.88c-2.72,0-43.37-0.03-43.37-0.03s28.44-34.42,49.55-33.05c4.19-4.56,16.08-9.58,24.55-9.12
		c8.47,0.46,13.29,7.98,15.61,10.12c1.62-5.83,17.44-21.08,24.66-20.02c4.01-6.71,20.63-21.65,39.57-22.64
		c18.94-1,35.86,26.51,51.66,26.75c15.8,0.24,25.41-12.64,27.71-20.79c2.3-8.15,6.06-22.49,7.21-26.61s0.98-18.23,0.98-18.23
		l2.55-0.24L446.53,16.01z"/>
	<path class="st2" d="M538.58,83.18c1.66-8.68,2.41-17.57,0-27.18c4.98,7.01,8.71,13.47,9.38,18.56c0.65-4.99,0.65-9.68-1.15-13.59
		c2.94,0.84,5.87,1.69,7.27,4.02c1.27-5.18,1.31-10.24-0.38-15.12c2.87,2.27,5.07,5.23,5.74,9.76c0.15-5.76,0.08-11.57-0.9-17.66
		c1.35,2.41,2.06,4.79,2.05,7.13c2.88-8.13,1.23-20.76,0.57-33.68l3.64-0.19c0,0-0.59,9.93,0,13.59c0.59,3.66,3.96,8.94,4.79,12.84
		c0.83,3.9,1.58,12.21,2.72,14.72c1.13,2.52,9.65,10.19,15.27,9.37c5.62-0.82,9.39-7.82,10.33-11.87s-0.38-11.67-0.38-11.67
		s6.64,8.3,7.12,12.15c0.48,3.86-0.99,9.09-0.99,9.09c15.59-12.52,28.11-29.99,58.18-19.14c34.42-27.95,62.82,13.21,80.47,15.58
		c7.46,1,15.48-0.16,20.64-5.16c5.16-5,7.97-9.93,7.93-14.97c0.38-7.42-3.35-11.07-10.07-12.58c9.67-2.54,17.04,8.16,16.86,10.92
		c0.74-4.06-2.4-10.33-12.91-12.91c14.76-1.48,20.57,5.78,22.14,15.68c1.57,9.9-1.18,17.17-4.98,23.43
		c-4.78,7.86-36.39,54.54-44.2,61.85c-5.95,5.57-25.62,13.33-64.49,13.96c-35.56,0.58-68.18-12.31-68.18-12.31l-61.48-32.59
		L538.58,83.18z"/>
	<path class="st2" d="M468.66,87.12l66.03,2.11l55.69,1.72c11.59,16.33,26.16,33.61,28.32,43.25s-0.4,17.7-7.27,23.54
		c1.02-6.84,1.12-13.27-2.68-17.99c-1.77,16.28-9.35,24.05-18.95,28.9c2.12-3.14,2.63-5.99-0.19-8.23
		c-2.28,7.06-5.49,12.04-10.14,13.78c0.53-1.85,0.91-3.65-0.96-4.59c0,0-10.08,17.72-20.48,19.9c4.69-4.05,10.1-14.48,9.76-26.41
		c-3.3,8.98-35.37,54.03-67.64,52.46c15.84-3.44,20.94-15.57,25.03-20.8c-12.9,2.52-16.33-11.18-16.33-11.18
		c-2.65,11.63-8.32,22.16-17.61,31.39c1.07-3.13,1.53-6.04,0-8.23c-2.47,4.23-5.16,7.9-8.8,9.19c0.48-0.95,1.64-2.76,1.52-4.59
		c-1.73,1.28-5.55,3.05-8.22,3.25c2.31-2.73,4.65-5.52,4.66-9.27s-0.92-9.07-4.27-13.12c-1.13,5.39-0.68,10.52,0.57,15.5
		c-4.45-3.17-7.11-9.2-7.46-18.95c-1.6,6.56-1.22,12.22,0.57,17.22c-2.66-3.92-4.8-8.94-6.32-15.31
		c-0.04,5.94,0.62,11.31,2.49,15.69c-6.67-9.34-13.53-18.66-12.25-29.28c-2.68,2.77-3.18,8.99-3.25,15.88
		c-3.1-6.39-5.62-13.15-6.32-21.05c-2.06,4.31-1.72,10.26-0.77,16.65c-5.49-8.85-10.1-17.41-12.63-25.26l5.36-59.14L468.66,87.12z"
		/>
	<path class="st2" d="M698.27,124.52c0,0,22.74-0.47,38.92,1.85c13.51,1.93,8.83,31.93-3.56,35.91c3.14,1.99,6.81,1.68,9.26,0.99
		c-1.22,1.91-1.05,2.37-0.57,3.48c2.22,5.51,7.7,12.79,25.05,6.09c17.72-6.85,29.12-23.7,29.76-58.06s-19.23-45.64-19.23-45.64
		L698.27,124.52z"/>
	<path class="st2" d="M614.99,129.97c0,0,11.8,12.76,27.09,11.22c-10.62-6.45-3.7-10.97-3.7-10.97L614.99,129.97z"/>
	<path class="st2" d="M762.76,174.37c0.62-1.45,15.07-10.77,15.07-10.77s8.8,16-0.54,25.77
		C778.11,177.25,765.17,173.29,762.76,174.37z"/>
	<polygon class="st2" points="444.17,12.49 446.6,12.62 447.5,0.36 443.69,0.36 	"/>
	<polygon class="st2" points="560.34,13.13 564.43,13 565.19,0.36 559.86,0.36 	"/>
</g>
<g id="Beard_Details">
	<path class="st0" d="M658.19,76.12c-6.26-0.87-11.01-1.13-15.37,4.13C646.64,77.25,650.44,76.75,658.19,76.12z"/>
	<path class="st0" d="M443.84,32.89c0.08,3.83-1.02,12.87-3.08,15.04C441.99,45.4,442.96,37.27,443.84,32.89z"/>
	<path class="st0" d="M448.22,60.73c0.01,3.83-1.26,12.85-3.36,14.98C446.14,73.2,447.27,65.1,448.22,60.73z"/>
	<path class="st0" d="M338.77,80.52c2.11-2.55,5.93-5.39,9.09-5.19C344.96,76.06,342.16,78.01,338.77,80.52z"/>
	<path class="st0" d="M502.3,107.34c0.16,3.31-2.04,10.2-4.5,12.19C499.45,117.04,501.49,111.48,502.3,107.34z"/>
	<path class="st0" d="M618.58,100.68c1.64,3.37,8.01,8.92,12.01,9.46C627.28,108.62,621.81,104.31,618.58,100.68z"/>
	<path class="st0" d="M602.36,87.83c3.37,1.44,11.52,1.6,14.69-0.4C613.72,88.33,607.03,88.51,602.36,87.83z"/>
	<path class="st0" d="M674.39,67.59c-3.45-1.24-11.59-0.92-14.64,1.27C663.02,67.77,669.69,67.2,674.39,67.59z"/>
	<path class="st0" d="M700.28,44.27c-1.76-3.21-8.06-8.38-11.8-8.77C691.66,36.86,697.03,40.86,700.28,44.27z"/>
	<path class="st0" d="M775.89,38.53c-1.44-3.37-5.83-9.64-9.51-10.39C769.41,29.8,772.99,34.82,775.89,38.53z"/>
	<path class="st0" d="M347.02,88.16c3.92-2.02,10.07-3.5,13.85-1.6C356.94,85.94,352.48,86.86,347.02,88.16z"/>
	<path class="st0" d="M380.55,138.1c2.29-3.77,6.77-8.24,10.98-8.59C387.85,131.03,384.53,134.14,380.55,138.1z"/>
	<path class="st0" d="M395.07,144.53c5-0.88,10.58,1.33,13.12,4.7C404.95,146.93,400.41,144.91,395.07,144.53z"/>
	<path class="st0" d="M497.57,113.23c2.67-4.31,2.68-10.32,0.5-13.93C499,103.17,499.19,108.13,497.57,113.23z"/>
	<path class="st0" d="M450.8,162.72c-3.33,3.83-4.3,9.76-2.72,13.67C447.78,172.43,448.38,167.5,450.8,162.72z"/>
	<path class="st0" d="M434.88,152.49c-3.33,3.83-4.3,9.76-2.72,13.67C431.86,162.19,432.46,157.26,434.88,152.49z"/>
	<path class="st0" d="M378.92,110.36c-3.98,1.9-10.18,3.19-13.89,1.19C368.94,112.28,373.42,111.5,378.92,110.36z"/>
	<path class="st0" d="M411.09,150.55c2.58,3.57,4.97,9.44,3.66,13.45C414.78,160.02,413.2,155.76,411.09,150.55z"/>
	<path class="st0" d="M421.55,148.25c-1.11-4.27,2.16-18.63,4.83-21.89C424.91,130.06,421.47,142.64,421.55,148.25z"/>
	<path class="st0" d="M466.77,194.97c-1.89-3.98-2.51-12.35-0.5-16.06C465.52,182.82,465.64,189.47,466.77,194.97z"/>
	<path class="st0" d="M390.83,125.12c4.41-0.08,10.53-1.7,12.95-5.15C400.62,122.38,396.26,123.67,390.83,125.12z"/>
	<path class="st0" d="M347.49,63.91c3.06-1.27,7.76-2,10.47-0.35C355.05,62.85,351.66,63.27,347.49,63.91z"/>
	<path class="st0" d="M316.88,74.38c1.45-2.98,4.49-6.72,7.61-7.28C321.85,68.49,319.58,71.13,316.88,74.38z"/>
	<path class="st0" d="M402.22,80.71c-3.75,0.62-19.81-0.83-25.2-3.42C386.03,78.53,398.05,80.39,402.22,80.71z"/>
	<path class="st0" d="M274.56,143.71c-3.58-1.27-23.03-16.53-26.5-21.4C255.35,127.75,271.06,141.42,274.56,143.71z"/>
	<path class="st0" d="M445.52,138.81c0.68,3.74-0.7,23.44-3.2,28.88C443.41,158.65,445.28,142.98,445.52,138.81z"/>
	<path class="st0" d="M494.76,97.19c1.13,5.06,0.18,19.33-4.02,21.97C492.72,116.56,495,100.8,494.76,97.19z"/>
	<path class="st0" d="M487.1,95.81c-0.73,5.33-5.2,13.67-1.52,19.16C485.58,110,487.36,102.51,487.1,95.81z"/>
	<path class="st0" d="M498.95,149.99c-4.82-21.47,10.43-43.63,7.3-48.88C507.83,108.2,490.15,137.68,498.95,149.99z"/>
	<path class="st0" d="M350.38,59.94c-6.86-0.71-22.13,5.64-24.28,11.85C331.09,65.99,343.44,60.74,350.38,59.94z"/>
	<path class="st0" d="M517.31,144.46c3.49-2.83,3.41-19.37-3.67-27.39C517.91,123.43,518.4,137.56,517.31,144.46z"/>
	<path class="st0" d="M480.02,116.3c-4.07,1.9-8.03,17.96-3.11,27.46C474.33,136.56,477.29,122.73,480.02,116.3z"/>
	<path class="st0" d="M350.76,84.59c10.33-4.95,11.75-6.86,21.7-6.93C364.92,75.37,356.01,80.5,350.76,84.59z"/>
	<path class="st0" d="M407.33,122.71c8.66-9.73,11.15-15.16,17.01-20.05C417.09,106.7,410.09,118.22,407.33,122.71z"/>
	<path class="st0" d="M428.34,164.27c3.8-12.46,3.8-18.44,7.08-25.32C430.52,145.65,428.98,159.04,428.34,164.27z"/>
	<path class="st0" d="M426.43,87.38c-11.15,2.59-12.96,4.16-22.69,2.06C410.61,93.31,420.41,90.22,426.43,87.38z"/>
	<path class="st0" d="M540.36,134.33c3.29,10.97,4.96,12.67,3.48,22.51C547.27,149.75,543.58,140.15,540.36,134.33z"/>
	<path class="st0" d="M342.2,58.3c6.13-3.99,26.16-5.49,30.74,1.61C365.35,55.31,350.17,54.55,342.2,58.3z"/>
	<path class="st0" d="M353.12,157.53c-6.35,3.64-26.43,4.01-30.6-3.33C329.84,159.22,344.95,160.84,353.12,157.53z"/>
	<path class="st0" d="M495.56,114.63c1.5,7.16-5.16,27.85-13.44,29.56C489.16,138.77,496.19,123.42,495.56,114.63z"/>
	<path class="st0" d="M272.75,119.07c-0.38-8.36-10.65-23.65-18.98-25.04C261,99.17,270.98,110.33,272.75,119.07z"/>
	<path class="st0" d="M511.6,96.38c0.66,7.43,2.97,18.31,8.88,22.2C516.59,113.55,513.71,102.71,511.6,96.38z"/>
	<path class="st0" d="M575.1,75.12c4.84,5.68,13.02,13.22,20.09,12.98C588.9,86.44,580,79.54,575.1,75.12z"/>
	<path class="st0" d="M459.53,164.28c-2.85,6.89-5.84,17.61-2.41,23.79C455.43,181.86,457.91,170.92,459.53,164.28z"/>
	<path class="st0" d="M346.97,71.17c8.44-6.12,21.1-1.78,28.32,1.19C367.85,70.13,358.28,66.5,346.97,71.17z"/>
	<path class="st0" d="M478.92,160.99c-4.8-9.26,1.38-21.13,5.39-27.83C481,140.19,475.98,149.11,478.92,160.99z"/>
	<path class="st0" d="M230.49,118.23c10.43,0.04,18.73,10.99,22.81,17.65C248.6,129.7,242.38,121.14,230.49,118.23z"/>
	<path class="st0" d="M518.19,92.87c3.57,6.58,6.75,19.81,13.96,23.99C527.53,111.82,524.25,98.88,518.19,92.87z"/>
	<path class="st0" d="M462.43,158.73c-0.54,8.55-3.5,29.21-0.74,37.92C460.39,189.18,464.51,167.91,462.43,158.73z"/>
	<path class="st0" d="M482.47,93.11c-2.71,6.98-4.75,21.26-9.34,25.86C475.37,114.79,477.21,99.84,482.47,93.11z"/>
	<path class="st0" d="M367.59,82.17c10.97-2.42,27.32,8.72,32.12,9.7C393.32,92.85,386.51,82.95,367.59,82.17z"/>
	<path class="st0" d="M493.93,152.22c5.25,9.93-1.14,28.66-0.8,33.54C490.48,179.86,498.21,170.67,493.93,152.22z"/>
	<path class="st0" d="M276.11,98.09c8.1,7.79,7.89,27.57,9.74,32.11C281.48,125.43,285.95,114.28,276.11,98.09z"/>
	<path class="st0" d="M546.1,162.18c1.34,11.16-11.34,26.34-12.78,31.02C532.96,186.75,543.48,180.94,546.1,162.18z"/>
	<path class="st0" d="M364.89,65.16c15.13,1.16,21,9.77,29.02,11.51C384.3,73.02,378.44,64.46,364.89,65.16z"/>
	<path class="st0" d="M443.23,47.25c-4.13,14.6-12,21.78-15.29,29.31C433.41,67.86,441.23,60.67,443.23,47.25z"/>
	<path class="st0" d="M419.24,77.6c-10.83,4.76-17.23,8.11-24.39,6.98C400.51,86.64,408.08,86.02,419.24,77.6z"/>
	<path class="st0" d="M450.53,61.4c-1.27,11.76-1.56,18.98-6.1,24.62C449.03,82.13,452.27,75.26,450.53,61.4z"/>
	<path class="st0" d="M413.32,96.23c-11.81,0.72-18.97,1.65-25.3-1.88C392.63,98.23,399.94,100.27,413.32,96.23z"/>
	<path class="st0" d="M416.71,145.41c-1.5-12.17,3.59-25.9,7.19-32.19C419.97,117.78,412.82,131.99,416.71,145.41z"/>
	<path class="st0" d="M502.29,169.93c0.33,11.83,1.02,19.01-2.72,25.22C503.6,190.67,505.88,183.43,502.29,169.93z"/>
	<path class="st0" d="M220.36,121.17c10.07-6.21,15.94-10.41,23.19-10.29C237.65,109.63,230.24,111.29,220.36,121.17z"/>
	<path class="st0" d="M244.15,107.27c9.99,6.35,16.33,9.79,19.38,16.37C262.08,117.79,257.36,111.85,244.15,107.27z"/>
	<path class="st0" d="M317.25,90.91c3.67,7.35,4.8,9.45,12.41,13.14C321.82,98.78,319.08,93.5,317.25,90.91z"/>
	<path class="st0" d="M405.05,128.99c0.13,8.21,0.23,10.6,5.5,17.22C405.77,138.07,405.58,132.13,405.05,128.99z"/>
	<path class="st0" d="M421.53,166.84c3.71-7.33,4.73-9.49,3.15-17.8C425.12,158.48,422.51,163.82,421.53,166.84z"/>
	<path class="st0" d="M487.14,199.42c2.09-7.94,2.64-10.26-0.64-18.06C488.91,190.49,487.48,196.26,487.14,199.42z"/>
	<path class="st0" d="M484.97,137.39c3.63-7.37,4.62-9.54,2.95-17.83C488.47,128.99,485.92,134.36,484.97,137.39z"/>
	<path class="st0" d="M253.03,122.09c-6.29-5.27-8.17-6.75-16.62-7.1C245.7,116.69,250.31,120.44,253.03,122.09z"/>
	<path class="st0" d="M277.67,162.73c5.46,6.13,7.1,7.87,15.41,9.43C284.15,169.13,280.12,164.75,277.67,162.73z"/>
	<path class="st0" d="M264.21,113.14c2.24,7.74,2.97,9.99,10.4,15.93C267.32,121.67,265.6,116.06,264.21,113.14z"/>
	<path class="st0" d="M512.52,160.33c2.16-7.92,2.73-10.24-0.48-18.07C514.37,151.41,512.88,157.17,512.52,160.33z"/>
	<path class="st0" d="M382.36,174.28c0.85,3.72,9.74,10.18,21.05,7.96C394.93,183.66,384.83,178.61,382.36,174.28z"/>
	<path class="st0" d="M305.3,117.39c1.32,3.04,4.21,6.82,7.3,7.51C310.02,123.4,307.86,120.74,305.3,117.39z"/>
	<path class="st0" d="M329.88,97.1c1.93,3.96,9.05,8.75,13.21,9.49C339.56,104.74,333.47,101.42,329.88,97.1z"/>
	<path class="st0" d="M516.57,177.41c-0.36,4.39,3.33,12.14,6.52,14.9C521.01,188.92,517.46,182.96,516.57,177.41z"/>
	<path class="st0" d="M336.53,129.22c3.46,2.74,11.95,3.97,16.01,2.85C348.57,131.92,341.64,131.56,336.53,129.22z"/>
	<path class="st0" d="M379.12,117.08c3.02,1.36,7.69,2.24,10.45,0.67C386.64,118.37,383.26,117.85,379.12,117.08z"/>
	<path class="st0" d="M493.13,211.04c0.45-1.97,0.72-5.39-0.06-7.71c0.01,0.04,0.21-0.21,0.28-0.27
		C494.34,205.72,494.15,208.88,493.13,211.04z"/>
	<path class="st0" d="M396.46,147.72c-1.82-0.89-4.12-0.34-6.2,0.37c0.04,0-0.16-0.26-0.2-0.33
		C392.51,146.69,394.59,146.24,396.46,147.72z"/>
	<path class="st0" d="M482.24,181.41c-1.35,3.02-2.2,7.7-0.63,10.45C480.98,188.94,481.49,185.56,482.24,181.41z"/>
	<path class="st0" d="M495.04,208.67c2.3-2.38,6.14-9.01,5.6-12.13C500.24,199.5,497.16,205.02,495.04,208.67z"/>
	<path class="st0" d="M516.82,159.56c-1.49,2.96-2.57,7.59-1.12,10.41C515.2,167.02,515.87,163.67,516.82,159.56z"/>
	<path class="st0" d="M295.41,99.51c1.74,2.82,3.8,5.29,6.96,5.53C299.6,103.92,298.42,102.47,295.41,99.51z"/>
	<path class="st0" d="M518.45,169.63c0.05,3.31,2.11,10.45,4.7,12.28C521.34,179.53,519.52,173.71,518.45,169.63z"/>
	<path class="st0" d="M383.26,120.48c-3.68-0.95-19.81-0.95-25.41,1.14C366.94,121.19,379.08,120.42,383.26,120.48z"/>
	<path class="st0" d="M483.92,176.25c1.7,6.59,2.81,27.57-1.53,30.38C485.7,198.97,484.17,181.06,483.92,176.25z"/>
	<path class="st0" d="M402.6,180.67c6.44-1.54,7.28-1.32,12.61-4.63c3.85-2.4,6.98-5.53,9.05-8.7
		C417.28,175.27,412.36,178.18,402.6,180.67z"/>
	<path class="st0" d="M411.88,174.93c3.87-5.37,4.66-5.75,6.54-11.73c1.36-4.33,1.69-8.74,1.2-12.49
		C419.5,161.27,417.66,166.69,411.88,174.93z"/>
	<path class="st0" d="M551.04,182.78c3.71-2.4,12.62-17.85,10.56-25.16C560.33,168.38,553.83,180.35,551.04,182.78z"/>
	<path class="st0" d="M521.58,204.29c2.84-2.52,11.85-15.9,13.24-21.71C530.09,190.36,523.96,200.86,521.58,204.29z"/>
	<path class="st0" d="M335.62,95.39c-2.05-6.38-13.09-17.15-19.66-16.91C323.17,81.04,331.67,89.61,335.62,95.39z"/>
	<path class="st0" d="M478.77,183.13c3.95-5.41,6.98-21.64,2.92-26.81C483.88,163.66,481.12,176.54,478.77,183.13z"/>
	<path class="st0" d="M277.28,108.8c-2.05-6.38-13.09-17.15-19.66-16.91C264.83,94.46,273.34,103.03,277.28,108.8z"/>
	<path class="st0" d="M338.99,107.49c10.12,5.35,11.47,7.33,21.41,7.79C352.78,117.27,344.08,111.78,338.99,107.49z"/>
	<path class="st0" d="M511.74,167c1.38,11.37,0.53,13.6,5.83,22.02C511.58,183.9,511.12,173.63,511.74,167z"/>
	<path class="st0" d="M460.29,141.19c5.57-9.78,7.33-11.03,8.91-20.84C469.88,127.97,464.38,136.34,460.29,141.19z"/>
	<path class="st0" d="M326.83,116.44c6.42,8.22,25.96,8.06,33.72,7.2C352.79,123.71,336.41,124.05,326.83,116.44z"/>
	<path class="st0" d="M263.05,141.46c2.48,10.13,20.36,18,27.79,20.41C283.73,158.75,268.65,152.34,263.05,141.46z"/>
	<path class="st0" d="M288.09,118.04c-0.85,11.7,6.72,27.48,11.29,33.81C295.49,145.14,290.01,129.53,288.09,118.04z"/>
	<path class="st0" d="M507.14,114.34c-5.33,9.89,1.89,29.27,0.44,35.39C511.96,144.48,502.71,132.75,507.14,114.34z"/>
	<path class="st0" d="M468,113.41c-9.08,6.62-14.26,32.02-18.23,36.92C455.99,147.49,456.05,128.11,468,113.41z"/>
	<path class="st0" d="M348.57,127.67c14.86,3.07,22.88-3.57,31.07-3.02C369.4,125.5,361.4,132.09,348.57,127.67z"/>
	<path class="st0" d="M494.2,135.88c-5.45,14.16-0.2,23.16-2.08,31.15C492.96,156.79,487.75,147.82,494.2,135.88z"/>
	<path class="st0" d="M301.52,107.23c7.91,2.21,10.19,2.92,15.25,9.7C310.11,110.24,304.41,108.54,301.52,107.23z"/>
	<path class="st0" d="M539.93,188.13c-3.59,7.38-4.7,9.5-12.27,13.26C535.44,196.05,538.13,190.74,539.93,188.13z"/>
	<path class="st0" d="M482.38,117.94c-0.01,3.52-0.73,12.34-2.91,14.64C480.77,129.89,481.32,122.31,482.38,117.94z"/>
	<path class="st0" d="M733.14,77.99c-3.49,0.49-12.31,1.05-14.91-0.78C721.09,78.11,728.66,77.57,733.14,77.99z"/>
	<path class="st0" d="M499.19,189.14c-1.34,4.39-1.49,13.33-3.48,15.88C496.81,202.23,497.22,192.58,499.19,189.14z"/>
	<path class="st0" d="M308.02,79.79c4.12,1.57,9.33,5.16,10.45,9.23C316.31,85.67,312.65,82.98,308.02,79.79z"/>
	<path class="st0" d="M352.06,106.7c-3.21-0.81-7.42-3.03-8.6-5.97C345.37,103.03,348.34,104.72,352.06,106.7z"/>
	<path class="st0" d="M213.56,121.35c1.37-3.02,4.3-6.76,7.4-7.41C218.36,115.41,216.17,118.03,213.56,121.35z"/>
	<g>
		<path class="st0" d="M238.96,125.74c1.57-1.99,1.33-1.69,2.77-3.08c-0.17-0.11-0.35-0.21-0.52-0.32
			C240.62,123.07,240.05,123.64,238.96,125.74z"/>
	</g>
	<path class="st0" d="M370.01,148.71c-1.79,2.8-5.44,6.02-9.07,6.06C364.06,153.8,366.77,151.56,370.01,148.71z"/>
	<path class="st0" d="M488.28,201.58c-0.18,3.31-1.55,7.86-4.2,9.59C485.97,208.85,487.06,205.62,488.28,201.58z"/>
	<path class="st0" d="M554.06,152.52c1.32,3.04,3.78,12.23,0.24,16.08C556.15,164.28,554.77,156.67,554.06,152.52z"/>
	<path class="st0" d="M398.59,100.69c-2.05,2.6-7.72,8.16-10.88,8.05C390.58,107.94,395.26,103.29,398.59,100.69z"/>
	<path class="st0" d="M535.13,120.08c2.42,2.26,5.09,6.27,4.71,9.42C539.28,126.56,537.43,123.61,535.13,120.08z"/>
	<path class="st0" d="M431.38,67.34c-1.57,3.46-11.68,16.02-16.83,19.07C420.59,79.6,428.81,70.63,431.38,67.34z"/>
	<path class="st0" d="M326.13,106.43c3.32,6.05,21.77,16.03,28.1,14.27C346.62,119.89,330.73,111.68,326.13,106.43z"/>
	<path class="st0" d="M409.29,114.45c-6.21,3-16.29,22.35-14.86,28.76C395.63,135.66,403.8,118.77,409.29,114.45z"/>
	<path class="st0" d="M306.25,163.48c5.33,4.38,26.17,6.78,31.39,2.79C330.28,168.36,312.48,166.65,306.25,163.48z"/>
	<path class="st0" d="M362.67,158.18c6.87-0.67,23.32-13.68,24.19-20.19C383.12,144.67,369.32,156.03,362.67,158.18z"/>
	<path class="st0" d="M420.34,111.22c-5.28,4.44-11.48,24.48-8.52,30.34C411.13,133.94,416.08,116.76,420.34,111.22z"/>
	<path class="st0" d="M491.32,206.48c4.81-4.94,8.98-25.5,5.44-31.04C498.21,182.96,495,200.55,491.32,206.48z"/>
	<path class="st0" d="M420.68,86.05c7.75-0.75,23.49-19.7,23.47-26.27C441.35,66.9,428.89,83.02,420.68,86.05z"/>
	<path class="st0" d="M291.14,157.12c0.05-7.78-17.19-25.39-23.72-26.04C274.22,134.6,288.97,148.65,291.14,157.12z"/>
	<path class="st0" d="M329.3,177.02c-4.27,2.61-26.24,1.09-29.36-2.92C304.79,176.95,324.56,178.53,329.3,177.02z"/>
	<path class="st0" d="M402.72,113.16c-9.21,6.8-11.83,11.2-21.6,13.13C388.96,127.13,398.33,118.16,402.72,113.16z"/>
	<path class="st0" d="M419.32,101.02c-3.92,6.18-27.56,17.6-34.68,13.05C393.45,115.1,413.63,107.76,419.32,101.02z"/>
	<path class="st0" d="M508.74,183.41c-3.98-6.14-5.46-26.16,1.64-30.74C504.59,162.72,505.87,169.87,508.74,183.41z"/>
	<path class="st0" d="M452.76,173.48c-0.44-6.09,5.7-27.89,12.13-31.21C459.05,152.85,452.54,167.67,452.76,173.48z"/>
	<path class="st0" d="M299.52,86.22c10.42,0.35,17.74,11.55,21.62,18.33C316.64,98.22,311.32,89.48,299.52,86.22z"/>
	<path class="st0" d="M442.47,145.47c-4.12-9.58,2.89-20.97,7.38-27.37C446.05,124.87,440.4,133.41,442.47,145.47z"/>
	<path class="st0" d="M437.09,77.78c-0.66,10.41-13.22,18.23-21.19,20.28C423.42,94.19,433.48,89.48,437.09,77.78z"/>
	<path class="st0" d="M472.38,200.11c-4.66-9.33,4.76-20.98,7.48-28.53C478.04,179.14,469.63,188.19,472.38,200.11z"/>
	<path class="st0" d="M269.39,86.3c10.15,2.38,15.14,14.8,17.62,22.21C283.82,101.42,280.31,91.8,269.39,86.3z"/>
	<path class="st0" d="M232.85,102.02c9.09-5.1,21.16,0.67,27.99,4.46C253.71,103.42,244.63,98.7,232.85,102.02z"/>
	<path class="st0" d="M300.08,94.25c10.61,3.71,14.64,18.49,24.17,24.5C314.5,116.17,314.35,104.15,300.08,94.25z"/>
	<path class="st0" d="M439.9,180.28c-5.25-9.93,1.85-23.51-1.05-34.4C444.24,154.41,436.17,163.31,439.9,180.28z"/>
	<path class="st0" d="M330.98,163.14c-10.74,3.29-22.75-6.23-33.99-5.43C306.39,154.01,313.62,163.61,330.98,163.14z"/>
	<path class="st0" d="M486.37,147c5.28,9.92-0.53,23.73,2.4,34.61C483.35,173.1,490.15,163.95,486.37,147z"/>
	<path class="st0" d="M300.24,135.14c-7.92-7.97-5.09-23.03-11.04-32.6C296.84,109.13,291.72,120,300.24,135.14z"/>
	<path class="st0" d="M271.07,107.83c9,6.72,7.53,22.31,14.81,30.91C277.36,133.34,281.71,121.56,271.07,107.83z"/>
	<path class="st0" d="M508.45,101.05c6.28,9.32,0.66,23.58,4.69,34.1C506.88,127.23,513.96,117.52,508.45,101.05z"/>
	<path class="st0" d="M504.02,138.71c3.5,10.68-5.79,22.86-4.76,34.09C495.38,163.48,504.84,156.07,504.02,138.71z"/>
	<path class="st0" d="M327,125.5c-14.87-3.06-19.6-12.33-27.34-15.07C308.73,115.26,313.47,124.48,327,125.5z"/>
	<path class="st0" d="M766.13,88.13c7.27,10.81,11.91,14.58,15.18,21.46C779.21,101.56,769.79,91.92,766.13,88.13z"/>
	<path class="st0" d="M303.22,118.84c0,0-0.65-0.04-0.92,0.07c-0.08-0.35-1.79-7.56-2.07-8.02
		C300.58,111.03,302.53,115.71,303.22,118.84z"/>
	<path class="st0" d="M231.14,126.44h0.98c1.44-2,3.39-3.63,5.98-5.93C234.38,122.97,232.56,124.18,231.14,126.44z"/>
	<path class="st0" d="M603.21,64.83c-4.17,10.19-12.34,15.39-22.3,15.91C589.65,79.45,597.66,74.02,603.21,64.83z"/>
	<path class="st0" d="M570.2,82.5c-5.2-4.23-11.21-18.43-8.6-24.46C561.36,65.69,566.26,76.73,570.2,82.5z"/>
	<path class="st0" d="M563.79,44.4c2.41,12.8,1.75,18.74,4.25,25.94C563.91,63.15,563.84,49.67,563.79,44.4z"/>
	<path class="st0" d="M568.07,44.89c-0.08,3.83,1.02,12.87,3.08,15.04C569.92,57.4,568.95,49.27,568.07,44.89z"/>
	<path class="st0" d="M557.09,59.19c0.24,3.82,2.07,12.75,4.3,14.74C559.95,71.51,558.32,63.49,557.09,59.19z"/>
	<path class="st0" d="M544.3,69.46c4.13,14.6,12,21.78,15.29,29.31C554.12,90.08,546.3,82.88,544.3,69.46z"/>
	<path class="st0" d="M550.4,69.16c3.62,11.26,5.36,18.27,10.95,22.88C556.06,89.16,551.5,83.09,550.4,69.16z"/>
	<path class="st0" d="M575.4,92.31c-7.75-0.75-23.49-19.7-23.47-26.27C554.73,73.16,567.19,89.28,575.4,92.31z"/>
	<path class="st0" d="M601.97,53.09c0.77,3.22,0.74,7.98-1.31,10.39C601.82,60.72,601.94,57.31,601.97,53.09z"/>
	<path class="st0" d="M572.43,58.73c0.82,6.85,10.63,14.83,16.5,10.17C582.36,71.13,574.73,65.32,572.43,58.73z"/>
	<path class="st0" d="M594.43,72.69c-10.34,5.04-16.09,3.73-21.06-1.95C577.89,79.68,589.22,76.9,594.43,72.69z"/>
	<path class="st0" d="M599.16,48.64c3.69,9.75-2.43,22.68-12.01,24.66C595.26,69.6,601.18,61.04,599.16,48.64z"/>
	<path class="st0" d="M578.54,90.92c-8.67-12.46-5.71-22.44-9.44-29.76C572.35,70.9,569.44,80.86,578.54,90.92z"/>
	<path class="st0" d="M613.19,79.77c0.28-4.14,3.11-13.03,8.35-16.4c-3.85,3.92-7.42,11.69-7.31,15.68
		C614.26,80.24,613.48,79,613.19,79.77z"/>
	<path class="st0" d="M665.63,46.43c2.29-3.46,6.87-6.36,13.09-6.7c-6.21,1.26-9.84,3.41-11.73,6.93
		C666.43,47.71,666.26,45.91,665.63,46.43z"/>
	<path class="st0" d="M594.41,105.11c9.7,3.83,12.85,16.83,14.23,24.52C606.51,122.16,604.43,112.14,594.41,105.11z"/>
	<path class="st0" d="M584.91,121.13c1.18,4.25,1.22,14.82-1.4,18.13C584.92,135.54,585.08,126.75,584.91,121.13z"/>
	<path class="st0" d="M689.44,130.6c-3.19,3.04-12.51,8.04-16.66,7.28C676.73,137.38,684.57,133.39,689.44,130.6z"/>
	<path class="st0" d="M666.79,123.64c-4.27,1.09-14.84,0.88-18.1-1.81C652.38,123.32,661.17,123.68,666.79,123.64z"/>
	<path class="st0" d="M719.12,120.92c4.19-1.38,14.75-1.9,18.18,0.56C733.51,120.25,724.72,120.5,719.12,120.92z"/>
	<path class="st0" d="M642.72,122.32c-4.24-1.19-13.31-6.63-14.79-10.59C630.39,114.87,637.83,119.56,642.72,122.32z"/>
	<path class="st0" d="M632.75,138.86c-4.21-1.3-13.13-6.98-14.5-10.97C620.62,131.08,627.93,135.97,632.75,138.86z"/>
	<path class="st0" d="M685.57,124.53c-3.28,2.95-12.73,7.68-16.86,6.81C672.67,130.94,680.62,127.17,685.57,124.53z"/>
	<path class="st0" d="M617.22,116.93c-10.28-8-15.86-10.14-21.12-15.66C600.6,108.24,612.56,114.47,617.22,116.93z"/>
	<path class="st0" d="M685.92,107.18c-2.1,2.56-5.89,5.43-9.06,5.25C679.75,111.69,682.54,109.72,685.92,107.18z"/>
	<path class="st0" d="M606.66,75.62c1.17-3.61,4.12-8.23,7.75-9.35C611.5,68.27,609.28,71.52,606.66,75.62z"/>
	<path class="st0" d="M683.54,130.48c2.67-1.96,14.61-8.66,21.59-5.85C696.84,123.38,687.43,128.87,683.54,130.48z"/>
	<path class="st0" d="M680.17,114.29c-2.85,1.69-15.38,7.2-22.06,3.72C666.24,120.07,676.13,115.52,680.17,114.29z"/>
	<path class="st0" d="M644.27,54.13c3.2-0.87,16.75-2.8,22.25,2.35C659.24,52.31,648.49,54.03,644.27,54.13z"/>
	<path class="st0" d="M714.5,49.9c2.56,2.1,11.99,12.03,10.98,19.49C724.66,61.04,717.03,53.28,714.5,49.9z"/>
	<path class="st0" d="M582.33,88.04c2.1,3,6.09,6.48,5.41,11.39C587.02,96.24,583.05,90.89,582.33,88.04z"/>
	<path class="st0" d="M615.28,62.4c2.94-2.78,5.95-7.71,11.84-7.73C623.05,55.5,618.03,60.86,615.28,62.4z"/>
	<path class="st0" d="M619.76,112.48c2.88,2.26,7.71,4.45,8.47,9.35C626.62,118.98,621.27,115,619.76,112.48z"/>
	<path class="st0" d="M677.2,66.44c3.63,0.48,8.9-0.1,12.05,3.73C686.42,68.54,679.78,67.84,677.2,66.44z"/>
	<path class="st0" d="M675.81,37.38c3.62-0.58,8.5-2.64,12.61,0.12C685.22,36.02,678.67,37.47,675.81,37.38z"/>
	<path class="st0" d="M725.41,125.27c4.05-0.22,9.61-1.98,13.95,1.66C735.9,125.69,732.4,125.38,725.41,125.27z"/>
	<path class="st0" d="M624.79,92.44c4.87-5.46,31.12-12.67,37.4-7.03C653.66,82.97,631.5,86.72,624.79,92.44z"/>
	<path class="st0" d="M711.51,105.38c7.67,0.29,31.8,10.83,32.85,19.21C739.52,117.16,720.47,106.94,711.51,105.38z"/>
	<path class="st0" d="M701.51,42.22c6.81,2.68,22.66,24.81,19.54,32.66C720.38,66.02,709.19,46.53,701.51,42.22z"/>
	<path class="st0" d="M788.54,123.87c0.45,7.3-12.91,31.02-21.35,31.51C774.94,151.04,787.88,132.66,788.54,123.87z"/>
	<path class="st0" d="M659.43,120.84c-7.3,0.43-29.62-13.21-30.09-21.64C633.67,106.94,650.63,119.07,659.43,120.84z"/>
	<path class="st0" d="M609.95,91.38c5.88,2.02,13.26-0.44,17.21-5.04C622.85,89.98,616.85,92.43,609.95,91.38z"/>
	<path class="st0" d="M584.39,113.59c-1.56-7.01-2.43-14.42-8.38-17.29C578.52,100.58,581.39,103.16,584.39,113.59z"/>
	<path class="st0" d="M646.08,110.43c6.5,3.06,12.89,6.91,18.8,3.97C659.96,113.76,656.16,114.44,646.08,110.43z"/>
	<path class="st0" d="M773.05,113.99c1.65,8.17,4.25,16.43-0.86,22.29C773.62,131.72,775.36,127.38,773.05,113.99z"/>
	<path class="st0" d="M646.24,52.08c-7.16,0.54-14.62,0.33-18.32,5.81C632.15,55.43,635.49,53.55,646.24,52.08z"/>
	<path class="st0" d="M630.6,83.33c-3.76,0.71-12.86,1.14-15.35-0.54C617.96,83.59,626.13,83.2,630.6,83.33z"/>
	<path class="st0" d="M664.7,52.83c3.81,0.43,12.62,2.72,14.5,5.05C676.85,56.32,668.93,54.28,664.7,52.83z"/>
	<path class="st0" d="M783.13,104.84c2.24,4.55,1.68,10.53-0.85,13.91C783.58,114.99,784.25,110.07,783.13,104.84z"/>
	<path class="st0" d="M707.1,134.47c2.83-4.81,8.66-7.89,13.29-7.62C716.15,127.92,711.23,130.28,707.1,134.47z"/>
	<path class="st0" d="M761.38,120.88c3.73,4.14,4.92,10.64,3.26,14.97C764.89,131.48,764.13,126.08,761.38,120.88z"/>
	<path class="st0" d="M570.78,165.84c0.12,4.41-1.21,10.59-4.55,13.18C568.49,175.75,569.59,171.33,570.78,165.84z"/>
	<path class="st0" d="M583.24,160.67c0.85,4.33,0.98,8.42-1.89,11.52C583.04,168.58,582.98,166.28,583.24,160.67z"/>
	<path class="st0" d="M610.75,126.16c1.83,4.01,3.02,10.23,0.95,13.91C612.51,136.17,611.8,131.68,610.75,126.16z"/>
	<path class="st0" d="M588.76,132.34c1.37,4.19-1.03,18.72-3.5,22.14C586.5,150.7,589.18,137.94,588.76,132.34z"/>
	<path class="st0" d="M589.95,158.65c2.48-3.64,4.7-9.57,3.28-13.55C593.37,149.08,591.91,153.39,589.95,158.65z"/>
	<path class="st0" d="M671,64.11c-3.9,0.03-9.92-1.27-11.5-2.78C661.35,62.02,667.24,62.49,671,64.11z"/>
	<path class="st0" d="M684.49,122.96c3.34-1.6,11.6-1.75,13.41-2.18C696.13,120.55,687.62,120.55,684.49,122.96z"/>
	<path class="st0" d="M698.53,51.11c2.1,3.29,4.19,9.09,3.75,11.22C701.88,60.4,699.15,55.16,698.53,51.11z"/>
	<path class="st0" d="M614.65,85.63c-3.75,0.62-19.81-0.83-25.2-3.42C598.47,83.45,610.49,85.31,614.65,85.63z"/>
	<path class="st0" d="M689.6,72.06c-2.82,0.47-14.91-0.55-18.95-2.46C677.42,70.5,686.46,71.84,689.6,72.06z"/>
	<path class="st0" d="M782.11,44.77c2.88,5.66-9.53,25.09-15.41,25.59C770.59,68.84,782.48,51.94,782.11,44.77z"/>
	<path class="st0" d="M748.91,70.36c-2.82,0.47-14.91-0.55-18.95-2.46C736.74,68.8,745.78,70.14,748.91,70.36z"/>
	<path class="st0" d="M733.26,81.51c-2.82,0.47-14.91-0.55-18.95-2.46C721.08,79.95,730.12,81.29,733.26,81.51z"/>
	<path class="st0" d="M660.84,87.67c3.8,0.02,19.4,4.12,24.28,7.57C676.43,92.52,664.89,88.67,660.84,87.67z"/>
	<path class="st0" d="M665.25,134.09c-3.76,0.56-19.8-1.15-25.14-3.83C649.1,131.65,661.09,133.71,665.25,134.09z"/>
	<path class="st0" d="M652.99,72.74c3.75-0.6,23.42,1.21,28.8,3.83C672.78,75.28,657.15,73.07,652.99,72.74z"/>
	<path class="st0" d="M749.85,73.6c-3.69,0.92-21.95,2.02-27.53-0.13C731.41,73.98,745.68,73.62,749.85,73.6z"/>
	<path class="st0" d="M718.79,62.83c-3.69,0.88-23.45,0.57-29.01-1.63C698.86,61.8,714.61,62.81,718.79,62.83z"/>
	<path class="st0" d="M595.17,111.84c2.48,2.59,9.63,14.21,5.02,19.89C601.89,126.14,597.6,116.75,595.17,111.84z"/>
	<path class="st0" d="M623.12,51.85c2.87-2.15,23.96-8.04,30.47-1.91C644.28,46.11,628.29,50.03,623.12,51.85z"/>
	<path class="st0" d="M547.38,124.46c4.08,12.37,7.52,17.26,8.81,24.77C556.33,140.93,549.88,129.1,547.38,124.46z"/>
	<path class="st0" d="M576.15,129.58c1.94,15.38,5.06,21.92,4.72,30.96C583.25,150.96,578.12,135.59,576.15,129.58z"/>
	<path class="st0" d="M596.55,143.44c-0.71,11.43,0.27,13.6-4.52,22.33C597.71,160.3,597.56,150.02,596.55,143.44z"/>
	<path class="st0" d="M699.21,118.16c7.15,4.36,15.92,5.58,19.89-1.35C714.48,120.67,706.21,121.42,699.21,118.16z"/>
	<path class="st0" d="M770.28,140.06c2.05-8.12,0.38-18.26-7.42-20.01C767.67,121.11,771.18,130.75,770.28,140.06z"/>
	<path class="st0" d="M619.18,108.01c-11.22,0.51-25.44-13.25-30-15.02C595.65,93.11,600.67,104.02,619.18,108.01z"/>
	<path class="st0" d="M559.73,94.18c9.28,12.01,10.36,22.61,14.44,29.73C570.45,114.33,569.32,103.77,559.73,94.18z"/>
	<path class="st0" d="M559.65,84.76c6.87,9.63,11.45,15.21,11.8,22.45C572.31,101.25,570.16,93.96,559.65,84.76z"/>
	<path class="st0" d="M603.4,74.59c6.27-10.03,9.67-16.4,16.22-19.51C613.78,56.57,607.87,61.35,603.4,74.59z"/>
	<path class="st0" d="M576.86,148.89c-1,11.79-0.05,20.44-4.46,26.19C576.91,171.09,578.92,162.72,576.86,148.89z"/>
	<path class="st0" d="M611.18,118.22c5.3,11.06,4.85,25.7,3.43,32.81C616.89,145.45,619.14,129.7,611.18,118.22z"/>
	<path class="st0" d="M778.7,116.12c1.57,12.17-3.45,25.92-7.02,32.23C775.59,143.77,782.67,129.52,778.7,116.12z"/>
	<path class="st0" d="M778.36,31.7c1.57,12.17-3.45,25.92-7.02,32.23C775.25,59.35,782.33,45.1,778.36,31.7z"/>
	<path class="st0" d="M596.17,93.14c7.54,3.25,9.76,4.13,17.96,2.04C604.74,96.2,599.25,93.93,596.17,93.14z"/>
	<path class="st0" d="M727,115.97c-7.46-3.43-9.66-4.36-17.9-2.46C718.5,112.7,723.94,115.1,727,115.97z"/>
	<path class="st0" d="M771.96,168.8c7.21-3.93,9.27-5.13,12.69-12.87C779.66,163.94,774.48,166.87,771.96,168.8z"/>
	<path class="st0" d="M684.7,109.96c5.92,4.48,7.68,5.73,15.28,5.65C691.56,114.5,687.23,111.32,684.7,109.96z"/>
	<path class="st0" d="M748.15,137.33c1.22-7.32,1.51-9.46-2.09-16.16C748.99,129.15,748.19,134.46,748.15,137.33z"/>
	<path class="st0" d="M754.53,166.45c5.58-2.35,7.18-3.08,10.41-8.67C760.56,163.44,756.54,165.21,754.53,166.45z"/>
	<path class="st0" d="M778.76,184.57c0.52-6.03,0.62-7.79-2.82-13.25C778.91,177.84,778.6,182.22,778.76,184.57z"/>
	<path class="st0" d="M591.7,141.52c4.24-7.03,5.42-9.11,4.46-17.51C595.9,133.44,592.91,138.58,591.7,141.52z"/>
	<path class="st0" d="M779.21,78.36c-1.11-1.79-2.96-3.64-4.74-4.93c0.02,0.03,0.12-0.27,0.16-0.36
		C776.91,74.46,778.36,75.81,779.21,78.36z"/>
	<path class="st0" d="M654.52,136.26c7.45,2.67,20.96-1.44,24.83-5.5C670.16,135.97,661.23,137.23,654.52,136.26z"/>
	<path class="st0" d="M759.74,165.87c7.85-1.02,18-10.83,19.6-16.21C773.53,158.49,766.15,163.68,759.74,165.87z"/>
	<path class="st0" d="M726.9,123.11c-10.48-2.27-31.92,10.19-37.93,10.47C694.93,136.21,708.82,123.93,726.9,123.11z"/>
	<path class="st0" d="M622.43,68.68c1.55-2.93,6.14-9.41,9.27-9.86C629.01,60.12,625.24,65.53,622.43,68.68z"/>
	<path class="st0" d="M639.98,132.15c-3.69-0.89-17.93-8.47-21.89-12.95C625.92,123.85,636.27,130.24,639.98,132.15z"/>
	<path class="st0" d="M565.18,154.87c4.8-4.96,7.59-26.6,4.04-32.12C570.69,130.26,568.85,148.93,565.18,154.87z"/>
	<path class="st0" d="M591.57,130.26c2.55-6.41-3.1-27.49-8.49-31.25C587.31,105.4,592.71,123.37,591.57,130.26z"/>
	<path class="st0" d="M630.91,120.78c4.54,5.2,24.7,11.01,30.5,7.93C653.8,129.55,636.52,124.94,630.91,120.78z"/>
	<path class="st0" d="M679.03,87.69c-4.36-5.69-24.9-11.2-31.14-7.34C655.85,78.96,673.48,83.26,679.03,87.69z"/>
	<path class="st0" d="M687.12,98.59c3.48,6.27,22.98,14.74,29.72,11.83C708.77,110.64,691.96,103.79,687.12,98.59z"/>
	<path class="st0" d="M730.6,94.87c-2.2-6.82-19.72-18.88-26.89-17.33C711.68,78.88,726.85,88.83,730.6,94.87z"/>
	<path class="st0" d="M599.04,156.85c6.06-4.89,8.77-29.38,5.13-34.85C605.75,129.49,604.22,149.81,599.04,156.85z"/>
	<path class="st0" d="M667.25,50.35c-4.71-6.19-29.11-9.61-34.69-6.14C640.1,42.85,660.36,44.97,667.25,50.35z"/>
	<path class="st0" d="M572.52,97.39c5.46,4.87,12.91,30.05,7.26,36.33C582.22,125.19,578.24,104.09,572.52,97.39z"/>
	<path class="st0" d="M684.68,119.53c-6.58,8.09-19.92,7.16-27.67,6.15C664.77,125.91,674.95,126.95,684.68,119.53z"/>
	<path class="st0" d="M556.29,120.9c7.51,7.24,6.68,23.59,3.09,31C561.28,143.66,562.87,131.22,556.29,120.9z"/>
	<path class="st0" d="M703.56,70.9c-11.5,1.11-21.63-10.94-33.11-12.44C680.67,56.67,685.97,67.82,703.56,70.9z"/>
	<path class="st0" d="M705.28,133.25c-5.91,4.54-15.57,1.42-22.37,4.53C687.88,133.3,694.6,137.59,705.28,133.25z"/>
	<path class="st0" d="M679.92,111.64c0.21-0.18,0.41-0.35,0.62-0.53c1.7,1.6,3.12,2.68,4.73,3.58
		C682.99,114.35,681.31,113.13,679.92,111.64z"/>
	<path class="st0" d="M770.35,171.82c-0.13,0.23-0.27,0.47-0.4,0.71c1.89,1.37,3.21,2.57,4.39,3.99
		C773.58,174.34,772.07,172.91,770.35,171.82z"/>
	<path class="st0" d="M706.45,62.59c-0.19-0.01-0.39-0.02-0.58-0.03c-0.11-1.67-0.33-2.94-0.73-4.2
		C706.16,59.66,706.45,61.13,706.45,62.59z"/>
	<path class="st0" d="M733.89,125.43v-0.19c-4.67,1.82-14.92,5.27-22.74,8.03c5.45-0.16,18.35-5.22,22.89-7.84H733.89z"/>
	<path class="st0" d="M769.97,118.61c0.01-3.75-3.29-11.53-6.65-13.76C765.64,107.66,768.66,113.93,769.97,118.61z"/>
	<path class="st0" d="M777.01,121.64c0.69-8.18,0.82-10.57-3.76-17.68C777.2,112.54,776.79,118.48,777.01,121.64z"/>
	<path class="st0" d="M780.48,96.93c-3.24-6.68-4.23-8.6-11.03-11.99C776.43,89.76,778.85,94.56,780.48,96.93z"/>
	<path class="st0" d="M784.23,86.8c1.67,3.41,4.89,19.22,3.95,25.12C786.79,102.93,785.13,90.87,784.23,86.8z"/>
	<path class="st0" d="M774.15,77.78c2.67,2.57,5.68,10.26,6.71,11.81C780.47,87.85,777.51,79.87,774.15,77.78z"/>
	<path class="st0" d="M785.88,99.79l0.67-0.8L785.88,99.79z"/>
	<path class="st0" d="M710.17,98.19c-3.77-0.45-26.12-11.03-30.57-15.01C687.91,86.88,706.26,96.73,710.17,98.19z"/>
	<path class="st0" d="M686.91,90.18c4.78,6.87,21.61,14.34,29.41,11.08C710.93,102.67,695.01,97.7,686.91,90.18z"/>
	<path class="st0" d="M756.87,143.77c3.96-7.38,3.56-24.33-2.88-29.79C757.57,122.1,759.83,135.35,756.87,143.77z"/>
	<path class="st0" d="M753.67,122.07c4.37,9.47-2.39,21.4-6.71,27.91C750.59,143.12,756.06,134.08,753.67,122.07z"/>
	<path class="st0" d="M716.75,73.7c-11.34,0.95-18.61,1.42-25.18-3.06C695.99,74.74,703.2,77.11,716.75,73.7z"/>
	<path class="st0" d="M733.17,109.63c9.99,6.35,16.33,9.79,19.38,16.37C751.1,120.15,746.38,114.21,733.17,109.63z"/>
	<path class="st0" d="M742.4,104.02c-10.67-5.11-17.38-7.77-21.2-13.93C723.34,95.72,728.74,101.05,742.4,104.02z"/>
	<path class="st0" d="M697.98,66.15c7.83,2.48,10.12,3.13,18.07,0.23C706.82,68.34,701.12,66.63,697.98,66.15z"/>
	<path class="st0" d="M746.66,111.98c-6.83-4.56-10.95-6.28-19.39-5.71C736.68,106.96,743.78,110.64,746.66,111.98z"/>
	<path class="st0" d="M736.45,160.98c6.46-3.53,9.17-2.58,13.06-10.44C744.3,158.56,738.79,159.16,736.45,160.98z"/>
	<path class="st0" d="M748.28,71.62c8.03-0.66,10.38-0.92,17.68-7.03C757.25,70.27,751.42,70.84,748.28,71.62z"/>
	<path class="st0" d="M785.34,45.71c-0.84-8.02-1.15-10.36-7.42-17.52C783.79,36.77,784.5,42.59,785.34,45.71z"/>
	<path class="st0" d="M745.42,66c6.44,1.86,21.53-1.3,25-6.88C764.26,63.68,752.41,65.95,745.42,66z"/>
	<path class="st0" d="M699.56,85.73c3.68,9.75,22.39,15.41,30.06,16.9C722.18,100.39,706.44,95.85,699.56,85.73z"/>
	<path class="st0" d="M791.28,88.29c1.97,2.66,3.82,11.09,2.87,14.11C794.14,99.41,792.91,92.19,791.28,88.29z"/>
	<g>
		<path class="st0" d="M659.23,66.13c-2.99-0.61-2.53-0.51-4.92-0.66c0.05-0.23,0.12-0.46,0.17-0.69
			C655.6,64.99,656.56,65.07,659.23,66.13z"/>
	</g>
	<path class="st0" d="M698.31,89.4c-3.54-6.93-26.95-14.62-33.05-12.19C672.91,77.2,692.48,82.88,698.31,89.4z"/>
	<path class="st0" d="M682.03,74.46c10.42-0.37,20.75,7.96,25.09,14.45C702.19,82.92,694.03,76.9,682.03,74.46z"/>
	<path class="st0" d="M765.51,67.3c-6.12,8.44-25.15,12.83-32.94,12.25C740.33,79.35,756.21,75.25,765.51,67.3z"/>
	<path class="st0" d="M700.33,77.97c9.38,1.98,14.18,15.13,22.97,19.29C714.78,96.16,713.62,84.98,700.33,77.97z"/>
	<path class="st0" d="M713.94,63.17l-0.88-0.43c-0.42-2.43-1.46-4.74-2.78-7.95C712.54,58.64,713.65,60.51,713.94,63.17z"/>
	<path class="st0" d="M554.61,110.78c-1.02-15.14-9.57-21.09-11.23-29.13C546.94,91.29,555.43,97.23,554.61,110.78z"/>
	<path class="st0" d="M557.32,100.22c5.26,10.6,8.91,16.83,8.12,24.03C567.22,118.5,566.25,110.97,557.32,100.22z"/>
	<path class="st0" d="M540.8,106.07c6.58,9.37,10.92,12.09,12.62,21.89C554.44,120.14,545.69,110.58,540.8,106.07z"/>
	<path class="st0" d="M549.82,103.01c2,3.19,8.53,10.1,7.56,15.09C556.82,114.8,550.4,105.97,549.82,103.01z"/>
	<path class="st0" d="M759.3,161c-3.27,2.15-11.85,6.89-15.27,6.31C747.29,166.85,754.62,162.71,759.3,161z"/>
	<path class="st0" d="M767.3,145.79c-1.53,4.14-7.68,12.73-11.74,13.89C758.88,157.48,764.15,150.44,767.3,145.79z"/>
	<path class="st0" d="M778.5,166.35c-2.72,3.47-10.07,7.82-14.28,7.68C768.05,172.96,774.08,169.82,778.5,166.35z"/>
	<path class="st0" d="M791.38,100.38c1.43,4.17,2.25,16.56-0.17,20.02C792.4,116.6,791.88,105.98,791.38,100.38z"/>
	<path class="st0" d="M786.42,140.15c-0.49,5.45-5.17,17.76-9.77,20.47C779.99,156.9,784.11,146.75,786.42,140.15z"/>
	<path class="st0" d="M768.08,130.42c0.27,4.4-1.9,14.75-5.15,17.44C765.08,144.52,767.07,135.95,768.08,130.42z"/>
	<path class="st0" d="M779.29,73.84c2.49,2.18,11.62,12.39,10.38,19.82C789.1,85.29,781.71,77.3,779.29,73.84z"/>
	<path class="st0" d="M785.84,117.99c-0.53,3.62-0.03,8.9-3.9,11.99C783.61,127.17,784.4,120.55,785.84,117.99z"/>
	<path class="st0" d="M759.95,168.46c-3.42,1.31-7.78,4.32-12.37,2.46C751.65,171.39,757.56,168.72,759.95,168.46z"/>
	<path class="st0" d="M781.19,60.98c-0.13,5.55-21.15,21.18-31.85,19.72C761.91,79.28,776.03,68.32,781.19,60.98z"/>
	<path class="st0" d="M736.87,60.97c6.93,1.9,13.89,4.59,19.21,0.68C751.12,61.87,747.49,63.2,736.87,60.97z"/>
	<path class="st0" d="M794.29,121.71c0.24,3.79-2.79,19.63-5.91,24.74C790.51,137.59,793.56,125.82,794.29,121.71z"/>
	<path class="st0" d="M765.87,56.74c6.68-5.06,11.03-12.77,6.04-19C773.81,43.45,771.47,51.42,765.87,56.74z"/>
	<path class="st0" d="M742.04,66.86c-11.17-1.26-23.03-17.1-27.25-19.57C721.16,48.43,724.39,60,742.04,66.86z"/>
	<path class="st0" d="M747.1,158.05c5.69-5.92,7.3-7.68,8.22-16.09C752.99,151.11,748.93,155.46,747.1,158.05z"/>
	<path class="st0" d="M750.47,173.99c7.84,1.07,20.21-5.76,23.15-10.53C765.71,170.46,757.24,173.55,750.47,173.99z"/>
	<path class="st0" d="M742.78,163.32c6.59-2.05,20.06-18.13,19.59-24.68C760.07,145.94,748.85,159.87,742.78,163.32z"/>
	<path class="st0" d="M685.47,39.63c10.43,0.12,18,11.15,22.02,17.85C702.85,51.25,697.33,42.63,685.47,39.63z"/>
	<path class="st0" d="M742.12,106.02c7.45,0.24,14.82,6.6,20.16,10.7C755.61,113.57,753.12,109.45,742.12,106.02z"/>
	<path class="st0" d="M548.2,147.98c-1.51-17.59-7.54-30.66-20.48-43.92C537.15,116.06,545.94,130.89,548.2,147.98z"/>
	<path class="st0" d="M321.12,171.2c17.54,2.03,31.55-1.28,47.12-11.32C354.6,166.72,338.32,172.39,321.12,171.2z"/>
	<path class="st0" d="M550.18,148.12c4.71,28.68-4.49,54.21-38.92,64.94C546.28,200.22,551.08,177.12,550.18,148.12z"/>
	<path class="st0" d="M314.9,181.34c28.51,1.7,64.61-16.15,77.08-43.89C374.41,166.23,346.17,179.55,314.9,181.34z"/>
	<path class="st0" d="M453.15,78.23c3.56,9.8-4.09,20.77-8.93,26.9C448.4,98.59,454.53,90.39,453.15,78.23z"/>
	<path class="st0" d="M455.31,103.45c4.4-5.05,7.9-20.08,4.3-25.57C461.15,85.37,458.21,97.08,455.31,103.45z"/>
	<path class="st0" d="M442.56,87.35c-0.1,4.41-3.12,14.54-6.58,16.95C438.4,101.15,441.1,92.77,442.56,87.35z"/>
	<path class="st0" d="M443.47,68.53c-4.1,12.36-4.25,18.34-7.7,25.14C440.83,87.1,442.7,73.75,443.47,68.53z"/>
	<path class="st0" d="M448.07,89.43c0.09,3.31-0.9,7.96-3.41,9.9C446.36,96.87,447.18,93.56,448.07,89.43z"/>
	<path class="st0" d="M433.76,92.25c-2.57,2.61-5.28,7.16-10.23,7.37C426.54,98.35,431.09,93.47,433.76,92.25z"/>
	<path class="st0" d="M427.6,150.57c-2.51-6.87,3.52-33.41,11.46-36.29C432.88,120.65,425.72,141.96,427.6,150.57z"/>
	<path class="st0" d="M447.64,136.92c-0.69-7.28,12.16-30.06,20.57-30.83C460.62,110.68,449.09,128.06,447.64,136.92z"/>
	<path class="st0" d="M437.92,121.04c4.75-1.77,8.45-6.51,8.94-10.7C445.22,113.97,442.34,118,437.92,121.04z"/>
	<path class="st0" d="M425.81,118.1c4.69-5.43,10.13-10.55,8.88-17.04C432.75,105.63,432.39,109.47,425.81,118.1z"/>
	<path class="st0" d="M338.97,86.18c5.91-5.7,7.68-7.31,16.08-8.24C345.9,80.28,341.56,84.35,338.97,86.18z"/>
	<path class="st0" d="M406.52,96.77c-1.01,4.02-4.14,7.87-9.89,10.25c4.49-3.17,8.13-5.78,8.74-9.72
		C405.55,96.12,406.09,97.48,406.52,96.77z"/>
	<path class="st0" d="M399.71,145.05c-1.76-3.76-1.66-8.53,1.29-14.01c-2.16,5.95-2.21,10.18-0.19,13.62
		C401.41,145.68,399.59,144.24,399.71,145.05z"/>
	<path class="st0" d="M329.84,79.28c-0.55,0.3-0.78-0.26-0.68-0.41c2.57-3.97,5.21-9.21,14.39-9.7
		C335.7,70.62,330.54,77.33,329.84,79.28z"/>
	<path class="st0" d="M391.54,143.93c-0.71,4.35-3.18,10.18-6.94,12.09C387.43,153.23,389.34,149.1,391.54,143.93z"/>
</g>
<g id="Details">
	<g>
		<path class="st3" d="M622.66,78.95c0,0,6.22-14.59,18.35-20.8c6.27-3.21,17.66,0,17.66,0s-5.09,12-14.74,17.24
			C634.3,80.64,622.66,78.95,622.66,78.95z"/>
		<path class="st1" d="M633.77,75.66c0,1.2-0.36,2.31-0.99,3.24c-1.23,0.4-1.62,0.4-3.7,0.4c-3.29,0-6.55-0.43-6.55-0.43
			s3.32-7.32,5.62-9.02C631.44,69.85,633.77,72.42,633.77,75.66z"/>
		<path class="st0" d="M631.34,76.38c0,0.89-0.28,1.72-0.76,2.4c-0.94,0.3-1.24,0.3-2.84,0.3c-2.53,0-5.04-0.32-5.04-0.32
			s2.55-5.44,4.32-6.71C629.55,72.06,631.34,73.97,631.34,76.38z"/>
		<path class="st1" d="M652,60.05c-0.37-1.14-0.37-2.31-0.07-3.38c1.04-0.76,6.72,0.97,6.72,0.97s-2.13,6.57-3.26,6.13
			C653.84,63.16,652.59,61.83,652,60.05z"/>
		<path class="st0" d="M654.76,59.36c-0.23-0.7-0.23-1.42-0.04-2.08c0.64-0.47,4.13,0.6,4.13,0.6s-1.31,4.04-2,3.77
			C655.89,61.27,655.12,60.46,654.76,59.36z"/>
		<path class="st0" d="M644.95,55.98c-11.66,2-20.16,18.62-23.16,22.65c-5.06,0.72-23.44-0.95-23.44-0.95s18.67,3.99,36.68,1.45
			c12.5-1.76,21.18-14.98,24.18-20.05c5.27,0.1,16.63,4.37,16.63,4.37S656.62,53.98,644.95,55.98z M643.71,75.2
			c-9.2,5.06-20.29,3.43-20.29,3.43s5.93-14.08,17.5-20.07c5.98-3.1,16.84,0,16.84,0S652.91,70.14,643.71,75.2z"/>
	</g>
	<g>
		<path class="st3" d="M688.69,44.53c6.22,2.22,9.32,11.02,8.31,15.22c-6.2,0.04-11.3-1.98-15.81-4.26c-3.04-1.53-7.55-4.55-12-7.25
			C675.37,44.01,682.47,42.32,688.69,44.53z"/>
		<ellipse class="st1" cx="686.79" cy="49.87" rx="5.96" ry="5.87"/>
		<ellipse class="st4" cx="687.15" cy="49.03" rx="4.11" ry="4.05"/>
		<path class="st0" d="M671.06,47.33c-0.55,0.51-0.52,0.91,0.03,1.73l-1.75-0.69L671.06,47.33z"/>
		<path class="st0" d="M689.09,43.65c-8.13-3.02-17.53,2.12-19.83,4.29c-2.74-1.43-4.06-2.11-6.85-3.23
			c6.21,3.7,14.43,9.21,19.21,11.62c4.79,2.4,9.11,3.66,15.68,3.62C698.4,54.76,695.71,46.11,689.09,43.65z M697,59.64
			c-6.1,0.04-11.06-2.05-15.51-4.29c-2.99-1.5-7.43-4.45-11.81-7.1c6.07-4.15,13.06-5.81,19.19-3.64S697.99,55.52,697,59.64z"/>
		<path class="st0" d="M670.16,47.91c-0.2,0.21-0.2,0.42,0.05,0.65c0,0,0.59,0.29,0.8,0.4s0.57,0.45,0.76,0.57l-2.08-0.9l-0.11-0.61
			L670.16,47.91z"/>
	</g>
	<g id="r._mouth">
		<path class="st0" d="M778.38,69.79c-14.23,11.74-32.07,15.4-52.04,12.47c7.95,16.61,28.54,21.99,44.29,39.85
			c-0.56-1.18-1.19-1.99-2.46-3.73c0,0,7.46-14.93,8.25-26.29c0.79-11.36-4.7-16.37-4.7-16.37
			C774.31,74.33,776.57,72.09,778.38,69.79z"/>
		<path class="st3" d="M736.72,86.9c0.12-0.23-2.89-1.86-5.39-3.15c-0.96-0.11-1.92-0.22-2.89-0.37c0.51,1.07,1.08,2.09,1.7,3.06
			C732.88,86.77,736.59,87.15,736.72,86.9z"/>
		<path class="st3" d="M737.31,83.99c-1.58-0.05-3.18-0.15-4.8-0.3c2,1.27,7.15,4.48,7.44,4.26
			C740.12,87.82,738.75,85.91,737.31,83.99z"/>
		<path class="st3" d="M737.87,88.15c-0.04-0.39-5.48-0.2-6.83-0.14c0.78,1.06,1.61,2.08,2.5,3.05
			C735.23,90.06,737.9,88.45,737.87,88.15z"/>
		<path class="st3" d="M740.69,90.42c-0.14-0.34-4.78,1.26-6.34,1.81c0.89,0.87,1.82,1.72,2.79,2.55
			C738.42,93.37,740.81,90.72,740.69,90.42z"/>
		<path class="st3" d="M738.33,95.9c0.95,0.78,1.93,1.54,2.94,2.29c1.09-1.54,3.19-4.56,3.02-4.85
			C744.11,93.03,739.9,95.12,738.33,95.9z"/>
		<path class="st3" d="M742.57,98.93c1.01,0.74,2.05,1.48,3.1,2.21c1.33-1.45,3.37-3.75,3.25-4.03
			C748.78,96.78,744.12,98.39,742.57,98.93z"/>
		<path class="st3" d="M752,98.72c-0.22-0.26-3.52,2.2-5.09,3.39c0.98,0.68,1.97,1.36,2.97,2.05
			C750.65,102.5,752.22,98.98,752,98.72z"/>
		<path class="st3" d="M755.34,100.91c-0.25-0.19-2.68,2.54-4.03,4.11c0.99,0.69,1.99,1.39,2.99,2.11
			C754.65,105.63,755.64,101.13,755.34,100.91z"/>
		<path class="st3" d="M758.18,103.72c-0.25-0.14-1.91,2.35-3.04,4.12c0.98,0.71,1.95,1.44,2.93,2.19
			C758.19,108.52,758.51,103.9,758.18,103.72z"/>
		<path class="st3" d="M761.49,106.55c-0.25-0.11-1.53,2.23-2.49,4.06c0.99,0.78,1.97,1.58,2.95,2.41
			C761.93,111.73,761.84,106.71,761.49,106.55z"/>
		<path class="st3" d="M765.7,109.61c-0.25-0.14-1.88,2.24-3.03,3.99c0.95,0.83,1.89,1.7,2.81,2.59
			C765.59,115.1,766.05,109.81,765.7,109.61z"/>
		<path class="st3" d="M765.68,108.58c-0.29,0.24,2.62,4.34,3.54,5.63c0.44-1.01,0.94-2.2,1.47-3.52
			C768.95,109.83,765.93,108.38,765.68,108.58z"/>
		<path class="st3" d="M766.41,105.62c-0.17,0.29,3.18,2.51,4.86,3.59c0.41-1.08,0.83-2.23,1.23-3.43
			C770.81,105.64,766.59,105.31,766.41,105.62z"/>
		<path class="st3" d="M767.78,101.08c-0.19,0.3,3.47,2.99,4.95,4.05c0.38-1.16,0.75-2.36,1.09-3.57
			C772.11,101.32,767.97,100.78,767.78,101.08z"/>
		<path class="st3" d="M769.09,99.17c-0.04,0.29,2.95,0.94,5.01,1.36c0.31-1.17,0.58-2.34,0.8-3.5
			C773.33,97.51,769.13,98.81,769.09,99.17z"/>
		<path class="st3" d="M775.07,96.08c0.21-1.21,0.36-2.4,0.44-3.55c0-0.01,0-0.03,0-0.04c-1.65,0.31-5.86,1.15-5.94,1.5
			C769.49,94.3,773.12,95.48,775.07,96.08z"/>
		<path class="st3" d="M775.56,91.33c0.04-1.31-0.01-2.53-0.12-3.66c-1.8,0.31-5.61,1-5.7,1.33
			C769.65,89.34,773.76,90.74,775.56,91.33z"/>
		<path class="st3" d="M769.28,85.96c0,0.34,4.06,0.59,6.04,0.7c-0.19-1.32-0.47-2.49-0.8-3.53
			C772.91,83.88,769.28,85.61,769.28,85.96z"/>
		<path class="st3" d="M768.36,82.34c0.04,0.33,3.87,0.14,5.9,0.01c-0.46-1.28-0.98-2.32-1.48-3.14
			C771.13,80.23,768.32,82.02,768.36,82.34z"/>
		<path class="st3" d="M746.18,89.05c0.3-0.04,0.07-3.21-0.11-5.31c-1.2,0.11-2.41,0.19-3.64,0.23
			C743.27,85.26,745.81,89.11,746.18,89.05z"/>
		<path class="st3" d="M742.5,88.59c0.26-0.08-0.24-2.59-0.68-4.58c-1.24,0.04-2.49,0.05-3.76,0.02
			C739.01,85.13,742.14,88.7,742.5,88.59z"/>
		<path class="st3" d="M749.91,89.19c0.33-0.01,0.53-3.99,0.6-5.99c-1.21,0.19-2.43,0.35-3.67,0.47
			C747.51,85.04,749.54,89.19,749.91,89.19z"/>
		<path class="st3" d="M755.05,82.3c-1.11,0.27-2.24,0.5-3.38,0.71c0.47,1.91,1.24,4.84,1.53,4.9
			C753.52,87.97,754.53,84.27,755.05,82.3z"/>
		<path class="st3" d="M757.69,87.55c0.37,0.05,1.3-4.84,1.6-6.43c-1.2,0.38-2.42,0.73-3.65,1.03
			C756.2,83.93,757.36,87.5,757.69,87.55z"/>
		<path class="st3" d="M767.66,84.32c0.35-0.06-0.17-4.64-0.38-6.42c-1.13,0.56-2.27,1.08-3.42,1.56
			C764.8,80.81,767.31,84.38,767.66,84.32z"/>
		<path class="st3" d="M762.78,86.43c0.39-0.01,0.56-5.36,0.59-6.77c-1.2,0.49-2.43,0.92-3.66,1.32
			C760.4,82.4,762.41,86.44,762.78,86.43z"/>
		<path class="st3" d="M770.6,76.23c0,0,0.86,0.87,1.13,1.28c-1.43,1.53-3.39,3.55-3.61,3.37c-0.19-0.15,0.16-1.86,0.59-3.62
			L770.6,76.23z"/>
		<g>
			<path class="st0" d="M785.06,93.06c0,0,1.74,3.49,1.84,4.24c0.1,0.75,0.24,3.1-0.78,3.13c-1.02,0.03-3.43,1.23-3.43,1.23
				L785.06,93.06z"/>
			<path class="st1" d="M760.01,91.59c-4.03,1.07-5.51,4.28-3.35,7.02c2.16,2.75,9.24,6.91,14.54,6.62s11.68-2.35,13.64-6.18
				c1.25-2.44,0.76-4.08,0.25-6.06c0.26-0.96-0.45-2.7-0.84-3.55c-1.08-2.35-5.3-3.04-5.89-3.24c-0.59-0.2-2.55,0.29-1.47,1.77
				c1.08,1.47,2.65,1.47,3.04,3.24c0.39,1.77-0.59,4.02-2.65,4.22c-2.06,0.2-3.83-1.08-6.38-3.24s-0.98-4.85-5.4-5.4
				C760.62,86.18,760.01,91.59,760.01,91.59z"/>
			<path class="st0" d="M760.25,90.46c-0.25,1.5,1.95,3.72,5.65,6.37c-3.11-1.72-6.89-4.01-6.64-5.24L760.25,90.46z"/>
			<path class="st0" d="M775.97,99.21c2.56,0.74,4.7-0.08,6.45-2.37C780.46,98.64,778.32,99.49,775.97,99.21z"/>
			<path class="st0" d="M785.09,92.99c-0.19,0.73-0.41,1.24-0.85,1.56c0.46-0.06,0.85-0.55,0.97-1.03L785.09,92.99z"/>
			<path class="st0" d="M768.2,100.39c0,0,1.92-0.28,1.99,0.93s-1.56,2.1-2.93,1.85s-2.95-0.6-3.06-1.39
				c-0.11-0.79,1.17-1.03,1.17-1.03s-0.74,0.48-0.67,0.98c0.07,0.5,1.98,1.1,3.01,1.16s1.84-0.61,1.92-1.48
				C769.72,100.53,768.2,100.39,768.2,100.39z"/>
			<path class="st0" d="M781.42,88.83c0,0-0.65-0.29-0.43-0.68c0.22-0.39,0.89-0.34,1.26,0.01c0.37,0.35,0.79,0.77,0.66,1.03
				c-0.12,0.27-0.56,0.09-0.56,0.09s0.32,0,0.4-0.17c0.08-0.17-0.39-0.73-0.69-0.95c-0.3-0.22-0.68-0.18-0.88,0.07
				S781.42,88.83,781.42,88.83z"/>
			<path class="st5" d="M777.72,87.91c-0.55-0.53-1.04-1.06-1.07-1.09c-0.18,0.29-0.19,0.68,0.19,1.21
				c1.08,1.47,2.65,1.47,3.04,3.24c0.32,1.43-0.28,3.17-1.62,3.89l0.01,0.02c0,0,2.6-1.28,3.68-2.13c1.09-0.85-0.11-2.34-0.68-3.36
				C780.7,88.66,778.3,88.47,777.72,87.91z"/>
			<path class="st3" d="M786.71,98.6c0.03,1.29-0.45,1.78-1.12,1.51C786.1,100.07,786.56,99.49,786.71,98.6z"/>
			<path class="st3" d="M786.37,96.72c0.37,0.3,0.44,0.61,0.36,1.22C786.77,97.41,786.58,97.1,786.37,96.72z"/>
		</g>
	</g>
	<g>
		<path class="st0" d="M525.65,194.13c6.45-13.54-7.37-18-6.48-41.35c0.59-20.43,12.54-23.3,2.43-39.68
			c4.47,2.3,20.8,18.5,20.54,36.74C541.89,168.09,528.21,191.2,525.65,194.13z"/>
		<path class="st3" d="M528.12,128.01c1.05-0.32,3.75-0.49,5.14-0.56c-0.45-0.67-0.9-1.32-1.36-1.95
			C530.23,126.32,528.12,127.46,528.12,128.01z"/>
		<path class="st3" d="M525.38,120.72c0.5-0.15,1.38-0.27,2.32-0.36c-0.29-0.31-0.58-0.62-0.86-0.91
			C526,119.95,525.38,120.43,525.38,120.72z"/>
		<path class="st3" d="M530.44,176.5c0.8-0.05,2.44,0.18,3.8,0.4c0.3-0.68,0.61-1.37,0.91-2.09
			C533.29,175.23,530.58,175.93,530.44,176.5z"/>
		<path class="st3" d="M530.31,132.03c0.99-0.43,3.31-0.9,5.05-1.21c-0.41-0.71-0.83-1.41-1.25-2.09
			C532.28,129.93,530.24,131.41,530.31,132.03z"/>
		<path class="st3" d="M530.66,137.44c1.43-0.62,5.33-1.32,7.19-1.63c-0.45-1.04-0.93-2.05-1.44-3.04
			C534.16,134.16,530.56,136.57,530.66,137.44z"/>
		<path class="st3" d="M532.26,140.74c1.53-0.29,5.46-0.13,7.35-0.03c-0.31-1.07-0.66-2.13-1.05-3.17
			C536.05,138.44,532.34,139.9,532.26,140.74z"/>
		<path class="st3" d="M534.45,150.38c1.34-0.18,4.46,0.08,6.5,0.29c0-0.13,0.01-0.26,0.01-0.38c0.01-0.92-0.03-1.83-0.1-2.73
			C538.31,148.32,534.58,149.56,534.45,150.38z"/>
		<path class="st3" d="M535.27,160c0.96-0.13,2.82-0.03,4.55,0.11c0.17-0.83,0.32-1.66,0.46-2.5
			C537.95,158.36,535.38,159.32,535.27,160z"/>
		<path class="st3" d="M535.29,143.99c0.36,0.91,2.85,1.1,5.27,1.23c-0.15-1.12-0.07-1.42-0.56-2.5
			C538.13,143.36,536.78,143.86,535.29,143.99z"/>
		<path class="st3" d="M532.95,153.09c0.18,0.94,5.15,2.28,7.58,2.89c0.16-1.2,0.28-2.4,0.35-3.59
			C539.42,152.6,534.7,153.27,532.95,153.09z"/>
		<path class="st3" d="M522.2,169.43c0.29,0.95,0.61,1.86,0.93,2.71c1.52-0.86,4.27-2.36,5.51-2.71
			C528.24,168.79,524.51,169.14,522.2,169.43z"/>
		<path class="st3" d="M520.31,158.33c0.06,1.15,0.15,2.25,0.27,3.29c1.25-0.88,3.96-2.74,5.2-3.15
			C525.35,157.84,522.48,158.07,520.31,158.33z"/>
		<path class="st3" d="M520.25,154.26c-0.01,0.6-0.01,1.18-0.01,1.75c1.5-0.43,3.88-1.08,4.93-1.19
			C524.98,154.41,522.25,154.29,520.25,154.26z"/>
		<path class="st3" d="M521.19,144.89c-0.2,1.01-0.38,2.06-0.53,3.18c1.87-0.68,5.26-1.85,6.72-2.01
			C527.09,145.36,523.79,145.04,521.19,144.89z"/>
		<path class="st3" d="M527.47,163.2c-1.3,0.45-4.49,0.82-6.52,1.02c0.19,1.09,0.41,2.12,0.66,3.1
			C523.96,166.07,527.5,164.05,527.47,163.2z"/>
		<path class="st3" d="M528.41,173.5c-0.88,0.31-2.84,0.56-4.41,0.73c0.29,0.67,0.59,1.31,0.89,1.93
			C526.59,175.21,528.43,174.05,528.41,173.5z"/>
		<path class="st3" d="M529.76,177.98c-0.67,0.33-2.27,0.74-3.45,1.02c0.27,0.52,0.52,1.03,0.77,1.52
			C528.32,179.61,529.83,178.42,529.76,177.98z"/>
		<path class="st3" d="M527.93,150.9c-1.58,0.01-5.21-0.79-7.44-1.31c-0.1,1.07-0.18,2.18-0.21,3.36c0,0.07,0,0.13,0,0.19
			C523.23,152.66,527.66,151.8,527.93,150.9z"/>
		<path class="st3" d="M528.43,135.65c-0.88,0.01-2.7-0.36-4.17-0.69c-0.27,0.7-0.54,1.43-0.82,2.18
			C525.46,136.81,528.25,136.24,528.43,135.65z"/>
		<path class="st3" d="M522.48,139.95c-0.29,0.9-0.56,1.85-0.82,2.85c1.3-0.94,3.72-2.62,4.84-3.07
			C526.18,139.32,524.29,139.59,522.48,139.95z"/>
		<path class="st3" d="M532.95,162.3c0.14,0.74,3.26,1.73,5.76,2.41c0.27-0.96,0.52-1.94,0.75-2.92
			C537.43,162.07,534.3,162.44,532.95,162.3z"/>
		<path class="st3" d="M531.96,166.82c0.09,0.71,2.87,1.84,5.25,2.68c0.31-0.89,0.61-1.8,0.9-2.72
			C536.07,166.91,533.21,167.03,531.96,166.82z"/>
		<path class="st3" d="M535.94,172.88c0.24-0.61,0.48-1.24,0.71-1.87c-1.46-0.11-3.35-0.3-4.19-0.56
			C532.47,170.97,534.31,172.04,535.94,172.88z"/>
		<path class="st3" d="M533.08,179.4c0.15-0.32,0.31-0.65,0.47-0.98c-0.83-0.06-1.77-0.16-2.22-0.3
			C531.33,178.41,532.19,178.93,533.08,179.4z"/>
		<path class="st3" d="M531.66,182.21c0.19-0.37,0.39-0.74,0.59-1.13c-0.92-0.06-2.16-0.17-2.7-0.34
			C529.54,181.06,530.65,181.69,531.66,182.21z"/>
		<path class="st3" d="M530.46,184.38c0.12-0.22,0.25-0.44,0.37-0.66c-0.58-0.06-1.13-0.14-1.44-0.23
			C529.4,183.69,529.87,184.03,530.46,184.38z"/>
		<path class="st3" d="M530.93,124.2c-0.44-0.57-0.88-1.11-1.31-1.63c-1.09,0.35-2.45,0.76-3.12,0.82
			C526.69,123.88,529.42,124.11,530.93,124.2z"/>
	</g>
	<g>
		<path class="st3" d="M470.55,183.76c0.45-7.98-5.16-21.24-5-27.44c0.16-6.2,3.56-17.2,6.11-20.57c-0.71,6.34,4.4,24.42,4.14,30.81
			S473.4,180.41,470.55,183.76z"/>
		<path class="st1" d="M474.4,155.62c-2.86-2.03-6.43-2.21-8.71-0.21c-0.03,0.03-0.07,0.07-0.1,0.1c-0.02,0.28-0.03,0.55-0.04,0.81
			c-0.07,2.7,0.95,6.75,2.1,11.11c2.56,1.88,5.72,2.26,8.03,0.9c0.05-0.6,0.09-1.19,0.12-1.77
			C475.89,164.16,475.23,160.09,474.4,155.62z"/>
		<path class="st0" d="M471.48,158.65c-0.27-1.08-1.08-1.58-1.83-1.38s-1.24,1.1-0.9,2.11c0.34,1.02,1.4,0.79,1.76,2.03
			c0.35,1.21-0.63,2.12-0.39,3.11c0.24,0.99,1.08,1.58,1.83,1.38c0.75-0.2,1.2-1.14,0.9-2.11c-0.3-0.97-1.54-1.29-1.87-2.39
			C470.67,160.32,471.75,159.72,471.48,158.65z"/>
		<path class="st6" d="M470.48,183.83c0.45-7.98-5.09-21.45-4.93-27.65c0.16-6.2,3.56-17.2,6.11-20.57
			c-0.71,6.34,4.4,24.42,4.14,30.81S473.33,180.48,470.48,183.83z"/>
	</g>
	<g>
		<path class="st3" d="M652.36,109.94c-16.57-3.97-19.13-16-19.13-16s10.57-7.11,26.08-4.45c15.51,2.66,26.61,13.39,26.61,13.39
			S668.93,113.91,652.36,109.94z"/>
		<g>
			
				<ellipse transform="matrix(0.2418 -0.9703 0.9703 0.2418 401.6378 713.9045)" class="st1" cx="657.65" cy="99.94" rx="10.52" ry="9.18"/>
			<path class="st0" d="M655.75,111.01c-0.75-7.61,0.62-14.85,3.51-21.81C660.73,96.6,659.24,103.74,655.75,111.01z"/>
		</g>
		<path class="st0" d="M708.89,115.53c-5.11-0.26-20.43-11.64-22.02-12.7c-1.59-1.07-11.37-10.84-25.84-13.33
			c-15.3-2.64-26.57,3.05-28.91,3.96s-18.85,6.96-27.06,4.16c5.87,3.6,16.73,0.57,27.39-2.97c1.36,3.22,6.39,12.39,20.44,15.78
			c14.6,3.51,29.14-4.21,33.18-6.6C693.66,109.64,701.15,115.36,708.89,115.53z M653.26,109.46c-16.18-3.84-19.56-15.39-19.56-15.39
			s11.03-6.78,26.17-4.21c15.14,2.57,25.5,12.97,25.5,12.97S669.44,113.3,653.26,109.46z"/>
	</g>
	<g>
		<path class="st3" d="M344.07,93.84c-0.19-2.21,18.02-4.24,22.39-3.51c6.34,1.05,15.96,7.08,26.09,10.74c0,0-9.43,7.59-24.66,6.39
			C352.66,106.24,344.07,93.84,344.07,93.84z"/>
		<g>
			<path class="st1" d="M383.01,101.25c0.57-1.46,0.62-3,0.3-4.48c-4.66-2.63-8.85-4.81-12.31-5.67c-0.56-0.14-1.33-0.26-2.24-0.35
				c-1.39,0.88-2.5,2.16-3.12,3.75c-1.68,4.32,0.85,9.34,5.64,11.2C376.08,107.56,381.33,105.57,383.01,101.25z"/>
			<ellipse class="st0" cx="375.96" cy="98.86" rx="5.93" ry="5.34"/>
		</g>
		<path class="st0" d="M367.73,89.73c-7.99-1.59-21.43,1.9-24,3.53c-8.5-8.72-13.23-17.83-25.95-18.69
			c17.09,2.38,27.82,28.89,44.13,32.5c14.34,3.17,24.14-1.4,31.33-6.29C389.8,101.32,378.83,91.93,367.73,89.73z M365.94,106.72
			c-8.68-1-13.4-3.75-21.69-12.9c3.39-3.09,16.87-3.4,24.16-2.31c7.28,1.1,21.66,9.99,23.51,9.56
			C380.52,107.17,374.62,107.72,365.94,106.72z"/>
		<path class="st0" d="M345.06,93.21c-0.57,0.45-0.58,0.89-0.19,1.11c0.39,0.22,0.85,0.27,1.05,0.95c0.17,0.6,0.78,1.23,0.78,1.23
			l-2.89-2.69L345.06,93.21z"/>
		<path class="st0" d="M390.14,100.64c0.81,0.33,0.66,0.92,0.01,1.36l2.09-0.94L390.14,100.64z"/>
	</g>
	<g>
		<circle class="st0" cx="395.11" cy="163.88" r="14.74"/>
		<circle class="st3" cx="394.64" cy="164.45" r="14.2"/>
		<g>
			
				<ellipse transform="matrix(0.7621 -0.6475 0.6475 0.7621 -7.82 296.7774)" class="st1" cx="399.9" cy="159.03" rx="6.69" ry="8.2"/>
			
				<ellipse transform="matrix(0.7399 -0.6727 0.6727 0.7399 -1.5482 310.8705)" class="st0" cx="401.23" cy="157.44" rx="2.81" ry="3.71"/>
		</g>
		<path class="st0" d="M383.12,172.77c0.31-0.91,0.92-2.51,1.5-2.92c0.81-0.58,2.03,0.21,2.57-0.13c0.54-0.34,1.9-3.52,2.2-4.13
			c0.49-0.43,2.08,0.15,3.3,0.6c0,0-1.04-0.54-1.49-0.65c0.14-0.41,0.99-0.97,0.99-0.97s-0.74,0.23-1.24,0.88
			c-0.4-0.07-0.72-0.26-1.38-0.21c0.15-0.5,1.93-2.01,1.93-2.01s-1.59,0.99-2.18,1.93c-0.59,0.94-1.21,3.45-2.35,4.15
			c-1.14,0.69-1.85-0.43-2.63,0.24c-0.64,0.54-1.23,2.24-1.43,2.87"/>
		<path class="st0" d="M391.47,177.58c0.29-0.96,1.84-0.87,2.06-1.47c0.22-0.6-0.69-4.16-0.82-4.83c0.21-0.36,0.63-0.71,1.16-1.06
			c-0.36,0.19-0.73,0.23-1.22,0.68c-0.19-0.49,0.31-2.77,0.31-2.77s-0.66,1.75-0.56,2.85c0.1,1.11,1.25,3.54,0.77,4.79
			s-1.78,0.52-2,1.53c-0.05,0.24-0.04,0.56,0,0.92c0.09,0.02,0.18,0.02,0.27,0.04C391.42,177.99,391.42,177.75,391.47,177.58z"/>
		<path class="st0" d="M400.48,172.41c0.53-0.97,0.63-2.84,0.63-2.84s-0.45,2.3-0.82,2.67c-0.28-0.61-0.6-0.8-0.85-1.11
			c0.32-0.75,0.17-1.51,0.17-1.51s-0.08,1.02-0.36,1.34c-0.31-0.34-1.29-0.99-1.29-0.99c0.98,0.85,2.25,1.96,2.12,2.6
			c-0.39,0.56-2.52,3.29-2.55,3.92c-0.03,0.48,0.68,0.98,1,1.61c0.1-0.03,0.2-0.05,0.3-0.09c-0.33-0.42-0.87-0.73-0.84-1.53
			C398.04,175.14,399.95,173.38,400.48,172.41z"/>
		<path class="st0" d="M406.41,170.99c-0.37-0.71-0.31-2.26-0.13-3.55c0,0-0.31,1.13-0.31,1.59c-0.27-0.51-1.15-0.77-1.15-0.77
			s0.59,0.34,1.13,1.02c0.02,0.4-0.1,0.76,0.09,1.4c-0.43-0.57-1.87-1.63-2.37-1.46c0.86,0.21,1.47,0.92,2.35,1.72
			c0.42,0.38,0.21,0.62,0.77,0.81c0.04-0.06,0.08-0.12,0.11-0.19C406.75,171.51,406.62,171.39,406.41,170.99z"/>
		<path class="st0" d="M387.5,162.5c0,0-1.98,1.24-2.5,1.22c0.25-0.62,0.17-0.98,0.23-1.38c-0.15,0.62-0.34,1.13-0.61,1.45
			c-0.54,0.08-2.96,0.31-4.18,0.61c-0.01,0.12-0.01,0.23-0.02,0.35c1.12-0.72,3.56-0.5,4.57-0.77
			C386.08,163.7,387.5,162.5,387.5,162.5z"/>
		<path class="st0" d="M385.83,158.12c0,0-0.48-1.07-0.77-1.43c0.36-0.23,1.38-0.14,1.38-0.14s-0.73-0.27-1.52-0.07
			c-0.27-0.3-0.41-0.65-0.96-1.02c0.42-0.3,2.76-0.38,2.76-0.38s-1.78-0.19-2.83,0.15c-0.13,0.15-0.26,0.29-0.38,0.44
			c0.03-0.02,0.07-0.04,0.1-0.05C384.26,155.58,385.15,157.01,385.83,158.12z"/>
		<path class="st0" d="M380.76,161.04c-0.82,0.16-1.23,0.51-1.92,1.69c-0.48,0.82,0.71,0.85,0.71,0.85l1.16-1.26
			C380.72,162.32,381.58,160.88,380.76,161.04z"/>
		<path class="st2" d="M378.75,162.98c0.99-1.45,2.23-2.83,4.34-1.45c-2.11,0.15-3.13,2.43-2.63,4.91
			C379.42,165.16,378.25,163.85,378.75,162.98z"/>
	</g>
	<g>
		<path class="st0" d="M333.17,131.1c2.99,1.99,6.55,3.22,11.43,3.5l-9.12,1.18L333.17,131.1z"/>
		<path class="st0" d="M323.58,128.18c4.79,5.53,26.25,10.92,32.62,5.36C347.63,135.87,333.75,134.8,323.58,128.18z"/>
		<path class="st0" d="M302.35,118.8c16.62,0.67,23.01,8.75,39.33,17.04l-27.46-3.1C307.95,130.1,304.63,124.01,302.35,118.8z"/>
		<path class="st0" d="M292.85,95.91c6.07,7.79,7.24,16.46,8.13,30.92c0.83,13.51,19.84,28.04,37.49,28.5
			c17.91,0.47,29.56-8.31,32.17-12.43c2.87-4.55,2.94-13.46,9.43-13.82c-8.32-1.39-20.98,7.67-35.43,5.84
			c-14.32-1.82-37.39-4.81-41.14-15.02S301.52,106.4,292.85,95.91z"/>
		<g>
			<path class="st3" d="M309.58,120.61c0.91-0.33,4.16,0.63,4.86,1.4c-1.76,0.73-2.83,7-2.31,9.04
				C311.2,130.38,307.83,121.42,309.58,120.61z"/>
			<path class="st3" d="M315.8,122.58c0.59,0,3.02,1.23,3.73,2c-1.18,0.95-2.08,5.34-1.64,7.36
				C316.88,131.41,314.06,123.39,315.8,122.58z"/>
			<path class="st3" d="M321.06,125.57c0.57,0.2,2.71,1.73,3.55,2.32c-1.18,0.95-2.02,3.77-1.68,6.18
				C321.75,133.52,320.03,127.07,321.06,125.57z"/>
			<path class="st3" d="M326.58,128.96c0.7,0.43,1.59,1.1,2.67,1.65c-1.09,0.99-1.53,3.44-1.33,5.58
				C326.99,135.62,325.6,130.43,326.58,128.96z"/>
			<path class="st3" d="M332.39,132.17c1.25,0.71,1.48,0.77,2.46,1.14c-0.46,1.03-0.42,2.85-0.17,5.06
				C333.6,137.34,332.22,134.46,332.39,132.17z"/>
			<path class="st3" d="M338.34,134.35c0.79,0.37,1.07,0.42,1.83,0.55c-0.34,1.05-0.42,2.2-0.24,4.14
				C338.84,137.54,338.66,136.55,338.34,134.35z"/>
			<path class="st3" d="M350.85,152.86c-0.87,0.52-4.7,1.2-6.2,1.11c1.71-1.83,2.11-8.42,0.51-12.7
				C348.42,141.65,351.49,150.18,350.85,152.86z"/>
			<path class="st3" d="M359.77,149.58c-0.76,0.53-3.42,1.84-4.8,2.23c1.11-1.93-0.18-7.93-2.42-11.31
				C355.45,140.18,359.79,147.13,359.77,149.58z"/>
			<path class="st3" d="M367.44,145.49c-0.61,0.48-2.78,1.81-3.92,2.52c0.74-1.71-0.45-5.95-2.89-8.78
				C363.17,138.84,367.13,143.38,367.44,145.49z"/>
			<path class="st3" d="M371.91,138.31c-0.12,0.6-0.78,2.68-1.62,3.58c-0.11-1.49-1.63-3.66-4.43-4.75
				C367.53,135.9,370.9,136.92,371.91,138.31z"/>
			<path class="st3" d="M373.75,133.37c-0.19,0.65-0.43,1.44-0.69,2.09c-0.36-0.78-0.83-1.66-2.55-1.68
				C371.15,132.78,372.93,132.83,373.75,133.37z"/>
			<path class="st3" d="M303.3,120.04c0.76-0.48,3.87-0.32,4.67,0.24c-1.45,1.02-1.06,6.97-0.25,8.72
				C306.73,128.41,301.88,121.13,303.3,120.04z"/>
		</g>
		<g>
			<path class="st0" d="M308.39,185.37c-0.31,9.01,4.01,13.61,8.09,15.15s2.73,4.48,2.05,5.37s-0.42,2.83,0.61,4.09
				c1.17,1.42,0.57,4.46-1.2,4.43c-1.4-0.02-3.15-2.94-1.25-4.57c0.99-0.86,1.76-3.08-0.24-4.95c-1.3-1.21-15.41-0.61-16.4-3.2
				C299.54,200.8,308.93,179.5,308.39,185.37z"/>
			<path class="st1" d="M324.54,140.96c0,0-6.08-4.24-10.25-6.16c-4.17-1.92-14.58-0.91-22.81,15.18s-5.7,31.44-4.53,36.6
				s6.08,10.83,11.8,14.43c5.17,3.25,19.63,2.66,17.17,0.72c-3.41-2.69-8.61-5.96-7.17-16.41c1.63-11.81,11.16-20.6,15.28-24.6
				c4.05-3.93,9.32-6,12.01-6.57c3.03,0.09,4.4,0.62,6.28-0.31c1.88-0.93,2.29-7.7-4.95-10.04
				C330.13,141.46,324.54,140.96,324.54,140.96z"/>
			<path class="st0" d="M327.85,141.36c-1.88-0.33-2.44-0.12-3.21,0.31c-13.81,6.93-26.18,22.66-25.76,41.49
				c0,0.42-0.31,0.15-0.36-0.1c-3-18.27,10.65-36.88,21.92-42.89c0.56-1.76-0.32-2.17-1.89-3.08L327.85,141.36z"/>
			<path class="st0" d="M289.01,170.92c0,0-0.1-2.93,2.04-2.67c2.14,0.26,3.34,2.93,2.63,4.88c-0.72,1.95-1.65,4.18-3.06,4.12
				c-1.4-0.07-1.56-2.04-1.56-2.04s0.68,1.24,1.57,1.28c0.89,0.05,2.32-2.61,2.65-4.11c0.33-1.5-0.68-2.9-2.19-3.28
				C289.57,168.71,289.01,170.92,289.01,170.92z"/>
			<path class="st7" d="M318.43,210.28c0.28-0.2,0.98,0.42,0.75,1.51C318.84,210.95,318.68,210.53,318.43,210.28z"/>
			<path class="st7" d="M318.12,202.17c0.28-0.2,0.98,0.42,0.75,1.51C318.54,202.84,318.37,202.42,318.12,202.17z"/>
		</g>
	</g>
	<g id="mustache">
		<path class="st1" d="M493.53,74.2c7.09,4.11,14.1,4.16,21.03-0.7c0,0,11.42,13.26,10.68,15.16c-0.73,1.9-16.25,4.52-22.2,4.2
			c-5.85-0.32-20.42-1.62-22.45-4.09L493.53,74.2z"/>
		<path class="st0" d="M493.71,91.99c7.55,1.08,14.31,1.1,19.28,0.15C507.37,94.67,499.85,94.6,493.71,91.99z"/>
		<path class="st0" d="M491.55,84.95c0,0,8.33-2.07,9.32-2.02c0.99,0.05,1.82,1.38,3.03,1.45s3.08-1.37,3.98-1.6
			c0.9-0.23,9,1.39,9,1.39s-6.81-0.6-8.11-0.41c-1.3,0.2-3.38,1.96-4.62,1.95c-1.24-0.01-2.7-1.43-3.69-1.69
			C499.44,83.77,491.55,84.95,491.55,84.95z"/>
		<path class="st0" d="M499.58,65.19c3.18,2.37,3.16,13.67,0.14,14.75c-2.2,0.79-17.74,8.52-24.74,15.13
			c-7,6.61-25.29,23.65-42.16,9.13c-6.4-6.99-1.89-12.17-0.39-13.99c0.21,3.51,2.79,5.63,4.59,6.27c4.2,1.5,10.82-2.09,16.85-4.37
			c6.03-2.28,11.25-10.62,13.38-13.51c2.13-2.89,7.61-11.46,13.41-14.44C486.84,60.98,497.43,63.59,499.58,65.19z"/>
		<path class="st0" d="M509.4,63.43c-2.85,2.76-1.54,15.03,1.59,15.72c2.28,0.5,10.59,7.78,15.3,13.79s10.76,16.83,21.24,16.86
			c9.74,0.03,17.99-1.56,20.37-5.98c-1.12,0.55-8.26-2.33-13.71-6.46c-5.03-3.82-11.18-13.75-13.63-17.24
			c-2.46-3.49-8.98-13.63-15.11-15.85C518.91,61.88,511.33,61.56,509.4,63.43z"/>
		<path class="st2" d="M498.77,64.38c2,0.9,7.86,10.78-0.09,16.62C502.53,75.54,501.91,69.16,498.77,64.38z"/>
		<path class="st2" d="M509.73,62.87c-1.87,1.15-6.92,12.27,1.71,17.05C506.92,75,507.22,68.02,509.73,62.87z"/>
		<path class="st2" d="M494.76,61.98c2.75,1.57,2.67,17.46-1.93,22.81C494.58,80.63,497.16,67.98,494.76,61.98z"/>
		<path class="st2" d="M515.62,61.57c-2.7,1.66-2.02,18.66,2.75,23.86C516.49,81.33,513.42,67.64,515.62,61.57z"/>
		<path class="st2" d="M488.88,64.32c2.67,1.29,5.74,12.12,0.5,18.18C491.16,78.31,492.2,69.74,488.88,64.32z"/>
		<path class="st2" d="M520.88,70.05c-1.99,2.2-2.19,14.94,4.95,18.56C522.6,85.41,519.84,76.32,520.88,70.05z"/>
		<path class="st2" d="M487.69,73.24c1.07,6.24,1.49,10.99-3.6,15.56C486.95,84.85,487.32,81.03,487.69,73.24z"/>
		<path class="st2" d="M550.48,100.3c4.95,3.93,8.91,6.57,15.34,4.25C561,105.19,557.48,103.69,550.48,100.3z"/>
		<path class="st2" d="M466.52,89.64c-2.87,5.21-7.16,10.81-13.95,10.05C457.41,99.2,460.81,95.8,466.52,89.64z"/>
		<path class="st2" d="M483.89,74.58c-0.35,5.3-2.9,12.62-7.78,15.46C479.59,86.29,481.61,81.08,483.89,74.58z"/>
		<path class="st2" d="M499.31,68.99c0.64,3.04,0.49,7.51-1.52,9.74C498.96,76.16,499.17,72.96,499.31,68.99z"/>
		<path class="st2" d="M511.46,65.91c-1.32,2.81-0.77,7.47,0.67,10.11C511.59,73.24,510.69,69.8,511.46,65.91z"/>
		<path class="st2" d="M474.68,75.77c-0.67,3.77-3.5,12.43-5.94,14.16C470.45,87.68,472.98,79.9,474.68,75.77z"/>
		<path class="st2" d="M455.18,101.03c-3.32,2.05-9.15,4.05-11.28,3.58C445.84,104.24,451.12,101.59,455.18,101.03z"/>
		<path class="st2" d="M459.68,92.18c-3.32,1.76-10.69,7.78-15.6,6.44C447.42,98.3,456.69,92.55,459.68,92.18z"/>
		<path class="st2" d="M537.98,88.53c2.19,4.87,7.19,9.24,12.26,8.81C547.01,96.42,540.01,91.65,537.98,88.53z"/>
		<path class="st2" d="M517.57,62.1c-0.51,2.14-1.99,7.8,0.08,9.9C517.55,70.23,517.84,65.04,517.57,62.1z"/>
		<path class="st2" d="M534.31,94.47c0.6,2.37,1.59,6.71,5.25,8.21C538.17,101.45,536.16,97.72,534.31,94.47z"/>
		<path class="st2" d="M453.26,104.82c-1.96,1.44-10.51,5.06-14.22,0.98C442.85,107.76,449.68,105.92,453.26,104.82z"/>
		<path class="st2" d="M445.66,102.43c-7.13,1.56-15.04-2.09-13.44-10.38C432.48,97.96,438.03,102.55,445.66,102.43z"/>
		<path class="st2" d="M528.77,74.26c2.69,7.85,2.03,17.9,8.96,19.59C532.1,90.41,532.79,81.03,528.77,74.26z"/>
		<path class="st2" d="M523.72,67.95c3.34,5.41,0.66,10.08,1.96,14.37C522.61,78.49,525.48,75.22,523.72,67.95z"/>
		<path class="st2" d="M539.83,97.18c3.34,5.37,5.41,7.97,12.24,7.97C547.32,104.12,545.28,102.74,539.83,97.18z"/>
		<path class="st2" d="M484.12,61.9c0.42,6.58-3.1,15.84-7.98,21.94C478.48,79.79,482.27,70.17,484.12,61.9z"/>
		<path class="st2" d="M481.84,63.1c-10.13,4.87-16.11,23.73-19.28,27.46C468.19,87.39,468.81,75.47,481.84,63.1z"/>
		<path class="st2" d="M522.69,62.75c10.66,3.54,15.65,24.76,20.24,26.9C536.91,89.36,536.33,73.67,522.69,62.75z"/>
		<path class="st2" d="M474.05,85.98c-5.44,10.5-8.32,17.13-14.6,20.74C465.14,104.76,470.65,99.53,474.05,85.98z"/>
		<path class="st2" d="M528.17,82.69c2.73,11.52,4.87,20.07,9.13,23.69C532.25,103.09,528.93,96.71,528.17,82.69z"/>
	</g>
	<g id="nose">
		<path class="st2" d="M526.78,61.2c-1.71-2.84-5.21-8.21-7-10.8C522.87,52.99,525.74,57.94,526.78,61.2z"/>
		<path class="st2" d="M481.11,62.85c1.58-2.86,5.06-8.74,6.72-11.36C484.89,54.13,482.02,59.59,481.11,62.85z"/>
		<path class="st2" d="M516.04,48.01c1.76,1.25,4.04,3.41,4.16,4.62c0.12,1.22-0.35,3.15-1.05,4.14s-4.35-2.05-5.82-1.24
			c-1.47,0.81-6.56,6.89-7.67,7.84s-3.75,0.73-4.89-0.13c-1.15-0.87-7.57-6.66-8.19-8.81s1.03-11.12,1.25-12.47
			c0.22-1.35,3.22-11.17,3.22-11.17s-3.8,8.2-4.38,10.7c-0.58,2.5-1.96,11.53-1.6,13.21c0.36,1.68,8.2,8.86,9.51,9.86
			c1.3,1,4.62,1.42,5.9,0.08c1.28-1.35,6.16-6.88,7.05-8.1s5.11,2.08,6.13,1.38c1.03-0.7,1.45-4.15,1.2-5.67
			C520.61,50.71,517.46,47.84,516.04,48.01z"/>
		<path class="st2" d="M494.4,58.52c-0.9-1.23-6.36,2.1-7.38,1.4c-1.03-0.7-1.42-4.12-1.17-5.65c0.25-1.53,4.33-5.61,5.74-5.44
			c-1.76,1.25-4.96,4.35-5.08,5.57c-0.12,1.22,0.32,3.4,1.02,4.38c0.7,0.99,4.62-1.95,6.1-1.14"/>
	</g>
	<g id="eyebrows">
		<path class="st0" d="M555.65,7.91c-0.08-3.09-13.58-5.4-17.3-6.17s-15.63,0.47-17.42,1.15c-1.79,0.69-3.94,6.97-3.94,6.97
			C529.49,7.28,540.7,4.97,555.65,7.91z"/>
		<path class="st2" d="M521.32,2.55c-2.39,1.22-3.7,5.48-4.42,7.51C518.51,8.66,519.23,4.95,521.32,2.55z"/>
		<path class="st2" d="M526.39,2.6c-2.39,1.22-5.26,4.83-6.27,6.65C521.64,7.51,524.3,5.01,526.39,2.6z"/>
		<path class="st2" d="M530.97,1.28c-2.39,1.22-5.3,4.62-6.53,6.53C526.05,6.41,528.87,3.69,530.97,1.28z"/>
		<path class="st2" d="M534.65,3.11c-2.39,1.22-4.92,3.39-7.16,4.92C529.69,6.96,532.36,5.35,534.65,3.11z"/>
		<path class="st2" d="M540.6,2.48c-2.89-0.14-3.67,0.95-6.18,3.63C537.65,3.67,538.16,3.22,540.6,2.48z"/>
		<path class="st2" d="M548.12,4.49c-2.2-0.6-5.55,0.46-8.27,0.87C542.71,5.64,545.63,4.52,548.12,4.49z"/>
		<g>
			<path class="st0" d="M455.4,9.99c-0.06-3.09,13.33-5.98,17.02-6.92c3.69-0.94,15.64-0.22,17.46,0.39
				c1.82,0.61,4.24,6.79,4.24,6.79C481.5,8.21,470.2,6.39,455.4,9.99z"/>
			<path class="st2" d="M494.21,10.44c-1.67-1.33-2.56-4.99-4.75-7.31C491.9,4.24,493.4,8.43,494.21,10.44"/>
			<path class="st2" d="M490.95,9.77c-1.6-1.67-4.36-4.06-6.56-6.37C486.84,4.52,489.86,8,490.95,9.77"/>
			<path class="st2" d="M486.57,8.52c-1.67-1.33-4.61-3.92-6.81-6.23C482.21,3.4,485.26,6.67,486.57,8.52"/>
			<path class="st2" d="M483.53,8.87c-2.25-0.96-4.99-2.45-7.37-4.6C478.6,5.38,481.22,7.44,483.53,8.87"/>
			<path class="st2" d="M476.52,7.26c-3.33-2.3-3.86-2.72-6.33-3.36C473.07,3.64,473.89,4.69,476.52,7.26"/>
			<path class="st2" d="M471.07,6.75c-2.84,0.4-5.81-0.59-8.3-0.51C464.93,5.55,468.33,6.46,471.07,6.75"/>
		</g>
	</g>
	<g id="eyeglasses">
		<path class="st2" d="M520.17,22.41c0,0-1.97,2.5-1.99,3.66c-0.02,1.17,2.54,2.89,2.54,2.89s-1.13-1.52-1.33-2.85
			C519.2,24.79,520.17,22.41,520.17,22.41z"/>
		<path class="st2" d="M486.53,28.82c0,0,1.73-1.2,1.91-2.57c0.19-1.37-1.19-3.44-1.19-3.44s2.7,2.4,2.55,3.73
			C489.66,27.88,486.53,28.82,486.53,28.82z"/>
		<path class="st2" d="M523.39,26.17c0,0,0.46-1.73,2.28-1.91c1.82-0.18,7.79,1.7,11.54,1.32c3.47-0.35,9.37-2.6,9.37-2.6
			c-0.52,1.13-3.9,3.56-9.02,4.16c-4.36,0.52-10.59-1.94-11.88-1.93C524.38,25.21,523.39,26.17,523.39,26.17z"/>
		<path class="st2" d="M485.15,26.55c0,0-0.63-1.67-2.46-1.67s-6.79,2.95-10.96,2.6c-3.76-0.31-8.76-1.39-8.76-1.39
			s4.08,2.25,8.24,2.78c4.36,0.54,10.28-2.92,11.57-3.05C484.07,25.69,485.15,26.55,485.15,26.55z"/>
		<path class="st2" d="M484.39,30c-1.77,2.68-4.63,4.55-6.53,4.95C480.48,35.28,483.5,32.64,484.39,30z"/>
		<path class="st2" d="M462.31,26.23c-1.22,0.96-2.08,1.62-2.22,2.6C459.87,27.51,461.08,26.75,462.31,26.23z"/>
		<path class="st2" d="M547.88,23.38c1.08,1.12,1.85,1.89,1.86,2.87C550.13,24.97,549.03,24.06,547.88,23.38z"/>
		<path class="st2" d="M522.76,29.43c1.77,2.68,5.54,4.76,7.43,5.15C527.58,34.91,523.66,32.08,522.76,29.43z"/>
		<path class="st2" d="M458.21,20.52c0.85,3.1,2.61,4.36,4.28,5.32C459.9,25.34,458.24,23.32,458.21,20.52z"/>
		<path class="st2" d="M550.67,16.87c-0.19,3.21-1.64,4.8-3.08,6.1C550.01,21.94,551.21,19.61,550.67,16.87z"/>
		<path class="st2" d="M565.43,11.19c-0.71-0.58-8.23-2.16-14.61-2.16c-5.05,0-30.97-1.54-37.9,2.95c-1.86,1.2-5.21,2.28-8.41,2.4
			c0,0-0.1,0-0.1,0c-3.2-0.12-6.55-1.2-8.41-2.4c-6.93-4.48-32.85-2.95-37.9-2.95c-6.38,0-13.9,1.58-14.61,2.16
			c-0.71,0.58-0.85,5.65,0,6.38c0.85,0.73,4.79,0,6.38,3.19c1.6,3.19,3.19,9.57,6.38,12.77c3.19,3.19,23.68,3.19,28.72,3.19
			c4.79,0,9.57,0,12.77-7.98c2.21-5.54,3.72-7.78,6.72-7.83c3-0.05,4.51,2.3,6.72,7.83c3.19,7.98,7.98,7.98,12.77,7.98
			c5.05,0,25.53,0,28.72-3.19c3.19-3.19,4.79-9.57,6.38-12.77c1.6-3.19,5.53-2.46,6.38-3.19C566.28,16.84,566.14,11.76,565.43,11.19
			z M491.19,34.03c-3.59,2.35-29.03,1.11-33.32-2.49c-4.29-3.59-9.12-17.14-1.94-19.36c11.2-3.18,38.57-2.21,39.95,4.01
			C498.12,26.22,494.78,31.68,491.19,34.03z M551.05,31.54c-4.29,3.59-29.72,4.84-33.32,2.49c-3.59-2.35-6.93-7.8-4.7-17.83
			c1.38-6.22,28.76-7.19,39.95-4.01C560.17,14.4,555.33,27.94,551.05,31.54z"/>
	</g>
</g>
</svg>
