<?xml version="1.0" encoding="utf-8"?>
<!-- Generator: Adobe Illustrator 23.0.3, SVG Export Plug-In . SVG Version: 6.00 Build 0)  -->
<svg version="1.1" id="Layer_1" xmlns="http://www.w3.org/2000/svg" xmlns:xlink="http://www.w3.org/1999/xlink" x="0px" y="0px"
	 viewBox="0 0 720 237.1" style="enable-background:new 0 0 720 237.1;" xml:space="preserve">
<style type="text/css">
	.st0{fill:#FF5F5F;}
	.st1{fill:#F9E75E;}
	.st2{fill:#333366;}
	.st3{fill:#E8E8E8;}
	.st4{fill:#F4EAB3;}
	.st5{fill:#3F3F3F;}
	.st6{fill:none;stroke:#FF5F5F;stroke-miterlimit:10;}
	.st7{fill:#FFFFFF;}
</style>
<g id="Layer_5">
	<rect x="-1" y="126.5" class="st0" width="723" height="116.5"/>
</g>
<g id="Face">
	<rect x="305.6" y="0.7" class="st1" width="119.8" height="99.4"/>
</g>
<g id="Beard_BG_Color">
	<path class="st1" d="M423.4,22.2c2.4-3.9,2.7-5.4,4.3-3.8c1.6,1.6,1.9,9.1,0.7,11.7s-2.6,11.4-4.7,13.4
		C426.1,38.4,423.4,22.2,423.4,22.2z"/>
	<path class="st1" d="M307.2,21.8c-2.4-3.9-1.1-5-2.7-3.4s-1,8.9-0.7,11.7c0.7,6.7,1.9,8.6,3,13.1C306,37.6,307.2,21.8,307.2,21.8z"
		/>
	<path class="st2" d="M308.1,16.3c0,0-0.8,19.7-0.7,23.3s1.1,19.8,2.1,21c0.7-5,3.4-8.3,4.8-10.4c-0.1,7,0.3,22.3,2.6,25.3
		c1.5-3.5,2.8-3.8,4.2-3.7c-0.5,4.3,4.4,12.6,4.4,12.6l-30.7,73.2c-6.7,22.6-20.4,28.6-38.6,26.1c-17.8-2.5-17.3-18.9-15.7-20.7
		c-9.3,11.2-36.9,26.3-70.7,21.6s-39.9-31.8-62.3-57.9c-2.7,0-43.4,0-43.4,0s28.4-34.4,49.5-33c4.2-4.6,16.1-9.6,24.5-9.1
		c8.4,0.5,13.3,8,15.6,10.1c1.6-5.8,17.4-21.1,24.7-20C182.4,68,199,53,218,52.1c18.9-1,35.9,26.5,51.7,26.8
		c15.8,0.2,25.4-12.6,27.7-20.8s6.1-22.5,7.2-26.6s1-18.2,1-18.2l2.5-0.2L308.1,16.3z"/>
	<path class="st2" d="M400.2,83.5c1.7-8.7,2.4-17.6,0-27.2c5,7,8.7,13.5,9.4,18.6c0.7-5,0.7-9.7-1.2-13.6c2.9,0.8,5.9,1.7,7.3,4
		c1.3-5.2,1.3-10.2-0.4-15.1c2.9,2.3,5.1,5.2,5.7,9.8c0.2-5.8,0.1-11.6-0.9-17.7c1.3,2.4,2.1,4.8,2,7.1c2.9-8.1,1.2-20.8,0.6-33.7
		l3.6-0.2c0,0-0.6,9.9,0,13.6s4,8.9,4.8,12.8s1.6,12.2,2.7,14.7s9.7,10.2,15.3,9.4s9.4-7.8,10.3-11.9S459,42.4,459,42.4
		s6.6,8.3,7.1,12.2s-1,9.1-1,9.1c15.6-12.5,28.1-30,58.2-19.1c34.4-28,62.8,13.2,80.5,15.6c7.5,1,15.5-0.2,20.6-5.2
		c5.2-5,8-9.9,7.9-15c0.4-7.4-3.3-11.1-10.1-12.6c9.7-2.5,17,8.2,16.9,10.9c0.7-4.1-2.4-10.3-12.9-12.9c14.8-1.5,20.6,5.8,22.1,15.7
		s-1.2,17.2-5,23.4c-4.8,7.9-36.4,54.5-44.2,61.8c-6,5.6-25.6,13.3-64.5,14c-35.6,0.6-68.2-12.3-68.2-12.3l-61.5-32.6L400.2,83.5z"
		/>
	<path class="st2" d="M330.3,87.4l66,2.1l55.7,1.7c11.6,16.3,26.2,33.6,28.3,43.3s-0.4,17.7-7.3,23.5c1-6.8,1.1-13.3-2.7-18
		c-1.8,16.3-9.3,24.1-19,28.9c2.1-3.1,2.6-6-0.2-8.2c-2.3,7.1-5.5,12-10.1,13.8c0.5-1.9,0.9-3.6-1-4.6c0,0-10.1,17.7-20.5,19.9
		c4.7-4.1,10.1-14.5,9.8-26.4c-3.3,9-35.4,54-67.6,52.5c15.8-3.4,20.9-15.6,25-20.8c-12.9,2.5-16.3-11.2-16.3-11.2
		c-2.6,11.6-8.3,22.2-17.6,31.4c1.1-3.1,1.5-6,0-8.2c-2.5,4.2-5.2,7.9-8.8,9.2c0.5-0.9,1.6-2.8,1.5-4.6c-1.7,1.3-5.5,3.1-8.2,3.3
		c2.3-2.7,4.6-5.5,4.7-9.3s-0.9-9.1-4.3-13.1c-1.1,5.4-0.7,10.5,0.6,15.5c-4.5-3.2-7.1-9.2-7.5-18.9c-1.6,6.6-1.2,12.2,0.6,17.2
		c-2.7-3.9-4.8-8.9-6.3-15.3c0,5.9,0.6,11.3,2.5,15.7c-6.7-9.3-13.5-18.7-12.3-29.3c-2.7,2.8-3.2,9-3.3,15.9
		c-3.1-6.4-5.6-13.1-6.3-21.1c-2.1,4.3-1.7,10.3-0.8,16.6c-5.5-8.9-10.1-17.4-12.6-25.3l5.4-59.1L330.3,87.4z"/>
	<path class="st2" d="M559.9,124.8c0,0,22.7-0.5,38.9,1.8c13.5,1.9,8.8,31.9-3.6,35.9c3.1,2,6.8,1.7,9.3,1c-1.2,1.9-1,2.4-0.6,3.5
		c2.2,5.5,7.7,12.8,25,6.1c17.7-6.9,29.1-23.7,29.8-58.1s-19.2-45.6-19.2-45.6L559.9,124.8z"/>
	<path class="st2" d="M476.6,130.3c0,0,11.8,12.8,27.1,11.2c-10.6-6.4-3.7-11-3.7-11L476.6,130.3z"/>
	<path class="st2" d="M624.4,174.7c0.6-1.4,15.1-10.8,15.1-10.8s8.8,16-0.5,25.8C639.7,177.6,626.8,173.6,624.4,174.7z"/>
	<polygon class="st2" points="305.8,12.8 308.2,12.9 309.1,0.7 305.3,0.7 	"/>
	<polygon class="st2" points="421.9,13.4 426,13.3 426.8,0.7 421.5,0.7 	"/>
</g>
<g id="Beard_Details">
	<path class="st0" d="M519.8,76.4c-6.3-0.9-11-1.1-15.4,4.1C508.2,77.6,512,77.1,519.8,76.4z"/>
	<path class="st0" d="M305.4,33.2c0.1,3.8-1,12.9-3.1,15C303.6,45.7,304.6,37.6,305.4,33.2z"/>
	<path class="st0" d="M309.8,61c0,3.8-1.3,12.9-3.4,15C307.7,73.5,308.9,65.4,309.8,61z"/>
	<path class="st0" d="M200.4,80.8c2.1-2.6,5.9-5.4,9.1-5.2C206.6,76.4,203.8,78.3,200.4,80.8z"/>
	<path class="st0" d="M363.9,107.6c0.2,3.3-2,10.2-4.5,12.2C361.1,117.3,363.1,111.8,363.9,107.6z"/>
	<path class="st0" d="M480.2,101c1.6,3.4,8,8.9,12,9.5C488.9,108.9,483.4,104.6,480.2,101z"/>
	<path class="st0" d="M464,88.1c3.4,1.4,11.5,1.6,14.7-0.4C475.3,88.6,468.6,88.8,464,88.1z"/>
	<path class="st0" d="M536,67.9c-3.5-1.2-11.6-0.9-14.6,1.3C524.6,68.1,531.3,67.5,536,67.9z"/>
	<path class="st0" d="M561.9,44.6c-1.8-3.2-8.1-8.4-11.8-8.8C553.3,37.2,558.6,41.2,561.9,44.6z"/>
	<path class="st0" d="M637.5,38.8c-1.4-3.4-5.8-9.6-9.5-10.4C631,30.1,634.6,35.1,637.5,38.8z"/>
	<path class="st0" d="M208.6,88.5c3.9-2,10.1-3.5,13.9-1.6C218.5,86.2,214.1,87.2,208.6,88.5z"/>
	<path class="st0" d="M242.1,138.4c2.3-3.8,6.8-8.2,11-8.6C249.5,131.3,246.1,134.4,242.1,138.4z"/>
	<path class="st0" d="M256.7,144.8c5-0.9,10.6,1.3,13.1,4.7C266.6,147.2,262,145.2,256.7,144.8z"/>
	<path class="st0" d="M359.2,113.5c2.7-4.3,2.7-10.3,0.5-13.9C360.6,103.5,360.8,108.4,359.2,113.5z"/>
	<path class="st0" d="M312.4,163c-3.3,3.8-4.3,9.8-2.7,13.7C309.4,172.7,310,167.8,312.4,163z"/>
	<path class="st0" d="M296.5,152.8c-3.3,3.8-4.3,9.8-2.7,13.7C293.5,162.5,294.1,157.6,296.5,152.8z"/>
	<path class="st0" d="M240.5,110.7c-4,1.9-10.2,3.2-13.9,1.2C230.5,112.6,235,111.8,240.5,110.7z"/>
	<path class="st0" d="M272.7,150.9c2.6,3.6,5,9.4,3.7,13.4C276.4,160.3,274.8,156.1,272.7,150.9z"/>
	<path class="st0" d="M283.1,148.6c-1.1-4.3,2.2-18.6,4.8-21.9C286.5,130.4,283.1,142.9,283.1,148.6z"/>
	<path class="st0" d="M328.4,195.3c-1.9-4-2.5-12.4-0.5-16.1C327.1,183.1,327.2,189.8,328.4,195.3z"/>
	<path class="st0" d="M252.4,125.4c4.4-0.1,10.5-1.7,13-5.2C262.2,122.7,257.9,124,252.4,125.4z"/>
	<path class="st0" d="M209.1,64.2c3.1-1.3,7.8-2,10.5-0.3C216.6,63.1,213.3,63.6,209.1,64.2z"/>
	<path class="st0" d="M178.5,74.7c1.5-3,4.5-6.7,7.6-7.3C183.5,68.8,181.2,71.4,178.5,74.7z"/>
	<path class="st0" d="M263.8,81c-3.8,0.6-19.8-0.8-25.2-3.4C247.6,78.8,259.6,80.7,263.8,81z"/>
	<path class="st0" d="M136.2,144c-3.6-1.3-23-16.5-26.5-21.4C117,128.1,132.7,141.7,136.2,144z"/>
	<path class="st0" d="M307.1,139.1c0.7,3.7-0.7,23.4-3.2,28.9C305,158.9,306.9,143.3,307.1,139.1z"/>
	<path class="st0" d="M356.4,97.5c1.1,5.1,0.2,19.3-4,22C354.3,116.9,356.6,101.1,356.4,97.5z"/>
	<path class="st0" d="M348.7,96.1c-0.7,5.3-5.2,13.7-1.5,19.2C347.2,110.3,349,102.8,348.7,96.1z"/>
	<path class="st0" d="M360.6,150.3c-4.8-21.5,10.4-43.6,7.3-48.9C369.4,108.5,351.7,138,360.6,150.3z"/>
	<path class="st0" d="M212,60.2c-6.9-0.7-22.1,5.6-24.3,11.9C192.7,66.3,205,61,212,60.2z"/>
	<path class="st0" d="M378.9,144.8c3.5-2.8,3.4-19.4-3.7-27.4C379.5,123.7,380,137.9,378.9,144.8z"/>
	<path class="st0" d="M341.6,116.6c-4.1,1.9-8,18-3.1,27.5C335.9,136.9,338.9,123,341.6,116.6z"/>
	<path class="st0" d="M212.4,84.9c10.3-4.9,11.8-6.9,21.7-6.9C226.5,75.7,217.6,80.8,212.4,84.9z"/>
	<path class="st0" d="M268.9,123c8.7-9.7,11.1-15.2,17-20C278.7,107,271.7,118.5,268.9,123z"/>
	<path class="st0" d="M289.9,164.6c3.8-12.5,3.8-18.4,7.1-25.3C292.1,145.9,290.6,159.3,289.9,164.6z"/>
	<path class="st0" d="M288,87.7c-11.1,2.6-13,4.2-22.7,2.1C272.2,93.6,282,90.5,288,87.7z"/>
	<path class="st0" d="M402,134.6c3.3,11,5,12.7,3.5,22.5C408.9,150.1,405.2,140.4,402,134.6z"/>
	<path class="st0" d="M203.8,58.6c6.1-4,26.2-5.5,30.7,1.6C227,55.6,211.8,54.8,203.8,58.6z"/>
	<path class="st0" d="M214.7,157.8c-6.4,3.6-26.4,4-30.6-3.3C191.4,159.5,206.6,161.1,214.7,157.8z"/>
	<path class="st0" d="M357.2,114.9c1.5,7.2-5.2,27.8-13.4,29.6C350.8,139.1,357.8,123.7,357.2,114.9z"/>
	<path class="st0" d="M134.4,119.4c-0.4-8.4-10.6-23.7-19-25C122.6,99.5,132.6,110.6,134.4,119.4z"/>
	<path class="st0" d="M373.2,96.7c0.7,7.4,3,18.3,8.9,22.2C378.2,113.9,375.3,103,373.2,96.7z"/>
	<path class="st0" d="M436.7,75.4c4.8,5.7,13,13.2,20.1,13C450.5,86.7,441.6,79.8,436.7,75.4z"/>
	<path class="st0" d="M321.1,164.6c-2.9,6.9-5.8,17.6-2.4,23.8C317,182.2,319.5,171.2,321.1,164.6z"/>
	<path class="st0" d="M208.6,71.5c8.4-6.1,21.1-1.8,28.3,1.2C229.5,70.4,219.9,66.8,208.6,71.5z"/>
	<path class="st0" d="M340.5,161.3c-4.8-9.3,1.4-21.1,5.4-27.8C342.6,140.5,337.6,149.4,340.5,161.3z"/>
	<path class="st0" d="M92.1,118.5c10.4,0,18.7,11,22.8,17.7C110.2,130,104,121.4,92.1,118.5z"/>
	<path class="st0" d="M379.8,93.2c3.6,6.6,6.8,19.8,14,24C389.1,112.1,385.9,99.2,379.8,93.2z"/>
	<path class="st0" d="M324,159c-0.5,8.6-3.5,29.2-0.7,37.9C322,189.5,326.1,168.2,324,159z"/>
	<path class="st0" d="M344.1,93.4c-2.7,7-4.8,21.3-9.3,25.9C337,115.1,338.8,100.1,344.1,93.4z"/>
	<path class="st0" d="M229.2,82.5c11-2.4,27.3,8.7,32.1,9.7C254.9,93.1,248.1,83.2,229.2,82.5z"/>
	<path class="st0" d="M355.5,152.5c5.3,9.9-1.1,28.7-0.8,33.5C352.1,180.2,359.8,171,355.5,152.5z"/>
	<path class="st0" d="M137.7,98.4c8.1,7.8,7.9,27.6,9.7,32.1C143.1,125.7,147.6,114.6,137.7,98.4z"/>
	<path class="st0" d="M407.7,162.5c1.3,11.2-11.3,26.3-12.8,31C394.6,187.1,405.1,181.2,407.7,162.5z"/>
	<path class="st0" d="M226.5,65.5c15.1,1.2,21,9.8,29,11.5C245.9,73.3,240,64.8,226.5,65.5z"/>
	<path class="st0" d="M304.8,47.6c-4.1,14.6-12,21.8-15.3,29.3C295,68.2,302.8,61,304.8,47.6z"/>
	<path class="st0" d="M280.8,77.9c-10.8,4.8-17.2,8.1-24.4,7C262.1,86.9,269.7,86.3,280.8,77.9z"/>
	<path class="st0" d="M312.1,61.7c-1.3,11.8-1.6,19-6.1,24.6C310.6,82.4,313.9,75.6,312.1,61.7z"/>
	<path class="st0" d="M274.9,96.5c-11.8,0.7-19,1.7-25.3-1.9C254.2,98.5,261.5,100.6,274.9,96.5z"/>
	<path class="st0" d="M278.3,145.7c-1.5-12.2,3.6-25.9,7.2-32.2C281.6,118.1,274.4,132.3,278.3,145.7z"/>
	<path class="st0" d="M363.9,170.2c0.3,11.8,1,19-2.7,25.2C365.2,191,367.5,183.7,363.9,170.2z"/>
	<path class="st0" d="M82,121.5c10.1-6.2,15.9-10.4,23.2-10.3C99.2,109.9,91.8,111.6,82,121.5z"/>
	<path class="st0" d="M105.7,107.6c10,6.3,16.3,9.8,19.4,16.4C123.7,118.1,119,112.1,105.7,107.6z"/>
	<path class="st0" d="M178.9,91.2c3.7,7.3,4.8,9.4,12.4,13.1C183.4,99.1,180.7,93.8,178.9,91.2z"/>
	<path class="st0" d="M266.6,129.3c0.1,8.2,0.2,10.6,5.5,17.2C267.4,138.4,267.2,132.4,266.6,129.3z"/>
	<path class="st0" d="M283.1,167.1c3.7-7.3,4.7-9.5,3.1-17.8C286.7,158.8,284.1,164.1,283.1,167.1z"/>
	<path class="st0" d="M348.7,199.7c2.1-7.9,2.6-10.3-0.6-18.1C350.5,190.8,349.1,196.6,348.7,199.7z"/>
	<path class="st0" d="M346.6,137.7c3.6-7.4,4.6-9.5,3-17.8C350.1,129.3,347.5,134.7,346.6,137.7z"/>
	<path class="st0" d="M114.6,122.4c-6.3-5.3-8.2-6.8-16.6-7.1C107.3,117,111.9,120.7,114.6,122.4z"/>
	<path class="st0" d="M139.3,163c5.5,6.1,7.1,7.9,15.4,9.4C145.7,169.4,141.7,165.1,139.3,163z"/>
	<path class="st0" d="M125.8,113.4c2.2,7.7,3,10,10.4,15.9C128.9,122,127.2,116.4,125.8,113.4z"/>
	<path class="st0" d="M374.1,160.6c2.2-7.9,2.7-10.2-0.5-18.1C376,151.7,374.5,157.5,374.1,160.6z"/>
	<path class="st0" d="M244,174.6c0.9,3.7,9.7,10.2,21,8C256.5,184,246.4,178.9,244,174.6z"/>
	<path class="st0" d="M166.9,117.7c1.3,3,4.2,6.8,7.3,7.5C171.6,123.7,169.5,121,166.9,117.7z"/>
	<path class="st0" d="M191.5,97.4c1.9,4,9,8.8,13.2,9.5C201.2,105,195.1,101.7,191.5,97.4z"/>
	<path class="st0" d="M378.2,177.7c-0.4,4.4,3.3,12.1,6.5,14.9C382.6,189.2,379.1,183.3,378.2,177.7z"/>
	<path class="st0" d="M198.1,129.5c3.5,2.7,12,4,16,2.9C210.2,132.2,203.2,131.9,198.1,129.5z"/>
	<path class="st0" d="M240.7,117.4c3,1.4,7.7,2.2,10.5,0.7C248.2,118.7,244.9,118.1,240.7,117.4z"/>
	<path class="st0" d="M354.7,211.3c0.5-2,0.7-5.4-0.1-7.7c0,0,0.2-0.2,0.3-0.3C355.9,206,355.7,209.2,354.7,211.3z"/>
	<path class="st0" d="M258.1,148c-1.8-0.9-4.1-0.3-6.2,0.4l-0.2-0.3C254.1,147,256.2,146.5,258.1,148z"/>
	<path class="st0" d="M343.8,181.7c-1.4,3-2.2,7.7-0.6,10.4C342.6,189.2,343.1,185.9,343.8,181.7z"/>
	<path class="st0" d="M356.6,209c2.3-2.4,6.1-9,5.6-12.1C361.8,199.8,358.8,205.3,356.6,209z"/>
	<path class="st0" d="M378.4,159.9c-1.5,3-2.6,7.6-1.1,10.4C376.8,167.3,377.5,164,378.4,159.9z"/>
	<path class="st0" d="M157,99.8c1.7,2.8,3.8,5.3,7,5.5C161.2,104.2,160,102.8,157,99.8z"/>
	<path class="st0" d="M380.1,169.9c0,3.3,2.1,10.4,4.7,12.3C382.9,179.8,381.1,174,380.1,169.9z"/>
	<path class="st0" d="M244.9,120.8c-3.7-0.9-19.8-0.9-25.4,1.1C228.5,121.5,240.7,120.7,244.9,120.8z"/>
	<path class="st0" d="M345.5,176.6c1.7,6.6,2.8,27.6-1.5,30.4C347.3,199.3,345.8,181.4,345.5,176.6z"/>
	<path class="st0" d="M264.2,181c6.4-1.5,7.3-1.3,12.6-4.6c3.9-2.4,7-5.5,9-8.7C278.9,175.6,274,178.5,264.2,181z"/>
	<path class="st0" d="M273.5,175.2c3.9-5.4,4.7-5.8,6.5-11.7c1.4-4.3,1.7-8.7,1.2-12.5C281.1,161.6,279.3,167,273.5,175.2z"/>
	<path class="st0" d="M412.6,183.1c3.7-2.4,12.6-17.9,10.6-25.2C421.9,168.7,415.4,180.7,412.6,183.1z"/>
	<path class="st0" d="M383.2,204.6c2.8-2.5,11.8-15.9,13.2-21.7C391.7,190.7,385.6,201.2,383.2,204.6z"/>
	<path class="st0" d="M197.2,95.7c-2-6.4-13.1-17.2-19.7-16.9C184.8,81.3,193.3,89.9,197.2,95.7z"/>
	<path class="st0" d="M340.4,183.4c4-5.4,7-21.6,2.9-26.8C345.5,164,342.7,176.8,340.4,183.4z"/>
	<path class="st0" d="M138.9,109.1c-2-6.4-13.1-17.2-19.7-16.9C126.4,94.8,134.9,103.3,138.9,109.1z"/>
	<path class="st0" d="M200.6,107.8c10.1,5.3,11.5,7.3,21.4,7.8C214.4,117.6,205.7,112.1,200.6,107.8z"/>
	<path class="st0" d="M373.3,167.3c1.4,11.4,0.5,13.6,5.8,22C373.2,184.2,372.7,173.9,373.3,167.3z"/>
	<path class="st0" d="M321.9,141.5c5.6-9.8,7.3-11,8.9-20.8C331.5,128.3,326,136.6,321.9,141.5z"/>
	<path class="st0" d="M188.4,116.7c6.4,8.2,26,8.1,33.7,7.2C214.4,124,198,124.4,188.4,116.7z"/>
	<path class="st0" d="M124.6,141.8c2.5,10.1,20.4,18,27.8,20.4C145.3,159.1,130.2,152.6,124.6,141.8z"/>
	<path class="st0" d="M149.7,118.3c-0.9,11.7,6.7,27.5,11.3,33.8C157.1,145.4,151.6,129.8,149.7,118.3z"/>
	<path class="st0" d="M368.7,114.6c-5.3,9.9,1.9,29.3,0.4,35.4C373.6,144.8,364.3,133.1,368.7,114.6z"/>
	<path class="st0" d="M329.6,113.7c-9.1,6.6-14.3,32-18.2,36.9C317.6,147.8,317.6,128.4,329.6,113.7z"/>
	<path class="st0" d="M210.2,128c14.9,3.1,22.9-3.6,31.1-3C231,125.8,223,132.4,210.2,128z"/>
	<path class="st0" d="M355.8,136.2c-5.5,14.2-0.2,23.2-2.1,31.1C354.6,157.1,349.4,148.1,355.8,136.2z"/>
	<path class="st0" d="M163.1,107.5c7.9,2.2,10.2,2.9,15.3,9.7C171.7,110.5,166,108.8,163.1,107.5z"/>
	<path class="st0" d="M401.5,188.4c-3.6,7.4-4.7,9.5-12.3,13.3C397,196.4,399.7,191,401.5,188.4z"/>
	<path class="st0" d="M344,118.2c0,3.5-0.7,12.3-2.9,14.6C342.4,130.2,342.9,122.6,344,118.2z"/>
	<path class="st0" d="M594.7,78.3c-3.5,0.5-12.3,1.1-14.9-0.8C582.7,78.4,590.3,77.9,594.7,78.3z"/>
	<path class="st0" d="M360.8,189.4c-1.3,4.4-1.5,13.3-3.5,15.9C358.4,202.5,358.8,192.9,360.8,189.4z"/>
	<path class="st0" d="M169.6,80.1c4.1,1.6,9.3,5.2,10.5,9.2C177.9,86,174.2,83.3,169.6,80.1z"/>
	<path class="st0" d="M213.7,107c-3.2-0.8-7.4-3-8.6-6C207,103.3,209.9,105,213.7,107z"/>
	<path class="st0" d="M75.2,121.6c1.4-3,4.3-6.8,7.4-7.4C80,115.7,77.8,118.3,75.2,121.6z"/>
	<g>
		<path class="st0" d="M100.6,126c1.6-2,1.3-1.7,2.8-3.1c-0.2-0.1-0.4-0.2-0.5-0.3C102.2,123.4,101.7,123.9,100.6,126z"/>
	</g>
	<path class="st0" d="M231.6,149c-1.8,2.8-5.4,6-9.1,6.1C225.7,154.1,228.4,151.9,231.6,149z"/>
	<path class="st0" d="M349.9,201.9c-0.2,3.3-1.5,7.9-4.2,9.6C347.6,209.2,348.7,205.9,349.9,201.9z"/>
	<path class="st0" d="M415.7,152.8c1.3,3,3.8,12.2,0.2,16.1C417.8,164.6,416.4,157,415.7,152.8z"/>
	<path class="st0" d="M260.2,101c-2,2.6-7.7,8.2-10.9,8.1C252.2,108.2,256.9,103.6,260.2,101z"/>
	<path class="st0" d="M396.7,120.4c2.4,2.3,5.1,6.3,4.7,9.4C400.9,126.9,399,123.9,396.7,120.4z"/>
	<path class="st0" d="M293,67.6c-1.6,3.5-11.7,16-16.8,19.1C282.2,79.9,290.4,70.9,293,67.6z"/>
	<path class="st0" d="M187.7,106.7c3.3,6.1,21.8,16,28.1,14.3C208.2,120.2,192.3,112,187.7,106.7z"/>
	<path class="st0" d="M270.9,114.7c-6.2,3-16.3,22.4-14.9,28.8C257.2,136,265.4,119.1,270.9,114.7z"/>
	<path class="st0" d="M167.9,163.8c5.3,4.4,26.2,6.8,31.4,2.8C191.9,168.7,174.1,166.9,167.9,163.8z"/>
	<path class="st0" d="M224.3,158.5c6.9-0.7,23.3-13.7,24.2-20.2C244.7,145,230.9,156.3,224.3,158.5z"/>
	<path class="st0" d="M281.9,111.5c-5.3,4.4-11.5,24.5-8.5,30.3C272.7,134.2,277.7,117.1,281.9,111.5z"/>
	<path class="st0" d="M352.9,206.8c4.8-4.9,9-25.5,5.4-31C359.8,183.3,356.6,200.9,352.9,206.8z"/>
	<path class="st0" d="M282.3,86.4c7.8-0.8,23.5-19.7,23.5-26.3C303,67.2,290.5,83.3,282.3,86.4z"/>
	<path class="st0" d="M152.7,157.4c0-7.8-17.2-25.4-23.7-26C135.8,134.9,150.6,148.9,152.7,157.4z"/>
	<path class="st0" d="M190.9,177.3c-4.3,2.6-26.2,1.1-29.4-2.9C166.4,177.2,186.2,178.8,190.9,177.3z"/>
	<path class="st0" d="M264.3,113.5c-9.2,6.8-11.8,11.2-21.6,13.1C250.6,127.4,259.9,118.5,264.3,113.5z"/>
	<path class="st0" d="M280.9,101.3c-3.9,6.2-27.6,17.6-34.7,13.1C255.1,115.4,275.2,108.1,280.9,101.3z"/>
	<path class="st0" d="M370.3,183.7c-4-6.1-5.5-26.2,1.6-30.7C366.2,163,367.5,170.2,370.3,183.7z"/>
	<path class="st0" d="M314.4,173.8c-0.4-6.1,5.7-27.9,12.1-31.2C320.6,153.2,314.1,168,314.4,173.8z"/>
	<path class="st0" d="M161.1,86.5c10.4,0.3,17.7,11.6,21.6,18.3C178.2,98.5,172.9,89.8,161.1,86.5z"/>
	<path class="st0" d="M304.1,145.8c-4.1-9.6,2.9-21,7.4-27.4C307.6,125.2,302,133.7,304.1,145.8z"/>
	<path class="st0" d="M298.7,78.1c-0.7,10.4-13.2,18.2-21.2,20.3C285,94.5,295.1,89.8,298.7,78.1z"/>
	<path class="st0" d="M334,200.4c-4.7-9.3,4.8-21,7.5-28.5C339.6,179.4,331.2,188.5,334,200.4z"/>
	<path class="st0" d="M131,86.6c10.1,2.4,15.1,14.8,17.6,22.2C145.4,101.7,141.9,92.1,131,86.6z"/>
	<path class="st0" d="M94.5,102.3c9.1-5.1,21.2,0.7,28,4.5C115.3,103.7,106.2,99,94.5,102.3z"/>
	<path class="st0" d="M161.7,94.6c10.6,3.7,14.6,18.5,24.2,24.5C176.1,116.5,176,104.5,161.7,94.6z"/>
	<path class="st0" d="M301.5,180.6c-5.3-9.9,1.9-23.5-1-34.4C305.8,154.7,297.8,163.6,301.5,180.6z"/>
	<path class="st0" d="M192.6,163.4c-10.7,3.3-22.8-6.2-34-5.4C168,154.3,175.2,163.9,192.6,163.4z"/>
	<path class="st0" d="M348,147.3c5.3,9.9-0.5,23.7,2.4,34.6C345,173.4,351.7,164.2,348,147.3z"/>
	<path class="st0" d="M161.8,135.4c-7.9-8-5.1-23-11-32.6C158.4,109.4,153.3,120.3,161.8,135.4z"/>
	<path class="st0" d="M132.7,108.1c9,6.7,7.5,22.3,14.8,30.9C139,133.6,143.3,121.9,132.7,108.1z"/>
	<path class="st0" d="M370.1,101.4c6.3,9.3,0.7,23.6,4.7,34.1C368.5,127.5,375.6,117.8,370.1,101.4z"/>
	<path class="st0" d="M365.6,139c3.5,10.7-5.8,22.9-4.8,34.1C357,163.8,366.4,156.4,365.6,139z"/>
	<path class="st0" d="M188.6,125.8c-14.9-3.1-19.6-12.3-27.3-15.1C170.3,115.6,175.1,124.8,188.6,125.8z"/>
	<path class="st0" d="M627.7,88.4c7.3,10.8,11.9,14.6,15.2,21.5C640.8,101.9,631.4,92.2,627.7,88.4z"/>
	<path class="st0" d="M164.8,119.1c0,0-0.6,0-0.9,0.1c-0.1-0.3-1.8-7.6-2.1-8C162.2,111.3,164.1,116,164.8,119.1z"/>
	<path class="st0" d="M92.7,126.7h1c1.4-2,3.4-3.6,6-5.9C96,123.3,94.2,124.5,92.7,126.7z"/>
	<path class="st0" d="M464.8,65.1c-4.2,10.2-12.3,15.4-22.3,15.9C451.3,79.7,459.3,74.3,464.8,65.1z"/>
	<path class="st0" d="M431.8,82.8c-5.2-4.2-11.2-18.4-8.6-24.5C423,66,427.9,77,431.8,82.8z"/>
	<path class="st0" d="M425.4,44.7c2.4,12.8,1.8,18.7,4.3,25.9C425.5,63.5,425.4,50,425.4,44.7z"/>
	<path class="st0" d="M429.7,45.2c-0.1,3.8,1,12.9,3.1,15C431.5,57.7,430.6,49.6,429.7,45.2z"/>
	<path class="st0" d="M418.7,59.5c0.2,3.8,2.1,12.8,4.3,14.7C421.6,71.8,419.9,63.8,418.7,59.5z"/>
	<path class="st0" d="M405.9,69.8c4.1,14.6,12,21.8,15.3,29.3C415.7,90.4,407.9,83.2,405.9,69.8z"/>
	<path class="st0" d="M412,69.5c3.6,11.3,5.4,18.3,11,22.9C417.7,89.5,413.1,83.4,412,69.5z"/>
	<path class="st0" d="M437,92.6c-7.8-0.8-23.5-19.7-23.5-26.3C416.3,73.5,428.8,89.6,437,92.6z"/>
	<path class="st0" d="M463.6,53.4c0.8,3.2,0.7,8-1.3,10.4C463.4,61,463.5,57.6,463.6,53.4z"/>
	<path class="st0" d="M434,59c0.8,6.9,10.6,14.8,16.5,10.2C444,71.4,436.3,65.6,434,59z"/>
	<path class="st0" d="M456,73c-10.3,5-16.1,3.7-21.1-1.9C439.5,80,450.8,77.2,456,73z"/>
	<path class="st0" d="M460.8,48.9c3.7,9.8-2.4,22.7-12,24.7C456.9,69.9,462.8,61.3,460.8,48.9z"/>
	<path class="st0" d="M440.1,91.2c-8.7-12.5-5.7-22.4-9.4-29.8C433.9,71.2,431,81.2,440.1,91.2z"/>
	<path class="st0" d="M474.8,80.1c0.3-4.1,3.1-13,8.3-16.4c-3.8,3.9-7.4,11.7-7.3,15.7C475.9,80.5,475.1,79.3,474.8,80.1z"/>
	<path class="st0" d="M527.2,46.7c2.3-3.5,6.9-6.4,13.1-6.7c-6.2,1.3-9.8,3.4-11.7,6.9C528,48,527.9,46.2,527.2,46.7z"/>
	<path class="st0" d="M456,105.4c9.7,3.8,12.8,16.8,14.2,24.5C468.1,122.5,466,112.4,456,105.4z"/>
	<path class="st0" d="M446.5,121.4c1.2,4.3,1.2,14.8-1.4,18.1C446.5,135.8,446.7,127.1,446.5,121.4z"/>
	<path class="st0" d="M551,130.9c-3.2,3-12.5,8-16.7,7.3C538.3,137.7,546.2,133.7,551,130.9z"/>
	<path class="st0" d="M528.4,123.9c-4.3,1.1-14.8,0.9-18.1-1.8C514,123.6,522.8,124,528.4,123.9z"/>
	<path class="st0" d="M580.7,121.2c4.2-1.4,14.8-1.9,18.2,0.6C595.1,120.6,586.3,120.8,580.7,121.2z"/>
	<path class="st0" d="M504.3,122.6c-4.2-1.2-13.3-6.6-14.8-10.6C492,115.2,499.4,119.9,504.3,122.6z"/>
	<path class="st0" d="M494.4,139.2c-4.2-1.3-13.1-7-14.5-11C482.2,131.4,489.5,136.3,494.4,139.2z"/>
	<path class="st0" d="M547.2,124.8c-3.3,2.9-12.7,7.7-16.9,6.8C534.3,131.2,542.2,127.5,547.2,124.8z"/>
	<path class="st0" d="M478.8,117.2c-10.3-8-15.9-10.1-21.1-15.7C462.2,108.5,474.2,114.8,478.8,117.2z"/>
	<path class="st0" d="M547.5,107.5c-2.1,2.6-5.9,5.4-9.1,5.3C541.4,112,544.1,110,547.5,107.5z"/>
	<path class="st0" d="M468.3,75.9c1.2-3.6,4.1-8.2,7.8-9.3C473.1,68.6,470.9,71.8,468.3,75.9z"/>
	<path class="st0" d="M545.1,130.8c2.7-2,14.6-8.7,21.6-5.8C558.4,123.7,549,129.2,545.1,130.8z"/>
	<path class="st0" d="M541.8,114.6c-2.8,1.7-15.4,7.2-22.1,3.7C527.8,120.4,537.7,115.8,541.8,114.6z"/>
	<path class="st0" d="M505.9,54.4c3.2-0.9,16.8-2.8,22.3,2.3C520.8,52.6,510.1,54.3,505.9,54.4z"/>
	<path class="st0" d="M576.1,50.2c2.6,2.1,12,12,11,19.5C586.3,61.3,578.6,53.6,576.1,50.2z"/>
	<path class="st0" d="M443.9,88.3c2.1,3,6.1,6.5,5.4,11.4C448.6,96.5,444.6,91.2,443.9,88.3z"/>
	<path class="st0" d="M476.9,62.7c2.9-2.8,6-7.7,11.8-7.7C484.6,55.8,479.6,61.2,476.9,62.7z"/>
	<path class="st0" d="M481.4,112.8c2.9,2.3,7.7,4.4,8.5,9.3C488.2,119.3,482.9,115.3,481.4,112.8z"/>
	<path class="st0" d="M538.8,66.7c3.6,0.5,8.9-0.1,12,3.7C548,68.8,541.4,68.1,538.8,66.7z"/>
	<path class="st0" d="M537.4,37.7c3.6-0.6,8.5-2.6,12.6,0.1C546.8,36.3,540.3,37.8,537.4,37.7z"/>
	<path class="st0" d="M587,125.6c4-0.2,9.6-2,14,1.7C597.5,126,594,125.7,587,125.6z"/>
	<path class="st0" d="M486.4,92.7c4.9-5.5,31.1-12.7,37.4-7C515.3,83.3,493.1,87,486.4,92.7z"/>
	<path class="st0" d="M573.1,105.7c7.7,0.3,31.8,10.8,32.8,19.2C601.1,117.5,582.1,107.2,573.1,105.7z"/>
	<path class="st0" d="M563.1,42.5c6.8,2.7,22.7,24.8,19.5,32.7C582,66.3,570.8,46.8,563.1,42.5z"/>
	<path class="st0" d="M650.1,124.2c0.5,7.3-12.9,31-21.3,31.5C636.5,151.3,649.5,133,650.1,124.2z"/>
	<path class="st0" d="M521,121.1c-7.3,0.4-29.6-13.2-30.1-21.6C495.3,107.2,512.2,119.4,521,121.1z"/>
	<path class="st0" d="M471.6,91.7c5.9,2,13.3-0.4,17.2-5C484.4,90.3,478.4,92.7,471.6,91.7z"/>
	<path class="st0" d="M446,113.9c-1.6-7-2.4-14.4-8.4-17.3C440.1,100.9,443,103.5,446,113.9z"/>
	<path class="st0" d="M507.7,110.7c6.5,3.1,12.9,6.9,18.8,4C521.6,114.1,517.8,114.7,507.7,110.7z"/>
	<path class="st0" d="M634.6,114.3c1.7,8.2,4.3,16.4-0.9,22.3C635.2,132,637,127.7,634.6,114.3z"/>
	<path class="st0" d="M507.8,52.4c-7.2,0.5-14.6,0.3-18.3,5.8C493.8,55.7,497.1,53.8,507.8,52.4z"/>
	<path class="st0" d="M492.2,83.6c-3.8,0.7-12.9,1.1-15.3-0.5C479.6,83.9,487.7,83.5,492.2,83.6z"/>
	<path class="st0" d="M526.3,53.1c3.8,0.4,12.6,2.7,14.5,5C538.4,56.6,530.5,54.6,526.3,53.1z"/>
	<path class="st0" d="M644.7,105.1c2.2,4.6,1.7,10.5-0.8,13.9C645.2,115.3,645.9,110.4,644.7,105.1z"/>
	<path class="st0" d="M568.7,134.8c2.8-4.8,8.7-7.9,13.3-7.6C577.8,128.2,572.8,130.6,568.7,134.8z"/>
	<path class="st0" d="M623,121.2c3.7,4.1,4.9,10.6,3.3,15C626.5,131.8,625.7,126.4,623,121.2z"/>
	<path class="st0" d="M432.4,166.1c0.1,4.4-1.2,10.6-4.5,13.2C430.1,176.1,431.2,171.6,432.4,166.1z"/>
	<path class="st0" d="M444.8,161c0.8,4.3,1,8.4-1.9,11.5C444.6,168.9,444.6,166.6,444.8,161z"/>
	<path class="st0" d="M472.4,126.5c1.8,4,3,10.2,1,13.9C474.1,136.5,473.4,132,472.4,126.5z"/>
	<path class="st0" d="M450.4,132.6c1.4,4.2-1,18.7-3.5,22.1C448.1,151,450.8,138.2,450.4,132.6z"/>
	<path class="st0" d="M451.6,158.9c2.5-3.6,4.7-9.6,3.3-13.6C455,149.4,453.5,153.7,451.6,158.9z"/>
	<path class="st0" d="M532.6,64.4c-3.9,0-9.9-1.3-11.5-2.8C522.9,62.3,528.8,62.8,532.6,64.4z"/>
	<path class="st0" d="M546.1,123.3c3.3-1.6,11.6-1.8,13.4-2.2C557.7,120.9,549.2,120.9,546.1,123.3z"/>
	<path class="st0" d="M560.1,51.4c2.1,3.3,4.2,9.1,3.8,11.2C563.5,60.7,560.8,55.5,560.1,51.4z"/>
	<path class="st0" d="M476.3,85.9c-3.8,0.6-19.8-0.8-25.2-3.4C460.1,83.7,472.1,85.6,476.3,85.9z"/>
	<path class="st0" d="M551.2,72.4c-2.8,0.5-14.9-0.6-19-2.5C539,70.8,548.1,72.1,551.2,72.4z"/>
	<path class="st0" d="M643.7,45.1c2.9,5.7-9.5,25.1-15.4,25.6C632.2,69.1,644.1,52.2,643.7,45.1z"/>
	<path class="st0" d="M610.5,70.7c-2.8,0.5-14.9-0.6-19-2.5C598.3,69.1,607.4,70.4,610.5,70.7z"/>
	<path class="st0" d="M594.9,81.8c-2.8,0.5-14.9-0.6-19-2.5C582.7,80.2,591.7,81.6,594.9,81.8z"/>
	<path class="st0" d="M522.4,88c3.8,0,19.4,4.1,24.3,7.6C538,92.8,526.5,89,522.4,88z"/>
	<path class="st0" d="M526.9,134.4c-3.8,0.6-19.8-1.1-25.1-3.8C510.7,131.9,522.7,134,526.9,134.4z"/>
	<path class="st0" d="M514.6,73c3.8-0.6,23.4,1.2,28.8,3.8C534.4,75.6,518.8,73.4,514.6,73z"/>
	<path class="st0" d="M611.4,73.9c-3.7,0.9-22,2-27.5-0.1C593,74.3,607.3,73.9,611.4,73.9z"/>
	<path class="st0" d="M580.4,63.1c-3.7,0.9-23.5,0.6-29-1.6C560.5,62.1,576.2,63.1,580.4,63.1z"/>
	<path class="st0" d="M456.8,112.1c2.5,2.6,9.6,14.2,5,19.9C463.5,126.4,459.2,117.1,456.8,112.1z"/>
	<path class="st0" d="M484.7,52.1c2.9-2.2,24-8,30.5-1.9C505.9,46.4,489.9,50.3,484.7,52.1z"/>
	<path class="st0" d="M409,124.8c4.1,12.4,7.5,17.3,8.8,24.8C417.9,141.2,411.5,129.4,409,124.8z"/>
	<path class="st0" d="M437.8,129.9c1.9,15.4,5.1,21.9,4.7,31C444.9,151.3,439.7,135.9,437.8,129.9z"/>
	<path class="st0" d="M458.1,143.7c-0.7,11.4,0.3,13.6-4.5,22.3C459.3,160.6,459.2,150.3,458.1,143.7z"/>
	<path class="st0" d="M560.8,118.5c7.2,4.4,15.9,5.6,19.9-1.3C576.1,121,567.8,121.7,560.8,118.5z"/>
	<path class="st0" d="M631.9,140.4c2-8.1,0.4-18.3-7.4-20C629.3,121.4,632.8,131.1,631.9,140.4z"/>
	<path class="st0" d="M480.8,108.3c-11.2,0.5-25.4-13.3-30-15C457.3,93.4,462.3,104.3,480.8,108.3z"/>
	<path class="st0" d="M421.3,94.5c9.3,12,10.4,22.6,14.4,29.7C432.1,114.6,430.9,104.1,421.3,94.5z"/>
	<path class="st0" d="M421.3,85.1c6.9,9.6,11.5,15.2,11.8,22.5C433.9,101.6,431.8,94.3,421.3,85.1z"/>
	<path class="st0" d="M465,74.9c6.3-10,9.7-16.4,16.2-19.5C475.4,56.9,469.5,61.6,465,74.9z"/>
	<path class="st0" d="M438.5,149.2c-1,11.8,0,20.4-4.5,26.2C438.5,171.4,440.5,163,438.5,149.2z"/>
	<path class="st0" d="M472.8,118.5c5.3,11.1,4.8,25.7,3.4,32.8C478.5,145.7,480.7,130,472.8,118.5z"/>
	<path class="st0" d="M640.3,116.4c1.6,12.2-3.5,25.9-7,32.2C637.2,144.1,644.3,129.8,640.3,116.4z"/>
	<path class="st0" d="M640,32c1.6,12.2-3.5,25.9-7,32.2C636.9,59.6,643.9,45.4,640,32z"/>
	<path class="st0" d="M457.8,93.4c7.5,3.3,9.8,4.1,18,2C466.3,96.5,460.9,94.2,457.8,93.4z"/>
	<path class="st0" d="M588.6,116.3c-7.5-3.4-9.7-4.4-17.9-2.5C580.1,113,585.5,115.4,588.6,116.3z"/>
	<path class="st0" d="M633.6,169.1c7.2-3.9,9.3-5.1,12.7-12.9C641.3,164.2,636.1,167.2,633.6,169.1z"/>
	<path class="st0" d="M546.3,110.3c5.9,4.5,7.7,5.7,15.3,5.7C553.2,114.8,548.8,111.6,546.3,110.3z"/>
	<path class="st0" d="M609.8,137.6c1.2-7.3,1.5-9.5-2.1-16.2C610.6,129.4,609.8,134.8,609.8,137.6z"/>
	<path class="st0" d="M616.1,166.7c5.6-2.4,7.2-3.1,10.4-8.7C622.2,163.7,618.1,165.5,616.1,166.7z"/>
	<path class="st0" d="M640.4,184.9c0.5-6,0.6-7.8-2.8-13.3C640.5,178.1,640.2,182.5,640.4,184.9z"/>
	<path class="st0" d="M453.3,141.8c4.2-7,5.4-9.1,4.5-17.5C457.5,133.7,454.5,138.9,453.3,141.8z"/>
	<path class="st0" d="M640.8,78.7c-1.1-1.8-3-3.6-4.7-4.9c0,0,0.1-0.3,0.2-0.4C638.5,74.8,640,76.1,640.8,78.7z"/>
	<path class="st0" d="M516.1,136.6c7.5,2.7,21-1.4,24.8-5.5C531.8,136.3,522.8,137.5,516.1,136.6z"/>
	<path class="st0" d="M621.3,166.2c7.8-1,18-10.8,19.6-16.2C635.1,158.8,627.8,164,621.3,166.2z"/>
	<path class="st0" d="M588.5,123.4c-10.5-2.3-31.9,10.2-37.9,10.5C556.5,136.5,570.4,124.2,588.5,123.4z"/>
	<path class="st0" d="M484,69c1.5-2.9,6.1-9.4,9.3-9.9C490.6,60.4,486.8,65.8,484,69z"/>
	<path class="st0" d="M501.6,132.4c-3.7-0.9-17.9-8.5-21.9-12.9C487.5,124.1,497.9,130.5,501.6,132.4z"/>
	<path class="st0" d="M426.8,155.2c4.8-5,7.6-26.6,4-32.1C432.3,130.6,430.4,149.2,426.8,155.2z"/>
	<path class="st0" d="M453.2,130.6c2.5-6.4-3.1-27.5-8.5-31.3C448.9,105.7,454.3,123.7,453.2,130.6z"/>
	<path class="st0" d="M492.5,121.1c4.5,5.2,24.7,11,30.5,7.9C515.4,129.9,498.1,125.2,492.5,121.1z"/>
	<path class="st0" d="M540.6,88c-4.4-5.7-24.9-11.2-31.1-7.3C517.4,79.3,535.1,83.6,540.6,88z"/>
	<path class="st0" d="M548.7,98.9c3.5,6.3,23,14.7,29.7,11.8C570.4,110.9,553.6,104.1,548.7,98.9z"/>
	<path class="st0" d="M592.2,95.2c-2.2-6.8-19.7-18.9-26.9-17.3C573.3,79.2,588.4,89.1,592.2,95.2z"/>
	<path class="st0" d="M460.6,157.2c6.1-4.9,8.8-29.4,5.1-34.8C467.4,129.8,465.8,150.1,460.6,157.2z"/>
	<path class="st0" d="M528.9,50.6c-4.7-6.2-29.1-9.6-34.7-6.1C501.7,43.1,522,45.3,528.9,50.6z"/>
	<path class="st0" d="M434.1,97.7c5.5,4.9,12.9,30.1,7.3,36.3C443.8,125.5,439.8,104.4,434.1,97.7z"/>
	<path class="st0" d="M546.3,119.8c-6.6,8.1-19.9,7.2-27.7,6.2C526.4,126.2,536.6,127.2,546.3,119.8z"/>
	<path class="st0" d="M417.9,121.2c7.5,7.2,6.7,23.6,3.1,31C422.9,144,424.5,131.5,417.9,121.2z"/>
	<path class="st0" d="M565.2,71.2c-11.5,1.1-21.7-10.9-33.1-12.4C542.3,57,547.6,68.1,565.2,71.2z"/>
	<path class="st0" d="M566.9,133.6c-5.9,4.5-15.6,1.4-22.4,4.5C549.5,133.6,556.2,137.9,566.9,133.6z"/>
	<path class="st0" d="M541.5,111.9c0.2-0.2,0.4-0.3,0.6-0.5c1.7,1.6,3.1,2.7,4.7,3.6C544.6,114.6,542.9,113.4,541.5,111.9z"/>
	<path class="st0" d="M631.9,172.1c-0.1,0.2-0.3,0.5-0.4,0.7c1.9,1.4,3.2,2.6,4.4,4C635.2,174.6,633.7,173.2,631.9,172.1z"/>
	<path class="st0" d="M568.1,62.9c-0.2,0-0.4,0-0.6,0c-0.1-1.7-0.3-2.9-0.7-4.2C567.8,60,568.1,61.4,568.1,62.9z"/>
	<path class="st0" d="M595.5,125.7v-0.2c-4.7,1.8-14.9,5.3-22.7,8c5.5-0.2,18.3-5.2,22.9-7.8C595.6,125.7,595.5,125.7,595.5,125.7z"
		/>
	<path class="st0" d="M631.6,118.9c0-3.8-3.3-11.5-6.7-13.8C627.2,108,630.3,114.2,631.6,118.9z"/>
	<path class="st0" d="M638.6,121.9c0.7-8.2,0.8-10.6-3.8-17.7C638.8,112.8,638.4,118.8,638.6,121.9z"/>
	<path class="st0" d="M642.1,97.2c-3.2-6.7-4.2-8.6-11-12C638,90.1,640.4,94.9,642.1,97.2z"/>
	<path class="st0" d="M645.8,87.1c1.7,3.4,4.9,19.2,4,25.1C648.4,103.2,646.7,91.2,645.8,87.1z"/>
	<path class="st0" d="M635.8,78.1c2.7,2.6,5.7,10.3,6.7,11.8C642.1,88.1,639.1,80.2,635.8,78.1z"/>
	<path class="st0" d="M647.5,100.1l0.7-0.8L647.5,100.1z"/>
	<path class="st0" d="M571.8,98.5c-3.8-0.4-26.1-11-30.6-15C549.5,87.2,567.9,97,571.8,98.5z"/>
	<path class="st0" d="M548.5,90.5c4.8,6.9,21.6,14.3,29.4,11.1C572.5,103,556.6,98,548.5,90.5z"/>
	<path class="st0" d="M618.5,144.1c4-7.4,3.6-24.3-2.9-29.8C619.2,122.4,621.4,135.7,618.5,144.1z"/>
	<path class="st0" d="M615.3,122.4c4.4,9.5-2.4,21.4-6.7,27.9C612.2,143.4,617.7,134.4,615.3,122.4z"/>
	<path class="st0" d="M578.4,74c-11.3,0.9-18.6,1.4-25.2-3.1C557.6,75,564.8,77.4,578.4,74z"/>
	<path class="st0" d="M594.8,109.9c10,6.3,16.3,9.8,19.4,16.4C612.7,120.5,608,114.5,594.8,109.9z"/>
	<path class="st0" d="M604,104.3c-10.7-5.1-17.4-7.8-21.2-13.9C584.9,96,590.3,101.4,604,104.3z"/>
	<path class="st0" d="M559.6,66.5c7.8,2.5,10.1,3.1,18.1,0.2C568.4,68.6,562.7,66.9,559.6,66.5z"/>
	<path class="st0" d="M608.3,112.3c-6.8-4.6-11-6.3-19.4-5.7C598.3,107.3,605.4,110.9,608.3,112.3z"/>
	<path class="st0" d="M598.1,161.3c6.5-3.5,9.2-2.6,13.1-10.4C605.9,158.9,600.4,159.5,598.1,161.3z"/>
	<path class="st0" d="M609.9,71.9c8-0.7,10.4-0.9,17.7-7C618.9,70.6,613,71.1,609.9,71.9z"/>
	<path class="st0" d="M646.9,46c-0.8-8-1.2-10.4-7.4-17.5C645.4,37.1,646.1,42.9,646.9,46z"/>
	<path class="st0" d="M607,66.3c6.4,1.9,21.5-1.3,25-6.9C625.9,64,614,66.2,607,66.3z"/>
	<path class="st0" d="M561.2,86c3.7,9.8,22.4,15.4,30.1,16.9C583.8,100.7,568,96.1,561.2,86z"/>
	<path class="st0" d="M652.9,88.6c2,2.7,3.8,11.1,2.9,14.1C655.7,99.7,654.5,92.5,652.9,88.6z"/>
	<g>
		<path class="st0" d="M520.8,66.4c-3-0.6-2.5-0.5-4.9-0.7c0-0.2,0.1-0.5,0.2-0.7C517.2,65.3,518.2,65.4,520.8,66.4z"/>
	</g>
	<path class="st0" d="M559.9,89.7c-3.5-6.9-27-14.6-33-12.2C534.5,77.5,554.1,83.2,559.9,89.7z"/>
	<path class="st0" d="M543.6,74.8c10.4-0.4,20.8,8,25.1,14.4C563.8,83.2,555.6,77.2,543.6,74.8z"/>
	<path class="st0" d="M627.1,67.6c-6.1,8.4-25.2,12.8-32.9,12.3C601.9,79.6,617.8,75.6,627.1,67.6z"/>
	<path class="st0" d="M561.9,78.3c9.4,2,14.2,15.1,23,19.3C576.4,96.5,575.2,85.3,561.9,78.3z"/>
	<path class="st0" d="M575.5,63.5l-0.9-0.4c-0.4-2.4-1.5-4.7-2.8-8C574.1,58.9,575.3,60.8,575.5,63.5z"/>
	<path class="st0" d="M416.2,111.1C415.2,96,406.6,90,405,82C408.5,91.6,417,97.5,416.2,111.1z"/>
	<path class="st0" d="M418.9,100.5c5.3,10.6,8.9,16.8,8.1,24C428.8,118.8,427.9,111.3,418.9,100.5z"/>
	<path class="st0" d="M402.4,106.4c6.6,9.4,10.9,12.1,12.6,21.9C416,120.4,407.3,110.9,402.4,106.4z"/>
	<path class="st0" d="M411.4,103.3c2,3.2,8.5,10.1,7.6,15.1C418.4,115.1,412,106.3,411.4,103.3z"/>
	<path class="st0" d="M620.9,161.3c-3.3,2.1-11.8,6.9-15.3,6.3C608.9,167.2,616.2,163,620.9,161.3z"/>
	<path class="st0" d="M628.9,146.1c-1.5,4.1-7.7,12.7-11.7,13.9C620.5,157.8,625.8,150.7,628.9,146.1z"/>
	<path class="st0" d="M640.1,166.7c-2.7,3.5-10.1,7.8-14.3,7.7C629.6,173.3,635.7,170.1,640.1,166.7z"/>
	<path class="st0" d="M653,100.7c1.4,4.2,2.3,16.6-0.2,20C654,116.9,653.5,106.3,653,100.7z"/>
	<path class="st0" d="M648,140.4c-0.5,5.4-5.2,17.8-9.8,20.5C641.6,157.2,645.7,147.1,648,140.4z"/>
	<path class="st0" d="M629.7,130.7c0.3,4.4-1.9,14.8-5.2,17.4C626.7,144.8,628.7,136.2,629.7,130.7z"/>
	<path class="st0" d="M640.9,74.1c2.5,2.2,11.6,12.4,10.4,19.8C650.7,85.6,643.3,77.6,640.9,74.1z"/>
	<path class="st0" d="M647.4,118.3c-0.5,3.6,0,8.9-3.9,12C645.2,127.5,646,120.9,647.4,118.3z"/>
	<path class="st0" d="M621.6,168.8c-3.4,1.3-7.8,4.3-12.4,2.5C613.3,171.7,619.2,169,621.6,168.8z"/>
	<path class="st0" d="M642.8,61.3c-0.1,5.5-21.2,21.2-31.8,19.7C623.5,79.6,637.6,68.6,642.8,61.3z"/>
	<path class="st0" d="M598.5,61.3c6.9,1.9,13.9,4.6,19.2,0.7C612.7,62.2,609.1,63.5,598.5,61.3z"/>
	<path class="st0" d="M655.9,122c0.2,3.8-2.8,19.6-5.9,24.7C652.1,137.9,655.2,126.1,655.9,122z"/>
	<path class="st0" d="M627.5,57c6.7-5.1,11-12.8,6-19C635.4,43.8,633.1,51.7,627.5,57z"/>
	<path class="st0" d="M603.6,67.2c-11.2-1.3-23-17.1-27.3-19.6C582.8,48.7,586,60.3,603.6,67.2z"/>
	<path class="st0" d="M608.7,158.4c5.7-5.9,7.3-7.7,8.2-16.1C614.6,151.4,610.5,155.8,608.7,158.4z"/>
	<path class="st0" d="M612.1,174.3c7.8,1.1,20.2-5.8,23.2-10.5C627.3,170.8,618.8,173.9,612.1,174.3z"/>
	<path class="st0" d="M604.4,163.6c6.6-2.1,20.1-18.1,19.6-24.7C621.7,146.2,610.4,160.2,604.4,163.6z"/>
	<path class="st0" d="M547.1,39.9c10.4,0.1,18,11.1,22,17.9C564.4,51.6,558.9,42.9,547.1,39.9z"/>
	<path class="st0" d="M603.7,106.3c7.5,0.2,14.8,6.6,20.2,10.7C617.2,113.9,614.7,109.7,603.7,106.3z"/>
	<path class="st0" d="M409.8,148.3c-1.5-17.6-7.5-30.7-20.5-43.9C398.8,116.4,407.5,131.2,409.8,148.3z"/>
	<path class="st0" d="M182.7,171.5c17.5,2,31.5-1.3,47.1-11.3C216.2,167,199.9,172.7,182.7,171.5z"/>
	<path class="st0" d="M411.8,148.4c4.7,28.7-4.5,54.2-38.9,64.9C407.9,200.5,412.7,177.4,411.8,148.4z"/>
	<path class="st0" d="M176.5,181.6c28.5,1.7,64.6-16.1,77.1-43.9C236,166.5,207.8,179.9,176.5,181.6z"/>
	<path class="st0" d="M314.7,78.5c3.6,9.8-4.1,20.8-8.9,26.9C310,98.9,316.1,90.7,314.7,78.5z"/>
	<path class="st0" d="M316.9,103.7c4.4-5.1,7.9-20.1,4.3-25.6C322.7,85.7,319.8,97.4,316.9,103.7z"/>
	<path class="st0" d="M304.2,87.6c-0.1,4.4-3.1,14.5-6.6,17C300,101.5,302.7,93.1,304.2,87.6z"/>
	<path class="st0" d="M305.1,68.8c-4.1,12.4-4.3,18.3-7.7,25.1C302.4,87.4,304.3,74.1,305.1,68.8z"/>
	<path class="st0" d="M309.7,89.7c0.1,3.3-0.9,8-3.4,9.9C308,97.2,308.8,93.9,309.7,89.7z"/>
	<path class="st0" d="M295.4,92.6c-2.6,2.6-5.3,7.2-10.2,7.4C288.1,98.6,292.7,93.8,295.4,92.6z"/>
	<path class="st0" d="M289.2,150.9c-2.5-6.9,3.5-33.4,11.5-36.3C294.5,121,287.3,142.3,289.2,150.9z"/>
	<path class="st0" d="M309.2,137.2c-0.7-7.3,12.2-30.1,20.6-30.8C322.2,111,310.7,128.4,309.2,137.2z"/>
	<path class="st0" d="M299.5,121.3c4.8-1.8,8.5-6.5,8.9-10.7C306.8,114.3,303.9,118.3,299.5,121.3z"/>
	<path class="st0" d="M287.4,118.4c4.7-5.4,10.1-10.6,8.9-17C294.4,105.9,294,109.8,287.4,118.4z"/>
	<path class="st0" d="M200.6,86.5c5.9-5.7,7.7-7.3,16.1-8.2C207.5,80.6,203.2,84.6,200.6,86.5z"/>
	<path class="st0" d="M268.1,97.1c-1,4-4.1,7.9-9.9,10.3c4.5-3.2,8.1-5.8,8.7-9.7C267.1,96.4,267.7,97.8,268.1,97.1z"/>
	<path class="st0" d="M261.3,145.4c-1.8-3.8-1.7-8.5,1.3-14c-2.2,5.9-2.2,10.2-0.2,13.6C263,146,261.2,144.5,261.3,145.4z"/>
	<path class="st0" d="M191.4,79.6c-0.5,0.3-0.8-0.3-0.7-0.4c2.6-4,5.2-9.2,14.4-9.7C197.3,70.9,192.1,77.6,191.4,79.6z"/>
	<path class="st0" d="M253.1,144.2c-0.7,4.4-3.2,10.2-6.9,12.1C249,153.5,250.9,149.4,253.1,144.2z"/>
</g>
<g id="Details">
	<g>
		<path class="st3" d="M484.3,79.2c0,0,6.2-14.6,18.3-20.8c6.3-3.2,17.7,0,17.7,0s-5.1,12-14.7,17.2
			C495.9,80.9,484.3,79.2,484.3,79.2z"/>
		<path class="st1" d="M495.4,76c0,1.2-0.4,2.3-1,3.2c-1.2,0.4-1.6,0.4-3.7,0.4c-3.3,0-6.5-0.4-6.5-0.4s3.3-7.3,5.6-9
			C493,70.1,495.4,72.7,495.4,76z"/>
		<path class="st0" d="M492.9,76.7c0,0.9-0.3,1.7-0.8,2.4c-0.9,0.3-1.2,0.3-2.8,0.3c-2.5,0-5-0.3-5-0.3s2.5-5.4,4.3-6.7
			C491.1,72.4,492.9,74.3,492.9,76.7z"/>
		<path class="st1" d="M513.6,60.3c-0.4-1.1-0.4-2.3-0.1-3.4c1-0.8,6.7,1,6.7,1s-2.1,6.6-3.3,6.1C515.4,63.5,514.2,62.1,513.6,60.3z
			"/>
		<path class="st0" d="M516.4,59.7c-0.2-0.7-0.2-1.4,0-2.1c0.6-0.5,4.1,0.6,4.1,0.6s-1.3,4-2,3.8C517.5,61.6,516.7,60.8,516.4,59.7z
			"/>
		<path class="st0" d="M506.6,56.3c-11.7,2-20.2,18.6-23.2,22.6C478.3,79.6,460,78,460,78s18.7,4,36.7,1.4c12.5-1.8,21.2-15,24.2-20
			c5.3,0.1,16.6,4.4,16.6,4.4S518.2,54.3,506.6,56.3z M505.3,75.5c-9.2,5.1-20.3,3.4-20.3,3.4s5.9-14.1,17.5-20.1
			c6-3.1,16.8,0,16.8,0S514.5,70.4,505.3,75.5z"/>
	</g>
	<g>
		<path class="st3" d="M550.3,44.8c6.2,2.2,9.3,11,8.3,15.2c-6.2,0-11.3-2-15.8-4.3c-3-1.5-7.5-4.5-12-7.3
			C537,44.3,544.1,42.6,550.3,44.8z"/>
		<ellipse class="st1" cx="548.4" cy="50.2" rx="6" ry="5.9"/>
		<ellipse class="st4" cx="548.8" cy="49.3" rx="4.1" ry="4"/>
		<path class="st0" d="M532.7,47.6c-0.5,0.5-0.5,0.9,0,1.7l-1.8-0.7L532.7,47.6z"/>
		<path class="st0" d="M550.7,44c-8.1-3-17.5,2.1-19.8,4.3c-2.7-1.4-4.1-2.1-6.8-3.2c6.2,3.7,14.4,9.2,19.2,11.6s9.1,3.7,15.7,3.6
			C560,55.1,557.3,46.4,550.7,44z M558.6,59.9c-6.1,0-11.1-2-15.5-4.3c-3-1.5-7.4-4.5-11.8-7.1c6.1-4.2,13.1-5.8,19.2-3.6
			S559.6,55.8,558.6,59.9z"/>
		<path class="st0" d="M531.8,48.2c-0.2,0.2-0.2,0.4,0,0.7c0,0,0.6,0.3,0.8,0.4s0.6,0.5,0.8,0.6l-2.1-0.9l-0.1-0.6L531.8,48.2z"/>
	</g>
	<g id="r._mouth">
		<path class="st0" d="M640,70.1c-14.2,11.7-32.1,15.4-52,12.5c8,16.6,28.5,22,44.3,39.8c-0.6-1.2-1.2-2-2.5-3.7
			c0,0,7.5-14.9,8.3-26.3S633.4,76,633.4,76C635.9,74.6,638.2,72.4,640,70.1z"/>
		<path class="st3" d="M598.3,87.2c0.1-0.2-2.9-1.9-5.4-3.2c-1-0.1-1.9-0.2-2.9-0.4c0.5,1.1,1.1,2.1,1.7,3.1
			C594.5,87.1,598.2,87.5,598.3,87.2z"/>
		<path class="st3" d="M598.9,84.3c-1.6-0.1-3.2-0.2-4.8-0.3c2,1.3,7.2,4.5,7.4,4.3C601.7,88.1,600.4,86.2,598.9,84.3z"/>
		<path class="st3" d="M599.5,88.5c0-0.4-5.5-0.2-6.8-0.1c0.8,1.1,1.6,2.1,2.5,3.1C596.8,90.4,599.5,88.7,599.5,88.5z"/>
		<path class="st3" d="M602.3,90.7c-0.1-0.3-4.8,1.3-6.3,1.8c0.9,0.9,1.8,1.7,2.8,2.6C600,93.7,602.4,91,602.3,90.7z"/>
		<path class="st3" d="M599.9,96.2c1,0.8,1.9,1.5,2.9,2.3c1.1-1.5,3.2-4.6,3-4.8C605.7,93.3,601.5,95.4,599.9,96.2z"/>
		<path class="st3" d="M604.2,99.2c1,0.7,2,1.5,3.1,2.2c1.3-1.4,3.4-3.8,3.3-4C610.4,97.1,605.7,98.7,604.2,99.2z"/>
		<path class="st3" d="M613.6,99c-0.2-0.3-3.5,2.2-5.1,3.4c1,0.7,2,1.4,3,2.1C612.3,102.8,613.8,99.3,613.6,99z"/>
		<path class="st3" d="M616.9,101.2c-0.3-0.2-2.7,2.5-4,4.1c1,0.7,2,1.4,3,2.1C616.3,105.9,617.2,101.4,616.9,101.2z"/>
		<path class="st3" d="M619.8,104c-0.3-0.1-1.9,2.3-3,4.1c1,0.7,2,1.4,2.9,2.2C619.8,108.8,620.1,104.2,619.8,104z"/>
		<path class="st3" d="M623.1,106.9c-0.3-0.1-1.5,2.2-2.5,4.1c1,0.8,2,1.6,3,2.4C623.5,112,623.4,107,623.1,106.9z"/>
		<path class="st3" d="M627.3,109.9c-0.3-0.1-1.9,2.2-3,4c1,0.8,1.9,1.7,2.8,2.6C627.2,115.4,627.6,110.1,627.3,109.9z"/>
		<path class="st3" d="M627.3,108.9c-0.3,0.2,2.6,4.3,3.5,5.6c0.4-1,0.9-2.2,1.5-3.5C630.6,110.1,627.5,108.7,627.3,108.9z"/>
		<path class="st3" d="M628,105.9c-0.2,0.3,3.2,2.5,4.9,3.6c0.4-1.1,0.8-2.2,1.2-3.4C632.4,105.9,628.2,105.6,628,105.9z"/>
		<path class="st3" d="M629.4,101.4c-0.2,0.3,3.5,3,5,4.1c0.4-1.2,0.8-2.4,1.1-3.6C633.7,101.6,629.6,101.1,629.4,101.4z"/>
		<path class="st3" d="M630.7,99.5c0,0.3,3,0.9,5,1.4c0.3-1.2,0.6-2.3,0.8-3.5C634.9,97.8,630.7,99.1,630.7,99.5z"/>
		<path class="st3" d="M636.7,96.4c0.2-1.2,0.4-2.4,0.4-3.6l0,0c-1.7,0.3-5.9,1.2-5.9,1.5C631.1,94.6,634.7,95.8,636.7,96.4z"/>
		<path class="st3" d="M637.2,91.6c0-1.3,0-2.5-0.1-3.7c-1.8,0.3-5.6,1-5.7,1.3C631.3,89.6,635.4,91,637.2,91.6z"/>
		<path class="st3" d="M630.9,86.3c0,0.3,4.1,0.6,6,0.7c-0.2-1.3-0.5-2.5-0.8-3.5C634.5,84.2,630.9,85.9,630.9,86.3z"/>
		<path class="st3" d="M630,82.6c0,0.3,3.9,0.1,5.9,0c-0.5-1.3-1-2.3-1.5-3.1C632.7,80.5,629.9,82.3,630,82.6z"/>
		<path class="st3" d="M607.8,89.4c0.3,0,0.1-3.2-0.1-5.3c-1.2,0.1-2.4,0.2-3.6,0.2C604.9,85.6,607.4,89.4,607.8,89.4z"/>
		<path class="st3" d="M604.1,88.9c0.3-0.1-0.2-2.6-0.7-4.6c-1.2,0-2.5,0.1-3.8,0C600.6,85.4,603.7,89,604.1,88.9z"/>
		<path class="st3" d="M611.5,89.5c0.3,0,0.5-4,0.6-6c-1.2,0.2-2.4,0.3-3.7,0.5C609.1,85.3,611.1,89.5,611.5,89.5z"/>
		<path class="st3" d="M616.6,82.6c-1.1,0.3-2.2,0.5-3.4,0.7c0.5,1.9,1.2,4.8,1.5,4.9C615.1,88.3,616.1,84.6,616.6,82.6z"/>
		<path class="st3" d="M619.3,87.9c0.4,0.1,1.3-4.8,1.6-6.4c-1.2,0.4-2.4,0.7-3.7,1C617.8,84.2,619,87.8,619.3,87.9z"/>
		<path class="st3" d="M629.3,84.6c0.3-0.1-0.2-4.6-0.4-6.4c-1.1,0.6-2.3,1.1-3.4,1.6C626.4,81.1,628.9,84.7,629.3,84.6z"/>
		<path class="st3" d="M624.4,86.7c0.4,0,0.6-5.4,0.6-6.8c-1.2,0.5-2.4,0.9-3.7,1.3C622,82.7,624,86.7,624.4,86.7z"/>
		<path class="st3" d="M632.2,76.5c0,0,0.9,0.9,1.1,1.3c-1.4,1.5-3.4,3.6-3.6,3.4c-0.2-0.2,0.2-1.9,0.6-3.6L632.2,76.5z"/>
		<g>
			<path class="st0" d="M646.7,93.4c0,0,1.7,3.5,1.8,4.2c0.1,0.8,0.2,3.1-0.8,3.1s-3.4,1.2-3.4,1.2L646.7,93.4z"/>
			<path class="st1" d="M621.6,91.9c-4,1.1-5.5,4.3-3.3,7c2.2,2.8,9.2,6.9,14.5,6.6s11.7-2.3,13.6-6.2c1.3-2.4,0.8-4.1,0.3-6.1
				c0.3-1-0.5-2.7-0.8-3.6c-1.1-2.3-5.3-3-5.9-3.2s-2.5,0.3-1.5,1.8c1.1,1.5,2.7,1.5,3,3.2c0.4,1.8-0.6,4-2.7,4.2
				c-2.1,0.2-3.8-1.1-6.4-3.2s-1-4.8-5.4-5.4C622.2,86.5,621.6,91.9,621.6,91.9z"/>
			<path class="st0" d="M621.9,90.8c-0.3,1.5,2,3.7,5.7,6.4c-3.1-1.7-6.9-4-6.6-5.2L621.9,90.8z"/>
			<path class="st0" d="M637.6,99.5c2.6,0.7,4.7-0.1,6.5-2.4C642.1,98.9,639.9,99.8,637.6,99.5z"/>
			<path class="st0" d="M646.7,93.3c-0.2,0.7-0.4,1.2-0.8,1.6c0.5-0.1,0.8-0.6,1-1L646.7,93.3z"/>
			<path class="st0" d="M629.8,100.7c0,0,1.9-0.3,2,0.9s-1.6,2.1-2.9,1.8s-3-0.6-3.1-1.4s1.2-1,1.2-1s-0.7,0.5-0.7,1s2,1.1,3,1.2
				s1.8-0.6,1.9-1.5C631.3,100.8,629.8,100.7,629.8,100.7z"/>
			<path class="st0" d="M643,89.1c0,0-0.7-0.3-0.4-0.7c0.2-0.4,0.9-0.3,1.3,0s0.8,0.8,0.7,1c-0.1,0.3-0.6,0.1-0.6,0.1s0.3,0,0.4-0.2
				s-0.4-0.7-0.7-0.9c-0.3-0.2-0.7-0.2-0.9,0.1S643,89.1,643,89.1z"/>
			<path class="st5" d="M639.3,88.2c-0.5-0.5-1-1.1-1.1-1.1c-0.2,0.3-0.2,0.7,0.2,1.2c1.1,1.5,2.7,1.5,3,3.2
				c0.3,1.4-0.3,3.2-1.6,3.9l0,0c0,0,2.6-1.3,3.7-2.1c1.1-0.8-0.1-2.3-0.7-3.4C642.3,89,639.9,88.8,639.3,88.2z"/>
			<path class="st3" d="M648.3,98.9c0,1.3-0.5,1.8-1.1,1.5C647.7,100.4,648.2,99.8,648.3,98.9z"/>
			<path class="st3" d="M648,97c0.4,0.3,0.4,0.6,0.4,1.2C648.4,97.7,648.2,97.4,648,97z"/>
		</g>
	</g>
	<g>
		<path class="st0" d="M387.3,194.4c6.5-13.5-7.4-18-6.5-41.4c0.6-20.4,12.5-23.3,2.4-39.7c4.5,2.3,20.8,18.5,20.5,36.7
			C403.5,168.4,389.8,191.5,387.3,194.4z"/>
		<path class="st3" d="M389.7,128.3c1-0.3,3.8-0.5,5.1-0.6c-0.5-0.7-0.9-1.3-1.4-1.9C391.8,126.6,389.7,127.8,389.7,128.3z"/>
		<path class="st3" d="M387,121c0.5-0.2,1.4-0.3,2.3-0.4c-0.3-0.3-0.6-0.6-0.9-0.9C387.6,120.2,387,120.7,387,121z"/>
		<path class="st3" d="M392,176.8c0.8-0.1,2.4,0.2,3.8,0.4c0.3-0.7,0.6-1.4,0.9-2.1C394.9,175.5,392.2,176.2,392,176.8z"/>
		<path class="st3" d="M391.9,132.3c1-0.4,3.3-0.9,5-1.2c-0.4-0.7-0.8-1.4-1.3-2.1C393.9,130.2,391.8,131.7,391.9,132.3z"/>
		<path class="st3" d="M392.3,137.7c1.4-0.6,5.3-1.3,7.2-1.6c-0.5-1-0.9-2.1-1.4-3C395.8,134.5,392.2,136.9,392.3,137.7z"/>
		<path class="st3" d="M393.9,141c1.5-0.3,5.5-0.1,7.3,0c-0.3-1.1-0.7-2.1-1-3.2C397.6,138.7,393.9,140.2,393.9,141z"/>
		<path class="st3" d="M396.1,150.7c1.3-0.2,4.5,0.1,6.5,0.3c0-0.1,0-0.3,0-0.4c0-0.9,0-1.8-0.1-2.7
			C399.9,148.6,396.2,149.9,396.1,150.7z"/>
		<path class="st3" d="M396.9,160.3c1-0.1,2.8,0,4.5,0.1c0.2-0.8,0.3-1.7,0.5-2.5C399.6,158.7,397,159.6,396.9,160.3z"/>
		<path class="st3" d="M396.9,144.3c0.4,0.9,2.8,1.1,5.3,1.2c-0.2-1.1-0.1-1.4-0.6-2.5C399.7,143.7,398.4,144.2,396.9,144.3z"/>
		<path class="st3" d="M394.6,153.4c0.2,0.9,5.2,2.3,7.6,2.9c0.2-1.2,0.3-2.4,0.3-3.6C401,152.9,396.3,153.6,394.6,153.4z"/>
		<path class="st3" d="M383.8,169.7c0.3,0.9,0.6,1.9,0.9,2.7c1.5-0.9,4.3-2.4,5.5-2.7C389.8,169.1,386.1,169.4,383.8,169.7z"/>
		<path class="st3" d="M381.9,158.6c0.1,1.1,0.2,2.3,0.3,3.3c1.3-0.9,4-2.7,5.2-3.1C386.9,158.1,384.1,158.4,381.9,158.6z"/>
		<path class="st3" d="M381.9,154.6c0,0.6,0,1.2,0,1.8c1.5-0.4,3.9-1.1,4.9-1.2C386.6,154.7,383.9,154.6,381.9,154.6z"/>
		<path class="st3" d="M382.8,145.2c-0.2,1-0.4,2.1-0.5,3.2c1.9-0.7,5.3-1.9,6.7-2C388.7,145.7,385.4,145.3,382.8,145.2z"/>
		<path class="st3" d="M389.1,163.5c-1.3,0.4-4.5,0.8-6.5,1c0.2,1.1,0.4,2.1,0.7,3.1C385.6,166.4,389.1,164.4,389.1,163.5z"/>
		<path class="st3" d="M390,173.8c-0.9,0.3-2.8,0.6-4.4,0.7c0.3,0.7,0.6,1.3,0.9,1.9C388.2,175.5,390,174.4,390,173.8z"/>
		<path class="st3" d="M391.4,178.3c-0.7,0.3-2.3,0.7-3.5,1c0.3,0.5,0.5,1,0.8,1.5C389.9,179.9,391.4,178.7,391.4,178.3z"/>
		<path class="st3" d="M389.5,151.2c-1.6,0-5.2-0.8-7.4-1.3c-0.1,1.1-0.2,2.2-0.2,3.4c0,0.1,0,0.1,0,0.2
			C384.8,153,389.3,152.1,389.5,151.2z"/>
		<path class="st3" d="M390,135.9c-0.9,0-2.7-0.4-4.2-0.7c-0.3,0.7-0.5,1.4-0.8,2.2C387.1,137.1,389.9,136.5,390,135.9z"/>
		<path class="st3" d="M384.1,140.2c-0.3,0.9-0.6,1.9-0.8,2.9c1.3-0.9,3.7-2.6,4.8-3.1C387.8,139.6,385.9,139.9,384.1,140.2z"/>
		<path class="st3" d="M394.6,162.6c0.1,0.7,3.3,1.7,5.8,2.4c0.3-1,0.5-1.9,0.8-2.9C399,162.4,395.9,162.7,394.6,162.6z"/>
		<path class="st3" d="M393.6,167.1c0.1,0.7,2.9,1.8,5.3,2.7c0.3-0.9,0.6-1.8,0.9-2.7C397.7,167.2,394.8,167.3,393.6,167.1z"/>
		<path class="st3" d="M397.5,173.2c0.2-0.6,0.5-1.2,0.7-1.9c-1.5-0.1-3.3-0.3-4.2-0.6C394.1,171.3,395.9,172.3,397.5,173.2z"/>
		<path class="st3" d="M394.7,179.7c0.2-0.3,0.3-0.6,0.5-1c-0.8-0.1-1.8-0.2-2.2-0.3C392.9,178.7,393.8,179.2,394.7,179.7z"/>
		<path class="st3" d="M393.3,182.5c0.2-0.4,0.4-0.7,0.6-1.1c-0.9-0.1-2.2-0.2-2.7-0.3C391.1,181.4,392.3,182,393.3,182.5z"/>
		<path class="st3" d="M392.1,184.7c0.1-0.2,0.3-0.4,0.4-0.7c-0.6-0.1-1.1-0.1-1.4-0.2C391,184,391.5,184.3,392.1,184.7z"/>
		<path class="st3" d="M392.5,124.5c-0.4-0.6-0.9-1.1-1.3-1.6c-1.1,0.3-2.5,0.8-3.1,0.8C388.3,124.2,391,124.4,392.5,124.5z"/>
	</g>
	<g>
		<path class="st3" d="M332.1,184.1c0.5-8-5.2-21.2-5-27.4s3.6-17.2,6.1-20.6c-0.7,6.3,4.4,24.4,4.1,30.8S335,180.7,332.1,184.1z"/>
		<path class="st1" d="M336,155.9c-2.9-2-6.4-2.2-8.7-0.2l-0.1,0.1c0,0.3,0,0.6,0,0.8c-0.1,2.7,1,6.8,2.1,11.1
			c2.6,1.9,5.7,2.3,8,0.9c0-0.6,0.1-1.2,0.1-1.8C337.5,164.5,336.8,160.4,336,155.9z"/>
		<path class="st0" d="M333.1,158.9c-0.3-1.1-1.1-1.6-1.8-1.4s-1.2,1.1-0.9,2.1c0.3,1,1.4,0.8,1.8,2s-0.6,2.1-0.4,3.1
			s1.1,1.6,1.8,1.4s1.2-1.1,0.9-2.1c-0.3-1-1.5-1.3-1.9-2.4C332.3,160.6,333.4,160,333.1,158.9z"/>
		<path class="st6" d="M332.1,184.1c0.5-8-5.1-21.4-4.9-27.6s3.6-17.2,6.1-20.6c-0.7,6.3,4.4,24.4,4.1,30.8S334.9,180.8,332.1,184.1
			z"/>
	</g>
	<g>
		<path class="st3" d="M514,110.2c-16.6-4-19.1-16-19.1-16s10.6-7.1,26.1-4.4c15.5,2.7,26.6,13.4,26.6,13.4S530.5,114.2,514,110.2z"
			/>
		<g>
			
				<ellipse transform="matrix(0.2418 -0.9703 0.9703 0.2418 296.3745 579.9038)" class="st1" cx="519.3" cy="100.3" rx="10.5" ry="9.2"/>
			<path class="st0" d="M517.4,111.3c-0.8-7.6,0.6-14.8,3.5-21.8C522.3,96.9,520.8,104,517.4,111.3z"/>
		</g>
		<path class="st0" d="M570.5,115.8c-5.1-0.3-20.4-11.6-22-12.7s-11.4-10.8-25.8-13.3c-15.3-2.6-26.6,3.1-28.9,4s-18.8,7-27.1,4.2
			c5.9,3.6,16.7,0.6,27.4-3c1.4,3.2,6.4,12.4,20.4,15.8c14.6,3.5,29.1-4.2,33.2-6.6C555.3,109.9,562.8,115.7,570.5,115.8z
			 M514.9,109.8c-16.2-3.8-19.6-15.4-19.6-15.4s11-6.8,26.2-4.2c15.1,2.6,25.5,13,25.5,13S531,113.6,514.9,109.8z"/>
	</g>
	<g>
		<path class="st3" d="M205.7,94.1c-0.2-2.2,18-4.2,22.4-3.5c6.3,1.1,16,7.1,26.1,10.7c0,0-9.4,7.6-24.7,6.4
			C214.3,106.5,205.7,94.1,205.7,94.1z"/>
		<g>
			<path class="st1" d="M244.6,101.6c0.6-1.5,0.6-3,0.3-4.5c-4.7-2.6-8.9-4.8-12.3-5.7c-0.6-0.1-1.3-0.3-2.2-0.3
				c-1.4,0.9-2.5,2.2-3.1,3.8c-1.7,4.3,0.9,9.3,5.6,11.2C237.7,107.9,242.9,105.9,244.6,101.6z"/>
			<ellipse class="st0" cx="237.6" cy="99.2" rx="5.9" ry="5.3"/>
		</g>
		<path class="st0" d="M229.3,90c-8-1.6-21.4,1.9-24,3.5c-8.5-8.7-13.2-17.8-26-18.7c17.1,2.4,27.8,28.9,44.1,32.5
			c14.3,3.2,24.1-1.4,31.3-6.3C251.4,101.6,240.4,92.2,229.3,90z M227.5,107c-8.7-1-13.4-3.8-21.7-12.9c3.4-3.1,16.9-3.4,24.2-2.3
			s21.7,10,23.5,9.6C242.1,107.5,236.2,108,227.5,107z"/>
		<path class="st0" d="M206.7,93.5c-0.6,0.4-0.6,0.9-0.2,1.1c0.4,0.2,0.9,0.3,1,0.9c0.2,0.6,0.8,1.2,0.8,1.2l-2.9-2.7L206.7,93.5z"
			/>
		<path class="st0" d="M251.7,100.9c0.8,0.3,0.7,0.9,0,1.4l2.1-0.9L251.7,100.9z"/>
	</g>
	<g>
		
			<ellipse transform="matrix(0.1602 -0.9871 0.9871 0.1602 53.5015 391.2834)" class="st0" cx="256.7" cy="164.2" rx="14.7" ry="14.7"/>
		
			<ellipse transform="matrix(0.1602 -0.9871 0.9871 0.1602 52.5881 391.2098)" class="st3" cx="256.2" cy="164.7" rx="14.2" ry="14.2"/>
		<g>
			
				<ellipse transform="matrix(0.7621 -0.6475 0.6475 0.7621 -40.9429 207.2134)" class="st1" cx="261.5" cy="159.3" rx="6.7" ry="8.2"/>
			
				<ellipse transform="matrix(0.7399 -0.6727 0.6727 0.7399 -37.7984 217.8564)" class="st0" cx="262.8" cy="157.8" rx="2.8" ry="3.7"/>
		</g>
		<path class="st0" d="M244.7,173.1c0.3-0.9,0.9-2.5,1.5-2.9c0.8-0.6,2,0.2,2.6-0.1c0.5-0.3,1.9-3.5,2.2-4.1
			c0.5-0.4,2.1,0.1,3.3,0.6c0,0-1-0.5-1.5-0.6c0.1-0.4,1-1,1-1s-0.7,0.2-1.2,0.9c-0.4-0.1-0.7-0.3-1.4-0.2c0.1-0.5,1.9-2,1.9-2
			s-1.6,1-2.2,1.9c-0.6,0.9-1.2,3.4-2.4,4.1c-1.1,0.7-1.9-0.4-2.6,0.2c-0.6,0.5-1.2,2.2-1.4,2.9"/>
		<path class="st0" d="M253.1,177.9c0.3-1,1.8-0.9,2.1-1.5s-0.7-4.2-0.8-4.8c0.2-0.4,0.6-0.7,1.2-1.1c-0.4,0.2-0.7,0.2-1.2,0.7
			c-0.2-0.5,0.3-2.8,0.3-2.8s-0.7,1.8-0.6,2.9c0.1,1.1,1.3,3.5,0.8,4.8s-1.8,0.5-2,1.5c0,0.2,0,0.6,0,0.9c0.1,0,0.2,0,0.3,0
			C253,178.3,253,178.1,253.1,177.9z"/>
		<path class="st0" d="M262.1,172.7c0.5-1,0.6-2.8,0.6-2.8s-0.5,2.3-0.8,2.7c-0.3-0.6-0.6-0.8-0.9-1.1c0.3-0.8,0.2-1.5,0.2-1.5
			s-0.1,1-0.4,1.3c-0.3-0.3-1.3-1-1.3-1c1,0.9,2.3,2,2.1,2.6c-0.4,0.6-2.5,3.3-2.5,3.9c0,0.5,0.7,1,1,1.6c0.1,0,0.2-0.1,0.3-0.1
			c-0.3-0.4-0.9-0.7-0.8-1.5C259.6,175.4,261.6,173.7,262.1,172.7z"/>
		<path class="st0" d="M268,171.3c-0.4-0.7-0.3-2.3-0.1-3.6c0,0-0.3,1.1-0.3,1.6c-0.3-0.5-1.1-0.8-1.1-0.8s0.6,0.3,1.1,1
			c0,0.4-0.1,0.8,0.1,1.4c-0.4-0.6-1.9-1.6-2.4-1.5c0.9,0.2,1.5,0.9,2.4,1.7c0.4,0.4,0.2,0.6,0.8,0.8c0-0.1,0.1-0.1,0.1-0.2
			C268.4,171.8,268.2,171.7,268,171.3z"/>
		<path class="st0" d="M249.1,162.8c0,0-2,1.2-2.5,1.2c0.3-0.6,0.2-1,0.2-1.4c-0.1,0.6-0.3,1.1-0.6,1.4c-0.5,0.1-3,0.3-4.2,0.6
			c0,0.1,0,0.2,0,0.4c1.1-0.7,3.6-0.5,4.6-0.8C247.7,164,249.1,162.8,249.1,162.8z"/>
		<path class="st0" d="M247.4,158.4c0,0-0.5-1.1-0.8-1.4c0.4-0.2,1.4-0.1,1.4-0.1s-0.7-0.3-1.5-0.1c-0.3-0.3-0.4-0.6-1-1
			c0.4-0.3,2.8-0.4,2.8-0.4s-1.8-0.2-2.8,0.1c-0.1,0.1-0.3,0.3-0.4,0.4c0,0,0.1,0,0.1-0.1C245.9,155.9,246.7,157.3,247.4,158.4z"/>
		<path class="st0" d="M242.4,161.3c-0.8,0.2-1.2,0.5-1.9,1.7c-0.5,0.8,0.7,0.9,0.7,0.9l1.2-1.3
			C242.3,162.6,243.2,161.2,242.4,161.3z"/>
		<path class="st2" d="M240.4,163.3c1-1.4,2.2-2.8,4.3-1.4c-2.1,0.1-3.1,2.4-2.6,4.9C241,165.5,239.9,164.2,240.4,163.3z"/>
	</g>
	<g>
		<path class="st0" d="M194.8,131.4c3,2,6.5,3.2,11.4,3.5l-9.1,1.2L194.8,131.4z"/>
		<path class="st0" d="M185.2,128.5c4.8,5.5,26.3,10.9,32.6,5.4C209.2,136.2,195.4,135.1,185.2,128.5z"/>
		<path class="st0" d="M164,119.1c16.6,0.7,23,8.8,39.3,17l-27.5-3.1C169.6,130.4,166.2,124.3,164,119.1z"/>
		<path class="st0" d="M154.5,96.2c6.1,7.8,7.2,16.5,8.1,30.9c0.8,13.5,19.8,28,37.5,28.5c17.9,0.5,29.6-8.3,32.2-12.4
			c2.9-4.6,2.9-13.5,9.4-13.8c-8.3-1.4-21,7.7-35.4,5.8c-14.3-1.8-37.4-4.8-41.1-15S163.1,106.7,154.5,96.2z"/>
		<g>
			<path class="st3" d="M171.2,120.9c0.9-0.3,4.2,0.6,4.9,1.4c-1.8,0.7-2.8,7-2.3,9C172.8,130.7,169.4,121.7,171.2,120.9z"/>
			<path class="st3" d="M177.4,122.9c0.6,0,3,1.2,3.7,2c-1.2,0.9-2.1,5.3-1.6,7.4C178.5,131.7,175.7,123.7,177.4,122.9z"/>
			<path class="st3" d="M182.7,125.9c0.6,0.2,2.7,1.7,3.5,2.3c-1.2,0.9-2,3.8-1.7,6.2C183.4,133.8,181.6,127.4,182.7,125.9z"/>
			<path class="st3" d="M188.2,129.3c0.7,0.4,1.6,1.1,2.7,1.6c-1.1,1-1.5,3.4-1.3,5.6C188.6,135.9,187.2,130.7,188.2,129.3z"/>
			<path class="st3" d="M194,132.5c1.3,0.7,1.5,0.8,2.5,1.1c-0.5,1-0.4,2.9-0.2,5.1C195.2,137.6,193.8,134.8,194,132.5z"/>
			<path class="st3" d="M199.9,134.7c0.8,0.4,1.1,0.4,1.8,0.6c-0.3,1.1-0.4,2.2-0.2,4.1C200.4,137.8,200.3,136.9,199.9,134.7z"/>
			<path class="st3" d="M212.5,153.2c-0.9,0.5-4.7,1.2-6.2,1.1c1.7-1.8,2.1-8.4,0.5-12.7C210,141.9,213.1,150.5,212.5,153.2z"/>
			<path class="st3" d="M221.4,149.9c-0.8,0.5-3.4,1.8-4.8,2.2c1.1-1.9-0.2-7.9-2.4-11.3C217.1,140.5,221.4,147.4,221.4,149.9z"/>
			<path class="st3" d="M229,145.8c-0.6,0.5-2.8,1.8-3.9,2.5c0.7-1.7-0.5-5.9-2.9-8.8C224.8,139.1,228.7,143.7,229,145.8z"/>
			<path class="st3" d="M233.5,138.6c-0.1,0.6-0.8,2.7-1.6,3.6c-0.1-1.5-1.6-3.7-4.4-4.8C229.1,136.2,232.5,137.2,233.5,138.6z"/>
			<path class="st3" d="M235.4,133.7c-0.2,0.6-0.4,1.4-0.7,2.1c-0.4-0.8-0.8-1.7-2.5-1.7C232.7,133.1,234.5,133.1,235.4,133.7z"/>
			<path class="st3" d="M164.9,120.3c0.8-0.5,3.9-0.3,4.7,0.2c-1.5,1-1.1,7-0.3,8.7C168.3,128.7,163.5,121.4,164.9,120.3z"/>
		</g>
		<g>
			<path class="st0" d="M170,185.7c-0.3,9,4,13.6,8.1,15.1s2.7,4.5,2,5.4s-0.4,2.8,0.6,4.1c1.2,1.4,0.6,4.5-1.2,4.4
				c-1.4,0-3.1-2.9-1.3-4.6c1-0.9,1.8-3.1-0.2-4.9c-1.3-1.2-15.4-0.6-16.4-3.2C161.1,201.1,170.5,179.8,170,185.7z"/>
			<path class="st1" d="M186.1,141.3c0,0-6.1-4.2-10.3-6.2s-14.6-0.9-22.8,15.2s-5.7,31.4-4.5,36.6s6.1,10.8,11.8,14.4
				c5.2,3.3,19.6,2.7,17.2,0.7c-3.4-2.7-8.6-6-7.2-16.4c1.6-11.8,11.2-20.6,15.3-24.6c4-3.9,9.3-6,12-6.6c3,0.1,4.4,0.6,6.3-0.3
				s2.3-7.7-5-10C191.7,141.8,186.1,141.3,186.1,141.3z"/>
			<path class="st0" d="M189.5,141.7c-1.9-0.3-2.4-0.1-3.2,0.3c-13.8,6.9-26.2,22.7-25.8,41.5c0,0.4-0.3,0.1-0.4-0.1
				c-3-18.3,10.6-36.9,21.9-42.9c0.6-1.8-0.3-2.2-1.9-3.1L189.5,141.7z"/>
			<path class="st0" d="M150.6,171.2c0,0-0.1-2.9,2-2.7s3.3,2.9,2.6,4.9c-0.7,1.9-1.6,4.2-3.1,4.1c-1.4-0.1-1.6-2-1.6-2
				s0.7,1.2,1.6,1.3c0.9,0.1,2.3-2.6,2.6-4.1s-0.7-2.9-2.2-3.3C151.2,169,150.6,171.2,150.6,171.2z"/>
			<path class="st7" d="M180,210.6c0.3-0.2,1,0.4,0.8,1.5C180.4,211.2,180.3,210.8,180,210.6z"/>
			<path class="st7" d="M179.7,202.5c0.3-0.2,1,0.4,0.8,1.5C180.1,203.1,180,202.7,179.7,202.5z"/>
		</g>
	</g>
	<g id="mustache">
		<path class="st1" d="M355.1,74.5c7.1,4.1,14.1,4.2,21-0.7c0,0,11.4,13.3,10.7,15.2c-0.7,1.9-16.3,4.5-22.2,4.2
			c-5.9-0.3-20.4-1.6-22.5-4.1L355.1,74.5z"/>
		<path class="st0" d="M355.3,92.3c7.5,1.1,14.3,1.1,19.3,0.2C369,95,361.5,94.9,355.3,92.3z"/>
		<path class="st0" d="M353.1,85.2c0,0,8.3-2.1,9.3-2s1.8,1.4,3,1.4s3.1-1.4,4-1.6s9,1.4,9,1.4s-6.8-0.6-8.1-0.4
			c-1.3,0.2-3.4,2-4.6,1.9s-2.7-1.4-3.7-1.7C361,84.1,353.1,85.2,353.1,85.2z"/>
		<path class="st0" d="M361.2,65.5c3.2,2.4,3.2,13.7,0.1,14.8c-2.2,0.8-17.7,8.5-24.7,15.1s-25.3,23.7-42.2,9.1
			c-6.4-7-1.9-12.2-0.4-14c0.2,3.5,2.8,5.6,4.6,6.3c4.2,1.5,10.8-2.1,16.9-4.4c6-2.3,11.3-10.6,13.4-13.5s7.6-11.5,13.4-14.4
			C348.4,61.3,359,63.9,361.2,65.5z"/>
		<path class="st0" d="M371,63.7c-2.9,2.8-1.5,15,1.6,15.7c2.3,0.5,10.6,7.8,15.3,13.8s10.8,16.8,21.2,16.9c9.7,0,18-1.6,20.4-6
			c-1.1,0.6-8.3-2.3-13.7-6.5c-5-3.8-11.2-13.8-13.6-17.2c-2.5-3.5-9-13.6-15.1-15.8C380.5,62.2,372.9,61.9,371,63.7z"/>
		<path class="st2" d="M360.4,64.7c2,0.9,7.9,10.8-0.1,16.6C364.1,75.8,363.5,69.5,360.4,64.7z"/>
		<path class="st2" d="M371.3,63.2c-1.9,1.1-6.9,12.3,1.7,17C368.5,75.3,368.8,68.3,371.3,63.2z"/>
		<path class="st2" d="M356.4,62.3c2.8,1.6,2.7,17.5-1.9,22.8C356.2,80.9,358.8,68.3,356.4,62.3z"/>
		<path class="st2" d="M377.2,61.9c-2.7,1.7-2,18.7,2.8,23.9C378.1,81.6,375,67.9,377.2,61.9z"/>
		<path class="st2" d="M350.5,64.6c2.7,1.3,5.7,12.1,0.5,18.2C352.8,78.6,353.8,70,350.5,64.6z"/>
		<path class="st2" d="M382.5,70.4c-2,2.2-2.2,14.9,5,18.6C384.2,85.7,381.4,76.6,382.5,70.4z"/>
		<path class="st2" d="M349.3,73.5c1.1,6.2,1.5,11-3.6,15.6C348.6,85.1,348.9,81.3,349.3,73.5z"/>
		<path class="st2" d="M412.1,100.6c5,3.9,8.9,6.6,15.3,4.3C422.6,105.5,419.1,104,412.1,100.6z"/>
		<path class="st2" d="M328.1,89.9c-2.9,5.2-7.2,10.8-14,10.1C319,99.5,322.4,96.1,328.1,89.9z"/>
		<path class="st2" d="M345.5,74.9c-0.4,5.3-2.9,12.6-7.8,15.5C341.2,86.6,343.2,81.4,345.5,74.9z"/>
		<path class="st2" d="M360.9,69.3c0.6,3,0.5,7.5-1.5,9.7C360.6,76.5,360.8,73.3,360.9,69.3z"/>
		<path class="st2" d="M373.1,66.2c-1.3,2.8-0.8,7.5,0.7,10.1C373.2,73.5,372.3,70.1,373.1,66.2z"/>
		<path class="st2" d="M336.3,76.1c-0.7,3.8-3.5,12.4-5.9,14.2C332.1,88,334.6,80.2,336.3,76.1z"/>
		<path class="st2" d="M316.8,101.3c-3.3,2.1-9.1,4.1-11.3,3.6C307.4,104.5,312.7,101.9,316.8,101.3z"/>
		<path class="st2" d="M321.3,92.5c-3.3,1.8-10.7,7.8-15.6,6.4C309,98.6,318.3,92.9,321.3,92.5z"/>
		<path class="st2" d="M399.6,88.8c2.2,4.9,7.2,9.2,12.3,8.8C408.6,96.7,401.6,92,399.6,88.8z"/>
		<path class="st2" d="M379.2,62.4c-0.5,2.1-2,7.8,0.1,9.9C379.1,70.5,379.4,65.3,379.2,62.4z"/>
		<path class="st2" d="M395.9,94.8c0.6,2.4,1.6,6.7,5.3,8.2C399.8,101.7,397.8,98,395.9,94.8z"/>
		<path class="st2" d="M314.9,105.1c-2,1.4-10.5,5.1-14.2,1C304.5,108.1,311.3,106.2,314.9,105.1z"/>
		<path class="st2" d="M307.3,102.7c-7.1,1.6-15-2.1-13.4-10.4C294.1,98.3,299.6,102.9,307.3,102.7z"/>
		<path class="st2" d="M390.4,74.6c2.7,7.8,2,17.9,9,19.6C393.7,90.7,394.4,81.3,390.4,74.6z"/>
		<path class="st2" d="M385.3,68.2c3.3,5.4,0.7,10.1,2,14.4C384.2,78.8,387.1,75.5,385.3,68.2z"/>
		<path class="st2" d="M401.4,97.5c3.3,5.4,5.4,8,12.2,8C408.9,104.4,406.9,103,401.4,97.5z"/>
		<path class="st2" d="M345.7,62.2c0.4,6.6-3.1,15.8-8,21.9C340.1,80.1,343.9,70.5,345.7,62.2z"/>
		<path class="st2" d="M343.4,63.4c-10.1,4.9-16.1,23.7-19.3,27.5C329.8,87.7,330.4,75.8,343.4,63.4z"/>
		<path class="st2" d="M384.3,63.1C395,66.6,400,87.9,404.5,90C398.5,89.7,397.9,74,384.3,63.1z"/>
		<path class="st2" d="M335.6,86.3c-5.4,10.5-8.3,17.1-14.6,20.7C326.7,105.1,332.2,99.8,335.6,86.3z"/>
		<path class="st2" d="M389.8,83c2.7,11.5,4.9,20.1,9.1,23.7C393.9,103.4,390.5,97,389.8,83z"/>
	</g>
	<g id="nose">
		<path class="st2" d="M388.4,61.5c-1.7-2.8-5.2-8.2-7-10.8C384.5,53.3,387.3,58.2,388.4,61.5z"/>
		<path class="st2" d="M342.7,63.1c1.6-2.9,5.1-8.7,6.7-11.4C346.5,54.4,343.6,59.9,342.7,63.1z"/>
		<path class="st2" d="M377.6,48.3c1.8,1.3,4,3.4,4.2,4.6c0.1,1.2-0.3,3.2-1,4.1s-4.3-2-5.8-1.2s-6.6,6.9-7.7,7.8
			c-1.1,0.9-3.8,0.7-4.9-0.1c-1.1-0.9-7.6-6.7-8.2-8.8s1-11.1,1.3-12.5c0.2-1.3,3.2-11.2,3.2-11.2s-3.8,8.2-4.4,10.7
			s-2,11.5-1.6,13.2s8.2,8.9,9.5,9.9s4.6,1.4,5.9,0.1c1.3-1.3,6.2-6.9,7-8.1s5.1,2.1,6.1,1.4c1-0.7,1.5-4.2,1.2-5.7
			C382.2,51,379.1,48.1,377.6,48.3z"/>
		<path class="st2" d="M356,58.8c-0.9-1.2-6.4,2.1-7.4,1.4c-1-0.7-1.4-4.1-1.2-5.7c0.3-1.5,4.3-5.6,5.7-5.4c-1.8,1.3-5,4.3-5.1,5.6
			s0.3,3.4,1,4.4s4.6-2,6.1-1.1"/>
	</g>
	<g id="eyebrows">
		<path class="st0" d="M417.3,8.2C417.2,5.1,403.7,2.8,400,2s-15.6,0.5-17.4,1.2s-3.9,7-3.9,7C391.1,7.6,402.3,5.3,417.3,8.2z"/>
		<path class="st2" d="M382.9,2.8c-2.4,1.2-3.7,5.5-4.4,7.5C380.1,9,380.8,5.2,382.9,2.8z"/>
		<path class="st2" d="M388,2.9c-2.4,1.2-5.3,4.8-6.3,6.7C383.2,7.8,385.9,5.3,388,2.9z"/>
		<path class="st2" d="M392.6,1.6c-2.4,1.2-5.3,4.6-6.5,6.5C387.6,6.7,390.5,4,392.6,1.6z"/>
		<path class="st2" d="M396.3,3.4c-2.4,1.2-4.9,3.4-7.2,4.9C391.3,7.3,394,5.6,396.3,3.4z"/>
		<path class="st2" d="M402.2,2.8c-2.9-0.1-3.7,1-6.2,3.6C399.3,4,399.8,3.5,402.2,2.8z"/>
		<path class="st2" d="M409.7,4.8c-2.2-0.6-5.5,0.5-8.3,0.9C404.3,5.9,407.2,4.8,409.7,4.8z"/>
		<g>
			<path class="st0" d="M317,10.3c-0.1-3.1,13.3-6,17-6.9s15.6-0.2,17.5,0.4c1.8,0.6,4.2,6.8,4.2,6.8C343.1,8.5,331.8,6.7,317,10.3z
				"/>
			<path class="st2" d="M355.8,10.7c-1.7-1.3-2.6-5-4.8-7.3C353.5,4.5,355,8.7,355.8,10.7"/>
			<path class="st2" d="M352.6,10.1C351,8.4,348.2,6,346,3.7C348.4,4.8,351.5,8.3,352.6,10.1"/>
			<path class="st2" d="M348.2,8.8c-1.7-1.3-4.6-3.9-6.8-6.2C343.8,3.7,346.9,7,348.2,8.8"/>
			<path class="st2" d="M345.1,9.2c-2.3-1-5-2.4-7.4-4.6C340.2,5.7,342.8,7.7,345.1,9.2"/>
			<path class="st2" d="M338.1,7.6c-3.3-2.3-3.9-2.7-6.3-3.4C334.7,3.9,335.5,5,338.1,7.6"/>
			<path class="st2" d="M332.7,7.1c-2.8,0.4-5.8-0.6-8.3-0.5C326.5,5.9,329.9,6.8,332.7,7.1"/>
		</g>
	</g>
	<g id="eyeglasses">
		<path class="st2" d="M381.8,22.7c0,0-2,2.5-2,3.7s2.5,2.9,2.5,2.9s-1.1-1.5-1.3-2.9C380.8,25.1,381.8,22.7,381.8,22.7z"/>
		<path class="st2" d="M348.1,29.1c0,0,1.7-1.2,1.9-2.6c0.2-1.4-1.2-3.4-1.2-3.4s2.7,2.4,2.5,3.7C351.3,28.2,348.1,29.1,348.1,29.1z
			"/>
		<path class="st2" d="M385,26.5c0,0,0.5-1.7,2.3-1.9s7.8,1.7,11.5,1.3c3.5-0.4,9.4-2.6,9.4-2.6c-0.5,1.1-3.9,3.6-9,4.2
			c-4.4,0.5-10.6-1.9-11.9-1.9C386,25.5,385,26.5,385,26.5z"/>
		<path class="st2" d="M346.7,26.8c0,0-0.6-1.7-2.5-1.7s-6.8,3-11,2.6c-3.8-0.3-8.8-1.4-8.8-1.4s4.1,2.3,8.2,2.8
			c4.4,0.5,10.3-2.9,11.6-3C345.7,26,346.7,26.8,346.7,26.8z"/>
		<path class="st2" d="M346,30.3c-1.8,2.7-4.6,4.5-6.5,5C342.1,35.6,345.1,32.9,346,30.3z"/>
		<path class="st2" d="M323.9,26.5c-1.2,1-2.1,1.6-2.2,2.6C321.5,27.8,322.7,27.1,323.9,26.5z"/>
		<path class="st2" d="M409.5,23.7c1.1,1.1,1.8,1.9,1.9,2.9C411.7,25.3,410.6,24.4,409.5,23.7z"/>
		<path class="st2" d="M384.4,29.7c1.8,2.7,5.5,4.8,7.4,5.2C389.2,35.2,385.3,32.4,384.4,29.7z"/>
		<path class="st2" d="M319.8,20.8c0.9,3.1,2.6,4.4,4.3,5.3C321.5,25.6,319.8,23.6,319.8,20.8z"/>
		<path class="st2" d="M412.3,17.2c-0.2,3.2-1.6,4.8-3.1,6.1C411.6,22.2,412.8,19.9,412.3,17.2z"/>
		<path class="st2" d="M427,11.5c-0.7-0.6-8.2-2.2-14.6-2.2c-5,0-31-1.5-37.9,2.9c-1.9,1.2-5.2,2.3-8.4,2.4H366
			c-3.2-0.1-6.5-1.2-8.4-2.4c-6.9-4.4-32.9-2.9-37.9-2.9c-6.4,0-13.9,1.6-14.6,2.2s-0.9,5.7,0,6.4s4.8,0,6.4,3.2s3.2,9.6,6.4,12.8
			c3.2,3.2,23.7,3.2,28.7,3.2c4.8,0,9.6,0,12.8-8c2.2-5.5,3.7-7.8,6.7-7.8s4.5,2.3,6.7,7.8c3.2,8,8,8,12.8,8c5,0,25.5,0,28.7-3.2
			s4.8-9.6,6.4-12.8s5.5-2.5,6.4-3.2C427.9,17.1,427.7,12.1,427,11.5z M352.8,34.3c-3.6,2.3-29,1.1-33.3-2.5s-9.1-17.1-1.9-19.4
			c11.2-3.2,38.6-2.2,40,4C359.7,26.5,356.4,32,352.8,34.3z M412.6,31.8c-4.3,3.6-29.7,4.8-33.3,2.5c-3.6-2.4-6.9-7.8-4.7-17.8
			c1.4-6.2,28.8-7.2,40-4C421.8,14.7,416.9,28.2,412.6,31.8z"/>
	</g>
</g>
</svg>
