<?xml version="1.0" encoding="utf-8"?>
<!-- Generator: Adobe Illustrator 23.0.3, SVG Export Plug-In . SVG Version: 6.00 Build 0)  -->
<svg version="1.1" id="Layer_1" xmlns="http://www.w3.org/2000/svg" xmlns:xlink="http://www.w3.org/1999/xlink" x="0px" y="0px"
	 viewBox="0 0 1008 220.1" style="enable-background:new 0 0 1008 220.1;" xml:space="preserve">
<style type="text/css">
	.st0{fill:#FF5F5F;}
	.st1{fill:#F9E75E;}
	.st2{fill:#333366;}
	.st3{fill:#E8E8E8;}
	.st4{fill:#F4EAB3;}
	.st5{fill:#3F3F3F;}
	.st6{fill:none;stroke:#FF5F5F;stroke-miterlimit:10;}
	.st7{fill:#FFFFFF;}
</style>
<g id="Layer_5">
	<rect x="-1" y="126.5" class="st0" width="1009" height="116.5"/>
</g>
<g id="Face">
	<rect x="447.6" y="0.7" class="st1" width="119.8" height="99.4"/>
</g>
<g id="Beard_BG_Color">
	<path class="st1" d="M565.4,22.2c2.4-3.9,2.7-5.4,4.3-3.8c1.6,1.6,1.9,9.1,0.7,11.7c-1.2,2.6-2.6,11.4-4.7,13.4
		C568.1,38.4,565.4,22.2,565.4,22.2z"/>
	<path class="st1" d="M449.2,21.8c-2.4-3.9-1.1-5-2.7-3.4s-1,8.9-0.7,11.7c0.7,6.7,1.9,8.6,3,13.1C448,37.6,449.2,21.8,449.2,21.8z"
		/>
	<path class="st2" d="M450.1,16.3c0,0-0.8,19.7-0.7,23.3s1.1,19.8,2.1,21c0.7-5,3.4-8.3,4.8-10.4c-0.1,7,0.3,22.3,2.6,25.3
		c1.5-3.5,2.8-3.8,4.2-3.7c-0.5,4.3,4.4,12.6,4.4,12.6l-30.7,73.2c-6.7,22.6-20.4,28.6-38.6,26.1c-17.8-2.5-17.3-18.9-15.7-20.7
		c-9.3,11.2-36.9,26.3-70.7,21.6s-39.9-31.8-62.3-57.9c-2.7,0-43.4,0-43.4,0s28.4-34.4,49.5-33c4.2-4.6,16.1-9.6,24.5-9.1
		s13.3,8,15.6,10.1c1.6-5.8,17.4-21.1,24.7-20C324.4,68,341,53,360,52.1c18.9-1,35.9,26.5,51.7,26.8c15.8,0.2,25.4-12.6,27.7-20.8
		s6.1-22.5,7.2-26.6s1-18.2,1-18.2l2.5-0.2L450.1,16.3z"/>
	<path class="st2" d="M542.2,83.5c1.7-8.7,2.4-17.6,0-27.2c5,7,8.7,13.5,9.4,18.6c0.7-5,0.7-9.7-1.2-13.6c2.9,0.8,5.9,1.7,7.3,4
		c1.3-5.2,1.3-10.2-0.4-15.1c2.9,2.3,5.1,5.2,5.7,9.8c0.2-5.8,0.1-11.6-0.9-17.7c1.3,2.4,2.1,4.8,2,7.1c2.9-8.1,1.2-20.8,0.6-33.7
		l3.6-0.2c0,0-0.6,9.9,0,13.6c0.6,3.7,4,8.9,4.8,12.8s1.6,12.2,2.7,14.7c1.1,2.5,9.7,10.2,15.3,9.4s9.4-7.8,10.3-11.9
		c0.9-4.1-0.4-11.7-0.4-11.7s6.6,8.3,7.1,12.2s-1,9.1-1,9.1c15.6-12.5,28.1-30,58.2-19.1c34.4-28,62.8,13.2,80.5,15.6
		c7.5,1,15.5-0.2,20.6-5.2c5.2-5,8-9.9,7.9-15c0.4-7.4-3.3-11.1-10.1-12.6c9.7-2.5,17,8.2,16.9,10.9c0.7-4.1-2.4-10.3-12.9-12.9
		c14.8-1.5,20.6,5.8,22.1,15.7s-1.2,17.2-5,23.4c-4.8,7.9-36.4,54.5-44.2,61.8c-6,5.6-25.6,13.3-64.5,14
		c-35.6,0.6-68.2-12.3-68.2-12.3l-61.5-32.6L542.2,83.5z"/>
	<path class="st2" d="M472.3,87.4l66,2.1l55.7,1.7c11.6,16.3,26.2,33.6,28.3,43.3c2.1,9.7-0.4,17.7-7.3,23.5c1-6.8,1.1-13.3-2.7-18
		c-1.8,16.3-9.3,24.1-19,28.9c2.1-3.1,2.6-6-0.2-8.2c-2.3,7.1-5.5,12-10.1,13.8c0.5-1.9,0.9-3.6-1-4.6c0,0-10.1,17.7-20.5,19.9
		c4.7-4.1,10.1-14.5,9.8-26.4c-3.3,9-35.4,54-67.6,52.5c15.8-3.4,20.9-15.6,25-20.8c-12.9,2.5-16.3-11.2-16.3-11.2
		c-2.6,11.6-8.3,22.2-17.6,31.4c1.1-3.1,1.5-6,0-8.2c-2.5,4.2-5.2,7.9-8.8,9.2c0.5-0.9,1.6-2.8,1.5-4.6c-1.7,1.3-5.5,3.1-8.2,3.3
		c2.3-2.7,4.6-5.5,4.7-9.3s-0.9-9.1-4.3-13.1c-1.1,5.4-0.7,10.5,0.6,15.5c-4.5-3.2-7.1-9.2-7.5-18.9c-1.6,6.6-1.2,12.2,0.6,17.2
		c-2.7-3.9-4.8-8.9-6.3-15.3c0,5.9,0.6,11.3,2.5,15.7c-6.7-9.3-13.5-18.7-12.3-29.3c-2.7,2.8-3.2,9-3.3,15.9
		c-3.1-6.4-5.6-13.1-6.3-21.1c-2.1,4.3-1.7,10.3-0.8,16.6c-5.5-8.9-10.1-17.4-12.6-25.3l5.4-59.1L472.3,87.4z"/>
	<path class="st2" d="M701.9,124.8c0,0,22.7-0.5,38.9,1.8c13.5,1.9,8.8,31.9-3.6,35.9c3.1,2,6.8,1.7,9.3,1c-1.2,1.9-1,2.4-0.6,3.5
		c2.2,5.5,7.7,12.8,25,6.1c17.7-6.9,29.1-23.7,29.8-58.1s-19.2-45.6-19.2-45.6L701.9,124.8z"/>
	<path class="st2" d="M618.6,130.3c0,0,11.8,12.8,27.1,11.2c-10.6-6.4-3.7-11-3.7-11L618.6,130.3z"/>
	<path class="st2" d="M766.4,174.7c0.6-1.4,15.1-10.8,15.1-10.8s8.8,16-0.5,25.8C781.7,177.6,768.8,173.6,766.4,174.7z"/>
	<polygon class="st2" points="447.8,12.8 450.2,12.9 451.1,0.7 447.3,0.7 	"/>
	<polygon class="st2" points="563.9,13.4 568,13.3 568.8,0.7 563.5,0.7 	"/>
</g>
<g id="Beard_Details">
	<path class="st0" d="M661.8,76.4c-6.3-0.9-11-1.1-15.4,4.1C650.2,77.6,654,77.1,661.8,76.4z"/>
	<path class="st0" d="M447.4,33.2c0.1,3.8-1,12.9-3.1,15C445.6,45.7,446.6,37.6,447.4,33.2z"/>
	<path class="st0" d="M451.8,61c0,3.8-1.3,12.9-3.4,15C449.7,73.5,450.9,65.4,451.8,61z"/>
	<path class="st0" d="M342.4,80.8c2.1-2.6,5.9-5.4,9.1-5.2C348.6,76.4,345.8,78.3,342.4,80.8z"/>
	<path class="st0" d="M505.9,107.6c0.2,3.3-2,10.2-4.5,12.2C503.1,117.3,505.1,111.8,505.9,107.6z"/>
	<path class="st0" d="M622.2,101c1.6,3.4,8,8.9,12,9.5C630.9,108.9,625.4,104.6,622.2,101z"/>
	<path class="st0" d="M606,88.1c3.4,1.4,11.5,1.6,14.7-0.4C617.3,88.6,610.6,88.8,606,88.1z"/>
	<path class="st0" d="M678,67.9c-3.5-1.2-11.6-0.9-14.6,1.3C666.6,68.1,673.3,67.5,678,67.9z"/>
	<path class="st0" d="M703.9,44.6c-1.8-3.2-8.1-8.4-11.8-8.8C695.3,37.2,700.6,41.2,703.9,44.6z"/>
	<path class="st0" d="M779.5,38.8c-1.4-3.4-5.8-9.6-9.5-10.4C773,30.1,776.6,35.1,779.5,38.8z"/>
	<path class="st0" d="M350.6,88.5c3.9-2,10.1-3.5,13.9-1.6C360.5,86.2,356.1,87.2,350.6,88.5z"/>
	<path class="st0" d="M384.1,138.4c2.3-3.8,6.8-8.2,11-8.6C391.5,131.3,388.1,134.4,384.1,138.4z"/>
	<path class="st0" d="M398.7,144.8c5-0.9,10.6,1.3,13.1,4.7C408.6,147.2,404,145.2,398.7,144.8z"/>
	<path class="st0" d="M501.2,113.5c2.7-4.3,2.7-10.3,0.5-13.9C502.6,103.5,502.8,108.4,501.2,113.5z"/>
	<path class="st0" d="M454.4,163c-3.3,3.8-4.3,9.8-2.7,13.7C451.4,172.7,452,167.8,454.4,163z"/>
	<path class="st0" d="M438.5,152.8c-3.3,3.8-4.3,9.8-2.7,13.7C435.5,162.5,436.1,157.6,438.5,152.8z"/>
	<path class="st0" d="M382.5,110.7c-4,1.9-10.2,3.2-13.9,1.2C372.5,112.6,377,111.8,382.5,110.7z"/>
	<path class="st0" d="M414.7,150.9c2.6,3.6,5,9.4,3.7,13.4C418.4,160.3,416.8,156.1,414.7,150.9z"/>
	<path class="st0" d="M425.1,148.6c-1.1-4.3,2.2-18.6,4.8-21.9C428.5,130.4,425.1,142.9,425.1,148.6z"/>
	<path class="st0" d="M470.4,195.3c-1.9-4-2.5-12.4-0.5-16.1C469.1,183.1,469.2,189.8,470.4,195.3z"/>
	<path class="st0" d="M394.4,125.4c4.4-0.1,10.5-1.7,13-5.2C404.2,122.7,399.9,124,394.4,125.4z"/>
	<path class="st0" d="M351.1,64.2c3.1-1.3,7.8-2,10.5-0.3C358.6,63.1,355.3,63.6,351.1,64.2z"/>
	<path class="st0" d="M320.5,74.7c1.5-3,4.5-6.7,7.6-7.3C325.5,68.8,323.2,71.4,320.5,74.7z"/>
	<path class="st0" d="M405.8,81c-3.8,0.6-19.8-0.8-25.2-3.4C389.6,78.8,401.6,80.7,405.8,81z"/>
	<path class="st0" d="M278.2,144c-3.6-1.3-23-16.5-26.5-21.4C259,128.1,274.7,141.7,278.2,144z"/>
	<path class="st0" d="M449.1,139.1c0.7,3.7-0.7,23.4-3.2,28.9C447,158.9,448.9,143.3,449.1,139.1z"/>
	<path class="st0" d="M498.4,97.5c1.1,5.1,0.2,19.3-4,22C496.3,116.9,498.6,101.1,498.4,97.5z"/>
	<path class="st0" d="M490.7,96.1c-0.7,5.3-5.2,13.7-1.5,19.2C489.2,110.3,491,102.8,490.7,96.1z"/>
	<path class="st0" d="M502.6,150.3c-4.8-21.5,10.4-43.6,7.3-48.9C511.4,108.5,493.7,138,502.6,150.3z"/>
	<path class="st0" d="M354,60.2c-6.9-0.7-22.1,5.6-24.3,11.9C334.7,66.3,347,61,354,60.2z"/>
	<path class="st0" d="M520.9,144.8c3.5-2.8,3.4-19.4-3.7-27.4C521.5,123.7,522,137.9,520.9,144.8z"/>
	<path class="st0" d="M483.6,116.6c-4.1,1.9-8,18-3.1,27.5C477.9,136.9,480.9,123,483.6,116.6z"/>
	<path class="st0" d="M354.4,84.9c10.3-4.9,11.8-6.9,21.7-6.9C368.5,75.7,359.6,80.8,354.4,84.9z"/>
	<path class="st0" d="M410.9,123c8.7-9.7,11.1-15.2,17-20C420.7,107,413.7,118.5,410.9,123z"/>
	<path class="st0" d="M431.9,164.6c3.8-12.5,3.8-18.4,7.1-25.3C434.1,145.9,432.6,159.3,431.9,164.6z"/>
	<path class="st0" d="M430,87.7c-11.1,2.6-13,4.2-22.7,2.1C414.2,93.6,424,90.5,430,87.7z"/>
	<path class="st0" d="M544,134.6c3.3,11,5,12.7,3.5,22.5C550.9,150.1,547.2,140.4,544,134.6z"/>
	<path class="st0" d="M345.8,58.6c6.1-4,26.2-5.5,30.7,1.6C369,55.6,353.8,54.8,345.8,58.6z"/>
	<path class="st0" d="M356.7,157.8c-6.4,3.6-26.4,4-30.6-3.3C333.4,159.5,348.6,161.1,356.7,157.8z"/>
	<path class="st0" d="M499.2,114.9c1.5,7.2-5.2,27.8-13.4,29.6C492.8,139.1,499.8,123.7,499.2,114.9z"/>
	<path class="st0" d="M276.4,119.4c-0.4-8.4-10.6-23.7-19-25C264.6,99.5,274.6,110.6,276.4,119.4z"/>
	<path class="st0" d="M515.2,96.7c0.7,7.4,3,18.3,8.9,22.2C520.2,113.9,517.3,103,515.2,96.7z"/>
	<path class="st0" d="M578.7,75.4c4.8,5.7,13,13.2,20.1,13C592.5,86.7,583.6,79.8,578.7,75.4z"/>
	<path class="st0" d="M463.1,164.6c-2.9,6.9-5.8,17.6-2.4,23.8C459,182.2,461.5,171.2,463.1,164.6z"/>
	<path class="st0" d="M350.6,71.5c8.4-6.1,21.1-1.8,28.3,1.2C371.5,70.4,361.9,66.8,350.6,71.5z"/>
	<path class="st0" d="M482.5,161.3c-4.8-9.3,1.4-21.1,5.4-27.8C484.6,140.5,479.6,149.4,482.5,161.3z"/>
	<path class="st0" d="M234.1,118.5c10.4,0,18.7,11,22.8,17.7C252.2,130,246,121.4,234.1,118.5z"/>
	<path class="st0" d="M521.8,93.2c3.6,6.6,6.8,19.8,14,24C531.1,112.1,527.9,99.2,521.8,93.2z"/>
	<path class="st0" d="M466,159c-0.5,8.6-3.5,29.2-0.7,37.9C464,189.5,468.1,168.2,466,159z"/>
	<path class="st0" d="M486.1,93.4c-2.7,7-4.8,21.3-9.3,25.9C479,115.1,480.8,100.1,486.1,93.4z"/>
	<path class="st0" d="M371.2,82.5c11-2.4,27.3,8.7,32.1,9.7C396.9,93.1,390.1,83.2,371.2,82.5z"/>
	<path class="st0" d="M497.5,152.5c5.3,9.9-1.1,28.7-0.8,33.5C494.1,180.2,501.8,171,497.5,152.5z"/>
	<path class="st0" d="M279.7,98.4c8.1,7.8,7.9,27.6,9.7,32.1C285.1,125.7,289.6,114.6,279.7,98.4z"/>
	<path class="st0" d="M549.7,162.5c1.3,11.2-11.3,26.3-12.8,31C536.6,187.1,547.1,181.2,549.7,162.5z"/>
	<path class="st0" d="M368.5,65.5c15.1,1.2,21,9.8,29,11.5C387.9,73.3,382,64.8,368.5,65.5z"/>
	<path class="st0" d="M446.8,47.6c-4.1,14.6-12,21.8-15.3,29.3C437,68.2,444.8,61,446.8,47.6z"/>
	<path class="st0" d="M422.8,77.9c-10.8,4.8-17.2,8.1-24.4,7C404.1,86.9,411.7,86.3,422.8,77.9z"/>
	<path class="st0" d="M454.1,61.7c-1.3,11.8-1.6,19-6.1,24.6C452.6,82.4,455.9,75.6,454.1,61.7z"/>
	<path class="st0" d="M416.9,96.5c-11.8,0.7-19,1.7-25.3-1.9C396.2,98.5,403.5,100.6,416.9,96.5z"/>
	<path class="st0" d="M420.3,145.7c-1.5-12.2,3.6-25.9,7.2-32.2C423.6,118.1,416.4,132.3,420.3,145.7z"/>
	<path class="st0" d="M505.9,170.2c0.3,11.8,1,19-2.7,25.2C507.2,191,509.5,183.7,505.9,170.2z"/>
	<path class="st0" d="M224,121.5c10.1-6.2,15.9-10.4,23.2-10.3C241.2,109.9,233.8,111.6,224,121.5z"/>
	<path class="st0" d="M247.7,107.6c10,6.3,16.3,9.8,19.4,16.4C265.7,118.1,261,112.1,247.7,107.6z"/>
	<path class="st0" d="M320.9,91.2c3.7,7.3,4.8,9.4,12.4,13.1C325.4,99.1,322.7,93.8,320.9,91.2z"/>
	<path class="st0" d="M408.6,129.3c0.1,8.2,0.2,10.6,5.5,17.2C409.4,138.4,409.2,132.4,408.6,129.3z"/>
	<path class="st0" d="M425.1,167.1c3.7-7.3,4.7-9.5,3.1-17.8C428.7,158.8,426.1,164.1,425.1,167.1z"/>
	<path class="st0" d="M490.7,199.7c2.1-7.9,2.6-10.3-0.6-18.1C492.5,190.8,491.1,196.6,490.7,199.7z"/>
	<path class="st0" d="M488.6,137.7c3.6-7.4,4.6-9.5,3-17.8C492.1,129.3,489.5,134.7,488.6,137.7z"/>
	<path class="st0" d="M256.6,122.4c-6.3-5.3-8.2-6.8-16.6-7.1C249.3,117,253.9,120.7,256.6,122.4z"/>
	<path class="st0" d="M281.3,163c5.5,6.1,7.1,7.9,15.4,9.4C287.7,169.4,283.7,165.1,281.3,163z"/>
	<path class="st0" d="M267.8,113.4c2.2,7.7,3,10,10.4,15.9C270.9,122,269.2,116.4,267.8,113.4z"/>
	<path class="st0" d="M516.1,160.6c2.2-7.9,2.7-10.2-0.5-18.1C518,151.7,516.5,157.5,516.1,160.6z"/>
	<path class="st0" d="M386,174.6c0.9,3.7,9.7,10.2,21,8C398.5,184,388.4,178.9,386,174.6z"/>
	<path class="st0" d="M308.9,117.7c1.3,3,4.2,6.8,7.3,7.5C313.6,123.7,311.5,121,308.9,117.7z"/>
	<path class="st0" d="M333.5,97.4c1.9,4,9,8.8,13.2,9.5C343.2,105,337.1,101.7,333.5,97.4z"/>
	<path class="st0" d="M520.2,177.7c-0.4,4.4,3.3,12.1,6.5,14.9C524.6,189.2,521.1,183.3,520.2,177.7z"/>
	<path class="st0" d="M340.1,129.5c3.5,2.7,12,4,16,2.9C352.2,132.2,345.2,131.9,340.1,129.5z"/>
	<path class="st0" d="M382.7,117.4c3,1.4,7.7,2.2,10.5,0.7C390.2,118.7,386.9,118.1,382.7,117.4z"/>
	<path class="st0" d="M496.7,211.3c0.5-2,0.7-5.4-0.1-7.7c0,0,0.2-0.2,0.3-0.3C497.9,206,497.7,209.2,496.7,211.3z"/>
	<path class="st0" d="M400.1,148c-1.8-0.9-4.1-0.3-6.2,0.4l-0.2-0.3C396.1,147,398.2,146.5,400.1,148z"/>
	<path class="st0" d="M485.8,181.7c-1.4,3-2.2,7.7-0.6,10.4C484.6,189.2,485.1,185.9,485.8,181.7z"/>
	<path class="st0" d="M498.6,209c2.3-2.4,6.1-9,5.6-12.1C503.8,199.8,500.8,205.3,498.6,209z"/>
	<path class="st0" d="M520.4,159.9c-1.5,3-2.6,7.6-1.1,10.4C518.8,167.3,519.5,164,520.4,159.9z"/>
	<path class="st0" d="M299,99.8c1.7,2.8,3.8,5.3,7,5.5C303.2,104.2,302,102.8,299,99.8z"/>
	<path class="st0" d="M522.1,169.9c0,3.3,2.1,10.4,4.7,12.3C524.9,179.8,523.1,174,522.1,169.9z"/>
	<path class="st0" d="M386.9,120.8c-3.7-0.9-19.8-0.9-25.4,1.1C370.5,121.5,382.7,120.7,386.9,120.8z"/>
	<path class="st0" d="M487.5,176.6c1.7,6.6,2.8,27.6-1.5,30.4C489.3,199.3,487.8,181.4,487.5,176.6z"/>
	<path class="st0" d="M406.2,181c6.4-1.5,7.3-1.3,12.6-4.6c3.9-2.4,7-5.5,9-8.7C420.9,175.6,416,178.5,406.2,181z"/>
	<path class="st0" d="M415.5,175.2c3.9-5.4,4.7-5.8,6.5-11.7c1.4-4.3,1.7-8.7,1.2-12.5C423.1,161.6,421.3,167,415.5,175.2z"/>
	<path class="st0" d="M554.6,183.1c3.7-2.4,12.6-17.9,10.6-25.2C563.9,168.7,557.4,180.7,554.6,183.1z"/>
	<path class="st0" d="M525.2,204.6c2.8-2.5,11.8-15.9,13.2-21.7C533.7,190.7,527.6,201.2,525.2,204.6z"/>
	<path class="st0" d="M339.2,95.7c-2-6.4-13.1-17.2-19.7-16.9C326.8,81.3,335.3,89.9,339.2,95.7z"/>
	<path class="st0" d="M482.4,183.4c4-5.4,7-21.6,2.9-26.8C487.5,164,484.7,176.8,482.4,183.4z"/>
	<path class="st0" d="M280.9,109.1c-2-6.4-13.1-17.2-19.7-16.9C268.4,94.8,276.9,103.3,280.9,109.1z"/>
	<path class="st0" d="M342.6,107.8c10.1,5.3,11.5,7.3,21.4,7.8C356.4,117.6,347.7,112.1,342.6,107.8z"/>
	<path class="st0" d="M515.3,167.3c1.4,11.4,0.5,13.6,5.8,22C515.2,184.2,514.7,173.9,515.3,167.3z"/>
	<path class="st0" d="M463.9,141.5c5.6-9.8,7.3-11,8.9-20.8C473.5,128.3,468,136.6,463.9,141.5z"/>
	<path class="st0" d="M330.4,116.7c6.4,8.2,26,8.1,33.7,7.2C356.4,124,340,124.4,330.4,116.7z"/>
	<path class="st0" d="M266.6,141.8c2.5,10.1,20.4,18,27.8,20.4C287.3,159.1,272.2,152.6,266.6,141.8z"/>
	<path class="st0" d="M291.7,118.3c-0.9,11.7,6.7,27.5,11.3,33.8C299.1,145.4,293.6,129.8,291.7,118.3z"/>
	<path class="st0" d="M510.7,114.6c-5.3,9.9,1.9,29.3,0.4,35.4C515.6,144.8,506.3,133.1,510.7,114.6z"/>
	<path class="st0" d="M471.6,113.7c-9.1,6.6-14.3,32-18.2,36.9C459.6,147.8,459.6,128.4,471.6,113.7z"/>
	<path class="st0" d="M352.2,128c14.9,3.1,22.9-3.6,31.1-3C373,125.8,365,132.4,352.2,128z"/>
	<path class="st0" d="M497.8,136.2c-5.5,14.2-0.2,23.2-2.1,31.1C496.6,157.1,491.4,148.1,497.8,136.2z"/>
	<path class="st0" d="M305.1,107.5c7.9,2.2,10.2,2.9,15.3,9.7C313.7,110.5,308,108.8,305.1,107.5z"/>
	<path class="st0" d="M543.5,188.4c-3.6,7.4-4.7,9.5-12.3,13.3C539,196.4,541.7,191,543.5,188.4z"/>
	<path class="st0" d="M486,118.2c0,3.5-0.7,12.3-2.9,14.6C484.4,130.2,484.9,122.6,486,118.2z"/>
	<path class="st0" d="M736.7,78.3c-3.5,0.5-12.3,1.1-14.9-0.8C724.7,78.4,732.3,77.9,736.7,78.3z"/>
	<path class="st0" d="M502.8,189.4c-1.3,4.4-1.5,13.3-3.5,15.9C500.4,202.5,500.8,192.9,502.8,189.4z"/>
	<path class="st0" d="M311.6,80.1c4.1,1.6,9.3,5.2,10.5,9.2C319.9,86,316.2,83.3,311.6,80.1z"/>
	<path class="st0" d="M355.7,107c-3.2-0.8-7.4-3-8.6-6C349,103.3,351.9,105,355.7,107z"/>
	<path class="st0" d="M217.2,121.6c1.4-3,4.3-6.8,7.4-7.4C222,115.7,219.8,118.3,217.2,121.6z"/>
	<g>
		<path class="st0" d="M242.6,126c1.6-2,1.3-1.7,2.8-3.1c-0.2-0.1-0.4-0.2-0.5-0.3C244.2,123.4,243.7,123.9,242.6,126z"/>
	</g>
	<path class="st0" d="M373.6,149c-1.8,2.8-5.4,6-9.1,6.1C367.7,154.1,370.4,151.9,373.6,149z"/>
	<path class="st0" d="M491.9,201.9c-0.2,3.3-1.5,7.9-4.2,9.6C489.6,209.2,490.7,205.9,491.9,201.9z"/>
	<path class="st0" d="M557.7,152.8c1.3,3,3.8,12.2,0.2,16.1C559.8,164.6,558.4,157,557.7,152.8z"/>
	<path class="st0" d="M402.2,101c-2,2.6-7.7,8.2-10.9,8.1C394.2,108.2,398.9,103.6,402.2,101z"/>
	<path class="st0" d="M538.7,120.4c2.4,2.3,5.1,6.3,4.7,9.4C542.9,126.9,541,123.9,538.7,120.4z"/>
	<path class="st0" d="M435,67.6c-1.6,3.5-11.7,16-16.8,19.1C424.2,79.9,432.4,70.9,435,67.6z"/>
	<path class="st0" d="M329.7,106.7c3.3,6.1,21.8,16,28.1,14.3C350.2,120.2,334.3,112,329.7,106.7z"/>
	<path class="st0" d="M412.9,114.7c-6.2,3-16.3,22.4-14.9,28.8C399.2,136,407.4,119.1,412.9,114.7z"/>
	<path class="st0" d="M309.9,163.8c5.3,4.4,26.2,6.8,31.4,2.8C333.9,168.7,316.1,166.9,309.9,163.8z"/>
	<path class="st0" d="M366.3,158.5c6.9-0.7,23.3-13.7,24.2-20.2C386.7,145,372.9,156.3,366.3,158.5z"/>
	<path class="st0" d="M423.9,111.5c-5.3,4.4-11.5,24.5-8.5,30.3C414.7,134.2,419.7,117.1,423.9,111.5z"/>
	<path class="st0" d="M494.9,206.8c4.8-4.9,9-25.5,5.4-31C501.8,183.3,498.6,200.9,494.9,206.8z"/>
	<path class="st0" d="M424.3,86.4c7.8-0.8,23.5-19.7,23.5-26.3C445,67.2,432.5,83.3,424.3,86.4z"/>
	<path class="st0" d="M294.7,157.4c0-7.8-17.2-25.4-23.7-26C277.8,134.9,292.6,148.9,294.7,157.4z"/>
	<path class="st0" d="M332.9,177.3c-4.3,2.6-26.2,1.1-29.4-2.9C308.4,177.2,328.2,178.8,332.9,177.3z"/>
	<path class="st0" d="M406.3,113.5c-9.2,6.8-11.8,11.2-21.6,13.1C392.6,127.4,401.9,118.5,406.3,113.5z"/>
	<path class="st0" d="M422.9,101.3c-3.9,6.2-27.6,17.6-34.7,13.1C397.1,115.4,417.2,108.1,422.9,101.3z"/>
	<path class="st0" d="M512.3,183.7c-4-6.1-5.5-26.2,1.6-30.7C508.2,163,509.5,170.2,512.3,183.7z"/>
	<path class="st0" d="M456.4,173.8c-0.4-6.1,5.7-27.9,12.1-31.2C462.6,153.2,456.1,168,456.4,173.8z"/>
	<path class="st0" d="M303.1,86.5c10.4,0.3,17.7,11.6,21.6,18.3C320.2,98.5,314.9,89.8,303.1,86.5z"/>
	<path class="st0" d="M446.1,145.8c-4.1-9.6,2.9-21,7.4-27.4C449.6,125.2,444,133.7,446.1,145.8z"/>
	<path class="st0" d="M440.7,78.1c-0.7,10.4-13.2,18.2-21.2,20.3C427,94.5,437.1,89.8,440.7,78.1z"/>
	<path class="st0" d="M476,200.4c-4.7-9.3,4.8-21,7.5-28.5C481.6,179.4,473.2,188.5,476,200.4z"/>
	<path class="st0" d="M273,86.6c10.1,2.4,15.1,14.8,17.6,22.2C287.4,101.7,283.9,92.1,273,86.6z"/>
	<path class="st0" d="M236.5,102.3c9.1-5.1,21.2,0.7,28,4.5C257.3,103.7,248.2,99,236.5,102.3z"/>
	<path class="st0" d="M303.7,94.6c10.6,3.7,14.6,18.5,24.2,24.5C318.1,116.5,318,104.5,303.7,94.6z"/>
	<path class="st0" d="M443.5,180.6c-5.3-9.9,1.9-23.5-1-34.4C447.8,154.7,439.8,163.6,443.5,180.6z"/>
	<path class="st0" d="M334.6,163.4c-10.7,3.3-22.8-6.2-34-5.4C310,154.3,317.2,163.9,334.6,163.4z"/>
	<path class="st0" d="M490,147.3c5.3,9.9-0.5,23.7,2.4,34.6C487,173.4,493.7,164.2,490,147.3z"/>
	<path class="st0" d="M303.8,135.4c-7.9-8-5.1-23-11-32.6C300.4,109.4,295.3,120.3,303.8,135.4z"/>
	<path class="st0" d="M274.7,108.1c9,6.7,7.5,22.3,14.8,30.9C281,133.6,285.3,121.9,274.7,108.1z"/>
	<path class="st0" d="M512.1,101.4c6.3,9.3,0.7,23.6,4.7,34.1C510.5,127.5,517.6,117.8,512.1,101.4z"/>
	<path class="st0" d="M507.6,139c3.5,10.7-5.8,22.9-4.8,34.1C499,163.8,508.4,156.4,507.6,139z"/>
	<path class="st0" d="M330.6,125.8c-14.9-3.1-19.6-12.3-27.3-15.1C312.3,115.6,317.1,124.8,330.6,125.8z"/>
	<path class="st0" d="M769.7,88.4c7.3,10.8,11.9,14.6,15.2,21.5C782.8,101.9,773.4,92.2,769.7,88.4z"/>
	<path class="st0" d="M306.8,119.1c0,0-0.6,0-0.9,0.1c-0.1-0.3-1.8-7.6-2.1-8C304.2,111.3,306.1,116,306.8,119.1z"/>
	<path class="st0" d="M234.7,126.7h1c1.4-2,3.4-3.6,6-5.9C238,123.3,236.2,124.5,234.7,126.7z"/>
	<path class="st0" d="M606.8,65.1c-4.2,10.2-12.3,15.4-22.3,15.9C593.3,79.7,601.3,74.3,606.8,65.1z"/>
	<path class="st0" d="M573.8,82.8c-5.2-4.2-11.2-18.4-8.6-24.5C565,66,569.9,77,573.8,82.8z"/>
	<path class="st0" d="M567.4,44.7c2.4,12.8,1.8,18.7,4.3,25.9C567.5,63.5,567.4,50,567.4,44.7z"/>
	<path class="st0" d="M571.7,45.2c-0.1,3.8,1,12.9,3.1,15C573.5,57.7,572.6,49.6,571.7,45.2z"/>
	<path class="st0" d="M560.7,59.5c0.2,3.8,2.1,12.8,4.3,14.7C563.6,71.8,561.9,63.8,560.7,59.5z"/>
	<path class="st0" d="M547.9,69.8c4.1,14.6,12,21.8,15.3,29.3C557.7,90.4,549.9,83.2,547.9,69.8z"/>
	<path class="st0" d="M554,69.5c3.6,11.3,5.4,18.3,11,22.9C559.7,89.5,555.1,83.4,554,69.5z"/>
	<path class="st0" d="M579,92.6c-7.8-0.8-23.5-19.7-23.5-26.3C558.3,73.5,570.8,89.6,579,92.6z"/>
	<path class="st0" d="M605.6,53.4c0.8,3.2,0.7,8-1.3,10.4C605.4,61,605.5,57.6,605.6,53.4z"/>
	<path class="st0" d="M576,59c0.8,6.9,10.6,14.8,16.5,10.2C586,71.4,578.3,65.6,576,59z"/>
	<path class="st0" d="M598,73c-10.3,5-16.1,3.7-21.1-1.9C581.5,80,592.8,77.2,598,73z"/>
	<path class="st0" d="M602.8,48.9c3.7,9.8-2.4,22.7-12,24.7C598.9,69.9,604.8,61.3,602.8,48.9z"/>
	<path class="st0" d="M582.1,91.2c-8.7-12.5-5.7-22.4-9.4-29.8C575.9,71.2,573,81.2,582.1,91.2z"/>
	<path class="st0" d="M616.8,80.1c0.3-4.1,3.1-13,8.3-16.4c-3.8,3.9-7.4,11.7-7.3,15.7C617.9,80.5,617.1,79.3,616.8,80.1z"/>
	<path class="st0" d="M669.2,46.7c2.3-3.5,6.9-6.4,13.1-6.7c-6.2,1.3-9.8,3.4-11.7,6.9C670,48,669.9,46.2,669.2,46.7z"/>
	<path class="st0" d="M598,105.4c9.7,3.8,12.8,16.8,14.2,24.5C610.1,122.5,608,112.4,598,105.4z"/>
	<path class="st0" d="M588.5,121.4c1.2,4.3,1.2,14.8-1.4,18.1C588.5,135.8,588.7,127.1,588.5,121.4z"/>
	<path class="st0" d="M693,130.9c-3.2,3-12.5,8-16.7,7.3C680.3,137.7,688.2,133.7,693,130.9z"/>
	<path class="st0" d="M670.4,123.9c-4.3,1.1-14.8,0.9-18.1-1.8C656,123.6,664.8,124,670.4,123.9z"/>
	<path class="st0" d="M722.7,121.2c4.2-1.4,14.8-1.9,18.2,0.6C737.1,120.6,728.3,120.8,722.7,121.2z"/>
	<path class="st0" d="M646.3,122.6c-4.2-1.2-13.3-6.6-14.8-10.6C634,115.2,641.4,119.9,646.3,122.6z"/>
	<path class="st0" d="M636.4,139.2c-4.2-1.3-13.1-7-14.5-11C624.2,131.4,631.5,136.3,636.4,139.2z"/>
	<path class="st0" d="M689.2,124.8c-3.3,2.9-12.7,7.7-16.9,6.8C676.3,131.2,684.2,127.5,689.2,124.8z"/>
	<path class="st0" d="M620.8,117.2c-10.3-8-15.9-10.1-21.1-15.7C604.2,108.5,616.2,114.8,620.8,117.2z"/>
	<path class="st0" d="M689.5,107.5c-2.1,2.6-5.9,5.4-9.1,5.3C683.4,112,686.1,110,689.5,107.5z"/>
	<path class="st0" d="M610.3,75.9c1.2-3.6,4.1-8.2,7.8-9.3C615.1,68.6,612.9,71.8,610.3,75.9z"/>
	<path class="st0" d="M687.1,130.8c2.7-2,14.6-8.7,21.6-5.8C700.4,123.7,691,129.2,687.1,130.8z"/>
	<path class="st0" d="M683.8,114.6c-2.8,1.7-15.4,7.2-22.1,3.7C669.8,120.4,679.7,115.8,683.8,114.6z"/>
	<path class="st0" d="M647.9,54.4c3.2-0.9,16.8-2.8,22.3,2.3C662.8,52.6,652.1,54.3,647.9,54.4z"/>
	<path class="st0" d="M718.1,50.2c2.6,2.1,12,12,11,19.5C728.3,61.3,720.6,53.6,718.1,50.2z"/>
	<path class="st0" d="M585.9,88.3c2.1,3,6.1,6.5,5.4,11.4C590.6,96.5,586.6,91.2,585.9,88.3z"/>
	<path class="st0" d="M618.9,62.7c2.9-2.8,6-7.7,11.8-7.7C626.6,55.8,621.6,61.2,618.9,62.7z"/>
	<path class="st0" d="M623.4,112.8c2.9,2.3,7.7,4.4,8.5,9.3C630.2,119.3,624.9,115.3,623.4,112.8z"/>
	<path class="st0" d="M680.8,66.7c3.6,0.5,8.9-0.1,12,3.7C690,68.8,683.4,68.1,680.8,66.7z"/>
	<path class="st0" d="M679.4,37.7c3.6-0.6,8.5-2.6,12.6,0.1C688.8,36.3,682.3,37.8,679.4,37.7z"/>
	<path class="st0" d="M729,125.6c4-0.2,9.6-2,14,1.7C739.5,126,736,125.7,729,125.6z"/>
	<path class="st0" d="M628.4,92.7c4.9-5.5,31.1-12.7,37.4-7C657.3,83.3,635.1,87,628.4,92.7z"/>
	<path class="st0" d="M715.1,105.7c7.7,0.3,31.8,10.8,32.8,19.2C743.1,117.5,724.1,107.2,715.1,105.7z"/>
	<path class="st0" d="M705.1,42.5c6.8,2.7,22.7,24.8,19.5,32.7C724,66.3,712.8,46.8,705.1,42.5z"/>
	<path class="st0" d="M792.1,124.2c0.5,7.3-12.9,31-21.3,31.5C778.5,151.3,791.5,133,792.1,124.2z"/>
	<path class="st0" d="M663,121.1c-7.3,0.4-29.6-13.2-30.1-21.6C637.3,107.2,654.2,119.4,663,121.1z"/>
	<path class="st0" d="M613.6,91.7c5.9,2,13.3-0.4,17.2-5C626.4,90.3,620.4,92.7,613.6,91.7z"/>
	<path class="st0" d="M588,113.9c-1.6-7-2.4-14.4-8.4-17.3C582.1,100.9,585,103.5,588,113.9z"/>
	<path class="st0" d="M649.7,110.7c6.5,3.1,12.9,6.9,18.8,4C663.6,114.1,659.8,114.7,649.7,110.7z"/>
	<path class="st0" d="M776.6,114.3c1.7,8.2,4.3,16.4-0.9,22.3C777.2,132,779,127.7,776.6,114.3z"/>
	<path class="st0" d="M649.8,52.4c-7.2,0.5-14.6,0.3-18.3,5.8C635.8,55.7,639.1,53.8,649.8,52.4z"/>
	<path class="st0" d="M634.2,83.6c-3.8,0.7-12.9,1.1-15.3-0.5C621.6,83.9,629.7,83.5,634.2,83.6z"/>
	<path class="st0" d="M668.3,53.1c3.8,0.4,12.6,2.7,14.5,5C680.4,56.6,672.5,54.6,668.3,53.1z"/>
	<path class="st0" d="M786.7,105.1c2.2,4.6,1.7,10.5-0.8,13.9C787.2,115.3,787.9,110.4,786.7,105.1z"/>
	<path class="st0" d="M710.7,134.8c2.8-4.8,8.7-7.9,13.3-7.6C719.8,128.2,714.8,130.6,710.7,134.8z"/>
	<path class="st0" d="M765,121.2c3.7,4.1,4.9,10.6,3.3,15C768.5,131.8,767.7,126.4,765,121.2z"/>
	<path class="st0" d="M574.4,166.1c0.1,4.4-1.2,10.6-4.5,13.2C572.1,176.1,573.2,171.6,574.4,166.1z"/>
	<path class="st0" d="M586.8,161c0.8,4.3,1,8.4-1.9,11.5C586.6,168.9,586.6,166.6,586.8,161z"/>
	<path class="st0" d="M614.4,126.5c1.8,4,3,10.2,1,13.9C616.1,136.5,615.4,132,614.4,126.5z"/>
	<path class="st0" d="M592.4,132.6c1.4,4.2-1,18.7-3.5,22.1C590.1,151,592.8,138.2,592.4,132.6z"/>
	<path class="st0" d="M593.6,158.9c2.5-3.6,4.7-9.6,3.3-13.6C597,149.4,595.5,153.7,593.6,158.9z"/>
	<path class="st0" d="M674.6,64.4c-3.9,0-9.9-1.3-11.5-2.8C664.9,62.3,670.8,62.8,674.6,64.4z"/>
	<path class="st0" d="M688.1,123.3c3.3-1.6,11.6-1.8,13.4-2.2C699.7,120.9,691.2,120.9,688.1,123.3z"/>
	<path class="st0" d="M702.1,51.4c2.1,3.3,4.2,9.1,3.8,11.2C705.5,60.7,702.8,55.5,702.1,51.4z"/>
	<path class="st0" d="M618.3,85.9c-3.8,0.6-19.8-0.8-25.2-3.4C602.1,83.7,614.1,85.6,618.3,85.9z"/>
	<path class="st0" d="M693.2,72.4c-2.8,0.5-14.9-0.6-19-2.5C681,70.8,690.1,72.1,693.2,72.4z"/>
	<path class="st0" d="M785.7,45.1c2.9,5.7-9.5,25.1-15.4,25.6C774.2,69.1,786.1,52.2,785.7,45.1z"/>
	<path class="st0" d="M752.5,70.7c-2.8,0.5-14.9-0.6-19-2.5C740.3,69.1,749.4,70.4,752.5,70.7z"/>
	<path class="st0" d="M736.9,81.8c-2.8,0.5-14.9-0.6-19-2.5C724.7,80.2,733.7,81.6,736.9,81.8z"/>
	<path class="st0" d="M664.4,88c3.8,0,19.4,4.1,24.3,7.6C680,92.8,668.5,89,664.4,88z"/>
	<path class="st0" d="M668.9,134.4c-3.8,0.6-19.8-1.1-25.1-3.8C652.7,131.9,664.7,134,668.9,134.4z"/>
	<path class="st0" d="M656.6,73c3.8-0.6,23.4,1.2,28.8,3.8C676.4,75.6,660.8,73.4,656.6,73z"/>
	<path class="st0" d="M753.4,73.9c-3.7,0.9-22,2-27.5-0.1C735,74.3,749.3,73.9,753.4,73.9z"/>
	<path class="st0" d="M722.4,63.1c-3.7,0.9-23.5,0.6-29-1.6C702.5,62.1,718.2,63.1,722.4,63.1z"/>
	<path class="st0" d="M598.8,112.1c2.5,2.6,9.6,14.2,5,19.9C605.5,126.4,601.2,117.1,598.8,112.1z"/>
	<path class="st0" d="M626.7,52.1c2.9-2.2,24-8,30.5-1.9C647.9,46.4,631.9,50.3,626.7,52.1z"/>
	<path class="st0" d="M551,124.8c4.1,12.4,7.5,17.3,8.8,24.8C559.9,141.2,553.5,129.4,551,124.8z"/>
	<path class="st0" d="M579.8,129.9c1.9,15.4,5.1,21.9,4.7,31C586.9,151.3,581.7,135.9,579.8,129.9z"/>
	<path class="st0" d="M600.1,143.7c-0.7,11.4,0.3,13.6-4.5,22.3C601.3,160.6,601.2,150.3,600.1,143.7z"/>
	<path class="st0" d="M702.8,118.5c7.2,4.4,15.9,5.6,19.9-1.3C718.1,121,709.8,121.7,702.8,118.5z"/>
	<path class="st0" d="M773.9,140.4c2-8.1,0.4-18.3-7.4-20C771.3,121.4,774.8,131.1,773.9,140.4z"/>
	<path class="st0" d="M622.8,108.3c-11.2,0.5-25.4-13.3-30-15C599.3,93.4,604.3,104.3,622.8,108.3z"/>
	<path class="st0" d="M563.3,94.5c9.3,12,10.4,22.6,14.4,29.7C574.1,114.6,572.9,104.1,563.3,94.5z"/>
	<path class="st0" d="M563.3,85.1c6.9,9.6,11.5,15.2,11.8,22.5C575.9,101.6,573.8,94.3,563.3,85.1z"/>
	<path class="st0" d="M607,74.9c6.3-10,9.7-16.4,16.2-19.5C617.4,56.9,611.5,61.6,607,74.9z"/>
	<path class="st0" d="M580.5,149.2c-1,11.8,0,20.4-4.5,26.2C580.5,171.4,582.5,163,580.5,149.2z"/>
	<path class="st0" d="M614.8,118.5c5.3,11.1,4.8,25.7,3.4,32.8C620.5,145.7,622.7,130,614.8,118.5z"/>
	<path class="st0" d="M782.3,116.4c1.6,12.2-3.5,25.9-7,32.2C779.2,144.1,786.3,129.8,782.3,116.4z"/>
	<path class="st0" d="M782,32c1.6,12.2-3.5,25.9-7,32.2C778.9,59.6,785.9,45.4,782,32z"/>
	<path class="st0" d="M599.8,93.4c7.5,3.3,9.8,4.1,18,2C608.3,96.5,602.9,94.2,599.8,93.4z"/>
	<path class="st0" d="M730.6,116.3c-7.5-3.4-9.7-4.4-17.9-2.5C722.1,113,727.5,115.4,730.6,116.3z"/>
	<path class="st0" d="M775.6,169.1c7.2-3.9,9.3-5.1,12.7-12.9C783.3,164.2,778.1,167.2,775.6,169.1z"/>
	<path class="st0" d="M688.3,110.3c5.9,4.5,7.7,5.7,15.3,5.7C695.2,114.8,690.8,111.6,688.3,110.3z"/>
	<path class="st0" d="M751.8,137.6c1.2-7.3,1.5-9.5-2.1-16.2C752.6,129.4,751.8,134.8,751.8,137.6z"/>
	<path class="st0" d="M758.1,166.7c5.6-2.4,7.2-3.1,10.4-8.7C764.2,163.7,760.1,165.5,758.1,166.7z"/>
	<path class="st0" d="M782.4,184.9c0.5-6,0.6-7.8-2.8-13.3C782.5,178.1,782.2,182.5,782.4,184.9z"/>
	<path class="st0" d="M595.3,141.8c4.2-7,5.4-9.1,4.5-17.5C599.5,133.7,596.5,138.9,595.3,141.8z"/>
	<path class="st0" d="M782.8,78.7c-1.1-1.8-3-3.6-4.7-4.9c0,0,0.1-0.3,0.2-0.4C780.5,74.8,782,76.1,782.8,78.7z"/>
	<path class="st0" d="M658.1,136.6c7.5,2.7,21-1.4,24.8-5.5C673.8,136.3,664.8,137.5,658.1,136.6z"/>
	<path class="st0" d="M763.3,166.2c7.8-1,18-10.8,19.6-16.2C777.1,158.8,769.8,164,763.3,166.2z"/>
	<path class="st0" d="M730.5,123.4c-10.5-2.3-31.9,10.2-37.9,10.5C698.5,136.5,712.4,124.2,730.5,123.4z"/>
	<path class="st0" d="M626,69c1.5-2.9,6.1-9.4,9.3-9.9C632.6,60.4,628.8,65.8,626,69z"/>
	<path class="st0" d="M643.6,132.4c-3.7-0.9-17.9-8.5-21.9-12.9C629.5,124.1,639.9,130.5,643.6,132.4z"/>
	<path class="st0" d="M568.8,155.2c4.8-5,7.6-26.6,4-32.1C574.3,130.6,572.4,149.2,568.8,155.2z"/>
	<path class="st0" d="M595.2,130.6c2.5-6.4-3.1-27.5-8.5-31.3C590.9,105.7,596.3,123.7,595.2,130.6z"/>
	<path class="st0" d="M634.5,121.1c4.5,5.2,24.7,11,30.5,7.9C657.4,129.9,640.1,125.2,634.5,121.1z"/>
	<path class="st0" d="M682.6,88c-4.4-5.7-24.9-11.2-31.1-7.3C659.4,79.3,677.1,83.6,682.6,88z"/>
	<path class="st0" d="M690.7,98.9c3.5,6.3,23,14.7,29.7,11.8C712.4,110.9,695.6,104.1,690.7,98.9z"/>
	<path class="st0" d="M734.2,95.2c-2.2-6.8-19.7-18.9-26.9-17.3C715.3,79.2,730.4,89.1,734.2,95.2z"/>
	<path class="st0" d="M602.6,157.2c6.1-4.9,8.8-29.4,5.1-34.8C609.4,129.8,607.8,150.1,602.6,157.2z"/>
	<path class="st0" d="M670.9,50.6c-4.7-6.2-29.1-9.6-34.7-6.1C643.7,43.1,664,45.3,670.9,50.6z"/>
	<path class="st0" d="M576.1,97.7c5.5,4.9,12.9,30.1,7.3,36.3C585.8,125.5,581.8,104.4,576.1,97.7z"/>
	<path class="st0" d="M688.3,119.8c-6.6,8.1-19.9,7.2-27.7,6.2C668.4,126.2,678.6,127.2,688.3,119.8z"/>
	<path class="st0" d="M559.9,121.2c7.5,7.2,6.7,23.6,3.1,31C564.9,144,566.5,131.5,559.9,121.2z"/>
	<path class="st0" d="M707.2,71.2c-11.5,1.1-21.7-10.9-33.1-12.4C684.3,57,689.6,68.1,707.2,71.2z"/>
	<path class="st0" d="M708.9,133.6c-5.9,4.5-15.6,1.4-22.4,4.5C691.5,133.6,698.2,137.9,708.9,133.6z"/>
	<path class="st0" d="M683.5,111.9c0.2-0.2,0.4-0.3,0.6-0.5c1.7,1.6,3.1,2.7,4.7,3.6C686.6,114.6,684.9,113.4,683.5,111.9z"/>
	<path class="st0" d="M773.9,172.1c-0.1,0.2-0.3,0.5-0.4,0.7c1.9,1.4,3.2,2.6,4.4,4C777.2,174.6,775.7,173.2,773.9,172.1z"/>
	<path class="st0" d="M710.1,62.9c-0.2,0-0.4,0-0.6,0c-0.1-1.7-0.3-2.9-0.7-4.2C709.8,60,710.1,61.4,710.1,62.9z"/>
	<path class="st0" d="M737.5,125.7v-0.2c-4.7,1.8-14.9,5.3-22.7,8c5.5-0.2,18.3-5.2,22.9-7.8C737.6,125.7,737.5,125.7,737.5,125.7z"
		/>
	<path class="st0" d="M773.6,118.9c0-3.8-3.3-11.5-6.7-13.8C769.2,108,772.3,114.2,773.6,118.9z"/>
	<path class="st0" d="M780.6,121.9c0.7-8.2,0.8-10.6-3.8-17.7C780.8,112.8,780.4,118.8,780.6,121.9z"/>
	<path class="st0" d="M784.1,97.2c-3.2-6.7-4.2-8.6-11-12C780,90.1,782.4,94.9,784.1,97.2z"/>
	<path class="st0" d="M787.8,87.1c1.7,3.4,4.9,19.2,4,25.1C790.4,103.2,788.7,91.2,787.8,87.1z"/>
	<path class="st0" d="M777.8,78.1c2.7,2.6,5.7,10.3,6.7,11.8C784.1,88.1,781.1,80.2,777.8,78.1z"/>
	<path class="st0" d="M789.5,100.1l0.7-0.8L789.5,100.1z"/>
	<path class="st0" d="M713.8,98.5c-3.8-0.4-26.1-11-30.6-15C691.5,87.2,709.9,97,713.8,98.5z"/>
	<path class="st0" d="M690.5,90.5c4.8,6.9,21.6,14.3,29.4,11.1C714.5,103,698.6,98,690.5,90.5z"/>
	<path class="st0" d="M760.5,144.1c4-7.4,3.6-24.3-2.9-29.8C761.2,122.4,763.4,135.7,760.5,144.1z"/>
	<path class="st0" d="M757.3,122.4c4.4,9.5-2.4,21.4-6.7,27.9C754.2,143.4,759.7,134.4,757.3,122.4z"/>
	<path class="st0" d="M720.4,74c-11.3,0.9-18.6,1.4-25.2-3.1C699.6,75,706.8,77.4,720.4,74z"/>
	<path class="st0" d="M736.8,109.9c10,6.3,16.3,9.8,19.4,16.4C754.7,120.5,750,114.5,736.8,109.9z"/>
	<path class="st0" d="M746,104.3c-10.7-5.1-17.4-7.8-21.2-13.9C726.9,96,732.3,101.4,746,104.3z"/>
	<path class="st0" d="M701.6,66.5c7.8,2.5,10.1,3.1,18.1,0.2C710.4,68.6,704.7,66.9,701.6,66.5z"/>
	<path class="st0" d="M750.3,112.3c-6.8-4.6-11-6.3-19.4-5.7C740.3,107.3,747.4,110.9,750.3,112.3z"/>
	<path class="st0" d="M740.1,161.3c6.5-3.5,9.2-2.6,13.1-10.4C747.9,158.9,742.4,159.5,740.1,161.3z"/>
	<path class="st0" d="M751.9,71.9c8-0.7,10.4-0.9,17.7-7C760.9,70.6,755,71.1,751.9,71.9z"/>
	<path class="st0" d="M788.9,46c-0.8-8-1.2-10.4-7.4-17.5C787.4,37.1,788.1,42.9,788.9,46z"/>
	<path class="st0" d="M749,66.3c6.4,1.9,21.5-1.3,25-6.9C767.9,64,756,66.2,749,66.3z"/>
	<path class="st0" d="M703.2,86c3.7,9.8,22.4,15.4,30.1,16.9C725.8,100.7,710,96.1,703.2,86z"/>
	<path class="st0" d="M794.9,88.6c2,2.7,3.8,11.1,2.9,14.1C797.7,99.7,796.5,92.5,794.9,88.6z"/>
	<g>
		<path class="st0" d="M662.8,66.4c-3-0.6-2.5-0.5-4.9-0.7c0-0.2,0.1-0.5,0.2-0.7C659.2,65.3,660.2,65.4,662.8,66.4z"/>
	</g>
	<path class="st0" d="M701.9,89.7c-3.5-6.9-27-14.6-33-12.2C676.5,77.5,696.1,83.2,701.9,89.7z"/>
	<path class="st0" d="M685.6,74.8c10.4-0.4,20.8,8,25.1,14.4C705.8,83.2,697.6,77.2,685.6,74.8z"/>
	<path class="st0" d="M769.1,67.6c-6.1,8.4-25.2,12.8-32.9,12.3C743.9,79.6,759.8,75.6,769.1,67.6z"/>
	<path class="st0" d="M703.9,78.3c9.4,2,14.2,15.1,23,19.3C718.4,96.5,717.2,85.3,703.9,78.3z"/>
	<path class="st0" d="M717.5,63.5l-0.9-0.4c-0.4-2.4-1.5-4.7-2.8-8C716.1,58.9,717.3,60.8,717.5,63.5z"/>
	<path class="st0" d="M558.2,111.1C557.2,96,548.6,90,547,82C550.5,91.6,559,97.5,558.2,111.1z"/>
	<path class="st0" d="M560.9,100.5c5.3,10.6,8.9,16.8,8.1,24C570.8,118.8,569.9,111.3,560.9,100.5z"/>
	<path class="st0" d="M544.4,106.4c6.6,9.4,10.9,12.1,12.6,21.9C558,120.4,549.3,110.9,544.4,106.4z"/>
	<path class="st0" d="M553.4,103.3c2,3.2,8.5,10.1,7.6,15.1C560.4,115.1,554,106.3,553.4,103.3z"/>
	<path class="st0" d="M762.9,161.3c-3.3,2.1-11.8,6.9-15.3,6.3C750.9,167.2,758.2,163,762.9,161.3z"/>
	<path class="st0" d="M770.9,146.1c-1.5,4.1-7.7,12.7-11.7,13.9C762.5,157.8,767.8,150.7,770.9,146.1z"/>
	<path class="st0" d="M782.1,166.7c-2.7,3.5-10.1,7.8-14.3,7.7C771.6,173.3,777.7,170.1,782.1,166.7z"/>
	<path class="st0" d="M795,100.7c1.4,4.2,2.3,16.6-0.2,20C796,116.9,795.5,106.3,795,100.7z"/>
	<path class="st0" d="M790,140.4c-0.5,5.4-5.2,17.8-9.8,20.5C783.6,157.2,787.7,147.1,790,140.4z"/>
	<path class="st0" d="M771.7,130.7c0.3,4.4-1.9,14.8-5.2,17.4C768.7,144.8,770.7,136.2,771.7,130.7z"/>
	<path class="st0" d="M782.9,74.1c2.5,2.2,11.6,12.4,10.4,19.8C792.7,85.6,785.3,77.6,782.9,74.1z"/>
	<path class="st0" d="M789.4,118.3c-0.5,3.6,0,8.9-3.9,12C787.2,127.5,788,120.9,789.4,118.3z"/>
	<path class="st0" d="M763.6,168.8c-3.4,1.3-7.8,4.3-12.4,2.5C755.3,171.7,761.2,169,763.6,168.8z"/>
	<path class="st0" d="M784.8,61.3c-0.1,5.5-21.2,21.2-31.8,19.7C765.5,79.6,779.6,68.6,784.8,61.3z"/>
	<path class="st0" d="M740.5,61.3c6.9,1.9,13.9,4.6,19.2,0.7C754.7,62.2,751.1,63.5,740.5,61.3z"/>
	<path class="st0" d="M797.9,122c0.2,3.8-2.8,19.6-5.9,24.7C794.1,137.9,797.2,126.1,797.9,122z"/>
	<path class="st0" d="M769.5,57c6.7-5.1,11-12.8,6-19C777.4,43.8,775.1,51.7,769.5,57z"/>
	<path class="st0" d="M745.6,67.2c-11.2-1.3-23-17.1-27.3-19.6C724.8,48.7,728,60.3,745.6,67.2z"/>
	<path class="st0" d="M750.7,158.4c5.7-5.9,7.3-7.7,8.2-16.1C756.6,151.4,752.5,155.8,750.7,158.4z"/>
	<path class="st0" d="M754.1,174.3c7.8,1.1,20.2-5.8,23.2-10.5C769.3,170.8,760.8,173.9,754.1,174.3z"/>
	<path class="st0" d="M746.4,163.6c6.6-2.1,20.1-18.1,19.6-24.7C763.7,146.2,752.4,160.2,746.4,163.6z"/>
	<path class="st0" d="M689.1,39.9c10.4,0.1,18,11.1,22,17.9C706.4,51.6,700.9,42.9,689.1,39.9z"/>
	<path class="st0" d="M745.7,106.3c7.5,0.2,14.8,6.6,20.2,10.7C759.2,113.9,756.7,109.7,745.7,106.3z"/>
	<path class="st0" d="M551.8,148.3c-1.5-17.6-7.5-30.7-20.5-43.9C540.8,116.4,549.5,131.2,551.8,148.3z"/>
	<path class="st0" d="M324.7,171.5c17.5,2,31.5-1.3,47.1-11.3C358.2,167,341.9,172.7,324.7,171.5z"/>
	<path class="st0" d="M553.8,148.4c4.7,28.7-4.5,54.2-38.9,64.9C549.9,200.5,554.7,177.4,553.8,148.4z"/>
	<path class="st0" d="M318.5,181.6c28.5,1.7,64.6-16.1,77.1-43.9C378,166.5,349.8,179.9,318.5,181.6z"/>
	<path class="st0" d="M456.7,78.5c3.6,9.8-4.1,20.8-8.9,26.9C452,98.9,458.1,90.7,456.7,78.5z"/>
	<path class="st0" d="M458.9,103.7c4.4-5.1,7.9-20.1,4.3-25.6C464.7,85.7,461.8,97.4,458.9,103.7z"/>
	<path class="st0" d="M446.2,87.6c-0.1,4.4-3.1,14.5-6.6,17C442,101.5,444.7,93.1,446.2,87.6z"/>
	<path class="st0" d="M447.1,68.8c-4.1,12.4-4.3,18.3-7.7,25.1C444.4,87.4,446.3,74.1,447.1,68.8z"/>
	<path class="st0" d="M451.7,89.7c0.1,3.3-0.9,8-3.4,9.9C450,97.2,450.8,93.9,451.7,89.7z"/>
	<path class="st0" d="M437.4,92.6c-2.6,2.6-5.3,7.2-10.2,7.4C430.1,98.6,434.7,93.8,437.4,92.6z"/>
	<path class="st0" d="M431.2,150.9c-2.5-6.9,3.5-33.4,11.5-36.3C436.5,121,429.3,142.3,431.2,150.9z"/>
	<path class="st0" d="M451.2,137.2c-0.7-7.3,12.2-30.1,20.6-30.8C464.2,111,452.7,128.4,451.2,137.2z"/>
	<path class="st0" d="M441.5,121.3c4.8-1.8,8.5-6.5,8.9-10.7C448.8,114.3,445.9,118.3,441.5,121.3z"/>
	<path class="st0" d="M429.4,118.4c4.7-5.4,10.1-10.6,8.9-17C436.4,105.9,436,109.8,429.4,118.4z"/>
	<path class="st0" d="M342.6,86.5c5.9-5.7,7.7-7.3,16.1-8.2C349.5,80.6,345.2,84.6,342.6,86.5z"/>
	<path class="st0" d="M410.1,97.1c-1,4-4.1,7.9-9.9,10.3c4.5-3.2,8.1-5.8,8.7-9.7C409.1,96.4,409.7,97.8,410.1,97.1z"/>
	<path class="st0" d="M403.3,145.4c-1.8-3.8-1.7-8.5,1.3-14c-2.2,5.9-2.2,10.2-0.2,13.6C405,146,403.2,144.5,403.3,145.4z"/>
	<path class="st0" d="M333.4,79.6c-0.5,0.3-0.8-0.3-0.7-0.4c2.6-4,5.2-9.2,14.4-9.7C339.3,70.9,334.1,77.6,333.4,79.6z"/>
	<path class="st0" d="M395.1,144.2c-0.7,4.4-3.2,10.2-6.9,12.1C391,153.5,392.9,149.4,395.1,144.2z"/>
</g>
<g id="Details">
	<g>
		<path class="st3" d="M626.3,79.2c0,0,6.2-14.6,18.3-20.8c6.3-3.2,17.7,0,17.7,0s-5.1,12-14.7,17.2
			C637.9,80.9,626.3,79.2,626.3,79.2z"/>
		<path class="st1" d="M637.4,76c0,1.2-0.4,2.3-1,3.2c-1.2,0.4-1.6,0.4-3.7,0.4c-3.3,0-6.5-0.4-6.5-0.4s3.3-7.3,5.6-9
			C635,70.1,637.4,72.7,637.4,76z"/>
		<path class="st0" d="M634.9,76.7c0,0.9-0.3,1.7-0.8,2.4c-0.9,0.3-1.2,0.3-2.8,0.3c-2.5,0-5-0.3-5-0.3s2.5-5.4,4.3-6.7
			C633.1,72.4,634.9,74.3,634.9,76.7z"/>
		<path class="st1" d="M655.6,60.3c-0.4-1.1-0.4-2.3-0.1-3.4c1-0.8,6.7,1,6.7,1s-2.1,6.6-3.3,6.1C657.4,63.5,656.2,62.1,655.6,60.3z
			"/>
		<path class="st0" d="M658.4,59.7c-0.2-0.7-0.2-1.4,0-2.1c0.6-0.5,4.1,0.6,4.1,0.6s-1.3,4-2,3.8C659.5,61.6,658.7,60.8,658.4,59.7z
			"/>
		<path class="st0" d="M648.6,56.3c-11.7,2-20.2,18.6-23.2,22.6C620.3,79.6,602,78,602,78s18.7,4,36.7,1.4c12.5-1.8,21.2-15,24.2-20
			c5.3,0.1,16.6,4.4,16.6,4.4S660.2,54.3,648.6,56.3z M647.3,75.5c-9.2,5.1-20.3,3.4-20.3,3.4s5.9-14.1,17.5-20.1
			c6-3.1,16.8,0,16.8,0S656.5,70.4,647.3,75.5z"/>
	</g>
	<g>
		<path class="st3" d="M692.3,44.8c6.2,2.2,9.3,11,8.3,15.2c-6.2,0-11.3-2-15.8-4.3c-3-1.5-7.5-4.5-12-7.3
			C679,44.3,686.1,42.6,692.3,44.8z"/>
		<ellipse class="st1" cx="690.4" cy="50.2" rx="6" ry="5.9"/>
		<ellipse class="st4" cx="690.8" cy="49.3" rx="4.1" ry="4"/>
		<path class="st0" d="M674.7,47.6c-0.5,0.5-0.5,0.9,0,1.7l-1.8-0.7L674.7,47.6z"/>
		<path class="st0" d="M692.7,44c-8.1-3-17.5,2.1-19.8,4.3c-2.7-1.4-4.1-2.1-6.8-3.2c6.2,3.7,14.4,9.2,19.2,11.6s9.1,3.7,15.7,3.6
			C702,55.1,699.3,46.4,692.7,44z M700.6,59.9c-6.1,0-11.1-2-15.5-4.3c-3-1.5-7.4-4.5-11.8-7.1c6.1-4.2,13.1-5.8,19.2-3.6
			S701.6,55.8,700.6,59.9z"/>
		<path class="st0" d="M673.8,48.2c-0.2,0.2-0.2,0.4,0,0.7c0,0,0.6,0.3,0.8,0.4s0.6,0.5,0.8,0.6l-2.1-0.9l-0.1-0.6L673.8,48.2z"/>
	</g>
	<g id="r._mouth">
		<path class="st0" d="M782,70.1c-14.2,11.7-32.1,15.4-52,12.5c8,16.6,28.5,22,44.3,39.8c-0.6-1.2-1.2-2-2.5-3.7
			c0,0,7.5-14.9,8.3-26.3S775.4,76,775.4,76C777.9,74.6,780.2,72.4,782,70.1z"/>
		<path class="st3" d="M740.3,87.2c0.1-0.2-2.9-1.9-5.4-3.2c-1-0.1-1.9-0.2-2.9-0.4c0.5,1.1,1.1,2.1,1.7,3.1
			C736.5,87.1,740.2,87.5,740.3,87.2z"/>
		<path class="st3" d="M740.9,84.3c-1.6-0.1-3.2-0.2-4.8-0.3c2,1.3,7.2,4.5,7.4,4.3C743.7,88.1,742.4,86.2,740.9,84.3z"/>
		<path class="st3" d="M741.5,88.5c0-0.4-5.5-0.2-6.8-0.1c0.8,1.1,1.6,2.1,2.5,3.1C738.8,90.4,741.5,88.7,741.5,88.5z"/>
		<path class="st3" d="M744.3,90.7c-0.1-0.3-4.8,1.3-6.3,1.8c0.9,0.9,1.8,1.7,2.8,2.6C742,93.7,744.4,91,744.3,90.7z"/>
		<path class="st3" d="M741.9,96.2c1,0.8,1.9,1.5,2.9,2.3c1.1-1.5,3.2-4.6,3-4.8C747.7,93.3,743.5,95.4,741.9,96.2z"/>
		<path class="st3" d="M746.2,99.2c1,0.7,2,1.5,3.1,2.2c1.3-1.4,3.4-3.8,3.3-4C752.4,97.1,747.7,98.7,746.2,99.2z"/>
		<path class="st3" d="M755.6,99c-0.2-0.3-3.5,2.2-5.1,3.4c1,0.7,2,1.4,3,2.1C754.3,102.8,755.8,99.3,755.6,99z"/>
		<path class="st3" d="M758.9,101.2c-0.3-0.2-2.7,2.5-4,4.1c1,0.7,2,1.4,3,2.1C758.3,105.9,759.2,101.4,758.9,101.2z"/>
		<path class="st3" d="M761.8,104c-0.3-0.1-1.9,2.3-3,4.1c1,0.7,2,1.4,2.9,2.2C761.8,108.8,762.1,104.2,761.8,104z"/>
		<path class="st3" d="M765.1,106.9c-0.3-0.1-1.5,2.2-2.5,4.1c1,0.8,2,1.6,3,2.4C765.5,112,765.4,107,765.1,106.9z"/>
		<path class="st3" d="M769.3,109.9c-0.3-0.1-1.9,2.2-3,4c1,0.8,1.9,1.7,2.8,2.6C769.2,115.4,769.6,110.1,769.3,109.9z"/>
		<path class="st3" d="M769.3,108.9c-0.3,0.2,2.6,4.3,3.5,5.6c0.4-1,0.9-2.2,1.5-3.5C772.6,110.1,769.5,108.7,769.3,108.9z"/>
		<path class="st3" d="M770,105.9c-0.2,0.3,3.2,2.5,4.9,3.6c0.4-1.1,0.8-2.2,1.2-3.4C774.4,105.9,770.2,105.6,770,105.9z"/>
		<path class="st3" d="M771.4,101.4c-0.2,0.3,3.5,3,5,4.1c0.4-1.2,0.8-2.4,1.1-3.6C775.7,101.6,771.6,101.1,771.4,101.4z"/>
		<path class="st3" d="M772.7,99.5c0,0.3,3,0.9,5,1.4c0.3-1.2,0.6-2.3,0.8-3.5C776.9,97.8,772.7,99.1,772.7,99.5z"/>
		<path class="st3" d="M778.7,96.4c0.2-1.2,0.4-2.4,0.4-3.6l0,0c-1.7,0.3-5.9,1.2-5.9,1.5C773.1,94.6,776.7,95.8,778.7,96.4z"/>
		<path class="st3" d="M779.2,91.6c0-1.3,0-2.5-0.1-3.7c-1.8,0.3-5.6,1-5.7,1.3C773.3,89.6,777.4,91,779.2,91.6z"/>
		<path class="st3" d="M772.9,86.3c0,0.3,4.1,0.6,6,0.7c-0.2-1.3-0.5-2.5-0.8-3.5C776.5,84.2,772.9,85.9,772.9,86.3z"/>
		<path class="st3" d="M772,82.6c0,0.3,3.9,0.1,5.9,0c-0.5-1.3-1-2.3-1.5-3.1C774.7,80.5,771.9,82.3,772,82.6z"/>
		<path class="st3" d="M749.8,89.4c0.3,0,0.1-3.2-0.1-5.3c-1.2,0.1-2.4,0.2-3.6,0.2C746.9,85.6,749.4,89.4,749.8,89.4z"/>
		<path class="st3" d="M746.1,88.9c0.3-0.1-0.2-2.6-0.7-4.6c-1.2,0-2.5,0.1-3.8,0C742.6,85.4,745.7,89,746.1,88.9z"/>
		<path class="st3" d="M753.5,89.5c0.3,0,0.5-4,0.6-6c-1.2,0.2-2.4,0.3-3.7,0.5C751.1,85.3,753.1,89.5,753.5,89.5z"/>
		<path class="st3" d="M758.6,82.6c-1.1,0.3-2.2,0.5-3.4,0.7c0.5,1.9,1.2,4.8,1.5,4.9C757.1,88.3,758.1,84.6,758.6,82.6z"/>
		<path class="st3" d="M761.3,87.9c0.4,0.1,1.3-4.8,1.6-6.4c-1.2,0.4-2.4,0.7-3.7,1C759.8,84.2,761,87.8,761.3,87.9z"/>
		<path class="st3" d="M771.3,84.6c0.3-0.1-0.2-4.6-0.4-6.4c-1.1,0.6-2.3,1.1-3.4,1.6C768.4,81.1,770.9,84.7,771.3,84.6z"/>
		<path class="st3" d="M766.4,86.7c0.4,0,0.6-5.4,0.6-6.8c-1.2,0.5-2.4,0.9-3.7,1.3C764,82.7,766,86.7,766.4,86.7z"/>
		<path class="st3" d="M774.2,76.5c0,0,0.9,0.9,1.1,1.3c-1.4,1.5-3.4,3.6-3.6,3.4c-0.2-0.2,0.2-1.9,0.6-3.6L774.2,76.5z"/>
		<g>
			<path class="st0" d="M788.7,93.4c0,0,1.7,3.5,1.8,4.2c0.1,0.8,0.2,3.1-0.8,3.1s-3.4,1.2-3.4,1.2L788.7,93.4z"/>
			<path class="st1" d="M763.6,91.9c-4,1.1-5.5,4.3-3.3,7c2.2,2.8,9.2,6.9,14.5,6.6s11.7-2.3,13.6-6.2c1.3-2.4,0.8-4.1,0.3-6.1
				c0.3-1-0.5-2.7-0.8-3.6c-1.1-2.3-5.3-3-5.9-3.2s-2.5,0.3-1.5,1.8c1.1,1.5,2.7,1.5,3,3.2c0.4,1.8-0.6,4-2.7,4.2
				c-2.1,0.2-3.8-1.1-6.4-3.2s-1-4.8-5.4-5.4C764.2,86.5,763.6,91.9,763.6,91.9z"/>
			<path class="st0" d="M763.9,90.8c-0.3,1.5,2,3.7,5.7,6.4c-3.1-1.7-6.9-4-6.6-5.2L763.9,90.8z"/>
			<path class="st0" d="M779.6,99.5c2.6,0.7,4.7-0.1,6.5-2.4C784.1,98.9,781.9,99.8,779.6,99.5z"/>
			<path class="st0" d="M788.7,93.3c-0.2,0.7-0.4,1.2-0.8,1.6c0.5-0.1,0.8-0.6,1-1L788.7,93.3z"/>
			<path class="st0" d="M771.8,100.7c0,0,1.9-0.3,2,0.9s-1.6,2.1-2.9,1.8s-3-0.6-3.1-1.4s1.2-1,1.2-1s-0.7,0.5-0.7,1s2,1.1,3,1.2
				s1.8-0.6,1.9-1.5C773.3,100.8,771.8,100.7,771.8,100.7z"/>
			<path class="st0" d="M785,89.1c0,0-0.7-0.3-0.4-0.7c0.2-0.4,0.9-0.3,1.3,0s0.8,0.8,0.7,1c-0.1,0.3-0.6,0.1-0.6,0.1s0.3,0,0.4-0.2
				s-0.4-0.7-0.7-0.9c-0.3-0.2-0.7-0.2-0.9,0.1S785,89.1,785,89.1z"/>
			<path class="st5" d="M781.3,88.2c-0.5-0.5-1-1.1-1.1-1.1c-0.2,0.3-0.2,0.7,0.2,1.2c1.1,1.5,2.7,1.5,3,3.2
				c0.3,1.4-0.3,3.2-1.6,3.9l0,0c0,0,2.6-1.3,3.7-2.1c1.1-0.8-0.1-2.3-0.7-3.4C784.3,89,781.9,88.8,781.3,88.2z"/>
			<path class="st3" d="M790.3,98.9c0,1.3-0.5,1.8-1.1,1.5C789.7,100.4,790.2,99.8,790.3,98.9z"/>
			<path class="st3" d="M790,97c0.4,0.3,0.4,0.6,0.4,1.2C790.4,97.7,790.2,97.4,790,97z"/>
		</g>
	</g>
	<g>
		<path class="st0" d="M529.3,194.4c6.5-13.5-7.4-18-6.5-41.4c0.6-20.4,12.5-23.3,2.4-39.7c4.5,2.3,20.8,18.5,20.5,36.7
			C545.5,168.4,531.8,191.5,529.3,194.4z"/>
		<path class="st3" d="M531.7,128.3c1-0.3,3.8-0.5,5.1-0.6c-0.5-0.7-0.9-1.3-1.4-1.9C533.8,126.6,531.7,127.8,531.7,128.3z"/>
		<path class="st3" d="M529,121c0.5-0.2,1.4-0.3,2.3-0.4c-0.3-0.3-0.6-0.6-0.9-0.9C529.6,120.2,529,120.7,529,121z"/>
		<path class="st3" d="M534,176.8c0.8-0.1,2.4,0.2,3.8,0.4c0.3-0.7,0.6-1.4,0.9-2.1C536.9,175.5,534.2,176.2,534,176.8z"/>
		<path class="st3" d="M533.9,132.3c1-0.4,3.3-0.9,5-1.2c-0.4-0.7-0.8-1.4-1.3-2.1C535.9,130.2,533.8,131.7,533.9,132.3z"/>
		<path class="st3" d="M534.3,137.7c1.4-0.6,5.3-1.3,7.2-1.6c-0.5-1-0.9-2.1-1.4-3C537.8,134.5,534.2,136.9,534.3,137.7z"/>
		<path class="st3" d="M535.9,141c1.5-0.3,5.5-0.1,7.3,0c-0.3-1.1-0.7-2.1-1-3.2C539.6,138.7,535.9,140.2,535.9,141z"/>
		<path class="st3" d="M538.1,150.7c1.3-0.2,4.5,0.1,6.5,0.3c0-0.1,0-0.3,0-0.4c0-0.9,0-1.8-0.1-2.7
			C541.9,148.6,538.2,149.9,538.1,150.7z"/>
		<path class="st3" d="M538.9,160.3c1-0.1,2.8,0,4.5,0.1c0.2-0.8,0.3-1.7,0.5-2.5C541.6,158.7,539,159.6,538.9,160.3z"/>
		<path class="st3" d="M538.9,144.3c0.4,0.9,2.8,1.1,5.3,1.2c-0.2-1.1-0.1-1.4-0.6-2.5C541.7,143.7,540.4,144.2,538.9,144.3z"/>
		<path class="st3" d="M536.6,153.4c0.2,0.9,5.2,2.3,7.6,2.9c0.2-1.2,0.3-2.4,0.3-3.6C543,152.9,538.3,153.6,536.6,153.4z"/>
		<path class="st3" d="M525.8,169.7c0.3,0.9,0.6,1.9,0.9,2.7c1.5-0.9,4.3-2.4,5.5-2.7C531.8,169.1,528.1,169.4,525.8,169.7z"/>
		<path class="st3" d="M523.9,158.6c0.1,1.1,0.2,2.3,0.3,3.3c1.3-0.9,4-2.7,5.2-3.1C528.9,158.1,526.1,158.4,523.9,158.6z"/>
		<path class="st3" d="M523.9,154.6c0,0.6,0,1.2,0,1.8c1.5-0.4,3.9-1.1,4.9-1.2C528.6,154.7,525.9,154.6,523.9,154.6z"/>
		<path class="st3" d="M524.8,145.2c-0.2,1-0.4,2.1-0.5,3.2c1.9-0.7,5.3-1.9,6.7-2C530.7,145.7,527.4,145.3,524.8,145.2z"/>
		<path class="st3" d="M531.1,163.5c-1.3,0.4-4.5,0.8-6.5,1c0.2,1.1,0.4,2.1,0.7,3.1C527.6,166.4,531.1,164.4,531.1,163.5z"/>
		<path class="st3" d="M532,173.8c-0.9,0.3-2.8,0.6-4.4,0.7c0.3,0.7,0.6,1.3,0.9,1.9C530.2,175.5,532,174.4,532,173.8z"/>
		<path class="st3" d="M533.4,178.3c-0.7,0.3-2.3,0.7-3.5,1c0.3,0.5,0.5,1,0.8,1.5C531.9,179.9,533.4,178.7,533.4,178.3z"/>
		<path class="st3" d="M531.5,151.2c-1.6,0-5.2-0.8-7.4-1.3c-0.1,1.1-0.2,2.2-0.2,3.4c0,0.1,0,0.1,0,0.2
			C526.8,153,531.3,152.1,531.5,151.2z"/>
		<path class="st3" d="M532,135.9c-0.9,0-2.7-0.4-4.2-0.7c-0.3,0.7-0.5,1.4-0.8,2.2C529.1,137.1,531.9,136.5,532,135.9z"/>
		<path class="st3" d="M526.1,140.2c-0.3,0.9-0.6,1.9-0.8,2.9c1.3-0.9,3.7-2.6,4.8-3.1C529.8,139.6,527.9,139.9,526.1,140.2z"/>
		<path class="st3" d="M536.6,162.6c0.1,0.7,3.3,1.7,5.8,2.4c0.3-1,0.5-1.9,0.8-2.9C541,162.4,537.9,162.7,536.6,162.6z"/>
		<path class="st3" d="M535.6,167.1c0.1,0.7,2.9,1.8,5.3,2.7c0.3-0.9,0.6-1.8,0.9-2.7C539.7,167.2,536.8,167.3,535.6,167.1z"/>
		<path class="st3" d="M539.5,173.2c0.2-0.6,0.5-1.2,0.7-1.9c-1.5-0.1-3.3-0.3-4.2-0.6C536.1,171.3,537.9,172.3,539.5,173.2z"/>
		<path class="st3" d="M536.7,179.7c0.2-0.3,0.3-0.6,0.5-1c-0.8-0.1-1.8-0.2-2.2-0.3C534.9,178.7,535.8,179.2,536.7,179.7z"/>
		<path class="st3" d="M535.3,182.5c0.2-0.4,0.4-0.7,0.6-1.1c-0.9-0.1-2.2-0.2-2.7-0.3C533.1,181.4,534.3,182,535.3,182.5z"/>
		<path class="st3" d="M534.1,184.7c0.1-0.2,0.3-0.4,0.4-0.7c-0.6-0.1-1.1-0.1-1.4-0.2C533,184,533.5,184.3,534.1,184.7z"/>
		<path class="st3" d="M534.5,124.5c-0.4-0.6-0.9-1.1-1.3-1.6c-1.1,0.3-2.5,0.8-3.1,0.8C530.3,124.2,533,124.4,534.5,124.5z"/>
	</g>
	<g>
		<path class="st3" d="M474.1,184.1c0.5-8-5.2-21.2-5-27.4s3.6-17.2,6.1-20.6c-0.7,6.3,4.4,24.4,4.1,30.8S477,180.7,474.1,184.1z"/>
		<path class="st1" d="M478,155.9c-2.9-2-6.4-2.2-8.7-0.2l-0.1,0.1c0,0.3,0,0.6,0,0.8c-0.1,2.7,1,6.8,2.1,11.1
			c2.6,1.9,5.7,2.3,8,0.9c0-0.6,0.1-1.2,0.1-1.8C479.5,164.5,478.8,160.4,478,155.9z"/>
		<path class="st0" d="M475.1,158.9c-0.3-1.1-1.1-1.6-1.8-1.4s-1.2,1.1-0.9,2.1c0.3,1,1.4,0.8,1.8,2s-0.6,2.1-0.4,3.1
			s1.1,1.6,1.8,1.4s1.2-1.1,0.9-2.1c-0.3-1-1.5-1.3-1.9-2.4C474.3,160.6,475.4,160,475.1,158.9z"/>
		<path class="st6" d="M474.1,184.1c0.5-8-5.1-21.4-4.9-27.6s3.6-17.2,6.1-20.6c-0.7,6.3,4.4,24.4,4.1,30.8S476.9,180.8,474.1,184.1
			z"/>
	</g>
	<g>
		<path class="st3" d="M656,110.2c-16.6-4-19.1-16-19.1-16s10.6-7.1,26.1-4.4s26.6,13.4,26.6,13.4S672.5,114.2,656,110.2z"/>
		<g>
			
				<ellipse transform="matrix(0.2418 -0.9703 0.9703 0.2418 404.0614 717.6705)" class="st1" cx="661.3" cy="100.3" rx="10.5" ry="9.2"/>
			<path class="st0" d="M659.4,111.3c-0.8-7.6,0.6-14.8,3.5-21.8C664.3,96.9,662.8,104,659.4,111.3z"/>
		</g>
		<path class="st0" d="M712.5,115.8c-5.1-0.3-20.4-11.6-22-12.7s-11.4-10.8-25.8-13.3c-15.3-2.6-26.6,3.1-28.9,4s-18.8,7-27.1,4.2
			c5.9,3.6,16.7,0.6,27.4-3c1.4,3.2,6.4,12.4,20.4,15.8c14.6,3.5,29.1-4.2,33.2-6.6C697.3,109.9,704.8,115.7,712.5,115.8z
			 M656.9,109.8c-16.2-3.8-19.6-15.4-19.6-15.4s11-6.8,26.2-4.2c15.1,2.6,25.5,13,25.5,13S673,113.6,656.9,109.8z"/>
	</g>
	<g>
		<path class="st3" d="M347.7,94.1c-0.2-2.2,18-4.2,22.4-3.5c6.3,1.1,16,7.1,26.1,10.7c0,0-9.4,7.6-24.7,6.4
			C356.3,106.5,347.7,94.1,347.7,94.1z"/>
		<g>
			<path class="st1" d="M386.6,101.6c0.6-1.5,0.6-3,0.3-4.5c-4.7-2.6-8.9-4.8-12.3-5.7c-0.6-0.1-1.3-0.3-2.2-0.3
				c-1.4,0.9-2.5,2.2-3.1,3.8c-1.7,4.3,0.9,9.3,5.6,11.2C379.7,107.9,384.9,105.9,386.6,101.6z"/>
			<ellipse class="st0" cx="379.6" cy="99.2" rx="5.9" ry="5.3"/>
		</g>
		<path class="st0" d="M371.3,90c-8-1.6-21.4,1.9-24,3.5c-8.5-8.7-13.2-17.8-26-18.7c17.1,2.4,27.8,28.9,44.1,32.5
			c14.3,3.2,24.1-1.4,31.3-6.3C393.4,101.6,382.4,92.2,371.3,90z M369.5,107c-8.7-1-13.4-3.8-21.7-12.9c3.4-3.1,16.9-3.4,24.2-2.3
			c7.3,1.1,21.7,10,23.5,9.6C384.1,107.5,378.2,108,369.5,107z"/>
		<path class="st0" d="M348.7,93.5c-0.6,0.4-0.6,0.9-0.2,1.1c0.4,0.2,0.9,0.3,1,0.9c0.2,0.6,0.8,1.2,0.8,1.2l-2.9-2.7L348.7,93.5z"
			/>
		<path class="st0" d="M393.7,100.9c0.8,0.3,0.7,0.9,0,1.4l2.1-0.9L393.7,100.9z"/>
	</g>
	<g>
		
			<ellipse transform="matrix(0.3162 -0.9487 0.9487 0.3162 116.8461 490.5172)" class="st0" cx="398.7" cy="164.2" rx="14.7" ry="14.7"/>
		
			<ellipse transform="matrix(0.3162 -0.9487 0.9487 0.3162 116.0298 490.3848)" class="st3" cx="398.2" cy="164.7" rx="14.2" ry="14.2"/>
		<g>
			
				<ellipse transform="matrix(0.7621 -0.6475 0.6475 0.7621 -7.1413 299.1548)" class="st1" cx="403.5" cy="159.3" rx="6.7" ry="8.2"/>
			
				<ellipse transform="matrix(0.7399 -0.6727 0.6727 0.7399 -0.8865 313.3611)" class="st0" cx="404.8" cy="157.8" rx="2.8" ry="3.7"/>
		</g>
		<path class="st0" d="M386.7,173.1c0.3-0.9,0.9-2.5,1.5-2.9c0.8-0.6,2,0.2,2.6-0.1c0.5-0.3,1.9-3.5,2.2-4.1
			c0.5-0.4,2.1,0.1,3.3,0.6c0,0-1-0.5-1.5-0.6c0.1-0.4,1-1,1-1s-0.7,0.2-1.2,0.9c-0.4-0.1-0.7-0.3-1.4-0.2c0.1-0.5,1.9-2,1.9-2
			s-1.6,1-2.2,1.9s-1.2,3.4-2.4,4.1c-1.1,0.7-1.9-0.4-2.6,0.2c-0.6,0.5-1.2,2.2-1.4,2.9"/>
		<path class="st0" d="M395.1,177.9c0.3-1,1.8-0.9,2.1-1.5c0.3-0.6-0.7-4.2-0.8-4.8c0.2-0.4,0.6-0.7,1.2-1.1
			c-0.4,0.2-0.7,0.2-1.2,0.7c-0.2-0.5,0.3-2.8,0.3-2.8s-0.7,1.8-0.6,2.9c0.1,1.1,1.3,3.5,0.8,4.8s-1.8,0.5-2,1.5c0,0.2,0,0.6,0,0.9
			c0.1,0,0.2,0,0.3,0C395,178.3,395,178.1,395.1,177.9z"/>
		<path class="st0" d="M404.1,172.7c0.5-1,0.6-2.8,0.6-2.8s-0.5,2.3-0.8,2.7c-0.3-0.6-0.6-0.8-0.9-1.1c0.3-0.8,0.2-1.5,0.2-1.5
			s-0.1,1-0.4,1.3c-0.3-0.3-1.3-1-1.3-1c1,0.9,2.3,2,2.1,2.6c-0.4,0.6-2.5,3.3-2.5,3.9c0,0.5,0.7,1,1,1.6c0.1,0,0.2-0.1,0.3-0.1
			c-0.3-0.4-0.9-0.7-0.8-1.5C401.6,175.4,403.6,173.7,404.1,172.7z"/>
		<path class="st0" d="M410,171.3c-0.4-0.7-0.3-2.3-0.1-3.6c0,0-0.3,1.1-0.3,1.6c-0.3-0.5-1.1-0.8-1.1-0.8s0.6,0.3,1.1,1
			c0,0.4-0.1,0.8,0.1,1.4c-0.4-0.6-1.9-1.6-2.4-1.5c0.9,0.2,1.5,0.9,2.4,1.7c0.4,0.4,0.2,0.6,0.8,0.8c0-0.1,0.1-0.1,0.1-0.2
			C410.4,171.8,410.2,171.7,410,171.3z"/>
		<path class="st0" d="M391.1,162.8c0,0-2,1.2-2.5,1.2c0.3-0.6,0.2-1,0.2-1.4c-0.1,0.6-0.3,1.1-0.6,1.4c-0.5,0.1-3,0.3-4.2,0.6
			c0,0.1,0,0.2,0,0.4c1.1-0.7,3.6-0.5,4.6-0.8C389.7,164,391.1,162.8,391.1,162.8z"/>
		<path class="st0" d="M389.4,158.4c0,0-0.5-1.1-0.8-1.4c0.4-0.2,1.4-0.1,1.4-0.1s-0.7-0.3-1.5-0.1c-0.3-0.3-0.4-0.6-1-1
			c0.4-0.3,2.8-0.4,2.8-0.4s-1.8-0.2-2.8,0.1c-0.1,0.1-0.3,0.3-0.4,0.4c0,0,0.1,0,0.1-0.1C387.9,155.9,388.7,157.3,389.4,158.4z"/>
		<path class="st0" d="M384.4,161.3c-0.8,0.2-1.2,0.5-1.9,1.7c-0.5,0.8,0.7,0.9,0.7,0.9l1.2-1.3
			C384.3,162.6,385.2,161.2,384.4,161.3z"/>
		<path class="st2" d="M382.4,163.3c1-1.4,2.2-2.8,4.3-1.4c-2.1,0.1-3.1,2.4-2.6,4.9C383,165.5,381.9,164.2,382.4,163.3z"/>
	</g>
	<g>
		<path class="st0" d="M336.8,131.4c3,2,6.5,3.2,11.4,3.5l-9.1,1.2L336.8,131.4z"/>
		<path class="st0" d="M327.2,128.5c4.8,5.5,26.3,10.9,32.6,5.4C351.2,136.2,337.4,135.1,327.2,128.5z"/>
		<path class="st0" d="M306,119.1c16.6,0.7,23,8.8,39.3,17l-27.5-3.1C311.6,130.4,308.2,124.3,306,119.1z"/>
		<path class="st0" d="M296.5,96.2c6.1,7.8,7.2,16.5,8.1,30.9c0.8,13.5,19.8,28,37.5,28.5c17.9,0.5,29.6-8.3,32.2-12.4
			c2.9-4.6,2.9-13.5,9.4-13.8c-8.3-1.4-21,7.7-35.4,5.8c-14.3-1.8-37.4-4.8-41.1-15S305.1,106.7,296.5,96.2z"/>
		<g>
			<path class="st3" d="M313.2,120.9c0.9-0.3,4.2,0.6,4.9,1.4c-1.8,0.7-2.8,7-2.3,9C314.8,130.7,311.4,121.7,313.2,120.9z"/>
			<path class="st3" d="M319.4,122.9c0.6,0,3,1.2,3.7,2c-1.2,0.9-2.1,5.3-1.6,7.4C320.5,131.7,317.7,123.7,319.4,122.9z"/>
			<path class="st3" d="M324.7,125.9c0.6,0.2,2.7,1.7,3.5,2.3c-1.2,0.9-2,3.8-1.7,6.2C325.4,133.8,323.6,127.4,324.7,125.9z"/>
			<path class="st3" d="M330.2,129.3c0.7,0.4,1.6,1.1,2.7,1.6c-1.1,1-1.5,3.4-1.3,5.6C330.6,135.9,329.2,130.7,330.2,129.3z"/>
			<path class="st3" d="M336,132.5c1.3,0.7,1.5,0.8,2.5,1.1c-0.5,1-0.4,2.9-0.2,5.1C337.2,137.6,335.8,134.8,336,132.5z"/>
			<path class="st3" d="M341.9,134.7c0.8,0.4,1.1,0.4,1.8,0.6c-0.3,1.1-0.4,2.2-0.2,4.1C342.4,137.8,342.3,136.9,341.9,134.7z"/>
			<path class="st3" d="M354.5,153.2c-0.9,0.5-4.7,1.2-6.2,1.1c1.7-1.8,2.1-8.4,0.5-12.7C352,141.9,355.1,150.5,354.5,153.2z"/>
			<path class="st3" d="M363.4,149.9c-0.8,0.5-3.4,1.8-4.8,2.2c1.1-1.9-0.2-7.9-2.4-11.3C359.1,140.5,363.4,147.4,363.4,149.9z"/>
			<path class="st3" d="M371,145.8c-0.6,0.5-2.8,1.8-3.9,2.5c0.7-1.7-0.5-5.9-2.9-8.8C366.8,139.1,370.7,143.7,371,145.8z"/>
			<path class="st3" d="M375.5,138.6c-0.1,0.6-0.8,2.7-1.6,3.6c-0.1-1.5-1.6-3.7-4.4-4.8C371.1,136.2,374.5,137.2,375.5,138.6z"/>
			<path class="st3" d="M377.4,133.7c-0.2,0.6-0.4,1.4-0.7,2.1c-0.4-0.8-0.8-1.7-2.5-1.7C374.7,133.1,376.5,133.1,377.4,133.7z"/>
			<path class="st3" d="M306.9,120.3c0.8-0.5,3.9-0.3,4.7,0.2c-1.5,1-1.1,7-0.3,8.7C310.3,128.7,305.5,121.4,306.9,120.3z"/>
		</g>
		<g>
			<path class="st0" d="M312,185.7c-0.3,9,4,13.6,8.1,15.1s2.7,4.5,2,5.4c-0.7,0.9-0.4,2.8,0.6,4.1c1.2,1.4,0.6,4.5-1.2,4.4
				c-1.4,0-3.1-2.9-1.3-4.6c1-0.9,1.8-3.1-0.2-4.9c-1.3-1.2-15.4-0.6-16.4-3.2C303.1,201.1,312.5,179.8,312,185.7z"/>
			<path class="st1" d="M328.1,141.3c0,0-6.1-4.2-10.3-6.2c-4.2-2-14.6-0.9-22.8,15.2c-8.2,16.1-5.7,31.4-4.5,36.6
				c1.2,5.2,6.1,10.8,11.8,14.4c5.2,3.3,19.6,2.7,17.2,0.7c-3.4-2.7-8.6-6-7.2-16.4c1.6-11.8,11.2-20.6,15.3-24.6
				c4-3.9,9.3-6,12-6.6c3,0.1,4.4,0.6,6.3-0.3c1.9-0.9,2.3-7.7-5-10C333.7,141.8,328.1,141.3,328.1,141.3z"/>
			<path class="st0" d="M331.5,141.7c-1.9-0.3-2.4-0.1-3.2,0.3c-13.8,6.9-26.2,22.7-25.8,41.5c0,0.4-0.3,0.1-0.4-0.1
				c-3-18.3,10.6-36.9,21.9-42.9c0.6-1.8-0.3-2.2-1.9-3.1L331.5,141.7z"/>
			<path class="st0" d="M292.6,171.2c0,0-0.1-2.9,2-2.7s3.3,2.9,2.6,4.9c-0.7,1.9-1.6,4.2-3.1,4.1c-1.4-0.1-1.6-2-1.6-2
				s0.7,1.2,1.6,1.3c0.9,0.1,2.3-2.6,2.6-4.1c0.3-1.5-0.7-2.9-2.2-3.3C293.2,169,292.6,171.2,292.6,171.2z"/>
			<path class="st7" d="M322,210.6c0.3-0.2,1,0.4,0.8,1.5C322.4,211.2,322.3,210.8,322,210.6z"/>
			<path class="st7" d="M321.7,202.5c0.3-0.2,1,0.4,0.8,1.5C322.1,203.1,322,202.7,321.7,202.5z"/>
		</g>
	</g>
	<g id="mustache">
		<path class="st1" d="M497.1,74.5c7.1,4.1,14.1,4.2,21-0.7c0,0,11.4,13.3,10.7,15.2c-0.7,1.9-16.3,4.5-22.2,4.2s-20.4-1.6-22.5-4.1
			L497.1,74.5z"/>
		<path class="st0" d="M497.3,92.3c7.5,1.1,14.3,1.1,19.3,0.2C511,95,503.5,94.9,497.3,92.3z"/>
		<path class="st0" d="M495.1,85.2c0,0,8.3-2.1,9.3-2s1.8,1.4,3,1.4s3.1-1.4,4-1.6s9,1.4,9,1.4s-6.8-0.6-8.1-0.4s-3.4,2-4.6,1.9
			s-2.7-1.4-3.7-1.7C503,84.1,495.1,85.2,495.1,85.2z"/>
		<path class="st0" d="M503.2,65.5c3.2,2.4,3.2,13.7,0.1,14.8c-2.2,0.8-17.7,8.5-24.7,15.1s-25.3,23.7-42.2,9.1
			c-6.4-7-1.9-12.2-0.4-14c0.2,3.5,2.8,5.6,4.6,6.3c4.2,1.5,10.8-2.1,16.9-4.4c6-2.3,11.3-10.6,13.4-13.5s7.6-11.5,13.4-14.4
			C490.4,61.3,501,63.9,503.2,65.5z"/>
		<path class="st0" d="M513,63.7c-2.9,2.8-1.5,15,1.6,15.7c2.3,0.5,10.6,7.8,15.3,13.8c4.7,6,10.8,16.8,21.2,16.9
			c9.7,0,18-1.6,20.4-6c-1.1,0.6-8.3-2.3-13.7-6.5c-5-3.8-11.2-13.8-13.6-17.2c-2.5-3.5-9-13.6-15.1-15.8
			C522.5,62.2,514.9,61.9,513,63.7z"/>
		<path class="st2" d="M502.4,64.7c2,0.9,7.9,10.8-0.1,16.6C506.1,75.8,505.5,69.5,502.4,64.7z"/>
		<path class="st2" d="M513.3,63.2c-1.9,1.1-6.9,12.3,1.7,17C510.5,75.3,510.8,68.3,513.3,63.2z"/>
		<path class="st2" d="M498.4,62.3c2.8,1.6,2.7,17.5-1.9,22.8C498.2,80.9,500.8,68.3,498.4,62.3z"/>
		<path class="st2" d="M519.2,61.9c-2.7,1.7-2,18.7,2.8,23.9C520.1,81.6,517,67.9,519.2,61.9z"/>
		<path class="st2" d="M492.5,64.6c2.7,1.3,5.7,12.1,0.5,18.2C494.8,78.6,495.8,70,492.5,64.6z"/>
		<path class="st2" d="M524.5,70.4c-2,2.2-2.2,14.9,5,18.6C526.2,85.7,523.4,76.6,524.5,70.4z"/>
		<path class="st2" d="M491.3,73.5c1.1,6.2,1.5,11-3.6,15.6C490.6,85.1,490.9,81.3,491.3,73.5z"/>
		<path class="st2" d="M554.1,100.6c5,3.9,8.9,6.6,15.3,4.3C564.6,105.5,561.1,104,554.1,100.6z"/>
		<path class="st2" d="M470.1,89.9c-2.9,5.2-7.2,10.8-14,10.1C461,99.5,464.4,96.1,470.1,89.9z"/>
		<path class="st2" d="M487.5,74.9c-0.4,5.3-2.9,12.6-7.8,15.5C483.2,86.6,485.2,81.4,487.5,74.9z"/>
		<path class="st2" d="M502.9,69.3c0.6,3,0.5,7.5-1.5,9.7C502.6,76.5,502.8,73.3,502.9,69.3z"/>
		<path class="st2" d="M515.1,66.2c-1.3,2.8-0.8,7.5,0.7,10.1C515.2,73.5,514.3,70.1,515.1,66.2z"/>
		<path class="st2" d="M478.3,76.1c-0.7,3.8-3.5,12.4-5.9,14.2C474.1,88,476.6,80.2,478.3,76.1z"/>
		<path class="st2" d="M458.8,101.3c-3.3,2.1-9.1,4.1-11.3,3.6C449.4,104.5,454.7,101.9,458.8,101.3z"/>
		<path class="st2" d="M463.3,92.5c-3.3,1.8-10.7,7.8-15.6,6.4C451,98.6,460.3,92.9,463.3,92.5z"/>
		<path class="st2" d="M541.6,88.8c2.2,4.9,7.2,9.2,12.3,8.8C550.6,96.7,543.6,92,541.6,88.8z"/>
		<path class="st2" d="M521.2,62.4c-0.5,2.1-2,7.8,0.1,9.9C521.1,70.5,521.4,65.3,521.2,62.4z"/>
		<path class="st2" d="M537.9,94.8c0.6,2.4,1.6,6.7,5.3,8.2C541.8,101.7,539.8,98,537.9,94.8z"/>
		<path class="st2" d="M456.9,105.1c-2,1.4-10.5,5.1-14.2,1C446.5,108.1,453.3,106.2,456.9,105.1z"/>
		<path class="st2" d="M449.3,102.7c-7.1,1.6-15-2.1-13.4-10.4C436.1,98.3,441.6,102.9,449.3,102.7z"/>
		<path class="st2" d="M532.4,74.6c2.7,7.8,2,17.9,9,19.6C535.7,90.7,536.4,81.3,532.4,74.6z"/>
		<path class="st2" d="M527.3,68.2c3.3,5.4,0.7,10.1,2,14.4C526.2,78.8,529.1,75.5,527.3,68.2z"/>
		<path class="st2" d="M543.4,97.5c3.3,5.4,5.4,8,12.2,8C550.9,104.4,548.9,103,543.4,97.5z"/>
		<path class="st2" d="M487.7,62.2c0.4,6.6-3.1,15.8-8,21.9C482.1,80.1,485.9,70.5,487.7,62.2z"/>
		<path class="st2" d="M485.4,63.4c-10.1,4.9-16.1,23.7-19.3,27.5C471.8,87.7,472.4,75.8,485.4,63.4z"/>
		<path class="st2" d="M526.3,63.1C537,66.6,542,87.9,546.5,90C540.5,89.7,539.9,74,526.3,63.1z"/>
		<path class="st2" d="M477.6,86.3c-5.4,10.5-8.3,17.1-14.6,20.7C468.7,105.1,474.2,99.8,477.6,86.3z"/>
		<path class="st2" d="M531.8,83c2.7,11.5,4.9,20.1,9.1,23.7C535.9,103.4,532.5,97,531.8,83z"/>
	</g>
	<g id="nose">
		<path class="st2" d="M530.4,61.5c-1.7-2.8-5.2-8.2-7-10.8C526.5,53.3,529.3,58.2,530.4,61.5z"/>
		<path class="st2" d="M484.7,63.1c1.6-2.9,5.1-8.7,6.7-11.4C488.5,54.4,485.6,59.9,484.7,63.1z"/>
		<path class="st2" d="M519.6,48.3c1.8,1.3,4,3.4,4.2,4.6c0.1,1.2-0.3,3.2-1,4.1s-4.3-2-5.8-1.2s-6.6,6.9-7.7,7.8s-3.8,0.7-4.9-0.1
			c-1.1-0.9-7.6-6.7-8.2-8.8s1-11.1,1.3-12.5c0.2-1.3,3.2-11.2,3.2-11.2s-3.8,8.2-4.4,10.7s-2,11.5-1.6,13.2s8.2,8.9,9.5,9.9
			s4.6,1.4,5.9,0.1c1.3-1.3,6.2-6.9,7-8.1s5.1,2.1,6.1,1.4c1-0.7,1.5-4.2,1.2-5.7C524.2,51,521.1,48.1,519.6,48.3z"/>
		<path class="st2" d="M498,58.8c-0.9-1.2-6.4,2.1-7.4,1.4c-1-0.7-1.4-4.1-1.2-5.7c0.3-1.5,4.3-5.6,5.7-5.4c-1.8,1.3-5,4.3-5.1,5.6
			s0.3,3.4,1,4.4s4.6-2,6.1-1.1"/>
	</g>
	<g id="eyebrows">
		<path class="st0" d="M559.3,8.2C559.2,5.1,545.7,2.8,542,2s-15.6,0.5-17.4,1.2s-3.9,7-3.9,7C533.1,7.6,544.3,5.3,559.3,8.2z"/>
		<path class="st2" d="M524.9,2.8c-2.4,1.2-3.7,5.5-4.4,7.5C522.1,9,522.8,5.2,524.9,2.8z"/>
		<path class="st2" d="M530,2.9c-2.4,1.2-5.3,4.8-6.3,6.7C525.2,7.8,527.9,5.3,530,2.9z"/>
		<path class="st2" d="M534.6,1.6c-2.4,1.2-5.3,4.6-6.5,6.5C529.6,6.7,532.5,4,534.6,1.6z"/>
		<path class="st2" d="M538.3,3.4c-2.4,1.2-4.9,3.4-7.2,4.9C533.3,7.3,536,5.6,538.3,3.4z"/>
		<path class="st2" d="M544.2,2.8c-2.9-0.1-3.7,1-6.2,3.6C541.3,4,541.8,3.5,544.2,2.8z"/>
		<path class="st2" d="M551.7,4.8c-2.2-0.6-5.5,0.5-8.3,0.9C546.3,5.9,549.2,4.8,551.7,4.8z"/>
		<g>
			<path class="st0" d="M459,10.3c-0.1-3.1,13.3-6,17-6.9s15.6-0.2,17.5,0.4c1.8,0.6,4.2,6.8,4.2,6.8C485.1,8.5,473.8,6.7,459,10.3z
				"/>
			<path class="st2" d="M497.8,10.7c-1.7-1.3-2.6-5-4.8-7.3C495.5,4.5,497,8.7,497.8,10.7"/>
			<path class="st2" d="M494.6,10.1C493,8.4,490.2,6,488,3.7C490.4,4.8,493.5,8.3,494.6,10.1"/>
			<path class="st2" d="M490.2,8.8c-1.7-1.3-4.6-3.9-6.8-6.2C485.8,3.7,488.9,7,490.2,8.8"/>
			<path class="st2" d="M487.1,9.2c-2.3-1-5-2.4-7.4-4.6C482.2,5.7,484.8,7.7,487.1,9.2"/>
			<path class="st2" d="M480.1,7.6c-3.3-2.3-3.9-2.7-6.3-3.4C476.7,3.9,477.5,5,480.1,7.6"/>
			<path class="st2" d="M474.7,7.1c-2.8,0.4-5.8-0.6-8.3-0.5C468.5,5.9,471.9,6.8,474.7,7.1"/>
		</g>
	</g>
	<g id="eyeglasses">
		<path class="st2" d="M523.8,22.7c0,0-2,2.5-2,3.7s2.5,2.9,2.5,2.9s-1.1-1.5-1.3-2.9C522.8,25.1,523.8,22.7,523.8,22.7z"/>
		<path class="st2" d="M490.1,29.1c0,0,1.7-1.2,1.9-2.6c0.2-1.4-1.2-3.4-1.2-3.4s2.7,2.4,2.5,3.7C493.3,28.2,490.1,29.1,490.1,29.1z
			"/>
		<path class="st2" d="M527,26.5c0,0,0.5-1.7,2.3-1.9s7.8,1.7,11.5,1.3c3.5-0.4,9.4-2.6,9.4-2.6c-0.5,1.1-3.9,3.6-9,4.2
			c-4.4,0.5-10.6-1.9-11.9-1.9C528,25.5,527,26.5,527,26.5z"/>
		<path class="st2" d="M488.7,26.8c0,0-0.6-1.7-2.5-1.7s-6.8,3-11,2.6c-3.8-0.3-8.8-1.4-8.8-1.4s4.1,2.3,8.2,2.8
			c4.4,0.5,10.3-2.9,11.6-3C487.7,26,488.7,26.8,488.7,26.8z"/>
		<path class="st2" d="M488,30.3c-1.8,2.7-4.6,4.5-6.5,5C484.1,35.6,487.1,32.9,488,30.3z"/>
		<path class="st2" d="M465.9,26.5c-1.2,1-2.1,1.6-2.2,2.6C463.5,27.8,464.7,27.1,465.9,26.5z"/>
		<path class="st2" d="M551.5,23.7c1.1,1.1,1.8,1.9,1.9,2.9C553.7,25.3,552.6,24.4,551.5,23.7z"/>
		<path class="st2" d="M526.4,29.7c1.8,2.7,5.5,4.8,7.4,5.2C531.2,35.2,527.3,32.4,526.4,29.7z"/>
		<path class="st2" d="M461.8,20.8c0.9,3.1,2.6,4.4,4.3,5.3C463.5,25.6,461.8,23.6,461.8,20.8z"/>
		<path class="st2" d="M554.3,17.2c-0.2,3.2-1.6,4.8-3.1,6.1C553.6,22.2,554.8,19.9,554.3,17.2z"/>
		<path class="st2" d="M569,11.5c-0.7-0.6-8.2-2.2-14.6-2.2c-5,0-31-1.5-37.9,2.9c-1.9,1.2-5.2,2.3-8.4,2.4H508
			c-3.2-0.1-6.5-1.2-8.4-2.4c-6.9-4.4-32.9-2.9-37.9-2.9c-6.4,0-13.9,1.6-14.6,2.2s-0.9,5.7,0,6.4s4.8,0,6.4,3.2s3.2,9.6,6.4,12.8
			c3.2,3.2,23.7,3.2,28.7,3.2c4.8,0,9.6,0,12.8-8c2.2-5.5,3.7-7.8,6.7-7.8s4.5,2.3,6.7,7.8c3.2,8,8,8,12.8,8c5,0,25.5,0,28.7-3.2
			s4.8-9.6,6.4-12.8c1.6-3.2,5.5-2.5,6.4-3.2C569.9,17.1,569.7,12.1,569,11.5z M494.8,34.3c-3.6,2.3-29,1.1-33.3-2.5
			s-9.1-17.1-1.9-19.4c11.2-3.2,38.6-2.2,40,4C501.7,26.5,498.4,32,494.8,34.3z M554.6,31.8c-4.3,3.6-29.7,4.8-33.3,2.5
			c-3.6-2.4-6.9-7.8-4.7-17.8c1.4-6.2,28.8-7.2,40-4C563.8,14.7,558.9,28.2,554.6,31.8z"/>
	</g>
</g>
</svg>
